/* XPM */
static char *result[] = {
/* columns rows colors chars-per-pixel */
"100 100 33 1 ",
"  c #3E79AE",
". c #3F7BB0",
"X c #407BAF",
"o c #417DB1",
"O c #4582B4",
"+ c #4886B7",
"@ c #4988B7",
"# c #4987B8",
"$ c #4C8BBA",
"% c #4F90BE",
"& c #5091BF",
"* c #5395C2",
"= c #5699C5",
"- c #589CC7",
"; c #5A9EC9",
": c #5DA3CC",
"> c #60A7CF",
", c #61A8CF",
"< c #60A7D0",
"1 c #63ABD3",
"2 c #66B0D7",
"3 c #68B2D7",
"4 c #67B2D8",
"5 c #69B5DA",
"6 c #6DB9DE",
"7 c #6FBCE1",
"8 c #70BEE2",
"9 c #73C2E5",
"0 c #76C6E9",
"q c #77C8EB",
"w c #79CCED",
"e c #7CCFF0",
"r c #7ED3F4",
/* pixels */
"            o%:145568886531<:;-**##OOOoo            o  o.ooOoO##$*=::1112266999977651;*O            ",
"            O%:11346686741::-*%##+Oooooo            ooo.oooO##$$*-:256656899000998751;%O            ",
"            @=:1144666651>:;=%$#OOooooX         o   oooooo##$&=;:26999790qqqwwq997641;%O            ",
"            &;123555667521:=*%#OooooooXX          XXooooo#$*=;:1570qqqqwwwwwew009974<;$Oo           ",
"          O$=:22455556651<;-*$#+oooooo .         ooXooOO+#&;<2467qerrrrrrrrrwq0009851-$Oo           ",
"         o@*;12255555662<:-=**#+oooo.             XX.ooo#$*:15680wrrrrrrrrrrwqqq09851-#+o.          ",
"         +$=;12566656751:;-==*#Oooo             o ooXooo#$*:1579errrrrrrrrrreqqq00961;&+o           ",
"        X+$*=,567665662:-*==*#Oooo  X             .X .oo#$*;<470rrrrrrrrrrrrewqq00981;&+.           ",
"        o+@*-<46766664>;**=**@+OoX                X   Xo+@&=:480rrrrrrrrrrrrreeq00961:*$@O          ",
"       XO+@%-157777641;*&*==&@Oo.                    XoO#$*=:269rrrrrrrrrrrrrrwq98661:=$@Oo.        ",
"       ooO@*;15789751:***==*$$+  .               X XXXoO+#**:160rrrrrrrrrrrrrrw986541:-$+OoX        ",
"      XoO+@*;1679974:=**&***$@+OX                 XXXoXOO@$*;18qrrrrrrrrrrrrrwq75211:;&$+OOo        ",
"    XXoOO#$*:3690961;=****&&$#+o                XXooXoOO+##&;18wrrrrrrrrrrrreq9631>;-*$#+OOO oo     ",
"    oooO+@&;1570086<;=***&&$$#+oX               XooooOOo+#$*;19wrrrrrrrrrrrrw9641>;=*#++OooooOo     ",
"oX  OO+##%=:57909841:;=*&*&$##+Oo               oOoOoOOo++$*:50rrrrrrrrrrrrw9741;-=*$#+oXooOOOOO    ",
"oOoO###$&*:489099651>;=&&$$$#++OoXo             oooOOoOO+#$-17qrrrrrrrrrrrw9711:=*$$#+oo.oXooO++o   ",
"#@$&&&*=:>3990009663,:&%$$$$@@#OOoXX        XoooOOoOOO+O#$=:49rrrrrrrrrrre9641;=*###+ooXXXooo++#++##",
"%**-;::>157999q099651;&$##$#@@#OOoXX        XoO++OO+O###$=:18wrrrrrrrrrre0841;=$#+OoooXXXXoooo+@##$$",
"=-:<1114699990qq9995,;&%@###$#$#OOoX      XooO##@@@@###$*;160wrrrrrrrrrr082<;=$@OOoooX  XXooo++@$%*=",
"><14556890900qww09651:&%$$$$$$$$++OoX  X  ooO+#$$$$#@@$*=:480rrrrrrrrrre72<;=$@OooXXo   XXooo+#$*=-:",
"46888690wwqqwweqq9661:*%&%%%&&&&%#@+oXXXooOO##&$$$#@$$$*-:360wrrrrrrrrq81>-%@+ooooXX    X XXo#$&=:11",
"8999880weewwwrwwq9962:-=*****==*&%#+OooooO#@#&*%&$####$$=:169wwrrrrrre94>=$+oooXXoo     XXXXo@%*;116",
"90000qwrrrrrreewq9962::--==;;:;=*&%#+OOO+#@$$**%$@++OO#@%=:58000qwwqw04:=*+OoXXXo  X       Xo@$=>147",
"9wwwwwerrrrrrrwq099651::;::::::;==&%@+++##$&&**&$+OoOO++$*:356889989961-$#OoooX  X         Xo+$=<148",
"90wwwerrrrrrrrwq9966511<::1>1>>:-=*%$##%$$&&$&$@+OoooOo+#*-<1446644461;&o                    X$=:157",
"80qwwerrrrrrrrq09966611<<1>1111>;==*%#%&*&&$$@+OOOoooooO+#*;><<111<11;=#+                   Xo$=;156",
"690wwrrrrrrrrr00876641>>::::,11>-=**%%%%$%###OOOoXoXooooO#$*-;:::;;;;=%+oo                  oo$*;146",
"580qerrrrrrrrw0986651>>::::>:::;=*&&%%##@@+OOooooXXXXX oO+$&**-;--*==$#OoX                  Xo#*;<44",
"6800wrrrrrrrrw987521:::::::;;=***%*%#++OOOOooXXXXXXXo ..o+$$&&*==*$**$oXX                   oo+*:122",
"6890wrrrrrrrwq9652::;=*=***=**&&%%%$++ooooo.XXXXX X  . oo+@$$**=**$%##oX                    oo#*>124",
"889wwrrrrrrrw9552:;=&&&%##$$&&&&%$%$++ooXooo XX  X X   oOO#@$%*%*$$$+oX                     Xo#->145",
"90qwerrrrrre9521::=*&%$@++#@@@###$##O+oooXX X X   X . ooOO#$$$*$$$$#+o                     XX+#->268",
"qqeerrrrrew074<<;==*%$@OOOOOOOOO##++oooXo   o . X    oooO+@$%$$%$$@+O.                      Xo%=<169",
"qweerrree00751<:-**$$@Ooo.oO.OoO+@++ooXoo  X . o o.o. oO+@@$$%$#$$@+o..                     o+%=:148",
"0eeeeewq087541:;=**$##Oo ooo oXXo+oo+ooo ..  oX   o. Oo+@$$%&&$$$@+OoX                    XXo+#*;<47",
"9wew0088776421:-=**$#+OoXXoo   OXo+++ooXo X  oo oooooO+#$****&&$@+OOO.o.                  Xo++%=:>15",
"8qq0077755541<:-=*$#+Ooooo . XXXoooOooooo. o X ooooOOO#$&*==*&&@@@+OOOOX                  Xo+#%=;:15",
"7909755554411<:-=*&$+Ooo  o    XooOOoooX o. .XoooXOO#@$&*-:;=*&@@@+OXOX                   Xo+#&-;:14",
"7997655541111<:;;**@+oooXX.  X  ooooooXX  Xo o.X o+##&*=;:::;*&#@@@OOOO                 XXXO+%*-;:14",
"899755521<::<:::;=*$Ooo o.oo. o oXooXXXXXo  X  oooO@**-:11>:;**$@@@OOOXO                XXoO@#&*;<16",
"70864421::--;:::;=*@+ooooO.o...oXX o XXo ooXo XooO#$=:11131:;=&$@@OO+O Xo                ooO+#&*;<46",
"9074211<;==--;;;;=*$+OooooOoo.ooX o o ooooooooooO##*;:25541:;-*#@OOOOOOX  O o       oXooooO+#%&=;<25",
"897541<;==**=---=*$$+OOOO+OOooXXo   oooooOOooooOO@&=1255411::-&+OOXOO O oO  o       XooXo+O+#&**-<16",
"885541:-*$*******&$@++++#$@+Ooo  o XooooOOOOOO+##*-:255211::-*#OXOXOXOXOO O o       oOoOO@@#%***;:15",
"866541;=$*$*$*$**$#+OO+#$%$#Ooo. oo.oooOOoOOO@$&*=:15621:::;=&+oO X  OooOO  o oo     XO+@@$&***-;:15",
"666641-**$$$*$$$$@OOoO+@$$$@Ooo o o  oooOOO++@$*=:14541::;;-*$+X   OOoOOoo Oo o     XO@@#%&**=-;:115",
"66751>-**$$$$@$$@#OoOO+#$$@@Oooooo   ooOOOoO+@&*;>1551:;;;-=*$+o OX  OOXO  OoOO.    OO+#%%**=--;:<16",
"66641:;-**$*$$$$@OOoOOO#@$$+OooX o oXooOOO+O+#&=:1342:;==**=*$+OOXOO OOOoO OooO.    O+@$&***--;;:145",
"66511::-**&&%$$$+OOoOOO++##+OoXXXoXXoo+####@#$*->111>;*&&&&&%$@OooXXooOooOOoOOOOOOOO+@#%&**=-;;:>156",
"6531:::=***&&%$@OOOOOOOO+O++OoXoXoXooo+##$#$$$*;><1<:**%%#$$##+ooooXoooOOOOOOOOOOOOO+$%&&**==;::1146",
"6521:::==***&$$+OOOOOOOOOOOOXoooXXoooO#$%%#$&*=:>11:;*&##$$$@+ooo.XXo.oo++OOOOOOOOO+@$&&***=;::>1166",
"641>:;===**&&$@+OOOOOOOOOoooOOoXooooo+$$%&*$*=;<111>=*%@##@@#OoXXo Xo.oO+@@@++OooOO@#$$&%&**-;:12466",
"541::;;=**&&$@+OOoooooOOooooOOOoooooo#%****==;>1411:=&$+OO+OOOooX oXoooO+@$@@OOOOo++$#$$$&&**;:15666",
"52::;;-=**&%@@OOoo.XoooooooOOoooXoooo+$*----;>1444>;*%#OOOo+ooo  Xo..ooO@$$$@@OOOO+#$$$&%$&&*->25666",
"611:-===*&%#++Ooooo oooooooooOoooXXoo+%*;;;::14541:=*&@++OoOooo. o  Xooo@$$$@OOOO+@$$$$%$%$%*;146666",
"51:;=**&&$#++OOooX X XXXoooOOooOoX oo+%-;;:>14651>-&$$@+OOOOoooooXoo ooO@%%@@+OO+@$&&$&&&%$&*;155677",
"61:;=**%$#+OOooo       o XXoXOoXooooO#*;::>12552:-&@++OOOOOOooooXX XXooO+$@+O++O+#&******&&*=:144688",
"51:;**%$@+Oooooo      X oXooXXOOOoOO+&=::114553<-&@+OooOOooooooXXXX ooooOOOOOOO@#&&==;;=***=;1135699",
"61:;**$$+OoooXoX         XO XOOO+OO#@&=;>155531;*$+o XoXooooXoX X  o  oooOOOO OO$*=-;:;====:>1124898",
"651;*$#+OooX  XX            XXOOO++@$*=;:1311<;=$+OooooXoXoo.Xoo XX oo XooOX OOO$*=:::::;;::11456898",
"611;**@#Oo                 oXoOO#@###**;::1,:-**$+o X ooo Xo ooXoo oo  O o O OOO$&=-::::::1125447998",
"41:-**$#o                  XXOOO+##@$&*-::::**%$+OOX o   XX . oooooo     o    OO$&*--:,,111255568997",
"51:;=*@+O                   XoOO++@@#&*=;:;*&$@+OO O  XX o  XoooOoOoo      OoOOO$%*--:,1124556669998",
"51:;=*@+o                   XooOOO@@$$&*;=**$@OOXOX o.o. Xo oooOOOooo   o   oOO@$%**-:,1355566890008",
"611;*$@O                        o@@#%%%&*&&%#+ooooXXXoo  oXo.ooO+Ooo X XXooooO++#&*==:123668990qwww9",
"74:;*%+O                        O+#$#$%&&$$@#oooooX X   .  o ooOOOOoooooXXXXoo+$&&**::,566900qwweee0",
"841:=$+.                        O@%#$$%%$##@ooXXoXXX oo     XoooO++OOooooOOoOO+$&&=;:,1569qwwrrrree0",
"961<;%O                         O%#@$%$$$@++oXXXXX  . . o .ooooO+++OOOOOOOoO++#&&*=::1560qrrrrrree00",
"862>=$Oo                        #%#%%%$%$#+oXXXXX  X  X  oXoooOO$$$$@@##@+++##%%*=::1259wrrrrrrrwq00",
"541<=@O.                      XX##&&**%$#@+oXX X  X XX X oooooO#$$&$$&&&$$@#&%&*=;:2369qrrrrrrre0087",
"511:*@oo                   Xooo#%%%***%$$#+oXXXXX  X. o..oooOOO#$&&&&&****&*-==-;>16680wrrrrrrrw0086",
"431:%#O                   XXo+#%&%*=-**%$$+oXXXXoX. o oooOOOO+#$$&&*&*;;;:::;::>126699qrrrrrrrrw0076",
"441;&@OX                  ooo#%*=*-;;-==*$+Ooo..XXXoooooO#@@#$@$*&*=;:::::::::11366890wrrrrrrrrrw085",
"551;*@OX               X Xoo#%=;;;::::;-*$+OooooXoooOoO#@$*$*$*$&==;:111>:>:>:1466780wwrrrrrrrrww087",
"651:*$O                 Xoo+#=;11<1111<>;*$#OoooooooO##$$%$**$@*&==;:111111>>11566880wrrrrrrrreew098",
"651:=$+X               XXo+#*;1544454441<=$@+Oooooo##$*%%%$$$$@$&**;:1:1::1:>12668990wrrrrrrrrewww09",
"841>=$OO            XXXXoO@$=169979987751:*@#OOO+oO$***$$$@@##+@%&*=;::::::;::146900qwrrrrrrrewwww09",
"651:=%+oX         o XXooO#&=>50qqqww000751=*$#+O####$***$$+OoOO+@%&*-;:;;==;;:>26990werrrrrrrw00q0q9",
"621;*%+OX X     X.X XooO+$*>39wrrrrreeq061:*$$@##O$*$*$#@+OOoooO#$$**==****=*=:16900wwewwwrww0999998",
"11:*&#+oo      X oooooO@&->38wrrrrrrrre074>=*$$@#*$$$*$+#Oo...ooO@$%%&%&%%%$&=:15890wwwww0wq09668764",
":==*$@OOo     . oooOO+$*;>280rrrrrrrrrwq73:=%$@@#%$##@+X        OO##@$$$$$@$$*-1589qwwq000098655411<",
"***$@+OoOXX    oooOO+%*:,380errrrrrrrre061;*$@#######+o         ooO++$$@@$$$$*-,5790qq0099963111>:;=",
"$%$@@+OOXXo o ooOOO@%=:1480errrrrrrrrrr82:*$@+++@++++o          .ooOO##$$$@@$*;1368900099851>::;-*&%",
"@@@@@+OooXo .OO++#$&*;1369wrrrrrrrrrrrq5:=$@OOOO+oo+oo          ..ooO+#@@$@@%=;13688900983>;**&&&$##",
"OOO+#+OOOoXooo+@#&*=:1469errrrrrrrrrrw71-%@+OOOOooOo              ooO++@$$$$*=;:246800084:=%$##$ ooo",
"...oO+OoXoOXOO@$*=;:1469wrrrrrrrrrrrr05:*$+OoOoOoooo               oo+@$$****=;:15890963>*%#@++O   .",
"    ooOooooOO+$*=::1360werrrrrrrrrrrw93;*$+OOoOooooo                o+#$$*****=;>6899861;%#+OooX    ",
"      XOooO+#$*=;:1168qwrrrrrrrrrrrrq81;&$@+OoooooXX                .+#$$*$***=;1690962:=#++ooX     ",
"        ooO##*;:<14570wrrrrrrrrrrrrrw81;*%#+OoooXoX               o oO#$&*=*&**:3799861;*#OOoX      ",
"         oO#$=:145689wrrrrrrrrrrrrre961;*&#+oo  XX                  o+#**=*&*=:15698851;*#+OXX      ",
"        ooO#&=:177890eerrrrrrrrrrrre061:-%##+o XX                  .o+#**=**=;156778641-&##O        ",
"         oo#$*:27800wwrrrrrrrrrrrrre084>=*#+ooo XX                  o+#&*=**;:26666874<-&#@o        ",
"         ooo#*:1790qwwwerrrrrrrrrrrw984>-*#+oooX                XXXXO+$*====:166666664<-&%OX        ",
"          ooO$;16800qq0wrrrrrrrrrreq9851:*$++ooo               XXXooO+%===;:15665666441;=%o         ",
"          ooO$-1570000werrrrrrrrrrw98661:*$@oooXXX            XXoooO+#%*=;:12666556532,-*+          ",
"           o+$;1579900qrrrrrrrrrre08641<;*@+ooooXX           XXoooooO+%*=::15665555322>=%o          ",
"             X*:56890qweeeweqqwqqq751::=&@+Ooooooo. X       oXoooooo+@$*-:<16666554421;*+o          ",
"              -146890qqwqq009999762:-*%$@+Oooo.oXXo o     o  XXoooo+#$*==:<26666553111=@o           ",
"            O%-1568990q00976655521:*%$@++Ooo.oo o  o  .    X ooooO++$**;::14667765211;&+o           ",
"            O$:1567899996641111:;=&@++Ooooo.XXXo.ooXo  XoX XooOO+@$$*=;:<145679765521:&+o           "
};
