/* XPM */
static char *result[] = {
/* columns rows colors chars-per-pixel */
"100 100 33 1 ",
"  c #3E7AAE",
". c #3F7BB0",
"X c #407BAF",
"o c #417DB1",
"O c #4582B4",
"+ c #4886B7",
"@ c #4988B7",
"# c #4987B8",
"$ c #4C8BBA",
"% c #4F90BE",
"& c #5091BF",
"* c #5395C1",
"= c #5699C5",
"- c #589CC7",
"; c #5A9EC9",
": c #5DA3CC",
"> c #60A7CF",
", c #60A8CF",
"< c #60A7D0",
"1 c #63ACD3",
"2 c #66B0D7",
"3 c #68B2D7",
"4 c #67B2D8",
"5 c #69B5DA",
"6 c #6DB9DE",
"7 c #6FBCE0",
"8 c #70BEE2",
"9 c #73C2E5",
"0 c #76C6E9",
"q c #77C8EB",
"w c #79CBED",
"e c #7BCFF0",
"r c #7ED2F3",
/* pixels */
"             $;<12566886521<<::;**@@#OOOoooo  oX   oo  Xo oOO#$$*=::21222359999976652;%O            ",
"             +:<,125666651::;=*$$+OOOoooXX  o  X oo  XoXooOO#$&*=:156666669900099965,:%O            ",
"            $*:<<22667662<::=*&$+OOoooooXX    o X  XXXoooo+@$*-;<4799999000qwq009964<:$+X           ",
"            %:<1124567652<:-=*$#OOoooooo     X   . oXooooO#%=:><470qqq0qwwwerwwq99641=%O            ",
"          O@*:11255566652::==%$#OoooOooo        o.o ooooO+$*:12579qrrrrrrrrrrrqqq9741:%Oo           ",
"          +*=:12266666651::=**@+oooXooo          o o.ooO+$*:<2569qrrrrrrrrrrrwwwq9961=%+o           ",
"         o@%*:1256667862<:===&@+OooooX           ooXoooO+$*-,2679wrrrrrrrrrrrrqwq9961;%+oo          ",
"        .O@$*:<26776876<:-==*$@+OoX               XX Xoo+$&-:269qerrrrrrrrrrrwwqqq972:*@o           ",
"        .O+@*;<56668962:---**%+oooX              oX. oooO$%*:269errrrrrrrrrrrrwwq9972:=$@O.         ",
"        .O+@*;<5669972::-*--&$+OooX                  ooO+@%=:169rrrrrrrrrrrrrrwqq9975:;*$+o         ",
"       oooO@&:1678985,-=*---&%@OXX                 XXooOO@&*:169rrrrrrrrrrrrrrw096662<=*@Oo.        ",
"       XoOO$*:169986<:-=*--*&$$OX              X . oXoXO+@%*-16qrrrrrrrrrrrrreq96642<:=%#+oO        ",
"      oXOO+$=>579984:-=**=*&%%#oXX            X oo oXoOO+@$&-16qrrrrrrrrrrrrrq98631<:;*$+OOoo.o     ",
"     XoOO+@&:2689961:;===&&&$%@OX X            XoooOoXoO+@$&:17qrrrrrrrrrrrrw07521<:;=$+OOoooOoo    ",
"Xo ooOO+++&;15799761<:-=**&&$$$+ooo            XoooOoOOoO+$*:29errrrrrrrrrrr965<::;=*%@OoooOOOOo    ",
"oooO+O+@@%-268987652<:-*&&&$$$##ooooXXX       XoOOoOOOoO++%=:60errrrrrrrrrw062<:;=**&$+OoOOooOOO    ",
"O##$$%%%=:2788888872<:=*$$%$$##++oooo  o  XooooOOOOOOOOO+$*;17wrrrrrrrrrrw961<:=&%%$$+OoOooOoO++  +O",
"$$%***-;<578888988751:**$$$%$$$++OOooooXoooooo+#+++OOO++@*=160rrrrrrrrrre972>:=&$+++OoooooooOO+++O##",
"==-:;>12788888088875<:**$%$$$$$$+OOOoooX.oooO#$$@@+++#@$**:27qrrrrrrrrre961>;=&@+OOoooXooooOO+++#$%*",
":>1133588009880808751;=*%%%$$%%$$$++oXooooOO#$%$$$$@#$$$*=<58qerrrrrrre062:;*&@OOoooooo.ooooO+$$$*=;",
"26688889qw08800098752<;-**&&&*%*&$$+OooooO+#$**$&&$@@$$$*-<580errrrrrrq61>=&$+OOooooo XoXoooo#$&=;>1",
"898989qeeeq0ww0097775<<;;-*=====*&&$+OOOO+$$$%*%&$$+@@$@%=:170qeeeeeew92:=%+OOoooooXXXX oXoo++$*->16",
"8qqqqqerrreeeqq0887751<<::;::;:-**&%$#+++$$$****%$@+#O++$*;177900099095>=%#OooX XXXX X XXXooO#%*;<16",
"9qqeweeerrreee0088775411<,,<<:<:--**%$#$$$%&%*&*$+OOoOO+@&=156578656661=&#Ooo  X XXXX   XXXoo+$*:<26",
"8qwwewrrrrrrrw08877564221111111<:--**&%%*$**%*$$+OooOoo+@%=:12221<<<21;&#o                 ooO$=;<46",
"890wwerrerrrrw887775641111111121>::-*&***%$$$@##OOoooooO+$*;<:<::--;::*$oXX              oo oO#*-<25",
"589wwerrrrrrrq88752431<<>>>>1141>:;-******$@#OOOOoXoXXooO@*==-;;=***=*$++o                  oO#%->25",
"5880wwrrrrrre0854441<::;;>;><<<<:;-**&%%%$@+OOooX  o  Xoo#$&**==*&$%%%$OoX                 XoO#%->12",
"5680qerrrrrrw87541<;;-==---;;;;;---*&$$+++OOOooo X o   .o+$$%&*&%$#$$++ooXX                 oO#*->12",
"56800eerrrre08531<;*****%****===--=&$@++OOoo.o .        o+#@$%%%$###++oXXX              X XX.O#*:112",
"7889qeerrrrw8521<;=*$$$$##$$$***==*&@+ooOOooo X        ooO+@$$$@+O+++oX                 X   oo$->225",
"889qwerrrrq871<:;=*$$$#+OOO+@@$***&$+OOooooooX          OO+$$@@@++++ooX               X   Xoo+$-<467",
"09qwwrrrrw961>:-**&$@++oooOoOOO##$$#OOoooooo oX      . oO+@$@##+O+++oo X                  X o@*-1468",
"0qwwwweew9641>--**$$@OOOooXoooOO+$#+OOoooo.oX X  o    ooO+@@@#+OO+OooXXX                   oO$*->158",
"9wwwwqq998511:;**$$$+Oooooooooooo++++ooooXo X.    X oooO+@$$$#OO+OOOooXX                   oO$*=:147",
"90q909876521>:-*&&$#+Ooooo o...ooOO#OOOoo.ooXoo ..ooooO#@%**$+++OOOooooX                  oo+$%->,26",
"699966665221:;;**&&@+oooooo o.oooOOOOOoooo oXXoX.ooooO+@$*=*&$@+O+OOoooo                . oO+$*-:>14",
"68876544421>>:;-=&&@OOOoX .oo..ooooOOooXXX.   .oX.ooO#$%=--=*%$+OO+O++Oo                  oO#&*-;>12",
"687654521<>>>:;-=*&$+ooXooooooooooOOooXXX XXo X XoOO$$*=;::;**$@++#+++ooo          X     ooO@&*-;><2",
"77752122<>>::::;=**$OoooXoooooooOooOooo .oX oX oooO#$=-:<<:;=**@++##@O+oo        X       oOO$$*=->14",
"5762111<:::;:::;-=*@OoooooOoooooooooooooXoXoooXoXo+$*;>121,:-=&@####$+OoooXoXXXX oXoo..  ooO@$**->14",
"6751<<<:;-=;;;:;-**@OOoooooOooooooooooooooooooooo+#&;>1442,:-*&$#@@$$++oooooXXoooXoXo.ooooO#@%**-:,1",
"5621<<::=*=--;;;=*$#OOoOOOOOOoOoooooooOooOOOoooO++%*>14411:;-=&@+++#+++ooooooooooOoooOOoO+##$&*=-;>1",
"5511<::=****=-=**&@#OOO+++++OooOoooooOooOOOOOO++#$*;2521<>:--*$++o+#@++O+oooXoooooooOOOO#@$$%&**-;>1",
"44211>;=&&&*****&$+OOOO+@$@#OoOoooooOoOOOOOO+#$$&*>1421>::--*&$+oo+o+++++ooooooooooO++$$$$$***==-:>1",
"22211:-*$%&&*&&&&$OOoO+#$$$@OOOoOoOoooOO+OOOO#$%*>1221<:;--*&$+O+oo+++#++oo+oo+ooooO#@$$**=**-==;:<1",
"1222<:-*&&&&&&&&$+Ooo+++$$$@+OOoooooooOOOOOO+@$*->111,;-=***&$+Oooo+++#@++o+o++ooOO+@$***===--;;;>,1",
"2241<::=*=&&&&&$$+OOOO+#$$$#OOooooXooOO+++#++$*=:111<;-**&&&&$+Oo+oo+++++o+o+o+oOOO#$***===;;;;;::11",
"121<:::====***&$$#OO++++@$$@OOoooooooO+@$$@@@$*=>>11>**&$&&&$$$+oOOo++@+O+o++o@+++++$&*==-;;;;;;:><1",
"111::--:--=-==*&@##+++++#@#$+OOoooooo+@$$$$@$$*=>>>;-*%$$$$$$$#oOOoOOOOO@@+++++@+#@$&*==;--;;:;;:>11",
"11,:-::-:;-===*%$@+++++#++##O+OOOooOO#$$$$$$$**:>>>>-*%$#$$$$#+ooooooOO+$#@@++@@+++$&&====-;:;::>111",
"1<>::--:---==**$@+++O+O++OO++++OOOoOO#$$$*%$%*;:<1<>-%$##$#$#+ooooooXOo+$$$#@++++O+$%****===-:::<111",
"11:::=:====***$$++OOOOOOoO+O##+OOOOoO#$%**&**=:<111;=%##++++@+ooooooooo+@$$$@@+ooO+$$&&&&***=::<1422",
"1<:-:--====**%$@OOOoOOOOOoo++#++OoOoO#$*****;::111>-*%$oo+o++oooooooooOO#$$##+o+OO+$&&&&*&*&*;:<2412",
"2<::=====***$*$@OOoooOoOo+O+###+OOooO#$**=;;::1221;=&%#+++o++ooooooooOO+#$$$#+oOO+$%&&*&&&$%*=:11222",
"1::==******$$@@#OOooooooooo++#++OoOOO@**=;::,1222;-%$$+++o++o+ooOooooOoO#$$@@OOoO#$&&****&%&=;<11224",
"1>;-***%$@@#OOOOOoooooooooOOO+#@+OOO#$==::::1432:=$@+OOOo+o+o+ooooooOoOO++++++oO+#%**--*=***=;:<1255",
"1>;=**$$##OOoOOoooo.o.oXoooOO+#@+++#@*==:::2451:=$@OOooOoo+ooooooooooOoOo+o+ooO+@$*=-;;-==*=;:<<1264",
"2>:-=*%$++oooXooooXo XoooooooO+@@#+@$%==::2542::*#Ooo.ooooooooooooooooOooOOoooo+$&*-;>;;---;:<<<1366",
"31>;*&$#Oooo  ooXXXX . o ooooO+@@$@@#%=-:,121::*$OoXo.ooooooXooooooooooooooooooO$&--;;:::;;<<1111686",
"41>-**%$+oo    XX        ..ooO#+@####*==:::::=*$#Ooo  .  XoXXooooooooooXooooooo+$**=-;>><:<114135686",
"31:--*%#oo         X       ooO++@+++@$*=;:::=*%@+oo.o  XXXXXoXoOOoOoooXooXoXooOO$***-;:><<1133348885",
"4<>;-=%#Oo                 XoOO+++#O+$$*===*%$+OOoo.X XX XXXXooOOOoooXo oXooooOO#%**-;;><11555368885",
"41<:-*$#oo     X            ooooOOOOO#$%*=**@+OOXo oX.o oooXoooOOOOoXoXoXoXooOo+#%%*=-;><15555788988",
"631:-&$+oo                      oOOO++$$***++Oooo o.Xo.Xo.ooooOO++Oooo.ooXooooO+#%*&*;:<115778900009",
"841;=&$Oo      XX              XOO+OO+@$$$$+Oo  X     oXo.ooooOO+OOOOoooXoXXooO#@$$**-:<257990qqqqq9",
"861>-*$oo..                  XXXoO+OOO+@$#+OOo       o o.ooooooO+@@#OoooooooOOO@$%%*-;:1579wwewwwwq0",
"863<;*#o o                  XXXXO++O+O#@$++ooXX o      oooooooO++$$$@OOOOoOoOO+@$$*-;;<469wrrrrwwq09",
"854>;%+XX                   XoooO+O+#@$$#+O....      Xo.oooooo+@$%**%$@#+OOO+@$$%*=;>>169wrrrrrw0998",
"522>-$Oo  o                . oOO+++#$$$$#+OO..       oooooOoOO+@%*===*$*$#+@$$$$**;<1158qrrrrrwq0876",
"221:*#OX X   X              oo+#$##@$*$$$#O..o    . XXXooOOOOO@$*=--====**%**&***;>12480wrrrrreq9965",
"111-&$ooX   X             .oo+@$$@$$***$$#+O        oXooOO+#@@$$*=-;-;;;;;--=--;:<14669wrrrrrrwq9965",
"21>-$$OXX                 .oO@&*$$**===*&$+Oo XX. .OooOO+@$%$****-;:><<,>>:;:::>114468qerrrrreew0965",
"42>=&@OXXX   X         Xo oO+$*==**=--;;=&#OooXoO  OOO++@$%*****=;:<1221,>:><112446589qerrrrrrwww976",
"64>-&$Oo. o              oo#@*;:;=;;::>:;*$+oooo  OO+@$$$%******-::>141111111146666689wrrrrrrreww097",
"62>;*$+oo.             XooO@*:11<<114411<=$#+OooOOO+$%%%*%%%*$$*=-;;<11<<1112156668889wrrrrrrrewwq09",
"62>:*$+oo   o      XXXXXoO@$=<6865777664<-&@+OooOO+$%**%$%$$@$$**=*-:::,<<<<112568888qweerrrrewwwqq9",
"621;*%+OooX .  . .oXXXooO+%-:590900099861:*$+++++++%%**%%$$#O##$$&*=;;::-:::,<1568889qwweerrreqqqqq9",
"52>-*$+Oooo     ooooXoOO@&-:29weeeewew074:=&$$##+$$%%*%%$@#OOO++$$**===*===-::1468880qqqqqeewq999007",
"1<;*&$+OooXooXXo.oooOo+$&=:17qrrrrrrre082:-*$$$@$$%%%*%%@+OooooO#$$***&*&&**=;,2688900q99qwqq8686654",
":=*$$@+OOooXoXooooOO+@%*;:170wrrrrrrrrq93>-&$$@+$$$$%$$#Oooooooo++$$$&$$%$$%&-:1478809998909755211<:",
"&%$@@+OOOooooooooOO+@%=;<160errrrrrrrrq72>*&$++++@$@$$#OoooooooooO++$$$$$%$%&*:148899998898511<:;==*",
"@@++++OooOOoooOOO+@@$=:<260errrrrrrrrr061-&$+++O+++++OooooXXXX XoOO++$$$$%$$&=:146888888885<:;=***$@",
"++O+O+OOOooooO+@@$**=:<169qrrrrrrrrrrw71;*$@OoOO+oOOOoooooXXoX  oooO+$$$$$$$&-:<4668988871:=*$$$$@+o",
"oooOOOOOXOXOO+@&**=;:<260rrrrrrrrrrre05>*%++oOOOoOOooo    .     oooO+@$$&%%&*-><356888861-*@#+O+    ",
".oooO+OoOoOX+$%*;;::1569wrrrrrrrrrrrw92:*$+OOoOoooOooX   X X    XXoo+$$$&&&**-:>16898861:&@+OOOo    ",
"   .XXOXXOOO@$*::<12570wrrrrrrrrrrrrw81:*$+OooOoooooX    X        XXO@$$&***=-;:1889872:&@OOoo.     ",
"      XOooO+$*-:112679werrrrrrrrrrrrq71;&$$+OooooXoX               oO$$%&**=*=-:488984>*$+OOooo     ",
"        oOO@$=:<26669qerrrrrrrrrrrrr961-*$#+oooXooo                XO@$&*==*=-:1599862;*$+ooo.      ",
"         OO@&-,266790qrrrrrrrrrrrrrr961;**#+OoXoXX X              XoO#$*=-===;<4899851;*@OOoo       ",
"          +$&;,46990qeerrrrrrrrrrrrw961:**$+OooXXXX                oO@$*=-==;:4798665<;*@OOo        ",
"          O@$=:5790qqwrrrrrrrrrrrrrw972:=$$#oo oXXo               XoO+$*==--:47986865<;*$#oo        ",
"          OO@%:269qqqeerrrrrrrrrrrr0864:=*#+oooX XX            .XoooO+%*=--:<588676651;*$#          ",
"           O@%:1690qqwerrrrrrrrrrrw9864<-*$++oooooX          ..ooooo+@**=-;>4678676511:=&+          ",
"           XO%:,6800qerrrrrrrrrrre09744<;*$+ooo .o X         ooooXoO+$&*-;:15676556211:-%+          ",
"           OO%:,5790qwrrrrrrrrrrrw97511;=$+oooooX X         XooooooO+$**;:<15666665111:*@o          ",
"             .*<5789qweeewwwwqqqqq651>:*%@+ooXXo Xo.     X XoooooooO@$*=;:<25676652111-%+           ",
"              -<46890qwwwqq09899985,;-*%@+ooooXXo X  o  X o ooOoOOO#$&*-;:<25776521<<:=@O           ",
"            O$-<578990009986565651>-*&$@+oooXXXX XXX      o oooOO+#$&*-;:<126776622<<:&+            ",
"            O*;14678899976512211>;*%$#@OoXooXXXX oXX o oo oooOOO+$&*=::::126677754211:&+X           "
};
