/* XPM */
static char *result[] = {
/* columns rows colors chars-per-pixel */
"100 100 29 1 ",
"  c #3F7AAF",
". c #3F7CB0",
"X c #407BAF",
"o c #427EB1",
"O c #4582B4",
"+ c #4886B7",
"@ c #4988B7",
"# c #4987B8",
"$ c #4C8BBB",
"% c #508FBD",
"& c #4F90BE",
"* c #5091BF",
"= c #5395C1",
"- c #5699C5",
"; c #589CC7",
": c #5A9EC8",
"> c #5DA3CC",
", c #60A7CF",
"< c #60A8CF",
"1 c #60A7D0",
"2 c #63ABD3",
"3 c #67B0D7",
"4 c #68B2D7",
"5 c #67B2D8",
"6 c #69B5DA",
"7 c #6DB9DE",
"8 c #6EBCE0",
"9 c #70BEE2",
"0 c #72C1E4",
/* pixels */
"$$$$$&&$$$$+++$$=;:>13456676621,;;;-=*$=$%$$$$$======$+++$$$+$$==-==;>1567664321>>;*$$$$$*====**$$$$",
"$$$$$@$+@$O++O+$=;>>123567776521>;::;-===**$$%**=%=$=$++++++++$$$===;:,357666431>;==&$$=*=-;;==&&$@$",
"+$$$++OO+OOOOOO$*;>>223567777662,,>>>>:;;==$$=$=$=$$$++OOoOO+O$$$====;>256666641>:-*====;;;;;==*$$$$",
"$$@+OOOOOoOOoOO+&=:>123566797765434321>:;==%*$=$$$$$$OOOoooOo++$$=$===>256777632>:;*===;;:::;==&*$$$",
"$++OOOOOoOoOooO+$*;>,23667777667667621>>;;=**$*$$$$++Ooooooooo+$$=$$*=>157787752>>;==-;;:>::;=**%$$$",
"$++OOXXoooooOoOO$*=:,23566766667767621>>;;;==*%$$$$+OOoo ooooO+%$$=$=;:137887763<>;-;;;>>>>;;=*$*$$$",
"+++OOo X.oooo.O+$$=>12456677667677752<>>>>>;==%$%$$+OooooooooO#=$=&$==>257787873<>;;;>>>>>:;-=*&*&$$",
"++OoooXOooooOOOO$$;>122467666656666532>>>,,>;;**$$+OOooooOOOO+$$%=&==;>368887763>>>;;>>>>>:;;====&$$",
"+OoooooooooOOOO+$$;>,12666666555666653222221>;=*$$+OOOOOOOO++$$$**==;;1678878773<>>>>>>>>>>;;====$$$",
"Oooo .oooooOOO++$*-:,14677763235567766556532>:;=$$OOOOOO+++$$$****==;>16788777732>>>>>11>>:;;===&$$+",
"Ooo.XXoooOOOO+++$*=;>167977332356780887776521>;*&$++OOO+++$+$=&$***;;>27787777632<>>1111>>:;;===&$@+",
"Oo oXXooOO+O+OO+$$=;>27898663336679000087762>:==$$+O++++@$$$$$$$*$*=:,5799776553211<<1111>:;;==**$$+",
"Ooo  oooO+++OOO+$%*;>47989753336680008087762>:;=&$+++++$$$$$$$+$@$*;>1477777643222222<11>>:;;===&$$+",
"Oo.oooooO+OOOOO+$**;126877663335780888887662>:;=*$++++@$+++$$++OO$$=;,467775333222222<<<1>;-;==**&@+",
"ooo oooO+OOOOO+$$*=;>14677766333667877887621>>;=$$++++++++OOOOOO++$*;>245632222225332<<<1>:;;====$$+",
"OooooOOOOOOO+++$$*=;:,147776663566666788621>>;-=&$$+++++OOooooooO@$*;><121<<<>2222222222>>;;;===*$$+",
"OOoooO+++O+++$$$=$===:15677666556555689742>>::;=*$$$++OOo .o XoOOO@&=;:>>>>>>>>222222221>;;--;===$$+",
"OoooOO+++++$$$$$=$$==:13677776635553678731>>>;;==$$$+OOOO  o   oOO+$&*=;;;;:>>>>2122222<>;-;===*=$$+",
"OOooO++$++$$$$=$+$$$=;>2677766634434677622>>:;;==$$++OOoo      oXOO+@$$*=;;;>>>><21222<1:;;=-=*=$$@O",
"ooOOO+$$$$===$$$++$$&;>236676333553566763<>:>;===$$+OOOo oo  XX. OOO++@$&*-;;;>>1<<2<2>>;;======$$+O",
"OooO+$$%$$===$$++++$*;;>234332355655567621>>::-=&$$++OOooooXXo X O.XOOO@$&=;;;;:>>11<<>>;;==&=&&$+OO",
"ooO+$$*==$$$$$$++++$$=;:><221212566566522<>::;-==$$$+OOoo. XoXXo OoO.OOO@$*====>>>>>>>1;;==&&=&$$+Oo",
"OO++$====$$+O++++++$$=-:>>>>><12466455521,>>>;=*$$$$++OOooX.Xooo.ooo.OOO@$$====;>:::;>;>;===&&&$$+OO",
"OO+$$===$+OOOOO++++$$$==-;;>>>,125544421,>>>::=*$$$$++OOoooooooo.OOo.ooO+$$==;;;;;;;;;>;;--===&&@++o",
"O+$$$==$+OoooooO+++++$$%=-;:>>><25554222>>>>;;=&&$$$$++OOooXooOOooOooooOO@$=--->;;---;:;;=-==*&&$@+O",
"+$$===$+Ooo. ooOOO+O++$$&==;;;>>2455422<,>>::==$$$$$$++OOoooOOoOOoooooooO+$=-;;;;==--;;;--===*&&$$++",
"$$$===@+oo.. oooOOOOO++$$*==;;>122555221,>>:;-**$&$$$$$OOoOOOOOOOOOOo.oOO@&=----;--=;:>;--;==&&$$$$@",
"=$===$@Oo..  o oooOoOO++$$*=;:>>22344321,>>:;==*&$$$$$++OOOOOOoOOOOOooooO#$====-;-;;;;:>>;-=&&$$$$$$",
"$==$=$+Ooo   ooooOooO++$$$*==;:>,,2332221<>:;;=**$&$$$$++++++OooOOOoo.o.O$=$===-;;:;>>11>;;**$$$$+$$",
"$$$$$+OOoX o  .ooooOO+++$$$==;;>,,,223321<>:;;=&*$$*$$$$+@++OoXOoooooooO+$=$===;>>111<11>;==&$$+++$$",
"$+$$$Ooo.  X XoooooooO++$$$$=-;;;:,1253211>;===*$$$$$$@$@$+OOOooooo.ooOO+$$===->>122232<>>;=&$++O+@+",
"O++++Ooo  . XooooooooOO++$$$==;-;;>122421>;-=&**$$$@+@+++OOOoooooo.oooOO+$$=--;><3555322>;-=$$++++++",
"OOO+Oooo.o....O.o.oooOO+@@$&==;==;;:,,,1>>;=*&$$$$$$+++++OoOooooo..ooo++$%=-;:>166776632>>;*$$$$+++O",
"XoooOOoooX...O..OoOoOO++@$$&=====-;-;:>,>;=**$$$$$+++OOOOOOooOooo...oO+$==;;>>1678877632,>;==&$$+OOo",
"oooOOoooo..oOOOOOOOOOO++@@$$&=;==--=-;:>:;=&$&$+$+++OOOO.oooooooo..oOO+$==;:1157877665321>;-==&$$OOO",
"OoOoOOOOooOOoOOOOOOoO+O++@$$====-====-::;==&$$$+++$+OOOo.o.ooooooOooO+$$=;>>126776666332<>;;;==%$+OO",
"oooOOOOOOOOOO+OOOOOOOO++@+$$*=====*%=-;;;==&*$$$++@+OOoo...oooXoOoOO++$==;1125666455333221>;;-=*$@OO",
"ooXOOO++++++O+OOOoO.oOO++++$$$&===%==-----=**$$$$$@++OOooooooooooO+++#==;>1255664553666651,>;;=&$+OO",
"XXooO+$+++++@OOOOO.Oo+O++O++$$&===$==---;==*=**$$$$+OOOooXoooooO++++$==;;12256555335667662,>;-=$@+oo",
"XXooOO+$++++#+OOOOOooO+OOOO++$$&%=====-==**&&=**$$@++OO.oooooOOO+$$$==;:1225565664566677751>:=*$+OoX",
"XXXooO+#@$$$@@OOOOoOoOOOOOOO++$$*====-==****&$*&$+$++OOoooXoOOO+#====-:13656656546666777732>;=*$+oo ",
" XXooO+#@$&$@@@@OOO.OO+OOooO++$&===---==$$$$$$$*$$$+++OOOOOoOO++#===;:135667665566766677633<>=*$+ooX",
"   Xoo++$==&$#$@++OOO+OOoooOO+$&==;;;==$*$$$$$$$$$$+++O+OOOOO+$$==;:,,256866665677776777632>;-$+Oo  ",
"    Xo+$$====&$$@++++++oOoOOO@$&==;;-=**$$$$$$$+++++$++++++++$$$=-,,2356788876667708777753>>;=$+Oo  ",
"    oo+$&=---==&#@$$$$+OOoOO+$$=;:::;=*$&$$$$$$+++++$+$$$$$$$$**-:236666687666880000776632>>-&$+oX  ",
"    XoO+=->>>;-======$@+++++$&=;:>>:;==$&$$$$@++O+++++$$$$$$$$*=;,388666766666670000877752>;=$+OoX  ",
"    XoO+&;1<1>>-----===#$$$$$=:>>11>;=**$$$$$@++++++$$$%$**$$$*-:1686656665633667008077631>-*$@Ooo  ",
"     oO+=;<232<1111>;===&$$&=;>1221,;**$&&**$$@++$++$$$$***$$$=;,3666365333333367777777731>-&$+OoX  ",
"    XoO+=;1366445522>>;==*=-;><2351>;=&$$$=$=$$+++++$$$$=$$$$==;1258333222212<236668886621:=$$OoX   ",
"    oo+$=:>3667676621>>:;;;:><23351:==$$$$$=$$$$+++++$$==$$$$$==:15632221>>>>><25666886621;=$$OoXX  ",
"    oO$$=:>266777763211>>>><<223651>-=$$$$$=$$$$+++$@$$$=$$$$$==:253321>:;-;;>1<356866652<:=$+oo   X",
"    oO$*=:1257777666312211222333661>;==$$=$==$$#+++++$$=$==$$===:23531:--===-->>2353356531;=$Ooo    ",
"   oo+$%->1267888787624244363636672>;=$$$&=$$$$#++++++$$=$=$====>232<>===$=$==--:,1>1<2321;=+Oo.    ",
"  XXoO$*->2567889907765656663666761>-=$$$&$==$##++++$+@$$$$=$==;:11>>-==####$#==;;;;;:<<21;&+Oo     ",
"   XO+%=;>255789000976666676666773>>-$$$$$$$$$$#++++++@@$$$$$==;:>>:-==+#++#@#=======;;;>>;&+Oo     ",
"   X+$*-:1256778909976666777766631:;=$$$$$$$$$++++++++$$$$$$$==-::;===$#OOOoO+#$#$$@&==-=;==$Ooo    ",
" XoO$$&;>125677779986667777666311>;*&$$++++++++##+#+$+$$$$$=$===-;-==$@O+oooo+#+++++$$=====$$+oo    ",
"  oO+$=;12566876777765667777521>>;-&$@++OOO+++++#+$$$$$$$$$$$==-;;===$++o+ooo+++OoO++$@$%*%$++Oo    ",
" XoO$$->1256776667676556677421>;;=*$+++OOooOOO++$#$$$$$$$$$$$=--====$++O+oo++o+ooOO++++#%$$$++Oo    ",
"ooO+$*=:>26787766566656663431>-=**&$O+OoOoooo++++@$$$=$$=$===;-===$==@#O+ooOo++ooOOOO++#$$$$++OOX   ",
" oO+$*;;>1577866555545663321>;**&$$+OOOooo.o.OOO+#$$========;;=======$$+++o+O+ooooOOOO++++##+++oooXX",
"ooO$$=;;>12566664345565431>>;=&$$@+OOooooooooOO++$$$$=$=$===;=====$===$+#+o++o+ooOoOOO+++++##++OooXX",
"oO+$&=;;>>235665563666632<>;=&$+++OOoooXoooooOOO+$$$$$=$==---;;==$====#$$#+#+++oOOOooO+O++O++++OOooo",
"O++$&=;;:>11353533666632<>;=&$$+OoOOoooXo....OOO+++#++$$===-;;-======$==$$++++OOoOOOOO+Oo+OOO+OOoooo",
"OO+$*==;-;><222665677621>>;*$$+OOXOoooooo.oXoOOO++++++$$%=-;;:-*=*==--=*$$#@+OOOOOOOOOOOOoOOoOOoOooo",
"oOO$$=*=-;>,24567678742>>:-&&$OOooXooooXo oOoOOO+$$+$$$$*=;;>:;;=---==-*$$@#++OOOOO.Oooooo O.O.OoOoO",
"oO++$$$==;>12567789751>:;;*&$+O.o.o.ooOooooOOO+++$$@$$&=*=;>>>>;;;-==*-*$$$#@+OOOOO.oOoooXXoXoOOoooo",
"O+++$$$$*-><236777641>:;;*&$+OOo o  oooOOOO++++++$$$$$&&=;:111>>>;-=---*=$##+OOOo.O.oooo   oo oOOOOO",
"+++O++$%=;;>22354532>:;-=*$+OOoo XooooooOOO+++@+$$$$=$==-;>22252>>;----*$#+@+OOoo.XoXooXo  XoXO+@++O",
"$+++++$$==;,2222211>>;==*$$+OooooXoooooOO+$+$$$$$$$&&===;>,15542<>>>;;-*=$$#++OooooooXX   X.OO+@$$+$",
"$+O++$$==-:11121>>>:;-==&$@+OoooooO OXoO++$++$$$$$&*&=;;:>1222222<>>>;-*$$$$++OOOoooo.XX   ooO@$$$$$",
"$$$$$$$=*-;>>1>:>>;;===**$$+ooooOoOOOoOOO++++$$&&$$$&=-;:>,12224322>>>;-===$##+OOoO.o.X    oO+$&*&=&",
"$$$$$=$*=-;::>:;;;;;-===**$OXooooOOOOOO++Oo++$$$$$$&&=;;;:>>2225332><>;-==$$@++OOoOooo..  .oO$$=*=*&",
"$$$$$$===-;;;;:;;==;;;;==&+OooooOOOOOoOOooOOO+$$$$&$$==:>>>>12556333>>;;==$$@++OOOOOoo.. X.O+$&*==$$",
"+++$$=$==---;:;;==-;;;;==$@OOoXooooOOOoOoooOO+$$$$$$$==>>>>>122544321>;;--==$$++OO+OOoooX oO@$==$$$$",
"+O$$$$====-;;;;;-;;:;;;=*&@+ooooooOooOooooooO+++$$$$&*;;>>>112246332<>>>;;===$@++++OOOoooOO+$==*$@+O",
"O++$$$===--;;:;;;;;:;;===$++OooooooOoooXooooOO+$$$$$*=;;>>,>22333353<>>>>;;-==&$$+++O+OoOO+$*==&$+OO",
"OO+@$*&*==-;::>:::>:;=;==&$+OooooooooXooo.ooOO++$$$&*-;>>><1253446632<1>>>>:;-=$$++++++++$$====$+OOo",
"oO+$***=$=-;:>>,>>>>;;=-==$$OOOOooooo.....oooOO+$$$**=;;:>>26566664332<22<21>-=$$+++++$$$$=$&=&$+ooO",
"OO+$%***==-;>>111>>>:;;;==$$+OOOooooX.o.oo.ooO+O@$$*=;;>:>126666366332525532>;==$+++$$$$==$&$$$+OOoo",
"O+$$&===-=;;><12211<>::;;==&$@+OOooooo.  o.oOOOO$$&&=-;>>>1267664544233666631>;*$+++$$$==$$$$$$OOooO",
"O+$*=&==*-->>1222121>>>::;;=&$$$+OoOoX  X oXooo+$$$&==;>>>1367743333436777762>;==$$$$==$$$+$$+OOOoOo",
"+@$*===--;;><22222211,>>:;;:-==$$++oo X   XoOOO++$$==;>;>><377775535566777763<:=&$$$$$$$$@++++OooOoO",
"+$&&===--;>>122212221<>>>>>>:;;-*$Oooo XoooOOOO+$$$==;;;>>23707655565566677751;-=&=&$$@@+++O+OOOoooO",
"+@$===---;>>1222322221<<11211,>;=$+OOoooooOO+O++++$&=;>>>137787766663366677762>>;=&&$@++OOO+OOOooXoO",
"+$$*==---;>><22223322212245532>;=$+OOOOOOO++++++++$&=;;>>3478877777634456777652>;=&$@+OOOO+OOOooXXoO",
"+$$====-;:><1112232223336677631:=$++++++$+++$+++++$*=;>><3678888998643336677763,;=$$@OOOOO+OOoo. ooO",
"O$$&==-=;>><<111221223467889751:;%$+$+$$$$$$$+++++$$=;;>26778090007765236779872<-=$$+OOOO++Oooo.o oo",
"+$$===-=;:>,111112122555779773>>-*$$%$$$$+$$++++++$$=-:125778000098665254680862>;=$$+++O++OOooXooXoO",
"++$$==-;;::,>1,,<,125577777972>:===$%**$$$+++++OO+$===:>26677788976653254778762>;=*$+OOOOOOooXo XooO",
"+$$&===;::>>,1>>>>,15777788771>;-=*%&$$$$+++O+OOO+$$=-:>23363567776654256677632>:;*$+++OOOoooXXXooOO",
"+$*====;::>>>,>>;>>13789788751:;=*===$$+++OoOoOoO+$$$-:><2222225666655556766622>:;%$+OOOoooooooooOO+",
"$$**===;::>>,>::;:>>579778763>;==$=*$$+OOOooooOOO+$*==-;>>1>11226666656767664331:-$$+OoOooooooooOOO+",
"$$*=**=-;:>>>>:;;;>,277789752>;=***$$$OOoooooooO++$$$%==;>>>>>134677766667765321>-=++oooooooXoooO++@",
"$$&$$*=;:>>>>:;;;;>,467897731:=*=$$$$$Ooo...ooo++$$$$=&==;;;>>126776776667766421:=$+OOoooooooooOO++$",
"$$$$**=-::>:;;--=;:,256787751>=*$$=$$+OoooooooO++$$$$$$$*=;;;>12666666677766621,>;=$+OOOoOoOooOOO++$",
"$$$&*=-;;;>---===;;,246766661>;****$$+OOoooOoO+$$$$$&$$&*==;:>,24336667797666321,;*%@OoOOoOoOoO+++$+",
"$$$&&==;;;;-*****=;>126667663>;==**&$@+OOOoOO++$&$=&=&&$$==;;:>>,,,,256777765222,:;*@+OOOOO+OO++$$$$",
"$$$$**=;;-=***&&*-;>134666662<;;=***&$+++OO++$$$$&&&=&&$$*====;;;;::133777765222,>;*$++++++@$$$$$$+$",
"$$&$&=*=-**$$$$$*;;>1334676632>;====*$$$$$$++$$=====&&$$$$$$&**=--;;:22367665322,:;=%@+++$$$$%%%$$$@"
};
