/* XPM */
static char *result[] = {
/* columns rows colors chars-per-pixel */
"100 100 29 1 ",
"  c #3F7AAE",
". c #407BAF",
"X c #427EB1",
"o c #4582B4",
"O c #4886B7",
"+ c #4988B7",
"@ c #4987B8",
"# c #4C8BBA",
"$ c #508FBE",
"% c #4F90BE",
"& c #5091BF",
"* c #5395C1",
"= c #5699C5",
"- c #589CC7",
"; c #5A9EC8",
": c #5DA3CC",
"> c #60A7CF",
", c #60A8CF",
"< c #60A7D0",
"1 c #63ABD3",
"2 c #67B0D7",
"3 c #67B2D8",
"4 c #69B5DA",
"5 c #6DB9DE",
"6 c #6FBCE0",
"7 c #70BEE2",
"8 c #72C1E5",
"9 c #75C6E8",
"0 c #77C8EB",
/* pixels */
"*=*===***%#+OOO#&=;::<1334442<::*==**%%%%%%%#&&******&#########$&*&**;:14442221>:-=&#####&*--;-==*=*",
"*****&%##+OOOoO#%*:::<124444321:--==******&&&&***&&&&###OOOOO@##&##**=:1142221<>:=*&###&**-;:;;-=***",
"&***###++OOoooo+%=-:,1124455442<:::::;==-=*&&***&%&###OOoooOoOO###$##*;<1224221:-=&#&#&*==:>::--==**",
"&&&##+OoOooooooO#*=::<13445554422111<:::;-=&*&&&&%&##OoooXXoooo######*-:112442<,:=&&&&*=-;::::;==***",
"&&###OoooooXXooO+%*-::1345555444444421::;-==**&&%###OOoXXXXoXXO@O#OO##=:1244211<:-*&&*==-:::::==*=**",
"%%#+OooXoXooXXoo##*=::1244545454445531<::::-=**&&%##ooXXXXXXXoo##+O##**:<2444211>;=**=--:::::-==****",
"%##ooo..XXoXXooo+%&=::<2345554555665321<>>,:;-**%###oXXXXXXXXXO#O####*=:1242121<:==**-;:::::-=====**",
"##Oo.XXoXXXXoooO#%&=::114445554555555322111<:--*&##+oXoXoXXooO@@##O##*-:12222441>==*=-::::::---===*#",
"OOXXXXXXXooooooO##*=;:1234444445555655433331<:-**#OOoXooooooOO#OOO###*;<22222442>--=-:::>:::;-==**&#",
"OoXXXXXXXooooOOO##*==:<244554434556886555543<>;**##oOoOOOOOOOO#OO###&*:122222421>-=;-:::>::;;-==*&#O",
"ooXXXXXXXoOOooOO+#**-:13555443345689988876541:;*%#OOOOO#OOOO+#OOOO#$*=:<22212221>;:;:::>>::---=**##O",
"oXX.XXXXoOOoOooO##%*;:24855544455789009887541>;**##OO#O##OOO#OOOOOO#&=:<2222121<:::::::>>::;-==**%#O",
"XXXXXXXooooooooo###*:<4555554345578999998854<>;-*####O##+OOOOOoooo##&=>22221111<>::>:::>,>::===*&%#O",
"oXXXXXooooooo oO+#%=:<2458544344568988888653<:;-*#O#O##O#OOoooo.ooo#$=;<122<<11<::>::::><<:;-==*&%#O",
"oXXXXoXoooXooooO##%=-:235555444555666888654<::;=*#OOOOOOOooX.o.XXXoO$*;>><>>><<<>>>>::>>:::;;-=**&##",
"OoXXXooooXooooO##%&*=:13555554445455567651<>::;=&###OOOOoXoX X..XXoO$*=->>;;;:><>>,>>:>:<:;--=***##O",
"OoXXXooooooooO###$#&=:>1455654444444588731::::-=*&##Ooooo      XXXXo#$*=-=--;;<<1<<,,,<<::-===**&##O",
"oXoXoXoooooOOO#####$&->144455554444446652:::::-=&##OOooXXX       XXoO##**===;;><<<<,<11,:;===***&&#O",
"oXXXXoooooO@O#####O#&=:124555443444455542,::-:-=*%#+oooXXX       X.XoOO##=*=-;:<<11,11<::;=***&*&#Oo",
"XooXXXoOoOO####OOOO#$=->,24454344444445421:::--*&##OoooXX         XXXXoO##*=-;;<,,<1111:;-***&**##oo",
"XXoXooOOoOO@@@OOoOO##&--::2222244444445421:::-=*&###OoooXX..      XXXXXoO#**==;;:>,1111:;-*&%&&&+Ooo",
"XXXXoOOOOOOoOOOoOoo+%&*--::1<<13444244421,:::-=*&%##OOooXX.         XXXoo#**==-;:><<11<:;=*&%*###Oo.",
"XXXoo##OOoXXXooOooOO#&&==-=:::<1142442221<::::=*%###OOooXX          XXXXoO#*===;;:><<<,:;=***#&%+Ooo",
"XoooO#@OoXXXXXXXooO#+##%%*=-:::<141122121,,::;=&#####OOooXX .     X  X.XoO#***=-;::>:>>::-****##+OoX",
"oooOO#ooXX   ..XoooOoO###**=;::<11141111<,>::-*&&####OOoo ... X.XXX.X.XXoo#*=-;;::;>>>>>:==***%##Ooo",
"ooO##OoXX     .XXooooOOO#%*==;::1112311<<::::-=&######OoXX.Xo.XXXX.X.XXXXO#*-;;:>;;::><;;===*%%%#+oo",
"OO###OoX        oXXoooOO###*=;::11142111>::;--*&&$#&%#+oooXXXXXXXXXXXXXXoO$*-;::::;;><>::;;**%%##OOo",
"#####oXX        XXoXooOO###*=-::<:<12111>:::-=*&&&&%*#+oo.XXooXoooooX.XXoO$*--;:>:>>><<<::-=*%###OOO",
"O##OOoX         XXXooOOO##&*==;;;::11111<>:---=***&**##OoooooXXoooooXXXXo#$*=-;><11<<112<:;**##+OOOO",
"#OO#OoX         XXXooOO##$#*=====::<1122<>:---=**&**&%##+OOoXXXXXooXXXXoO#**-;>>11112222<:-*&##OooOO",
"oOOoooX         .XXoooO+##&***===-::12221>:--==***&&####+OoooXoXooXooXXo###=-;>122244444<:;*$#OOooOO",
"oXooXX          X.XXXoo+###&*=***=::12221:;-=****&*####+OOoXoXXooXXXXoOO##*=;>1146666542<:-*##Oooooo",
"XoXoX         X X o XoO####**=*&*=-::<11<:-****&&&&%#+OOOoooXXooXXXooo###&=;>,1457887542<:-*&#+OoOoo",
"X X  o     X XXXXoXooOO###%%*=****-=-::,:;=***&%&%%##OOooX oXoo XXXXoO##**::,247888887521:-*&##OoO  ",
" X oo       o XoooooOOO###%**-**===-=::>:-=&&&%##%##+OooXXX..oo .ooooO#%*-:<2357888775421>-=*%##Oo o",
"XXXX oo  XX ooooooooOoO+###**-*===**=;:::;**&&######OoX.   XX ooooooo##%=:<13468877765441>;-=*&#Oooo",
"XXXXo X X oXooooooXoooOO##%&**=====*=-:;:-=**&%####+Ooo.X XXXXoXoooOO#&&-:124566666665441<>--=&#Oo o",
"  X  ooooooooooooooXooO####%&**-==**==;-;;=*&&%##%#+OOoX X.XX XXoOO+#$&-:<1457664656666541>:-*&#Ooo ",
" X XXooooooooOooXoX.XooO++##%&*===*===-:;=*****%&###OOoXXXX XXooO+#$$&*-:14456544656777654<:-*&#@o  ",
"   XXoooooOOOOOoooXooooOOO###%%*=**==--=-=*****&&###+OoooXXXXXooO+&&&*-><444565545566677541:-*##OO  ",
"  X XooOOOO#OOooooXXooooOoOO##%**====---***&&&&&####OOOoo  oXooO+$&&=-:,3456555566566686631>-*&+O   ",
"   XXXoOO###OOOOoooooooOOooOO##%**===-**&&&&%&%##+#O#OOooooXoOO+$&=--:,14566554566654666641>-*$#Ooo ",
"    XXoO#####+##OOOOoOOoooooOO#&*===-=*&&&#$#########OOOOOoooO+#&=-::,125685655566664666441>-*#+o   ",
"X    XOO%%%######OOO##OOoooOO##&*=;--**&&#$%###+++#####OOOOOO+##&-:,,124586865668876664541,:=&#oo   ",
"    Xoo#%***%*%%#%#%###OOoOO##%*--;:-*&&%#%###OOOO+#########+#**=:,23334585566667876554421>-*$Oooo  ",
"     Xo#%*-::--*******##+OO##%*-::>:-*&$%###++OOOO@OOO########**:>134444455555678886555441:-&#Oo    ",
"     XoO%=:,:::--::--=*##+##&=::,<<:;**$%#####OOOOO+###%*####%**:,35444444444555786665442,:=&#Oo    ",
"      oO%-:,2,1:,,,::-**%%&&=-:1241:-*&$%%&%#++OOO+O####%%%###*;,244333334344424565555541>;&$+oXo   ",
"    XXoO%=:222334421,:==***-::<3441:-**##*#*###OOOOO+##%%####*=;<1453322121<1114454555442:=**#oX    ",
"     XO#*-:1254554411:::--;:,<13441:-*########@OOOO@#@##%###%%*-<144311<1>;>::<2144555441;-*##XX    ",
"     oO%*=:1345554431<,::::11122441:-*##########OOOO@#@@%#####*=:13332<>>;--;:<<444555431;-*ooXX    ",
"    Xo##*=:1355555433111<1121222442<;**####*###OOOO@+@@*%#*#%%*-;2433<>;-***=-:<124441341<=*#XXX    ",
"   Xoo##*-:144555555423344434234641<-**###*#####OOOOO@@@#*%*%**;:1322:=**$#&*=;;:<11<<111<-*ooX     ",
"    XO##=:<24555588855554444343442<:**###*#**##oOOOOOOO@####%&*-:<11:-**$OO##$*-;;;;-;:<<;=##XX     ",
"   XoO#*=:124556688885655555444441<;**##########@@+OoO@O###%#**::<<-==*#OOO###**=****=----=*#oo     ",
"   Xo##=;>23455558886856666544221<:-**#@@######O#@+OO@@*#%#%%**=-:-=**##OoOoO##&$*###******##oXX    ",
"...oO#&=:<234556686865666665431<<:;*##OOOOO#O#####O#####*##%%**=--=***#oOooooO##OO######**##@oX     ",
" ..oO#*->125555558665556666531,::;*%##OooooOOOO#########%%*#**=--==**#O#oooooOOOOooOO#######Ooo     ",
" ..o+%=-,24575555665545586641,:--=*#OOOoooXooO#######*#$##***=====**##OoOoooOoOXoooOOOOO###OOoXX    ",
"..oO##&-:1457676665555555553<:-***##OOoXXXXooOOO#O###**#***==--==*=**####OOOooOXXXooooOO@OOOOoo     ",
".XoO#%&-:146777565555556544<:;***##OoooXXXXXooOOO###******=----==*=**#*##OOooOXoXXXooOOOOOoooooXo   ",
"X.oO+%=-:<25587765555565432:;**###OooXXXXXXXXoOO###$#*$**=--;;-==*==***###O#OOoXXooXXoOoOooooooX  o ",
".XoO#&*=::1456655555565542,:**###OOoXXX X XXXoOO###$#*#**=;;;;-=**=-=****####OoooXooXoooooXoo o     ",
"XooO#&==::<24556865665542<:=*%#OOOOoXXXXXX XXXoOO#####***=;;;;-==*====***###OOooooooooOoXoXX oo oo X",
"XooO#&**-;>12447667776441>:*&##OooooXo.X..X.XXOO######&*&=-::;-=========*%###OOoooooooXoX.XXXXXX o  ",
"XXoO##&*=;:1246788887641<>;*&#OoooXoXXo..XXXXoo###%##*&**=;:::;-===*&*==*####OOooooXoXX.X.     .o  o",
"XXooO##**;>145679897641>>;=&##OoXXXXXXoooXXoOoO##$$#&#***=;>>,:;-=**&*=**####OOoXoXXXXX      XXX    ",
"XoooO###&=:<14678777411>;*&$#OOXoXXXooXXXXoOOO###*&&*****-:<1<<>:-=&**=**%###OoXXoXXXX         Xooo ",
"oooooO#&*-:>1457665421>;=*##OOoXXXoooXXoXoOO+###$*&****=-;:12241:;=**=**%###OooXXXX X         Xooooo",
"oOoooO#&*-:144444222<>;-**#OoXXoXXoXoXXXoOO++##&&#***===-:,12221<;-=*==**%###OooXo X X       XooO+oO",
"OOooO##&&-:122412111>>-=*%#OoXXXoXoXXXXooOOO+##&****===;;:><1211<:---=*=*###+OOoooXXX        XoO@@@+",
"OOOO###**-:<121<>>1>>;--*%#OXXXooooooXXoooooO#$**&*&**=;-:>,11211<::;;==**###OooXXXX          oO@###",
"OOO##&&**-::<<<>::>::--==%OoXXXXXooooXXoXooXo##%&&&***=;:;::11111<,>::-**&#OOooooXXX         XO####@",
"OOO###***-;::><>:::::::-*#OXXX XXXXXXXXXXXXoo####&##%*--:::<1112311<::;=*&##OOOoXoo X       XXO#@#++",
"oOO##*#**--;:>>>:;-::::=*#OoXX .XXXXXXXXXXXXoO###%##%*=;:::<11112211<:;=**##OOOooooXo       XoO#++Oo",
"XXO###****-:;>>::::::-==*#OoXX.X X XXXX   XooOO####&**;::::111122111<>;;-*&&##OOooooo       oOO#Oooo",
"ooO###***=-::>>>::::;==**#OooX  X  X     XXXoOO#####*=;:,,<1111421111>:;-=*&&##+OOooo   X XoO##Ooo  ",
"Xoo##*#***=::>1>,>:--==*&#OoXXX.       X X ooOOO###%*=-:::,1222444441<:>:;==**&##OOoooooooooOOOoooXX",
"XoO##*$&&&-;:,111,::;--=*%#ooXXX         XXXooOO###%*=::::124444444121<<><::=*&#@OoooOoOoOOO#OOoo  o",
"ooO##*#*&*-;:<111<,::--=*&#OoXXXX         XXoooO###**=;:::<244444444414111<:;=*%@OoOOO#O#OOoOOoXo o ",
"oo##&&&&**=;><11111,::--=*&#OooXX          XXoooO#&&*--::>,24554444433444421:-=&#OOO@####+oooooXoXoX",
"oO#%&**&*=-:>111<<,<>:;--*&&#OOoXX X       XXooo+#%&*-;:::1245643443345554421:=&##@@####@OooOooX ooo",
"O##****==--:><<<,,,<>:;-=*=*&$+OoXX       XXoXoO+##**;:;;:,268644434445555441>=&*####@OOooooooo o oo",
"O#%**==-=-:>,<<<>,1<>>;-----=&$#ooXXX     XXoooO##$&-;-::>1268854544544555442,:&*##*#OOOooooXooo ooo",
"+#%**==---::<:<<>><<,>>:::::-=&#OoXX.XX.XXoooOOOO##%=::::12588655545445555653,:=*#*@+OOoooooooo oooO",
"+##**==--:::::::><<>,<<,>,<<::=&OooXXXXXXooOOOOOO##&=;::<246888585554444555542,:**##OOooXoXooooX o O",
"O#%**=--::<<<::::>::>1<<<121<:=%#OoooXooOOoO#O#OOO#*-;>,1478888888654434455643::=*++ooo oooooX o   o",
"O##*&==--:,1<::::>::>11122221:=&#OoooooOOOO##O####%*-->13688898099854444557752<:*##OO ooooooooX o  o",
"O##&*=--;::,,::<::::<11212121:=%#OOOOOO#OOO#####O##*=;:14588800098854434456552:-*##@+oooo+OooXX o  o",
"O#%&==---:::<::::-:>114122221:=%##+OOO##OOOOOOOOO+#**;:13558889888644334455531:-***@+o+oo@ooXXXX ooO",
"O#&&==-;:;:>,::;--;:24422222,:*&$+#OO#OOOoOOOOooOO#*=;:1244545788855444445442,:==*#@+oOoooXXXXX o oO",
"#&*==--;:::,::;;=-::14442222,-*%##O@#+OoooooooooOO#**-:<124244455654544454442,::***++oooooXXXXXX oO+",
"&**==---::::::-=*=-:12423231:-&##@#O#@oooXoXXXooO##&*=;:,11122445555555545332<:;=*##oooXooXXoXXooO+#",
"**==-=-;:::::;==*=-:12133321:=%%+####OoXXXXXXXXoO##&&*=;::>>,,2455555454554321:;=*##OoooXoXXXXXoO##*",
"***===-:>:::=-=*&=-:,122432<:=&#O@@#OOoXXXXXXXXO###*%*==-::-:,1355554445545331<:=*##ooXoXoXoXXoO+##*",
"&**=*=:::::;-=*&&*-:,123441>:-&##O#@OooXXXXXXoO####%%&**==-::>1244444445555431::=**+oooXXoooooO+##%%",
"***==;::::;-**&&&*=::<444411:-*#####OOooXoXooOO##&$&*&&**=--:::,2,223445554431:::*%%OooXoooO@@+#%%%*",
"**==-;:::;-=*&&##*=;:1112141<;*#$#####OOooOooO###&&&&*&&**=---:-::::,3444543312::-=%+ooooOOO++#%**%*",
"***==;;:;-**&###%*=;<1241442<:=*##&###OOOOOOO##&&&*&*&&&&&&=&&*====::,23454331,::=*%#ooOOO+%%%%*****",
"**=*--;;-*$#####$*;::<1244421:-==***##########&******&&#&#%&$%&&****::,24444221,::=%%OOO++%%**==****"
};
