/* XPM */
static char *result[] = {
/* columns rows colors chars-per-pixel */
"100 100 32 1 ",
"  c #3E7AAE",
". c #3F7CB0",
"X c #407BAF",
"o c #427EB1",
"O c #4582B4",
"+ c #4886B7",
"@ c #4988B7",
"# c #4987B8",
"$ c #4C8BBB",
"% c #4F90BE",
"& c #5091BF",
"* c #5395C1",
"= c #5699C5",
"- c #589CC7",
"; c #5A9EC8",
": c #5DA3CC",
"> c #5FA7D0",
", c #60A7CF",
"< c #60A8CF",
"1 c #60A7D0",
"2 c #63ABD3",
"3 c #67B1D7",
"4 c #68B1D7",
"5 c #67B2D8",
"6 c #6AB5DA",
"7 c #6DB9DE",
"8 c #6FBCE0",
"9 c #70BEE2",
"0 c #72C2E5",
"q c #75C6E8",
"w c #77C8EA",
"e c #79CAEC",
/* pixels */
"::::::;;*%@@#++#%*=;:,2244332>;-=***$$$*&&*&&&*=*==&*&%$%$$$$#$$%&%&*=:,243332<:;=*%@##$%&=;::::::::",
":::;;-*&%$@+@+@#$*=;:,224436321;=-=*******=&&=***&=&&&$$$#$#$$$$$$$$$&=:222222,:;=&%$$$&&&=:<<<,,:::",
":;;;=*&$$@+OOO+@%*-;::1246666321:;;;;====-=*=&===&&&&$#++++++++@####$%=:122221:;-*&$$$%&*;:<1211::::",
"-;;*&%$@$++OOOO@$&*-;:226667643221111:;;;:--===*&&&$$#++OOoOOO++++++#%*;:12211::=&%$$%&*=::2222<:::;",
"---*$#+++OOoOoO+#%**=:>3466676433333221:::::-===&&&$$+OooOoooOO+OOO+#$&=:<221,::;*&%$&*=;::222:::;;;",
"-**$##OOO+OOoOOO@$%**:>266868666667764211::::--**&$$@OOooooooOOO+O+O@$&=:<211:::;-&&&*=;::111::;;::;",
"-*$#+OOOOOOOoOO+@%%**::233686766777776622121::-=*&&$+OXoOooooO+OO+O+@#%-::<<:,:::*&&&*=;::::::;::;:;",
"*$#+OOoOoOOOOO++#$%&&-:2266888887808077633331:;=*&$@OOOOOoooOOOOOOO+@$&-;:::,<<::=*&**=::><:::::;;-*",
"$#OOoOOooOOO++++#$%&*-:1236777777900007777632>:-=&$#OO+++OOOOOOOOoOO+$&;:,::112<:=***;;:::,::;:;;=*&",
"#OOooooOOO+++O++@$$&*-:236677767790qwq0088763<:=*&$#++##++OOOOOooOO++$*;:::,112<;====;;:<,:::;--=*%$",
"@OOooooOOO+++OO+#$$&*-:236776668700eeeqqq07742:==%$#@#$$++oO++OOOOOO+$*;::::<21<:====;::1:<::;;=&&$@",
"OOoooOOOO+OOOOOO##$**::36778866870qeeeeewq073<:;**%$$@$$+++O+OooooOO+$*;:;:::,,:-=-;;:::11<::;-=*&$+",
"OoooooOOOOOOOOoO@@%&=:<37987768790qwweewwq0721::-%$$$@$@+OOOOooooOOO@$&;;::::,::-=--;;;:11:::;-**&$#",
"OOOooOOOOoOo.OOO#@$*-:2678777668770q0qqqq09621:;*%$@$###+OOOooXoXooO+$&;;:;:;:::;;;-;;;:12:::;==&&%#",
"#OoooOoOoooOOOO+#$$&-:16708766778070000087622,:;*$$#+#+++OoooXoXXXXO+#&=;;;;:::::-;-;;:::1::;;-*&%$@",
"#OOOOoOOoo.OoOO+#$%%*-<36777876877770000742,,::;**$@+++OOooX XX  XXo+@&**=*==::::::-;;::::::-==&**%@",
"+OOoooooOoooOO+#$$$%*=,2666887677667700042,::::-**##+OOOo..        OOO@*****==::,:::::,:,:;==***&%@#",
"+OOOOoooooOoO+#$$$$%*=;2336887866666787742::::;-*%$@+OOOo.         XOO@@$%***=::,,:::,,,:;=*****&%@+",
"OoOoooooooooO++###$$%=;2236777666667777621::::;**$$+OOOOo.           XOO@%%**;::,,,,121,:;=*****%$@+",
"oOooooooooO+++++++++$*-;:>3463667667676632:::;;=*%#+OOOooo           OOO#$%*=-:::,<2221,:=**&&&%$#+O",
"oooooooooooo+#oo+o++$**=-:>234466666676632::::;=*$$#@++OX           XX O+#%*=;:::,122221:=*&%%%$@+OO",
"oooooooOooooooo o+o+$%%**-::11246336366332<>::;**$$@@++Oo            X XO+$&=-;::,223241:=**%%%$@+Oo",
"oooooOoOo.XXXo  +o++$$$%***-::1233254333311<::;**$$$$++Ooo           X OO+#**==;:,224421:=*&&&%&#+Oo",
"ooooOoooo    X  o+o++##$@%*-;::222222222221:::;*$$$$$@++oo          X  OoO@&===;:1144421,==**&$$@+OO",
"ooooOooo        oo+oO+###$%==;:1>2232<222<<,::=&&$$$$@+OooX       XO    O+@**=-::<133331::-=*&$$#+O ",
"ooOOOooo        ooOooOO++$$*=;:1>><22>1<1:,::;-&%$%&&$+OoooXX XX      OX +@*-::><1222332::-**&$$#+Oo",
"oOOOOoX         ooooo+O+##$*=-:,>:>22<21<,::;;-*&&&&&$+Ooooo oooO   O O OO@*::>2222233221:;-*&$$++Oo",
"+##Ooo          ooo++o+O#$$*=-;;:::>2222::::;==*&&*=&$+OoooooXooXOOOO  OO+%*::12323323331:;=*&$$+OOO",
"+O#Ooo          Xooo+++##$%*=====-:>1222<::;;=======*%@+OoOoooooOOOOO  OO@*-::123633646621;=*%$++OOO",
"+OOOoo          Xoo+++#$$&**==***&::2232<::;;-;=;-==*&$#+OOOoooOOOOOOOOO+@%=:>36667777764:;=&$@+OOOO",
"oOOOo           oooooO#$%$******&=-:>3332,::;;;=--==*%%#++OooOoOOOOOOO++$%*::236778887772,;*&$+OooOO",
"oooooo          Xoooo++#$*$****%&*->>3332:;=;==-==-&&%$#+OOoOooOOOOOOO#@@%*->368800000762:;*&#+OOOOo",
"ooooo         X ooooo++$$%%****%%=-::>32<,=========&&$@++oooOOOOOOoO++$$&&;:237000ww007521:=%@#OOoOo",
" oX          XXooo+oO+$%%$%*-=*%&**:::>>,;;*==*=**=&%@#+oooooOOOOOO++@$%*;:23780wewww0762:;**$#+OO o",
"o o.   X    oOooOo+O+@$%%%&--=****--::>>,:;**=&&&&&&$#+oooXoooOOO++@#$%*-:14670wweww00773>;-*$##Ooo ",
".oX oX    XXXXOOO+o++#@$%$%---*-----=:>:::;=**&&&&%%$#oooXoXooOO+@+##$%*;:36700000w000762>;-**$$OOOo",
"XXXoXXoX XooOOOOO+OOO+$$&%*---=-=;==::::::;=**&%&&%@@#OooXoXooOO++@#$$&*:1378000q00qw00761:;-*$#OO.o",
"    X .X ..OOOOOoooooO+$$&$*===-:;;==:;:::==**&&&%%$$#OOoooXXoooO+#$$&*-:2679000000qq008631:-*$@Ooo ",
"  . ooooo oO+OOOOOOooO+$$$&&**=-;==;=:;::;==***&&%%$$@#OOoXoXXOO+@%&&==:2378008880000000831:-%$#+Oo ",
"o  o  OoOOO+O++OOooOOOO+#$$&***-;=;=;=:;:;==*=*&&%@$$##OOoOooOOO@@&&*=:<36780088890q0000962:-%%#Oo o",
"  Xo ooOOOO++O+O+ooOoo++#@$*$%*=====-;;;=-***&&&%$$$$##+OoXoOOO##%*-*-:13780009880090800762:-*$#Oo  ",
".  oXooO++@@+++@++OO++++#@$$$$$*====---*-**&&&%%$$%%$$##+OOOO+##$*---:<26800998890088880863:-*$#OooX",
"    ooO+#$#@+@##++++++++###$$$%*&==;;--***&&&$$$@$$$$$#$##OOO##@$=;::>237000088800987877762:-&#+OooX",
"o  XooO#$$$$@$%%$$$$$$$+@##@$$%*==;;;-**&&&&&$$+@$$%$$$$$##++#@%*-:1>235700900000007777763>:*%#Ooo .",
"    ooO#&&&&&&&&&%&&*&%$$##$$$*==:::;=*&&$&%$@++@#$$$$$$$$@##@&&-::22336799900000987767632:-*#+OooX ",
"     oO$$&==-;=**=;=-*&$$#@%$*=-::<:;=&%&$$$@@+O++$##$$$%$$#@%&=:,146336787880090987766661:-*@OOoX  ",
"    ooO#$=;::::;::::;=*&$#$**-::<22:-*&&&&$$$+++++@@$@$%%$$$$%==:126336367777878888777663::*$#+oooX ",
"   . oO#$=:,1<11222<:;=**$*=-:>2462<;=*%$&&$$+++++##@#$$$$$$$%=;>266333333646647786766642:-&$#+Oo   ",
"    XoO+%=:2233446321:--**-;:>26644,:&&$$$$$#$#+++++@@#$$$$$$&=:1366633333222126666677631:-&$#Ooo . ",
"    ooO$*=:1466786332>::=;::1223642,-=&$$$$$$#++++++@@#$%#$$$&*:1266332221::::22336777631:**$+oX  . ",
"    XO+$*-;13677664322>:::122333662,:=&$$$$$+++$++++##@##@$$$&*:13663221:::;=:>2346766631:-&#Ooo    ",
"   ooO+$&-:136676666322121332333664,:=&%$$$$$$$##+++##@$%%%$&&==124632>:;-**-;::236633421:-&#OooX   ",
"  .ooO#$*-:236777688644466444436642,;=&$$$$$$$$+#+++++##$%%%%&=;12662::-=&*%*-;:1132:1121:=$#OooX   ",
" X ooO#$*;>36676688888897766643344,:-&%$@$$%$$$+#+@+++@#$$%%&&*;:122:;-*&$$$$*-=:::;;;::::-$#Ooo.   ",
" XooO+#*-:246666889000098887633342,:=&$$$$$%$$$$@#@+o+#@$%%&&&=;:>:::-*%$$#$$**--=-==----**$#OoX    ",
"  .oO+$*-:24667789000009999763322,:=&%$++#$$$$$$$$#@@#$%$%&&&&=;;::-*%%$@$#$$**&***$&&%&%&*$$Oo.X   ",
"XXoo+$%*;136677799909999q9974222,:;&%$#+@@$@$$$$%$$$#$$%%&&&&*=;----*$$#$###$$$$##@$%%$@$$$$#Ooo    ",
"XXooO$&=:247877790999990999742,::-*%@##oo+++@$$$$$$$$$%&&&*&==;;--***$$$$##++##++++#@$####$#OOoX. XX",
"XXoO+$*=:278979899999799q99622:-==*$@+#oo+o++$$$%$$$%%&&&&*====;=-****#$$#@+++OOOOO+O+@@###+OOo  o. ",
"XXo+#%*=,26909900099999099742:-==*%####oo+oo+#@$%$$%&&&**==;;;;;==--***$*$++++OOOOOOO++@#OO+OOXoo   ",
"Xoo+$$&=:26900q0099999909762,;=*&&%@o+ooooo+o++$$$%%****==;;;:;;=-=--***%$$#@+OooO.OO++OOOOoooo    X",
"oXoO@$*=:138000qq09999099742:=*&&%#o+ooooooo++@$$$%%&&**=;;::;;;--;;--***$$@#+OOooOOOO+OOoooooooX   ",
"oooO+$*=:137900qq0999099762,;*&%%##+oooooXooo++$$$%%&&&*==:;::;;--;;-==****$$#OOOOoOOOOOoooo.oo o X ",
"ooo+@$*=;:14780qq0qqq999742:*&$$@#@@ooooXoooo++$$$%%&&*==;::::;;------=-=*%%##+OOOOOOOOOo.    .  o o",
"ooOO#$*=-;:36890qq0qq00763<;&&$#++++oOoooXoooO+#$&&&&**=--:::::--====-;;-&$$$$#++OOOOOOXX       XXo ",
"oooO+#$&=;:3770qwewwq0763<:=&&$$+++OOOOOXoXooo#$%***&*=**-::11::-===&*===*%%$$#+OOOOOX   X      XXXo",
"oooO+#$&=;12670qeewq07632:=*&$@@+oo+OOOooooO++#$*=*****=*-:<12::-=&&&&==*&%%%$#OOOXOO           XoXX",
"oooO+#$%*::2470qwqq00662:;&&$$@+O+Oo+oooooOO#$$%**=*====-;:1222<:=*&&&=**%$%$#+O OO            XXXOX",
"OoOOO+#&*;:267000008763>:**$$++OoOOOOOooOO+++$%*===-=;=;-::23332:;&&&&=&%%$$#+OOOXO            OXXOX",
"OOooO+@**;:36878878766<:=*%#+OOO+oO+OoOoOOO+$$&*===;;;=;-::23332:;==&*==**%%#+OOOOXX            OOOO",
"OOOO+#%%*;:37776676653>:-&$+OOoOO++OoooooOO++$&*=====;;;;::12222,;=&&=&=*&%%@@+OOXX X         OOOOOO",
"OO++##%*=;<26663434331>:-&@+ooooOoO+oooooOOO+#%*===*====::>12221::;===-=*%$$##+OXOO            XO+O+",
"OO++$%&*-;:2343332333>::*&+OoooooooooooooooOo#$&=***==;;:;,,2122<:::::-=%$@#O+OOOXXX            +O+O",
".OO+@$%*-;:<133322221::-*$OooXXo  oooo ooXooO#%%%%%%&=;;:,,,2222<<,:::-=*$@#+OOOooO           XXOOOO",
".O++$%&*=-::2332321<>:;-*#+Ooo X    o X XXooO#$%&$%%&=-:,,,,111121<<::-=*%$#+OOOOOOX         XOOOOoO",
".O+@$$&**=::13333<>::;-*&$Oooo X    X   XXoXO#$$$$$%&=;:,,,,22223211>:;-=*$#++++OOoOX       X OOOooo",
"OO+#$$&&**;:123221<:;--**#Ooo.          XXooO##$$$%&&-:,,,22222322221<:-=&$$@$##OOOXX      XOOO OXXX",
".O+#$&&&&*-:12323<::;--**#+Oo. .        XXooO+#@#$$&=-;,:,223423323321::;=*%&$$#+OOOOXXX  OXXOXOXOXo",
"oO++$&&%&*-:133322<:;;-=*#OOooXX        XXoo++###$%&=-:::,134644644642>>::-**%%$+OOOOOOXOX XOXO oXXO",
"OO+@$&%%&*=:122331<::;--*$#OooXX         oooo+++#$%&==::,,2466676666663321:--**@@+OOO+OOOOOOXOOXXooX",
"O+#$&&&&&*=:,222211<,:;-*%$#Oooo           Xo+O++@&*=;:::<14677666764666631::=&$@++++++OOooOXXoXoOOo",
"O@$&&&&&*=;::1121,,<::-**&$$#OooX          XooOO+$%&=;::::126777676666776642,:=&$##@$@++OOOooXXOoOOO",
"@#$&*&&=*;;:,:,::::,,:=***$$##Oo.X       XXoo+O+@$$*=:::::<47997766667787643<:;&%#$$$++OooooXXoOoOO+",
"@$&&=====;:::,:::::,::==****&##OooX     XXooOOO+#$&&;;:::,2680077766777777662,;&&$$$@+OoooooOOoooOO+",
"$$&**==;;::::;;;:;::::;;--=**$#Oooo XXXXXoo+O++#$$$*;:::,23700088777776787774<:*&$$#@OoOoOooOOoOOO++",
"$%&&==;;;:,,,;;;;;;:::;:=;;;-*$OoooXXoXXoooO+###@$$*;::12670000099876777788761:**$$++OOoOoOoOXOooOo+",
"#$&*===::<11::;;;;;;;::;;:;;=*$OOoXoooXOo+o++##$$$&-;:<1670qwqqqq098776678776<:-*%#+OoOOOoXOOOOoooo+",
"#$%**=;::<1<,;;;;=-=::1:::::;*$#OOoooooO+o++#$$$$$&*:<1370qqwwweq009877778873<:=&$$+OOoOOOOOOOOooooO",
"@%%*---::,,:,:;;;==;:11::::;;*$+OOXoOoO++O++$$$$$$&=;:<3700wweeeeq08876788763::&*%##+OOOO+O+OOoooOoO",
"@@$*=-:::,,,::;;===:,111:::;;*$+OOOoOOO+OO++$$$#$$&=-:13600qqwewe088766777662:;&$$##+O+O+++OO.OoooO+",
"$%*----:::,,:;=-===:1221,:::;*$#OOOooOOOOO+++++++$&=-:14678800qqq087777676332:;=*$$##OO+OOOOOooooO+$",
"**--:-::::,,:;;***=:1211::,:;&$#+OOOOOOOOOOOO+OO+$&*-:<256677700008776786652<:;&*$$##+++OOOooOooOO@$",
"&==;:-::,,::;;**&*=:,,,::,,,=&$++OOOOOOoooOoOooO#$&**;:1333347700888788776431:-**&$##OOOOOOoOooO+@%*",
"::::::::,,::;==&&**;;,:,,:,;=&$+OO+O+OOOooOoOoO+$$&*=;:,121224678877768676632:--*$$#+OOOoOOOOOO+@&&=",
":::;:::>2,,;==&&&&=;:,,,,,,;=&$++OO+OOooOXooooO@$$&**=;;:::>12366766666777663>;**&$#OOOOOOOOO++#&&=;",
":=;::>>2<,:;=*&%%&*=:;:,22,:;&$+OO+O+OOooOooO++$$&***-==;:::>1223333336676662>:==*%#OOOoOOO+++$$&*==",
";:::<<222:;-*%%@%%*=::1222<:;*$+++++++OOOOOOO+#$$&&**-==-;;;::::11112336766631:;-*&$#OOOOO+#$$%*=;;;",
"::::<22<<:-=&%$$@%*;::12322<:=&$###$#+++++++@#$%%&*****=*=--=-=-;;::>2366633211:-=*$#+OOO+@$$&&=;;;;",
"::::><:::;&&%%$$$*-;::122222:;&%$$$$#$$###@$$$&&*&**=***&=**&*&**---::233633211:;-*%##+++#$&&=;;;::;",
"::::::::;*&$##@$%**;::223442<;=*&&&$$$$$$$$%$%&**=*=**&&&&&&&$%%%***-::1343321::;-*&@#++#$&*;;:::::;"
};
