/* XPM */
static char *result[] = {
/* columns rows colors chars-per-pixel */
"100 100 32 1 ",
"  c #3E79AE",
". c #3F7BB0",
"X c #407BAF",
"o c #417DB1",
"O c #4583B4",
"+ c #4886B7",
"@ c #4988B7",
"# c #4987B8",
"$ c #4C8BBA",
"% c #4F90BE",
"& c #5091BF",
"* c #5395C1",
"= c #5699C5",
"- c #589CC7",
"; c #5A9EC9",
": c #5DA3CC",
"> c #60A7CF",
", c #60A8CF",
"< c #60A7D0",
"1 c #63ABD2",
"2 c #67B1D7",
"3 c #67B2D8",
"4 c #69B5DA",
"5 c #6DB9DE",
"6 c #6FBCE0",
"7 c #70BEE2",
"8 c #73C2E5",
"9 c #76C6E9",
"0 c #77C8EA",
"q c #79CBED",
"w c #7CCFF0",
"e c #7CD0F1",
/* pixels */
"4554431>-&%@@O##$$**=;>>>>><;;*&*&%$$$%&**==*-=-==-=*******$$$$$$$$@$**;:::<::;-**%$$##@$&=;<3454553",
"655531<:-&$###O+$$&*=;;>>>11>>--==**&&&**-----;-;-==*****$$*$$@#@O##@@**;;::;;-=*&$$##$$%*-:13355555",
"55531,:-*&$#O++#$$$**->>11111<>;;-=****---;;:;:;;;=***$*#$$@$@+OOOOO#@%*==---=**&%$##@$$&=:114555555",
"5551>;-=&$@#+O++#$&&*-;>122211>>::;;;;;;::>>>>>;;=**$*$$#++OOOOoOooOO#$***==****&$$###$&*->155555555",
"331<:-*&%$#+OOO+#$$$%*-113332211,>>><><><<<111>>:=*$$$$++OOOoOoooooOO#@$%***$*%*&$$##@%&*;>344543454",
"31:-*&%$$@#+OOO++@$$$*->13444322112334332212111>;=**$$++OOoooooooooooO#@@**&%$%$&$$$@$%*=:<134343344",
"1>-*%$$$@@+O+O+##$@$$&=;122555344455776543333211;=**$+OOOoooooooooXoOOO#$$$&$$&**&$$$$&*;:1112212332",
":-%$@@$##@+O+++##@+@#&-;11245555577700877554421;;=*$$O+OOoooooo.X XoXXO#@$$$$*%**&%$$%&-;><1<111111>",
"=*$@@O@@#+++@+@@@O+@#&=;>13455677780qq098755421>;-*%####Oooooo  X  oooOO@$$$*$****$$&&&=:>,111,,>>:-",
"$$@#O#OO++++++@@@O@#$&=;>13467767880qwqq0875521>:-*$$$$@OOOoo.o   X ooOO#@@$$*==*&$&&&=:>,11<,>>:-=*",
"$@#O++O@O+OOOO#+++@@$&*;>1377777890qqweq0087532>:-*&$$$@+ooo.oX X    oOO##$$**==*%&&&&=:>,1,11>:--*&",
"@++@OOOOOXOOOOOO+@#$%&-;<2477777880qwqwqqq08542<:-*&&&$#OooooXX   X  ooOO#@$$*-*&&$&&&=;>,11<>::==&$",
"#++OOOOOoOXOOOOXO@$%%*-:135776778880q0qqqq075421:-*&%$##OoXoo .     XXooO##$%**=&&%%&&=->>11>>:-=*&$",
"@#+OOOOXXoXOXOOOO$$$&*->25576667668800000085421>-*%%$$#OoooX        XXoOOO#@$***&$%$&*=:>>1>>:;-&&%$",
"$@+OOOoooXXoXXXOO##$%*;135576577678880887553111;-*%$###OOooX          oOO##@$*=*&&%%&&--:>>>:--*&&%$",
"@#+OOooX XX OOOO#@#$&-:13455765765588887531111>>=*%$##OOoo.          XoOOO#$$&===&&&&*=-;::;-==*&&&$",
"@@#+Oo..      o####%*=;1114555555555677641>>><>;=&$@##o+ooX             OOO@%&==-=&&&=-;;:;==&=&&&$@",
"+#O+o..       o+###%&=->>1255554455555543<;:>:>;=%$#o++oooXX            OO#@$&=--;;-;;;;:;-&&&&&%$@+",
"OOOOoo.       o+###$%*=-;<<23555455555441<;:;::-*&$#o++OoXXX            O##$$*=:;;;;>>>;:;=&&&$&$$#+",
"OOOooo .      ooOO##$%*=-;:<1444544544331>:;;>:-*%##+++ooXXX            XO@$%*-:;>:>>>>>>;=&$$&$@@#O",
"OooooX          o+O+#%&&**->11244333332211>:>>:-*&$@#@+O             X  XO@$*=-:>>>>2111:;&&&$$$##OO",
"oooooo          ooo+#$%$$%*-:112111<11<11<>><>:-*&$@#$@+X               XO@$*=::;>>22441>-&&&$$#+#Oo",
"oXoXXXo         ooOO@@@O#$%*->>11,>>>>,,1<><1>;-*&$$$$$@XX             OOOO%*=:;>>144542>;=&&$&#+OOX",
" XXX            ooooOOOOOO$*=->>,::::::>,<<<<>:-*&$%$%$@oX              XOO%*-;:>,347542>:-*&&##OOOX",
"XX              XoXoOOooO#$%-;>>::-:::-:>:<<<>;-*$$$&$#+ooXX           XXO@&*=;>>,4787541;;=&&##OOXX",
"X .             XoooOoOOO#$&*;;;:;:--:::>::<>:;-*****&#+ooXX          oXoO@&=;:>145777642>;=*$$#OXXX",
"XX o            XXooOOOOO@$&*;;;---:-::::::<::;-=*==*$$O+ooX    XX X XX OO@&;>,24577876521:-=$$+OOoX",
"o.o             XooooO#OO@%&=-;-=*=-::::::;;;;;;----*%#oooXX    XXXXooOOo@%*>,345888786521:;*%$+OooX",
"Xoo             XXoOO##O@$%*=-*****-::,>>;;-;---;;>-=%#++oooXXXXXOoOoooO@$%-,4578888887641:=&$$OOXoX",
"o.o             XXoOO##$%&****&%$&*-:>,,>;---;;:>>>;=*%#ooooXXooOOOO#O##@$=;14789999888721;=&$#+OXXo",
".XXX            XXoO###$%&*-*&%$$&*->111>;;;;>::>1>:-=*##ooooooo########%*->2589qqq9998621:=&&#ooooX",
"o X             XooOO#$%&*****$$$&*->111>>:;;>>:><>>-**$##oooo+##$@$@$%%&*;<4699qqqq098521:=&$#+oooX",
"             XXXoooO@#$&*****&%%%&=-:111<>;;:>>:>>;>-=&#+ooOoOO@$$$$%%***=>1570qqqqqq0752>:=&$#ooooX",
"X           XXXoooOO+@&&***--&%&&**-:<,1<;;-;;;>;>;-*&$++OOooO+#$$%&&&**;>14780qqqeqq07521;=&$$ooo X",
"XX          X ooOOO+@$&&***;;=&&*=-::<1<>>>;::;;;;-=&%#OOOoooO+@@%&**&*-;125800qqwwqw08741>&*$$+OooX",
"X            XoooOo+$$&&*==>;;-*=-::1,11<1>;:;;--=**&&#+OooOooO@$%&&&**;>35790qqqweewq7621;-*&$+OoXo",
"            oo+O+OO@@$$&*=;>:;;-;::,,<<<>1>>;-=*=**%&$$@+OoooOO@@$%*&*=:15580000qqeeqq9741>-&$#+oooo",
" X          ooOOOooOO@$%*==;;::::>><:,,,>1;;-=****%*%*$#O+oooooO#$%&**->1579q0000qeewq07521;=$@ooooo",
"      X XX Xo+OOOOOoO@@%&*=;::;>>::,,:>>>>>-=*****%$&*$$+ooOooOO#@&*=-;>2579000000qqq007641;=$+Oooo ",
"X       XXoXOO+@+OOOOO+@%&*;;-;>::::::,:1>;-==***%%*&$$$++OoOoO+@%*=-;>12580009890qq0999741:=$#+Oooo",
" Xo  X ooooOO#@@@OO@O@+#%&*----;--;::::>:>;-***&%&&&%%%$#+OOoO@#$%*;;:>1458q099990097797741;=&$+Oooo",
"oX   XooOoOOO@#$$#####$$%&==-*=--=---:;::--***%%%$&&&%$%#+OOO@@#$*-;::,25799098797977677741;&&$+Oooo",
"X   ooooOOOO##%%%%$$&$$$&*=***-**--;;::---***%%$$$&%&%$$$##OOO@#%*-::>134799999997755555531;&&#+Oooo",
".oo.ooo+#O@@$%%*****&&&&**=-***---;;:--==***%%$$$&&&%%$$##@+O+#%*=;;>>13588989997755444442>=&$+Ooooo",
"oXXoooO#$$$$%&**--==*==**-**=**-;;:::-==*&&%%$###$$%%$$$#@#O@#%&*;>>,,13578880987553223421:=&#+ooooX",
"    ooO$$$%**=--;;;;;-==-*=---;;><<::-=*&&%$$@##@@#$$#@$$$#@@$&-;>>>,,2346677875544222232>;*$#+ooo  ",
"  oXoO##$%*--;;>>>>;;;--=*-;;;>><11>--*&&%%$@@OO@#$##$####@#$%*;;>>1122344455554542222231:-*$+oOoo .",
" XooooO$%*=;:>1<111>>---*--;:>>1331<:-*&%%@@O@O@O@#$$#@@@@@$$&-;>>>111,222233343332222221:=&$#Oooo..",
"o  oXO+$&*-:<113211>>;----;>>1124331>;&%$$##OOO######O+O++@@%*;:>1222211221,111221113332<;**##OOoXX ",
"  ooXO+@&=->1333211>>>;-;:>111143331:;*&$@#O##OO#####+O+O+#$%&->122222211>>>;><111223431<;=&$#ooooXX",
"   oXO+$&=;>2333211111>;;1>11123332,>-*&$@##OOO##@#+OOOO++#$%*->224321111>;;;;>><1223321>;=%#OooooX ",
"o.XoXOO@&*:>2343212111>111111212221>:=&%$@O#O##@@@+#+OO++#@%%*->,23311>>>;---;;;><11221>>-**$OOoX X ",
"  XooO#$&=>,22222223443233221111,,>>;=&$@@####@$@###O#O##$$%%*;>>1331,:>;--*--;>><111<>:-=*%$OOoooX ",
"o oooO#$**>122222344555755432211>>>;-=&$@@@@$###@@@##O##$$%&&*-;:111>:;;--=*--;;:>>>:;;--*%$@Oooo   ",
"  ooOO#$*;>24222244577777775411>>>;;-&$@##$$#$$$@@$#O#@$$**&*=-;:>>>:----=*-=---;;;;--=**%%$@#oo  . ",
"XoooOO#%*>1333224555799977753111>>;-&%@O###$$$$$&%$@#@$%%%****-::>;---*=*==****--=---*&%$$$##OooXXXo",
"oXooO#$*;>234434557799979875311>;;**%$OOO##@$$%%%&%$@$%%***==-;::---=**===*&&&&&&*&**%%$###O#ooo . o",
"oXOOO#%*;145555577799999097531>:;;*%$O#OO#@$$%%%&%%$%%%**=--;;;;---*=***==*%%$%$%$%%%%###OOOOooXo XX",
"XooO#$%*;145777777977999087411>;;-*%##OOO##@$%%%&&%%%%**=-;;:::;--===*===*&%@@##@$#$$@#OOooooo X   o",
"XXoo#$%*;14597899099999008741>:-;=%$@@OOOOO@$%%%&%%%%%**=-:>:::::;--;;--;=&%$@#OOOO#@##OOOoooXX o  o",
"XXoO##%*;1478990qq0999000754>>--=*$@#OOoOoO#$$%&&&&&***=-::<<<:::;::>;;;;=&$@##OOOOO++OOoooX        ",
"XooOO#$*;127800qqq00900q97521:-**&$@OoOoooO+@%%&&&&****--:1<<::<>::>>:>;;=&&%@#OOOOO+OOOooX         ",
"oXooo#%*;14570qqeeq000009751>-=**&$+OOoooOO@@$&&&&&***=-::<,:<<:>>>>;;>;;-=&$@++OXOOOOOX        X X.",
"XooOO@$*->1479qeeeq000q07551;=*&&&%$OOooooOO@$$&&**=*=-:::1<<<<<>>;;;;;;>;-*&%@#+OOXOOOX            ",
"oXoO#$$*=;<378qqewwq0q09753>-**&*$$$OOOoooOO##%%**---;;::::11<1::::=*-:::-***&$$#OOoO X           oX",
"Xooo##%&-;<4780qqwqqqq9853<:-******$##OooOOOO@%&*-;;;::::::<:11:::**&*==-=***&$#OOOoX X            o",
"XoooO#$*-;13589qqwqwq08651:-=*&&*$$$#OOOooo##$&=;;::::;;-::<11<:-=&%%%&=-****$$#OOOo             X o",
"oXooO#$*=:>3579qqqwqq9851:-***&$%$$@#OooOoO#$%*->>>:::::::::111:-*%%$%&==***&$@#OOoo             X.X",
"oXoXO#$&=:<35800qqqqq974<;=*&%$$@@$@#OoXoOO#$&-->,<>>>>;::::121:-*&%@%&**=*&$$###OXX             o X",
"XoooOO$&=;<358999qq09853>=*$@@######Ooo oooO$&*;:,<::::;-:::<11:-&&$$&&***&&$@#OOoX               oo",
"oooOO@$&-:<4788899998741:*$@#OOOOOOOoo  oooO@$*-::>::;----::<1<::&&$%&&=**&$$@#OOO X            Xoo ",
"ooXO#@%*-:1368888888753>-&#OOOOoOooooo  XooO#$%*;::;;;---:::<<::-==&&==-*%$@###OoX               o.o",
" ooOO$&=-:<35677888653<:=$OOoooO        .oooO#$*----;;:-:::::::--===---=*$$OOOOoX                Xoo",
"XooO#$%*-:,3578858541<:;*$#oooXX         ooOO#***=*=-;::::;:::::-----;;=&$#OOOOOXX              X  .",
"XooO@$%*=:>145788541,:;=&$Oooo           .ooO#$*&*&*--:,>::::-:::;-:::;*&$#OOOOOoo               X X",
"XoOO@@%&*->13578541:::-=$@Oo              oOO$$*%$&*=::1<>>::::::;::>:-=&@#OOOoOoo                XX",
"ooOO@$%&*=;<355653,::-=*$Oooo.           XoO+$$$$$&*=:<<<1<,:::::::,<>;-&$#OOOOOOoooX           XXXX",
"oOO#$$$%**->135441<::--*$#Oo             XoO+$$$$$&*-:<<<<,,<<<:::>11>::*%$@##@#Oooo            oXXo",
"oOO#@$%%&*;>23432<,:::=*%#Oo.            Xoo+$@@$$%*-:>>,,<1111<111211<:-*&$@$$@OOoo            XXoX",
"OOO@$$$%&*;>11121,:::;=*$#Ooo             XO+@@@$$%*-:>:::<2222433344411:-*&&&&@#OOO            OoOX",
"OO@@$$%$&&-:<<<<:::::-*&$@OOo  o            OOO#@$%=::::::<12444544544321:---*&$##OOOooXXXX   XoOoOO",
"O@$%%%%%&*::::::::-;:=*$$@OOoX              OOOO#@%*-:::-:<13455554555441<>:--*%$$##OOooXX XX ooOO+O",
"@$$%%%&&*--::;;------=&$@#OOoo              OOO+@@%=::::::<345665544455542<,:;*&%###OoooX    oooO+#O",
"$$$*****=-::--=*&&==-=&$@#OOoo              OOOO@$%=::<:::146666555555565331<:-*$@@O+OoXXXX Xooo+###",
"$$%**==-;:::-=**&&&===*%@#O#Oo            XOOO@@$$*-:1<<114588887666565655431>*&$#++OoOoooooXooOO#@$",
"$*%*=-;::,::;=*%&&%&**&$@##OOoo           XXOO@$$%*-:11245588898877675767553,;*&$##++ooooooooooO+O@$",
"$$**=::<1<<>-**%%$&&***$@@OOO.  .  X    XXXOO@@$$*=;<12458800009877777756752>-*&&$@OoooooooooOOOO+#$",
"$%**;:,<111::=*&&$%&*=&&$@#OoOXX        XOOO@@$%**=:<14569qqqq0q098777777531>-*&%#@O+o+ooooooOOOO+O@",
"$**-::,<11<::-=&%%%&==*&$@+OOO..o      OoooO#$$*%*-:<34689qqqwqwq0987777743,:=&%$@+OOOOOOOoOOO#O#O#@",
"$*=:::<1<1<::=*&%&$**=*%$@##Oooo     .XXooOO@*$$%*=:<145689qqweqq0877777541>;*&%@++++OO+OO#O##O+###@",
"*=;:,<1<11<:-*&%$&&===*$%@@#OOo X     o ooOO#@$$$=-;<1246880qqeq09876665531>;=&$@#++@+++###O+OO####%",
";::<,1<1<<<:=*&%$&&****%$$$#OOooX  o.XXOooOO##@@%*=::<34557880qq08776665411>:*%@###@@++####O##+##$*=",
":111111<11>:=**$$&&**&%&$@$@#OooXXX .oooooOOO#O@$*=-:1244555689986665565331>:*%$###@#+#+####@@@$$*=;",
"4422221211:;=$$$$$%&$*$$$*$@#OoOooo oooooooOOO#$%*=;<11334445686654444545331:=&$@$$@+++OO##$$@$%*-:1",
"444244431<:=*$$@@$%%$%*$***$@@OOoooooooooooO##@%%*-:<11213313343221122445431:-*$$$@#+OOO###$%%&*->13",
"554445442:;=*$@@@$$&*$*$****$@OoOooooooOOOO#@$$$&*;::<1<1<<<><<:,,,,,1123431>-*&$$@#+OOOO#$%%*-;<244",
"555555541:-**$$#@$$****===**$$@OOooOOOO+O+#@$$$***=;:<::<:::;;;:::::>>,22232>;=&&&$@#OOO#@%&*-;>2455",
"55555542<:**$@#+#$$***==--==*$$#OOOOO#+@@$$$$*$**=--;;:::-;-=***&=&::>,,2,1,>:-=&&%@##O##@%*-:124455",
"55455441:=*%$@#@$$**==;;:::;=*$@###O@@$$$*$$****==-=-----===**%*&&==::>,,1,,>:;=&&$@#OO+@$&*;>233555",
"4454422,:**$@##$$$*==;::::::;*&$$$$@@$$$*$****===--=-====****$$@&&&&&&&,,,,>>:--*&%@####$&&;>1344452"
};
