/* XPM */
static char *result[] = {
/* columns rows colors chars-per-pixel */
"100 100 32 1 ",
"  c #3E79AE",
". c #3F7BB0",
"X c #407BAF",
"o c #417DB1",
"O c #4583B4",
"+ c #4886B7",
"@ c #4988B7",
"# c #4987B8",
"$ c #4C8BBA",
"% c #4F90BE",
"& c #5091BF",
"* c #5395C1",
"= c #569AC5",
"- c #589CC7",
"; c #5A9EC8",
": c #5DA3CC",
"> c #60A7CF",
", c #60A8CF",
"< c #60A7D0",
"1 c #63ABD2",
"2 c #66B0D7",
"3 c #67B2D8",
"4 c #6AB5DA",
"5 c #6DB9DE",
"6 c #6FBCE1",
"7 c #70BEE2",
"8 c #73C2E5",
"9 c #75C6E9",
"0 c #77C8EB",
"q c #79CCED",
"w c #7BCFF0",
"e c #7CD0F1",
/* pixels */
"80087531:=*$$@OO+##%%*=-=---=*$$&%$$$$%*==--;:::>:>:>==--==*&$#+#####$$*******&%%$+#@++#$*-:14788908",
"q008853<:=&$@@@OO+$$%**-;---==****%%%%&**=;::>>>>>>;======&&$$+++++O@#$$$*$*%%%$$$@+@+##$&-:14789999",
"q009753<-=%$$OOOO+#$$**;:;:::--==-**&&==-::>>1111<:-==***&%%$+OXooooOO###$$$####$##++@#$$=->35889000",
"w008732,-*$$@$#O+++#$*=-::<:::;;---===-::>,114311<:==***&%$#@OoXoooooOOO#+++++@@#+@++@#$&=:14778900q",
"008541<:=*$$#@O@++++#%*-:<1<<><::;:-:::<,14334442<;=***%$$@OoXoX XXo X  OooOOo+O+OOOo+@$&=:336788900",
"7542<>:-=*%$#@#O++o+#$*=:<12111<:::,<235545445541>;***%$@OOoXXXXX XXX   oooooOoOO+++++#$&=>145777889",
"54<::;-**%$$#@##+o++#$%=:<11341112235898877555431>=*%$$$+oXXXXX    X X  ooooooOO++#+@@$%*:>135555777",
"1<:;=**&$$$$##@$@+o@#$*=;<135453355590q0877555321:;**%$#OoXX            oooooOoO++##@+#%*:<124435543",
"::-**&$$$$$#$$$O++++#$**;:12555577880qeq09775442<:-=&$$$OX                .ooooo+@###$$*=:<11334442,",
"==**&$$$+OOOOO+$++++#$**=>1457877880qeewq08775431::=*$$OOooX            X oXoo++++@###$*;>11223421,:",
"***$$$@OOOOOOOO$++@#$%%*;:14588888000qewq08875531,:=*%$OoXX              XooO++@#+@++$*=;><134221>:=",
"&&$$$@OOoooOOOOO+@#$$%**-:1578888800qq0qq00977441,:=&$OOooX               oooO#$#@+O@$%*:<112211>;=&",
"$$$$@OOOooXOOOOOO@#$$%*=;<1778877889900000987553<:;=*$OOO                  Xo+@###O+#$**;><1111:-=$&",
"$%$$$OOoXXooO.OO++#$$$*=:14577776788898098875531,:=*$$OO                  X o+@##OOO#$*=;:><<<:-=&&$",
"$$$$@OOoXX XXooO+@##$%*;<14575776777888755544411>-*%$OOoo.               X Xo+$#$O+@#$*=;:>>:;=*&&$%",
"$$$$@OXo    Xo.Oo+##$*=><14455555667775453311111:=&$@OOOoo                 oo+$$$@@#$$*=;;;;;***%$$$",
"$@$$@Ooo      ooo##$%*;:>><344445557555342<:,<<,:=$@+OOOo.o                 o#$%$$$$%&==-;;=*&*%$$##",
"@###+ooX      Xoo+#$%*==;;>12444434554321<::::::-&$@$OOOO.                  +#%*&&$&**==-==*%%$$$$@+",
"O@#@+ooX       oO+#$%***==-><14434434321<:---:::-&$$$O+Oo.                  +$**=====-=;;;**%$$$++++",
"OO@OOooo       XoO#$$%%****-><233323221<::-==:::-*$$$$OOoo              XXX #$*====;;>:>:;**$$##@++O",
"OOOOoOoX        oo+@#$%%%%&=;<11111,,>::::--::::-*&$$$OO                 oO+$%=-=-;><111>;**%$#++++O",
"oooooooX        XooO#$$###$*;><<,:::-::-:-;-::::=*$$$$$+o               ooO#$*;;;:>,2241<;;*$$@@O+oO",
"oooXooo         Xoo+O+@+++$%=;>;:---------::><::=*$$$$$#oo             X.oO#%*;;:>>25553<:=**$@@Oooo",
"  X   oX        XXooo+o+++#%=;;>-===*==---::<>::-**&$**$OO            X oo+#**::>>2577541:==$$@OOooX",
"X      X        X XoOOO+O+#%===;==*&**==;;::>>:;;*****%$OOo           XXXO$$&-;>>25898752<:=&$@OooXX",
"      X          XXooOOo++#%*===*&&&**===;;:>::;-=****$$OOoXX         ooOO+$&;>>1470q98641:**$#OoXXX",
"        X         XoOOO++#$*===*&&&&&**---=:::::;;;-**%$$Ooo      XX XooO+$&;>>247qqqq9741:=*$@Ooo  ",
"                  ooo+@@#$%*===&&&&&&*---=-;:;::<::;=*&$#Ooo    XXXXooo++$&&>,2580qwqq8751:=*$@ooX  ",
"        X X      X.oO#@##$%*=**%%$%*=-;-;==;-;:<<<1:=**$$OOoo .XXoXXooO$@$&;>458qweqq08751>-*$#ooX o",
"        o         oOO@@$%%****&$$$**=-::;-===;:<<11<:-*$$@oo XooooOO+@$$$&=>260qqeewqq9751:;*$#OooX ",
"          X      ooO@#$%%&***%$$$%&*=::-;;==;:<12111:;**#+OooooOO@@$$$$*&=:158qqeewqqq9741:-*$@Oooo ",
"         X       oO@#$%**====%$$$$&*;;::;;;;:<112421>:=*$#OOooO#$$$$&&*==;,379qwwwqqqq9751:=*$#OooX ",
"oX             X OOO$%&*==-==$$$%%*=;:<::::::<12231<>-=&&$+OXOO@$***===;;<1580qqwwqwqq0531>-*&$OooXX",
"Xo X   X      XXoOO$$$**===-=*%%***-><>:::::<<1211<>:-&&&$+OOO@$%===-=;;:<4680qqqqwwqq863<:;*&$Ooooo",
"o X        X  XXoOOO$$**==-:-*=***;<<1<>,:<<1111<::--=&&$$+OOO@@**-:;-;:<3580qqqwwwwqq074,:;=&$@+ooX",
"oX X          oooOO$$&*=--;::-===-:<11<<<<1<1<<,:::--=&&$$+OOO@$$&=--;::1568qwqqqqqwwq064<:-*$$@+ooo",
" X XX     XXooooOOO$$&**-;::::;-::1111111<11<:;;:====*&&$#+OOOO$$**==:<14780qwqqqqwwwq0631>=&$+Ooooo",
"X        XXXooO+OOO$$&%*=-::::::>11311<<<1<<:-===*=*=*=&%@OOoOO@$&*-=:<24780qqqqwwwwwq0751>;*#+Ooooo",
"o      XXoooOoO@#O@$$$$%*-::<,,:>,111<,<1<<:-***&****=&&$#OoooO@$$*=;:11479q0q00qqwwq08652:-&$OO+ooo",
" o X  o XooooO@$$$#$$$$&*-:<<:><>><,,<<111::;******=*&&&$$@+OOO#$&*=:><146800q00qqqqq98551<=*$@Ooooo",
"oX     XooOOO#$%$$$$$$$**-::>:::::::::<111::-***&*******%$#OOO#$$*=-:>12568990988089877541>=&$#Oo+oo",
"ooo ooooooO@$$&****$&&$**=:>>:::---:::,<1::-***$&&&*&*&$$$@OO++$%*=::><2458889887757554441:=*$$++o+o",
"ooooooooOO@$$&*===*=****=:>,>:;;--:::::::;-***%$%&&&&&$$@@@OOO+$&*-;:,14358888865543333331:=&$@Oo+oo",
"oooo+oo+O@@$%*=-;;====*=;>,,::;;--:;::::---***$$$&*&&&$$@@O+++$$&*-::>12355668855433111321:*%#OO+ooo",
"oooOoO+#@$$&**=;;;;-===;:<<,:::;:::::::--=**%$$$$$%%$$$#O#OOO#$**--;:,113555666321111<11,,:&$@OO+ooo",
"ooooo#+#$$$&**;:::;;---:><<<:;:::::::;--**%%$$@$$$$$$##OOOOO#$**---::,,23345554311<<,<111,-*$@OOoooo",
"oooOoO#$$&&**=::::;;;;;::<<<:::>:<,,:--*%%$$$O@@@$$$$#+OOOO#$$*;---:::11122323311>>>11121>-&$@Oooooo",
"ooooO+#$&**=-::::;:;=;=;::<<>>>:<1<<::=&$$OOOOO@+##$#OOOoOO$$*=--:-::<<,,,111221>>:><1121:-*%@OOoooo",
"oooo+O#$**=;::<,;;;==;=;::>>>>>11111>;-&%#++oOO+++#@+oooo++#%*=;:::>,,<,>>>,,<<::::>1111<:**$#OOoooo",
"ooOooO#$&*-:><<<>;;=;;:;>>>:><111111>>-&$#OoOOoO+@@+++o+oo+$&=;><1,111<>>>,:::::;-::<11<>;**$#+oo+oo",
"oooOO+@$&=::111<;:;;:>:>>>:>><1111>>>;=&$OOOoOOO###++ooo+o#$*=:<211111<>:>>:;::--;::>11>;;*%$##Ooooo",
"oooooO@$*=;>121<>>:>>>,>>>:>>,,>>>>:;-&%#OoOoOO@##++o+++++#%*=:<11111<,,<::::--==-;:><>:;=**$$OOoooo",
"XoooOO@$&-:1221<>>>><1211<1,<1>>-:---=&%#OOooO###$++@++oO+$$*=;><<1<:>:><,>:-:--;;::>:;;=**%$#OOoooo",
"XooOoO@%*::1111<<<>>243433311,::--;--=&#@OOOOO##$$$++++++$%&*=;>:><>>:::<<,::--;;>::>:=***%$$#OO+ooo",
"ooooOO@$*-:111<<1<112444444321>:;;--=&$#++OO++#$$$$#@#$$%&*==;;;:><:::::<<,>:---;;-:>=**&%$$#+O+oooo",
"ooOoOO@$*-,1211111224777753311>>:-=*&$#O+OO@##$%%%$$#$$***==;;;>:;:;:;;><1<:-===-=:-;=*%%$$$#+oooooo",
"OoOoOO$%=:12121112444777774431<:;-=&%+++O++##%&&&*&%$$%**==;;;>;:;:;;;::><>-==*==--;-=&&$#+++ooooooo",
" oOOO@$&=:14322344477787775431<::-*&$++oO+##%%&*&&&%%%&*==;:>>:>;;;-;;;>>>;=&&**=*====&$#++ooooooooo",
"OOOOO$%&=:13444577777888877421>:;-&&$++o++#$%&&&**&&&&*=;:>>>>>;;;--;;>:>>-=&&*%&&&&*&$$++oooo.oXXoo",
". OOO@$&-:1455889899090008743<>>;=*$#+++O+$%%%&****&&*==;>>11>>>>>;:<<:>>;;*&$$$$$$%&$@O+ooooo  XXoo",
"o OOO+$&::248890qwq00900q8742<>;=**$#+ooo+$%%****=**&*==;>11<1><1<<<>>>>>>=*%$$$$#@$@@@Oooo X X X XX",
"XOXoOO$&::24680qwwqq0qqqq8742<:;=*%$#+o+o+$$&*****&**&==>>11<>>1111<>:>>>;=*%%%$$@@@@OoooooX    XX X",
"ooOOO+$&=:2489qewwwqqqqqq9741<:;=*$$#oo+++$$***=*==*===:>>1>>>1121<<;>>>>;-=*%$$@OOOOOOXoo.   X X XX",
" .ooO+$&-:2359qewwwqqqwq97541:;;==*$$++oo+#$%&*====;;;>>>11<>1111<>;;-;;>>;=**&$#@OOOooX X       X X",
"O oOO$$*=:<470wwwwwqqqwq8751<:--;=*%$OOOOO$$%**=-;:>>><1<<<<<1111:;===-;:;;==*%$@+o+XXX         X XX",
"oooO@$%*=:1478qqqwwqqqq0853<>--:;-*&$@OOO@$$%*=-;:11111<>><,<<<<:;=**==-;;-=**%$+ooo  X           Xo",
".oOOO$*=;:<4500qwwqqqqq8731:--=---=&$OOOOO$$**=;><11211<::::>,,:;***%&&=;;==**%$#+oo                ",
" o O@$$*-:1478qqwwwwqq0731>:-===**%$$OOOO@$&*=;:<131111>:;-:::::=*$$$$&*=-=***%$##oo                ",
"  ooO#$*-:14790qqwewwq073<;==*&&$$$$#O. OO$$*=:>1343211::--:;::;*&$$$$%*==***$$##oXX      X         ",
"o ooO@$&=>15700qqwewqq862;**&&$$@O@OOo. XOO$&=;:<121<<::-=-;;::-*&%$$$&*****$$$@+o       o          ",
"  ooO@$*-:1579qqqeeqq061>=&%$#@@OOOoo.  oOO@%*=:>111>:-===--;:;=*&%$$*&**&&$$$@Ooo         X        ",
" XXoO@$*;:14780qwwwq954>;*$$@@OooXo  X  oOO$$&=->>,>::;-----;;-*&&&$&**=*&$$#@@O+oX       XX        ",
" ooXO@$*-:15790weq0853<:*%$@Oooo        ooO#$**-:::::::----=-=**&&&$&===*$$$@@OO          X o       ",
"  ooo@$*=:14790qq0841<:=*$#Ooooo        ooO#$$**=--:;::::---==*&&&&&*==**$$OOOOO           .        ",
" X.oo$$**:1557000842<>;=$$OoooX          oO##$$**==-::>>:---==&*&&**===*$$@OOOOo             X      ",
"o ooO@$%=;<15780852<::-*$#ooo  X         oo+$***&&==::><:::-=*=***=--;-**#@OOOOOo           oX.    X",
"o.oo@@$%=-:1477753<>:;=*$+oX             .oO$*$*&&*-::,<:::-======-:;:-=$$OOOOOOoX         Xo o XXXX",
"ooOO@@#%*=:<14552<:::;*$#Ooo             oOO#$$$$%*=::,,::-=-=-=-=-::::=*$#OO@@OOooX      XX oooXoXo",
"OOOO++#%*-:<24411::-;;*$@OoX              oO+$#$$&&=:>::--:::-:::::,:<:-*$$$$$$@OOoo      . oooooooo",
"OO@O+@$%**;<<1<<::--==&$@oX               .oO+$$$$*-:::----::::,<<1111<:*&$%$&$$@OOo       ..ooo+o+o",
"+OO@#$$$**;>>>:>:-===*$$Ooo                 +#$$$%*=;>:;-=;>1112433333<:;****%%$#OOoX     X O OO++o+",
"++@@$$$$%==;-;===&&=*$$#OoX.                o+++$$*=;>;=;=>111444433332,:;=***&%$$OOo      . XOO+#++",
"@#$$$$$**=-===**&%&&**@Ooo.                 o#+++$&;>:>;;:>13345554533321>;;;==%$#OOXX X   X oO+$###",
"$#$$%&**==;-=*&$$$$$$$OOo.                  o+o+$%*;>>>>>12434575535555341>>:-*&$@OOOooXX X  oO@#$$#",
"$$%%***-;;;-=&%$@@$$$$@O                     o+#$%=><12111535577775555554311>=&$$OOOOooX    OXO@$$#$",
"$$%**=;:>>:;=*$$@OO@@$Oo                    oo+$%*->11435577778887775777541>-=&$$@OOOOoX  O  OO+$$$$",
"%$**;:>1<>>;=%$@OO@@$#Oo                    o++$*=;>14477770800887777777731:=&%$#$@OoOooO    O++$$$$",
"%**->1111<>;=%$@@OO$@@Oo                    ++$*=;><2557700000009877788752>;=&%$$#@OOOOoOOO OO+$$$$$",
"**::123211>:=&$@@OO#$@OX                XXoo+#$&=;><457780qqqqqq0998887751>=*&$$$$#O#OOOO XOO+$$$&&*",
"=;<113331<>;*%$@@@@@@OOO                Xooo+$%*=>>24457700qqwqq0988888541:=*&%$@@#@#O@OOOOOOO$$$&**",
":<1123311<>;*$$$##@$OOOXoX               ooO++%*=;>123557700wwwq9888777531>-**$$@#O@#@O#OOOO+$$%**==",
"134443431<:-&$$@@$$OOOOX..o              Xoo+#$*=->>14557780wwq0887557533<>;=*$##O@O$#$#@$$$$$%*=;;>",
"4454444211:=$$@#@$#OOXOOO                ooO#$%&*;><244557700q087535335311<:**$@@@O@###@$$$%%&*-;>>1",
"777555431<;*$$#OO#@@OXXX  O          X oooo+$$%**=>13545557788753221233342<:=*$#OOOO@@##$$%&=-::>134",
"088777541<=*$$@OOOOOOOOXOOXOX oXX     oooo+#$%&*==<1444445455421,::,,12111<:=*%#OOO+@#@@$$*=::::3577",
"q00887551;=*$$@@OOO+OOOO OOOOOXOoXoX Xoo++$$%*&*=;<354443221<>:;;:-:::,,<1<:-*$$##O+OO@$$%*-::234790",
"q09988541;=&$$+O++O#@@++O+++OOOoooooooO+@#%*****=:<124311<>:;;====;;;;:::<>:=*&$#+++o@@#$%*;>147700q",
"q0998754>;&&$$@O+@@#$#$$$$$@#@OOOoOooo@$$%****===:,1<11<,>:-=*****===;;;;::;;=&%$#@+++@#$%*;<35790qq",
"99998742>=&$@+@@+$$$$%$%**$%$##@+O+o+O#$%**====;::>>>>>::;==**%%&*****=-;;;;-=*&$#@@o++#$%=;<4777000",
"89988541;=&&+++++$$$&&*******$$#@$##@$$%**==-=;;::>>:;;;;==*&%$$$$$%$%*====-=**&$$@@+++#$**><3779806"
};
