/* XPM */
static char *result[] = {
/* columns rows colors chars-per-pixel */
"100 100 34 1 ",
"  c #3E79AE",
". c #3F7CB0",
"X c #407BAF",
"o c #417DB1",
"O c #4583B4",
"+ c #4886B7",
"@ c #4988B7",
"# c #4987B8",
"$ c #4C8BBA",
"% c #4F90BE",
"& c #5091BF",
"* c #5395C2",
"= c #5699C5",
"- c #589CC7",
"; c #5A9EC8",
": c #5DA3CC",
"> c #5FA7D0",
", c #60A7CF",
"< c #60A8CF",
"1 c #60A7D0",
"2 c #63ABD2",
"3 c #66B0D7",
"4 c #68B2D7",
"5 c #67B2D8",
"6 c #6AB5DA",
"7 c #6DB9DE",
"8 c #6FBCE1",
"9 c #70BEE2",
"0 c #73C2E5",
"q c #76C6E9",
"w c #77C9EB",
"e c #79CCED",
"r c #7CCFF0",
"t c #7DD1F1",
/* pixels */
"weewq862:;*&$+OOO++$$%&*****&&$$$&$$$$&**;;::::22222:;;;;-=*&%@+++#$#$$$%%%%%$$$$+++OO+#%*=:269qqrr0",
"terw0962:;&$$++OOO++$%********&%&*&$&%&*=;;:::22222::;-;-==%$@OOoXooo+########$##++++++$$&=:279qeeer",
"tteeq982:;&%$@OOOO++@%&*==;==****=**&&==;:,22332322:;==-=*&$$OOo    o#o#+++oO+++++OO+++#%*;1589qweer",
"ttew0972:;&%$++OOOOO#%*=;;;;;;=====*==;::222466662:;;====&%$OoO     ooooooooooooOOOOOO+$&*;26900wrrr",
"eew07752:=*%$$O++OO++$**;::::;;;;==;;:,22466767772:;==**%%OOoX o        ooXXXoooOooOOO+$%*;2689wwerr",
"w087622::**%$@$OOOo++$%*;::2,2,,:::,<2579777778762:=***&$OOO            XXX XXooXOOOOOO$%=:258900wqe",
"876222:;=*$$$+++OOO+@$&*;:,22222122269qq0098777632;-=*%$$OO             XXXXXXooOOO+OO+$&=,267890909",
"6322:;**%$$$++$++OO+$$&=;:,2457555670qeeqq98887632:==&%$O.X             XX  XX oXOO+++O$*=:237789998",
"2:::-*%$$OO$@O$$++@$$$&=-:2357778880wetreq99777632:;=&$+OX                 XXXoooO+OO+@$=;,236777775",
"::;=*%$$+OOOO$@+++$$$$%*=;227899900qwetteq0997763<:;*&$OO                   XXooOOO+++$&=:,236666532",
";=**%$$OOOOOO$+O$+#$$&&*=;137900000qweeeeqq099773<<:=$@Oo                   Xoo+OOOOO+$*=:,24666321;",
"=**%$$OOOooOOOO+O+$$$$&&=;138009900qwweewqq0998632:;&%OOXoX                 XoooOOOO+@$*;;,234441,=*",
"%&&$$+OoooooOOOO+#$$$$%*=:2589099000qqqqqqq098762<:=&$OO                    Xoo+OOOOO+$*=::2222<;=&&",
"$&*$$+OOooooooOOO#+##$**=:27999988900000009887642,;*$@OO                    ooo+OOoO++&*=:::,2:;=*%%",
"$$$$$OOoo oX.oOOO###$%*=;23688798788099877666644<:=&$@OXX                   ooo+OOOO+$&==;;::;=*&%$$",
"$$$$$OOOX.  XooooO+#$*=;:2256677778897766644222<:;*%@OOOXX                  oo+@OOO++$&*;;;;=*&&$$$$",
"$$$$@OOoo X oXooOO+$$&=;;,,226566777765442<<>>>::=&$++OOo                   o++#$@O$$&*=====*&%$#@+@",
"+$$@$OOooo .   .oO@$&*===;;,2234366676222<::::::;*$$@+OOoo.                 o+@$$$$$&&==;==*&%$$@@++",
"O+@$++ooo .     oO+$&*&***==:224356642<<,:;==;::;=%$$$+OOo                  o#$%$&&*===;;==*%$#+++O+",
"O++++Oooo .     oOO$$$%%%&**;:22222222,::;===;::;*&$$$@Ooo                  +$%*&=*=-:::;;=*$$++++O+",
"OOOOOOoX         OOO$$$$$$%*-;112,,:::;;=====:::;**$$$OOX                 oO#$**==-::122:;=*%$++++++",
"OoOOOXoo. .      oOO+$$$$#$&=-:,::;;=;======::::;*&$$$$+o              X  o+#*==-;::2332,:;=&$+O+ooo",
" .ooooOX         XoOO$$@#+#%=-;;;=======*=-;:>:;;**$$$$$Oo            X   o#$&==;::357652:;=%+++oooo",
"  o  oXX         X OOO+O+##%*=-==***&*&&==;;::::;=*%&*&$+o             X  o#%=;,:22790862:;=%$+OoooX",
".X    XO X        ooO+OO++$%**==**&$&&***--;::::;=*****$#OoX          oooo+#*=:,2270qw9622:=$$+oooXX",
"      XX          ooOO+++#$%*=**&$&$$&**==-;:::::;-*=**$$+OoX         ooo+#%*;:1370wew0972:=&$+OooXX",
"        X X       XoOO+#+$$&****$$$$$$**===-:::::::;=*&%$#OoX      oXooo@#$&=,1370wteew962:=*$OooXX ",
"        XXX        OOO$$$$%****$$$%$&&*=*==-::::>:::;**%$$Ooo    XXoooo+$$%=;1270wrttew972:=&$OOo   ",
"        XOo       ooO#$$$$%***%$$$$%&*==*===-;:2222>:=**%$+oo  oXXXooO+$%&*;259wetttrew962,;*$+ooXX ",
"          X       oO+$$$$%&****$%%%&*=====*--;:22222:;=*&$+Oo.Xooooo+@%&&*;,59qetttreeq8731;*$+OoX  ",
"        O X      XoO+$$$&****%%$$$&&*=====*-;:2233321:;=&$+OooOO+++#$%**==,290eettrreew962:=*$+OooXX",
"           X    o.O+$$&&*==**%$$$$&&=;=;---;:>226632<:;-*%+OOOOO@$$%&*=-;:369qerttreeww973:;*$$OooXX",
"oX     XX       ooO+$***==;=*%$$%%&*-=;-=;;;122565321,;==%++oO++$&*==;;;,2580eeerrreeeq062:;*&$+oooX",
"o.   X    o.    Xo+$%&**=-;;=&&%&&=-,,;,:;,,2246532,:;;**%$++++$%=;;:;;:1379qeeeeerrre0962:;-&$@+ooo",
"o Xoo. XX X  X.ooOO@$&*==;;;==*===;,,1,,,,,222552,,;;;=**%#++++$*=;,:;,,2580qeeeeereeew952:;=*$@+ooo",
"ooX o X X o X ooo++$$*==;:::;====;,<3<,,1,1232221,:;;-=*&%$++++$%*=;;,,26800eeeeeeereew732:-*$$++ooo",
"oXXo o o.oXoooooO++$$*==;:::::;;;,,322<121221,,:;;==;=**%%+++O+$%&=;;,23790weeeqererre0962:=&$@Ooooo",
"oXX . X XoooooOO++$$&&**=;::::::,,333,2,1121,;=========*%%+Oo++@$**;;,24690eeeeeeeereq9862:-&$+O+ooo",
"o.X ooo.oooooO+#$$$$*&&*=;:2,,,:,23221,,221,-=****===*=*%$++OO+@$*==:,23790wqeweeeree09732:=&$+O+ooo",
"Xo o X oooOOOO$$%&$&&&&**;:22<,2,,222,,221,:-=***=*=*=**%%#+Oo+$$**=,123680qqqqqwweeq99532:=&$@Ooo+o",
"ooXXXoXooOOO$$$**&&&&***=::2,,<,,,,,,,,222,;=***&*=****&%$@++O+$%*=;,133679000090000076522;=&$@Oo+oo",
"oooXooooOO#$$%*=*=******=:2221::;;:;,:,,2,:;=*&&&&*&**&$$$++OO+$%*=;,125669900987776633331;*%$+OoO+o",
"oooooOOOO$$$&*=-;;===*==;12222:;;:;:,,,,,;;==*&%&&*%*&%$@++O++#%%*=;:,2556779986663222222,;=&$OO++O+",
"OooOOOO##$$***;::;;=====:2221:::;;;:::::;;==*&%%&&*&%%$+@OO+++#%**-;:,22356677752222,,121,;*$$OO+ooo",
"OoOOOO+$$$%$**=;;;;===;;,2232::;::;::::;;=***%$$%%%$$$#+OOOO++$&**=;:,,22356775222,::,12<:;*$#OOo++o",
"oOoOO+O$$$&**=;:;;;-;=;:2222:::::::::::;=*&%$$$@$$%$$#+ooOoO+#&*===-;,,1223555311::::,122:-*$OOOoooo",
"oOOoO$$$$****=;:;;====;:1222,:::;:::::;=*%$#++++#$$$#++OoOO+$%*====-;,,,1122252:::;::,222:;*$$OO+o+o",
"oOOOOO$%&***;;:;;=====;:1222::::,,,,,;=&$#+O++O+@##@++ooooO+$*==;==;;::,,,11222::;;::1222:;*&$OOoooo",
"OoOO++$%&*=;;::;==***=-;,11,:,:::2,2,:=*$++Oo++++@#@+o+oooO+%*=;;;;;:,:::::2<<,:---;,,2,,;==%$+O+ooo",
"XOOOO@$$**=:,,::;=====;:1,:::12,2,,2,:=*%+o+Oooo+@@++ooooO+$&=;:::::,,1:::>:,::=----:,,,,;=&$$+O+oo+",
"oOoOO$$$&=::,2,:;===;:,,,::::1>1:::::;=*$+OoooO+@##++ooo+O+$&;:,2<:22,,:::,::;;====-;,,,;-=&%$+Oo+oo",
"oooOOO$$*=::2<,:;;;;;,,1,,;:::::;;;;;=*%+OoooOo+@##+o++oO++$*=:,221,::::,,1>:;=**&=-;:,;;=&%%$+++o+o",
"oOoOOO$%*;:<22,::;;;,2221,,::1:;===;==*$+OooOO++###@++o+OO@%*;::2:,:::::122,:======-,:-===&&%$+O+o+o",
"oooOOO@%*;,222,:::::222222221::;;====*%$+ooOoo++$$#@@+++@$%&=;::::::;::,2221:;=;----;;==*&&%$#+++ooo",
"OoOooO#$&;:22<:::::2226554222:::;==**&$+OOOoo+@$$$$$##%%%&*=;;:::::::::,2522:;==---:;;=&&%%%$++Oo+oo",
"oOoOOO#$*;:,2<,:,11226666522222:;=**&$+++OOO++$%%%%%%$%&&==;;::::;;:;::22222:===---::==&%%$$#+OO+oo+",
"OoOOO+$$*::121,122224777665222>:;=**$$OO+o++#$%&&&&&%%&&==;;,,;,:;::;::2221:====--;:;==*&$$++++OOo+o",
"oOOOOO$%*;22222233566788776542<:;;*%$$O++++#$%&&*&*&&&*==;;,,,:,::;;;,,221,;==*=-=--;=*%$#++oOoooooo",
"OOOOO$$%*;:24256677789009776622::=*&$++O+@$$$&***&&&&&*=;;,,21,;:;;;::2<22:==*****====&$$+#Ooooooooo",
"oOOOO@$%=:<25770000900000077422:;=*$$$OO@#$%&*******&&*=,,,32,,,:,,,,1121,;=**%*&&&*%%$##+ooooooXXoo",
"ooOoO#$&=:22680wwewwwqqqw077322:;=*%$+OO+#%%**===***&*=;:1222,21222,11111,;**&&&%%$%$#++OOoo oo XXXo",
"oooOO#$&-:24790etreewwwwwq9652::=*%$$OOO+#$&***====***=;,2221,,22221,,,11,;=*&*%%$$$#+oooooooo oXXXo",
"ooOOOO$*=:2680weteeeeeeewq9752::;*&%$+OOo#$**=========;,,2,,,,23532,::,:,,;==**%$$+++Ooooooo XX XXXo",
"oooOOO$&;:2580eereeweeeew08652:;;=*$$OOO++%%*=====;;::,22121,<,322:;;;;:;,;;=**%$++oooooXXX.. XX oXo",
"ooOO+$$*=:238wereereeeeeq0752,::;-*%$@O+#$$&*==;;:>122232<<2,<222::===;;::;;-**$##+oXXXXX X X o X Xo",
"OooO+$&=;:247weereeeeeew08622:;::;=*$$+#+$%*==;;::223232<<,:::2::;===**=;;;-=**$#o+o     XX   o   Xo",
"XoOO$$*=;:268qeerreeeewq9642::;::;=*$#OOO$%*=-;::2356522::;:::::;=&&&&&=---==*%$#+oo    XX X        ",
"XXoO+$&*;:268weeerrteew0842:;;===*$$#OOOO$&*=::>22565222:;;:;:;-=&%$$$&*---=***%#+oo      X oX      ",
"XXooO#$*=,269weeetttreq072:;;=**$$$$+OooO$$*=;:12565321:;-==-=-=&%$$$$&*==**&&%$#oXX      Xo   o    ",
" XooO#$*;:379weeettteeq83:==**&$$#OOOOooO#$*=;:1235422:;=====---&%$$$$&&***&%$$@+oX       o .       ",
"X XoO+$*;,279weerttreq95,;**&$@+ooooooXoO+$**=;>22221,;======-=&&&%$%&&&*%%$$$#+oooX     o.o        ",
"  XoO+$*;,2590erttteq86,;**$$+OooooX X  o+$%**-;,222,:;;-=&===&&%%$$%&*=*%%$$$#+oooX     o.o        ",
" oXoOO$&=,279wertre073<:**$#++oo        OO$$&*=;::,::::;===*=*&&$$$$%&==&&$$###o          .o        ",
"  XXOO$&=:269weree072,:=*$#+ooXX        oO@$&&*==:::::::;====&&$$$$%&&**&%@@@+++X         o X       ",
"   oOO$&=:2780wee0722:;*$#OOoXXX        XOO$$&**==;::::::===&&&&$%%%&*=&$$@+o+@oX         .ooX      ",
". ooOO$&=:1369ww0732::;&$+ooXXXX         oO$$*****=;::,:;;=*=&&&%&&&===&&$@+++++oX      . .Xo.o X  X",
"oooOOO@$=;,26808722::;*%#OooX            oOO$%&**&=;::::;;==&&&&&&===-==&@+++o+ooooX      Xoo o oooX",
"oooOO+$&*;:2466622:;;=*$#ooXX             oO#$$$%&*;::::;=-&=-=&===-;;-=%$++@$#oooX       X.oooooooo",
"OOOOOO$&*;:<2242::;;==*$Oo                oO+$$$$&*;:,:;======--;;;,,,-&%$$$$$$++ooX      Xooooooooo",
"OOOO+#$&*;;:222::;==**$#Oo                .OO+$$$&*;::;;===;;;:,,,,,,,:=&$$$$%$$#OoX      XoooOOo++o",
"+OOO++$%*=;:::;;==**&%$OO                   O+$$$%*;::;====::,12222222:;***$%%%$#+oo      XoooOO++++",
"O++++$$%&*=;;;==&&&&$$@Ooo                  O+$#$%=;::;===,,,2357655322:-=****&%$#+oX    XXoooO$@+++",
"@+++@$%&*==;=**&$$$$$$OOo                   OO+$$%*;,:;:;,,2234676655322::;===*%$++oXXX XXoXoOO$$$#@",
"+$$$$$&*=====*$$$O+@$OOX                    oO+#$&=;,,,,,2233468776666622>:;;=*&#++ooXXX XXooOO$$$##",
"$$$$&**=;;;==&$$+OOO@OOX                     X+#$*-,12323356669987777666322:;*%$$+OOooXoX oXoO+$$%$#",
"$$%**=;::;;;*&$+OOOOOOoX                    Xo+$&=:,23666778999998977888631:=*$$#++OoOoXXXoooO+$$$$%",
"$&&==:,2::;;*&$OOoOOOOO                     oO#%=;,136799999q0009989899872:;=&$$##+OOOoooooooO+$$%%%",
"&&*:2422,::;=$+OOOOOOOX                     o+$&=,1267999qqqqqqq0999900962;=*&&$$#+++OOOoooooO+$%%%&",
"=;:245542<:;*$+OOOOOOooo                XXooo+%*-,2367990qwewewww009009732;**%%$$##++OOOOOoOO+$$%***",
"::2356642<:=&$@OOOOOOo.                 XXXo+#%*-,2478890qqeeeeww00000073>;=*%$$$$$#$+#O+ooO++$$*==;",
"236657642::=&$++OOOooXXX                 XXo+#%=;,13668890qettew000999963>:=*%$$$$$#@@+OOO+O#$&**;::",
"367777542:;=$$O++OOOoXX                  Xoo+%&*;,12677899qerreq098777763::-*&%$$OO#O$$O+++$$&*;::,2",
"889987732<;&$+++++OOoXX.                 XoO#%&==:,36688890qeew08655566522:;=%$$O#OO+$+$$$$**==:,245",
"900999752:=&$+OOOOOooXoX                Xoo+%&*==:136878899qq096222222222::;*%$$OOOO+++$$&*=;:124679",
"www009852:=%$OOOOOOXXo                Xooo#$&*&=-:2478777787762,:::::122:2:;**$OOOOO#+$$$*=;,236690w",
"rreww087<:*%$+OoOOoOoX          oX X Xoo++$***===,36776666332,:--;=;;;;::::;*%$$+OOOOO$$$*=:25680wee",
"rrrw00951;*%#++O+OoOOooooooOooooooXoooo+@$&=====;,34666432,,:-======;=;;;;;;=&$$OOOOO++$%*=:2790wett",
"rrrww0931-*%$+++o+++++OO+OOOOo+oOOoooo+$$&=====;:,233322,,:===&****=**======**$$++OOOO+#$*=,270qwert",
"eewwq972:=*$#++o++@#++++@$$@++++o+Oo+o@%&*=;;-;,,,2222,,,:-=*&%%&&*&&&****=**&&$++OOO++$$*;:278qweee",
"qwrw0962:=*$$+++++#@$$%%%%$%$#@@##@@@#$&*==;;=-,222<,,;:;-==&%$$$$$$$%$&&****&%$$+++O+++&&;:259qwee0"
};
