/* XPM */
static char *result[] = {
/* columns rows colors chars-per-pixel */
"100 100 32 1 ",
"  c #3E7AAE",
". c #3F7BB0",
"X c #407BAF",
"o c #417DB1",
"O c #4582B4",
"+ c #4886B7",
"@ c #4988B7",
"# c #4987B8",
"$ c #4C8BBA",
"% c #4F90BE",
"& c #5091BF",
"* c #5395C1",
"= c #5699C5",
"- c #589CC7",
"; c #5A9EC9",
": c #5DA3CC",
"> c #60A7CF",
", c #61A8CF",
"< c #60A7D0",
"1 c #63ABD3",
"2 c #67B0D7",
"3 c #67B2D8",
"4 c #6AB5DA",
"5 c #6DB9DE",
"6 c #6FBCE0",
"7 c #70BEE2",
"8 c #73C2E5",
"9 c #75C6E9",
"0 c #77C8EB",
"q c #79CBED",
"w c #7CCFF0",
"e c #7DD1F2",
/* pixels */
"             $;:<22457764221>>>>;*&$#$+OO  O  XX   XO  O  OO+@%&*;,14133344788776544<:$+            ",
"             +::><22566542>::;-*&&@@OOOoOo X  X  O OXX   OOO@&*-:,455655577899887754<:$OX           ",
"            $*::>125565421:;;-*&$#OOOOOo oooO O  X     OOOO@%=-:14888878999qq0998764<;*Oo           ",
"            $->>>12355532>>;-**$#+OooOOoO       O  OO   XOO@*::<258099qqqqwwwwq987641:$+o           ",
"          o#*-:<124555632>:;-&%$+OOoOOOXO        oO    OO+@&-:12489qeqeewweeewqq98741;&+oo          ",
"          O$*-<<235677731>;-**$$OOoooooX       Oooo  O OO@&*:<2468qeeeeeeeeeeew998751:&+ooX         ",
"         o+@&-:1357777631:-=*&$++OooXXoX    X    ooo O O+@&=:24570qeeeeeweeeeewq99851:*@oo          ",
"         oO@$*:135777762>:--=&$+OooXoXXX     O   oo O OO#@%*:1458qeeeeeeeeeeeewqq9864:=$OX          ",
"         oO+$=;<45579842>;;=*&#OOoXX          X o..o.ooo+@**;2470eeeeeeeeeeeeeq099874>=&@+o         ",
"        oooO$*;13578852>;;;;*&$+OooX           O  o .oOO+@$*;167qeeeeeeeeeeeeeq098875<;*$#oo        ",
"  X    X oo+$*:1578772>;;;;;*&$+Oo    .     X o o .ooooO+@**;248eeeeeeeeeeeeeeq0877741;&@OOX .      ",
"o .     ooo+$=<477873<>--;-=*&$+oo.            X.oo.oooOO$$*;148eeeeeeeeeeeeee0877552<;&$OOoo. .    ",
"XXX . oXooO#*:1477751;;--=**&&$+oX       X  o  XooXoooOO+#$*;168eeeeeeeeeeeeeq8875541:-&@+Ooooo.    ",
" X .  oOoO+$=<467774<>;-=***&&%+oooXX o o oXo  XoooooooOO+$*;169eeeeeeeeeeeew8844111<;*$+OooOooo    ",
"o oo.ooOO+@=<44675421<:-***&&%&$+ooXooX X o  .  ooOOoOOoO#$=:169eeeeeeeeeeee8541<<>:;*&#OOOoOoOo    ",
"oooOOOO#@$=<455555441>;;*%*&&$%$+OOoooooooooooOOOOOOOoOO+#$*:36weeeeeeeeeeq052<:;;--=*$+OOOOOOOO    ",
"O+++++@$*:<5555545441:;=*&&%$$$$++OOO ooo.ooooo+++OOOOOO#@*-<49weeeeeeeeeq841<:=**&*$$+OOOOOOOO+XooO",
"@@$%$**-:156555555541<;*&&&%$$%$++++OOOoOOOo++#@#++OOOO#$$*:260eeeeqeeeeq851::=&%$@@@+OOOOOO+O++Oo#O",
"**==-;<<4676555556531:;=*&&$%%$$@$@+OOoOOO+++$$$$@++O++@$*=<48qeeeeeeeeq851:-=&$@#+OOOOOOOOO++#@##$%",
";::<12468886655665441::=*&&%&&*&*$@#OOOOOO+$$%*%$$$@++$$**-146wweeeeeeq841:-=&$++OOOoooOoOO+O+$$$**-",
"12445589qq876758754431<:-********%$$++OO++@%%**$*$$$@$$$$*-<460eeeeeeq852:=*$@+OooooXoXooOOO##$$*-:<",
"6888880qwq9888876555441<>:-----=***%$@+++#$%*****%$@++++$%=:38900q0qq982:**@+OOooOooo.oooooO#@$*-:<4",
"890000qeewqq9886555444211>:>::;;==**%$$@$$%%%****$@+OOO+@$=:36888857874>-$@OOoooXoooXo o.XOO+#$*-:15",
"890qqqeeeeeq098554544434211<>>>>;-;=**%%%%%%%***@@#+OOOO@%*:3344422144<-%@+o...XXooXX.  ooooO#$*-:15",
"6990qqeeeeewq9654444444422211121::::=****&&&%&$$++oOoOOO#$*<1111>:-;><;&#Oo           o XoooOO$*->13",
"5890qeeeweeeq965422444222111<2221<::;====*&&$$@#+Ooooo O+$*;:::;*&&*-;*$Ooo            X.o oo+@**>23",
"45880qweeeewq854211111<<>>><223321::---==&*$$@++O o.  oOO$**-=-*&%$%&*%@Oo           Xo XX ooO#$*;12",
"44699qweeeeq97421<>:;-;;;;:><<2<1<::==**%%$@+Oooo  o   .O+$*****$+O#$$@Ooo             XXXXoOO#$*><1",
"24678qeeweeq8541<:-=*****=--;:>><<:-**$$@@@OOOoo  X     o+$$$*$$#OO++++ooXX           X  XoooO@&->11",
"44678qqeeww974<>::=*&$$%%%%&*=->:<-*%$@@+++Oooo         OO+#$$$@OOOOOOOooXXX           oo o oO$*;>12",
"447780qeweq741::;=&&$@@#+@@$$&=;::=*$+++OOOOooo       ...O+#$#+OOOoOOooX              oo.oooo+$->222",
"66778qeeeq851>:-=&$$@+OOOoOO@#$*=-**#+OOOOOoOoX       ..oO+@#+OOoOOOOoXX          X X o .oooo+&:1235",
"868900qee852:;=*%%@@+OOooooooO+$%*%$#OOoOoOoooX      . ooO##+OOooOOOooXXXX        X X oo  ooO$*:2355",
"899800q0974<:-**%%@@+OoooooooOO+#@$@++OooOooXo X      ooo+##OOOooOooooXXXX          o o oooo+$*:>337",
"78889998741,:=*&%+@@OOOXo oooooO+++#++OooOOXoXX      ooO+#$@+OOooOOooooX           X o XXXoO#%*;>255",
"58858555521:-=*&%$@@OoooXoXooooOO++++OOOoOXoXoXX. X.ooo+@%*$+OOOoOoooooo     X X  XXXXo XooO$%*;><33",
"4665544342<:-=**%%%+OOooooXoooooOoOOO+o.O ooo o.oXoXoO+@$*&%$+OOoOOOooOoXX    X  XX X . XXo+$%*;>>12",
"455542222<,:;-=*%%%@OooooooooooOOOOOooO..o X o . oooO+@&=-=&$$+OOOOO++OoX X X  XXXooo X ooo+$&-;;><2",
"444421221<::;;==*&%@OOoooooooooO OOOO... X.oo XoXoOO+$&=;;==&&$+OOO@##+ooXX  X ooooooXX ooo+$**;->>2",
"34421<11<:::::;=**%%OOoooOooOoooOOOOOOO.ooX oo oooo+@*=:>::-**&++@#$$$#Oooo XoooooooX XXooOO$%*=-><1",
"233<,:<:::::::;==*&$OoooooOooooOOOXOooooo. oo.ooooO$*-:11<:-==$@+##%%$#OOoooooooooooooooooOO$**=->>>",
"121:::::;--;-::-==$+OOoooOOOOOOo OXOOXOooOoOooooOo#$-:112<:-=*&@@#$&&&#OOoOoOoOooooOOooooO+#$%&*-=->",
"11,,:::=-=-;::--*%$+OoOooOo+OOOOOOOX OOOOOOOOoOOo#$*;121<::==*&@$$$&&&$@OOOOOoOOoOO+OOOo#$#@$%*=*=;>",
"<1::;--=**=----=*%@+OoOOO++++OOOOOOOOOOOOOOOOOO+#$*:11<<>:-=**&$##$$&&$$##OoOOOOOOO##@#+$$$$&***==;:",
"<<>::;==*&*====**$+OooOO####++++OOOOOO+++OOO++@$$=:<11<:;;***&$@++@$%%%$#OOOOO#OO+++$********==**-->",
":>:::;=*%$&*===*%@OOOO++#@@@++ooOXOoOOO+++OO+@$%=;<<<:;;-***%$@+#OO#$%%%$#+OOO+OOO##$*==========;;;;",
":::<::-=*****==*%@OOOO++@%$@+o+oOOOOooO++++++@$*-><1<:-***$**@@+OOO$$*&%$#+O++######*==;;;;=-;;-;;;>",
":>,::;;===*=****$@OO+++@@%%@+++oO oOOO+++++++@**;<<<:-**$**$$$#+O@O#$%%$$++#++####$**;;;;:;;;;--;;;:",
"::::--;------=**%@++##$#$$*$##+ooOooOO@$$$$##$*=:,<:;***$$$*@$$+OO+#$$$$$@####$@@$$&=;;::::::;==-;:;",
"::;---:;::;:;;-**$$@@$$@$$$$@#+OOoOOO+$$$$$@@$*-::>:=*$$$$$*$$++OOOO#$$$$$$$$$@$$$&*=;;::::::;---;;;",
";;;----:::>::;;=*$$$$$@$$$$$#$##+OOO+$$&$*$$$**-:,::-*$$@$$$$$+OOOOOO+#@$*$$$$$$@$$**-;;::::;;---;:;",
"::;-=-;;::::>;;=*$$@$#@$#+#$$%$$+OOO+@$$$$$$%%*::<<:=*$@#$$$$#OOOoooOOO#$$$$@@##++@$*==-=---;;;;:>::",
":;;-=-::;;:;;;-**@@+@++++++$$*$$$+OOO+$$$$$$%*-:<<::=%@+++@##+O.ooOoOOO+$$$$@@#OO+#$***=*==*-;;:>>::",
"::;;--;--;;;;-**$@+O++++++#$$**$#+OO+#$%***==-::1<:-*$@+++++#+OOOoOOOOO+$$$@@#OOOO@%*********-::>>>:",
":;-====--==**==%@#OO+++OOO+$$*$$@O+O+$$$**==:::<1<:*&$@+OO+++OOOOOOOOOO+#@$##OOoO+$**===**%&*=-:>>::",
":--=*=******&%*$++OO+OOOOO+#$**$$+++#$***=-:::121:*%$$@+OOOO+OOOOoOOOOO+#@#+OOoOO#@**=--**&*==;::>>:",
";;=*****$$$$$$#@+OOOOOOXoOO#$%&%$$$#$$**=;::<111:*$+OOOOOO+OOOOOOOoOOOO++O+OOOoOO#$*=;;;-=**=-;::>1,",
">;==**%$$$#+oOOOOOOOOoOOOOO+#$$&%$@$$**==::<11<:*@+OOOOOOOOOOOOoOoOOOOOOOOOOoooO+@**-;;;--==-;:::<11",
">;;==*%$#OOooooOOoOOOOooooOOO@**%$@@#**=;:1121:-$+OXXXO ooOooO.OoOoOOoOOoOOooooO#$==;;;::-;;::::><11",
"<>;;**%$+OoooXooooooooXOoooOO@$$$$###$*=;:11<:-*@OO OX O...oooooOoOooOooOoOoooOO@**=-;;:;::::<::1242",
"11:;=**$#oooXooXooooo.ooooooO#@$$@#+#**==;:::=*$+OoXX XXXXXooooOOoOOOooooOooooOO+***--;::::111111442",
"11:;==*#+oo X X.oXoXoo  X ooO+###+OOO$$*=-;:=%$+OOo XX XX.o oooOOOoO.OoOooooooOO#$**=-;;::<111114544",
"11>;;=*$+oo. .X ooo.   X  XooOO++OOoO#$$**-*%@+OOoXoo  oo   X OOOOOoOooooooooooO#****--;:,1241444554",
"41<>;=$$+oo o  o o o       XooOoOOOOoO#$$***@+Oo o  X.oX OO OOOO+OOOoooooo.oo.OO+$$***-;:<1444455655",
"511>;*%#Ooo X  .oXXX         XXXooOoOOO#$*$#OooXX  XXoooooOooOO@#+OOoooOoXoXoooO+$$$&*-;:<4556677777",
"741>;*%#oooo oo.              oooOOoooO#$$$OOooX  .   ..oooOoOo+$#+OOoooooXXooOO@$$$%*-;<14788887897",
"652>:*%+ooo oo.oX  X        XXXooOOooOOO#+OOoo  X    XoXoOOoOoO@$$$@+OooooooooOO#@$%**-:14690qq99997",
"5531>*$Ooo oXXX             XoooOOooOoO+#$Ooo        XooooOoOO@@$%&%$+OOooooOOO+#@%&*=;<258weqq98877",
"5441;&@oXXo.o . X         X  oooOOoOO++@$+Ooo       XoooOOOOoO@#%*--&$@@OOoOOO++$%&*;;:158qeew087777",
"221>-$+ooo ooX             oXoOoOooOO+@$$OOo X       ooooO+O++@$*-;;;=%%$#+@++$$%&=;:>148qeeewq87734",
"11>;*$Ooo  o X X          oooo+OOOOO+@$$@+OoX     X ooooo@+@@#$&*;:>>-=*&&%%$%$&&*;:>1479qeqew087743",
"11>=%$OOoX. oXX           ooo+##+O++$&*$$@#OXX     XoooOO@#$$&&*-;>>>>:;;-*=****-->>1258qeeeewq97552",
"11:*$$Oooo.o  .           oo#+$$@@@$*****$#OXXXX  oooOOO$$%&***-;>>1221>>>;-;--::><11560eeqeeeq98752",
"21:*$#OOooX XoX         XXoo#***$$$&*=--=*@OooXooXooOO@$%&**==--;><23321>>>>>,111211458qeeeeeeq00754",
"41:*$$OoXoo.X         XXXoo#$*==&&&*::::;*$+OooooooO#$$$&&**--=;>><233211<1212442224569qqeeeeewq0875",
"51>-*@+OoooX X        XoXoO#*;<<:-:><111:*$+OOoooo##$&&%%&*****;-;>>11<1122244444444570qeeeeeeqqq087",
"51:-*$+OoooooX  XXXXoooooo+*=<3611444442>*$@OoOOO##%%**%%&%%$&&*=--;>>><1112444455455880qeeeeeqqq097",
"41:-*$++ooooXXo XXoooooo+#$=<36777888752:=$$+OO++$$%&**&&$%$@$$%***-;;>;;><<214455556899qqweeq00qq97",
"4<:-*$$OOoooo o.oOooooo+$*=:37900qq0q874:-&$@+@##$%****&&$$#@@@$%&**---==-;><1234555688999qeq0987775",
"<:-*&$#+OOOoooooooooO##$*=:169wweeeeeq84<-*$$#$#$$%%&**&$$#Oo+++#&&*******--:>1445577666680096554532",
"-*&%$#@OOOOOoooooo+++$**->257qweeeeeeq741;*%$$#+$$$$$**$@#OOOOOO$$%%%&&%%&**-:,12457655578985421<>:;",
"%$##@@+@OOOO+OoO#+##$*=;><58qweeeeeewq84>-&$##O++@$$$$$@#OoOOoOO###$%%%$$%*&*->1457555575764<::--**&",
"@O@OO@OOO+OoOOO##$$$&=;>157qeeeeeeeee072>*%@+O+OO+#@@@+OOoOOoOOOOO#$$$$%$*&&=-:145555455552:-*$$%$$+",
"OooOOOOOOoOO+#$%****=;>257qweeeeeeeew95<-%#+OOOOOOO#OOoooooooooOOOO#$$$$&*&&=->14454555541;*$$@@++oX",
"ooooOOOOOOOOO$*=;=;;:<249weeeeeeeeeeq72>*%@OOoOoOOOOoooXooo.oXooOoO#$%$%&&&*-->144455554<=$#+OOO   X",
"oooooOOOoOO@@%=;:><<2378qeeeeeeeeeee052:*$@OoOOOoOoooo.Xoo.o.oo oooO@%%&***=-:>12457552>=$#+Oooo   X",
"XXooXooOoOO+%*;>1134578qeeeeeeeeeeew971;&$+OOOooooooo XX oo X   XXoO+$&****=-;><458754<=$#ooooo.    ",
"XXXoXXooooO@%->1445678qweeeeeeeeeeew851;*%@OOooooooooX X  .     XXoo+$&&*===--:1488651:&#Oooo.o.    ",
"XX    ooooO#*;12577789eeeeeeeeeeeeew851;*%##oooooooXX.     X      oO+$&*=----:<478852>=%#oo.X  o    ",
" X      oo@$&;1477780qeeeeeeeeeeeeeq752;*%$O+oooooXX             XXO+$**;;;;;>1788741:*$#ooo        ",
"        oo@$*;<47799qqeeeeeeeeeeeewq751;*%##oooooo.Xo  X X      XXoo+$%*-;;:>15887541:*$Oooo        ",
"       XooO$%->37899qqeeeeeeeeeeeew9752;*%$#OooooXoX X  X        XoOO@%*-;;>158987541;=$#Oo         ",
"        XXo#%*:2589qqqweeeeeeeeeeeq8551;*%#OOoooXoo            XoooO+$&*=-;<468777541:=$#O          ",
"        XXoo$&:25899qweeeeeeeeeeww97541>=%$#OooooXoX.o       oooooOO+$&*--><47777554<:=&@o          ",
"        XXXo+&:15780qqeeeeeeeeeewq8742<:=%#Ooooo o.oo.o  o  .OooooO+@%&=-:>145755541<<-*$O          ",
"        XXXo+&;13789qqeeeeeeeeeew9732<>-%$+ooo.X ooo .   XXoooOooOo+$%&-;:<145755421<:-*#o          ",
"             O=<45780qeqeqqq00090952<::*$+Oooo oo oXXXXX XXooOOOOoO$$**-;><23575521>>>;%OoXX        ",
"              ;<4578900qq0088888964<:;=$@OooooXoXXoXXX oo oooOOoO+@%**-;;>134565321>>;*$OX          ",
"            O$-1456888988877555554<:=*&@+O oX.XXX.oX .X  oXoOOO++#$**-;:;<23557542<>>;*#X           ",
"            +&:124557888744223221,-**&@+Ooo.oXXXXo  X  ooXXOO+#@%&*->>><12337755321<>;&OX           "
};
