/* XPM */
static char *_649345758124[] = {
/* columns rows colors chars-per-pixel */
"100 100 35 1 ",
"  c #3E79AE",
". c #3F7BB0",
"X c #407BAF",
"o c #417EB1",
"O c #4583B4",
"+ c #4886B7",
"@ c #4988B7",
"# c #4987B8",
"$ c #4C8BBB",
"% c #508FBE",
"& c #4F90BE",
"* c #5091BF",
"= c #5395C1",
"- c #5699C5",
"; c #589CC7",
": c #5A9EC9",
"> c #5DA3CC",
", c #60A7CF",
"< c #60A8CF",
"1 c #60A7D0",
"2 c #63ABD2",
"3 c #66B0D7",
"4 c #68B1D7",
"5 c #67B2D8",
"6 c #69B5DA",
"7 c #6DB9DE",
"8 c #6EBCE0",
"9 c #70BEE2",
"0 c #73C2E5",
"q c #75C6E9",
"w c #77C8EB",
"e c #79CCED",
"r c #7BCFF0",
"t c #7ED2F3",
"y c #80D6F6",
/* pixels */
"tytte0732>-=$#OOOoooOOoOooOooOO++$$@$$*=-:111225565521,,>>:==$#+   Ooooooooooooooooooo#$&-:1270erttt",
"tttteq9621:=$#OooooOoOO+++OOO++$$$$%**=-:>>2225575542,>>,:==$+Oo  ooooXXX XX  ooooooO++#$=;>270erttt",
"ytttreq861>=$OOOOooOOO++++#+##@$$**===-;>123356676532,>>::=$+Ooo    oo          oXoooO+#$=->270etttt",
"tyttteq862:=$$OOooooOO++#$$$$$$**====-:,2356667777521,>::-=#oooX    o           oooo+OO+$*-:28qqrtty",
"ytttte0732>-=$$OoOoOOO#$$$$**====---;>22678876877742,>>;;=#Ooo                   XXXo+o+$$=>270qrttt",
"rtereq862>;=$$$OOOOO+$$$$$*===-;;;;:>2570009888885521::-=$OoX                     XooooO#$->270ertrt",
"eewq0862>=&$$$#OOOO#$$$%%*=-::>>>>><259qqwq999887732>:-==$o                       XooO+o#$=>270eeeee",
"q00083>:=$$#$$O#+O$$*=====-:>,,1<22268qweq0999998631>--=$OX                       ooooo+#*=:279qwqqq",
"09863>;=$$@$#O$+$$$======-:>2223234670wewq088899862>:--=$Oo                      o ooOOO$%-:2790q009",
"6662>-=&$+O#+$+$$$=====$*=:>2366767790qwq0998888732>:;=$#oX.                       oXOO+$%=>25790988",
"322>>=$$#+O+OO$@$*====$=*=->23677778800q008988876521:-=$OO                         oooO+$*->23798763",
">>>>-&$$$OOO+$O$$$$==%=**=->25676677799987777787632>:=$#OoX                      XXXXOO$*=-:,2465221",
"----=&$$$OOOO$@$$$$$&****=;>26777677787776767886531>:=$Oo                         XoXO+$**=;>2222,:-",
"**===&$$$@@OOOOOO$$$$&*$*=->2566677777766656766522>:=$#Oo                        XoooO$$$*==:>,>--==",
"$$*==&$$$OOOOOOOO+$$$*%%*=->2253566666663333355222:-=$#ooo                    X XXooO+$**===-::==*$$",
"$$$$&&$$$$OO.OooOO$$$$$%==-;><22245663232222222,>>-==$#Ooo                      XoooO$**====--=*$$##",
"$$$$$$*$$@Ooo ooOO+$$$**===-->>12333222>>>>>>>>>>:-=*$$Ooo                    XXooOO@$======-=%$+OOO",
"O$$$$$&$$OOo . oooO$$***$====->>22222>>;;>>>>>;>:-;==$#+ooX                   oooOOO$==-;-==-=$+OOOO",
"+@$#$$$$OOo..    OO@****$$$$$=->>>>>>:;--;;>;;;::---*$@+OooX                XoooOO$$$=--;=--==$+OOOO",
"O$+$++$@OOoo X   oO$$**%$$$$$==:>>>>:--====----;::-==$$OOoo                 oo++O$$&=-;;;::--*++OOOO",
"O+O+++++OO X  X XXO@%*&$$$@$$$=-:::---==***===-;::-==%$+ooo                XoO++$$==-:>>::::=*$+OOOO",
"OOOOOO+OOoo  o   XO+$&&$$$#$$$==--;===***&*=*=-;::-=*$$+Ooo                XO#$$$==->>2>>>>:=$+OOooO",
"OoOOOOOOOooXo   XXOO@&*&$$$#$$*======****&*=*==;::--=*$$OOo                X+$$%=->>2332111:=$+OoXoo",
"ooooooOOOOoo     XoO$***$$$$$$&=*=&$$**&&*&&&=-;::;-==*$#Ooo                $$=->>237766211;=$Ooo Xo",
"Xo.ooooOOOoo    XXXO$&**&$$$$$&&$$$$$$&&&***==-;:::--===$$OOXo .  . o.XoOOO$$=->>3670076221:%#ooX . ",
"o    ooooOooX.   XoO@&&&$$$$$$$$$$$OO$$&&**==--;>,,;:---=$$#ooo.   oooOOOO$$=->23700wq0752>-$#Ooo  o",
"X X X  ooOOoo     OO$$**$$$$$$$@$@OOO@$$&&***-;>>,>>>:>;-==$Oooo oXooOO$$$$=->2370weee0762>-&+Oooo  ",
"      .oOOOoo XXX OO$&***&$$$$$@O+O$@$$$&**==;;>>,,,,,>>>:-$$OoXXXooO+$$*--->2470wette0852>-*+Oo  X ",
"  o   XooOOoXX  XOOO$&****&&$$$$$##O@+$$****-;>>,2222,,>,>:=$+OooooOO$=-:>>>268qweette0762>-%$OooX  ",
".      ooOOoXoX XoO$&&*=*****$$&$$$$+$$$$**--:>22222222,2<>=$$OOOOO+$=->>22269qwettteeq8621:=$+Ooo. ",
"       oOOooooooooO$$********&**$$$$$O$$&*=-;>,2525222222,>=$$+++O#$*->122570qeeteteee09731;=$++Oooo",
"XX   XoooOOoo  oOOO$**-*=--=-***=$$$$$$$$*=;>>24654212122,;==$$@@$%=->222379qweeetrrrwq072,:=*$$OOo ",
"oo o ooOOoOooXXXo+#$=-----:-=======$$$=$*=;>>236662212221>;=*&$$&==>>>>35770qwweeeeeewq0621;-=*$OOOO",
"oooooooOOOOoXoooO#$=-;--:::--==-==-=-==--->,235763321221>>;==&&&&->>>2336780qqwwwwweew0752,:-=*$$OOO",
"ooooooOOOOOOOXoOO$%=-;;::>>:----;;:::::;;>>12667322211>>>;-=*&&*=;>133356780qqq0wwwww08752>:;=*$@OOO",
"O+OOOOOO++OOOOOO+$=-::>:>,>:-;-;:>>1>>>::>>2333322211>>>>>==&&$*=->>2535770000000qqw00732>>;-*$@@OOO",
"OOO#OOOO+++OOOO+$*-:>>,>>,>:::::>>1221>>>>>222222>>>>>>:;;-*$$$&=->>226667000000000q0762,>-==$$$@+OO",
"O+OOOO$$$@$$@@@$%=->,1,>>,>,>>:>>12221>>,><222>>:>::::;:;-=*$$$&=-;>13367787870000w0062>>;==*$$O+O+O",
"#OOOO$$$$$$$*&$&=->>,>,>>,1,>>>>>222221>>>12>>:--;;;-;;--==$$@$&=-->136556777777000073>>--==$$$$O$OO",
"OOO#+$$$&$==***-;:>,,>,>,122121>112211>12>>>>;=-=------===$$$@$*==->122333557777777731>>-=**&$$$OOO$",
"$OOO$$$&*----=;;>>>>>>>>,222222>>2>22>>>>1>>;--===-====*&$$$$$$$==->>2222222366333331>>-=&&&$$@O$OO$",
"$#$O#$&=---;-;;>>>>::>:,22235222212>>2222>>>--==-=====$$#$+$@$$*==-;>1111>>13332>1>1>>-=&&&&$$O@#$$$",
"$#$#$$*=--;-;>:>::;;;::,2233432,>>>>>>11>>>>--===**$*$$+OOO#$$$====;>>>>>>>>22>>>;>>;;-=**&$$$##$#$$",
"###$$$==----;;;;------;>2233322>>>>>>>22>>>;-====***$$$OOOO@+$$$$$=-;>>;;->>2>>>;--=-=-==*&&&$##O$$#",
"$$$$$%==-=------====*-;>223322>:;;;>>>>>>>;=====**$%$#OooOOO++$$$&=-;>>---;>>>>-=======-====&####++$",
"$$$$*====-=---=**$*%*-->23322>---;;;>>>>;=&=&&&=*$*$$OO.XoOO$$$$$$==:;-==-;>>>;=======;-;;-=&$#@#+$#",
"*$$$$*==*---===**$$%*=;,2222>:--==;>>>>>=&&$$$$$$$$$$OOoooOO$$$%$==-;--==-:>>:;=&=&&=-;;;;;==&$$##$$",
"&$$$%*==-=-;-==*$$@$*=->222>>;-==-;>>;>=&$@@@OO$$$$$OOooooOO$***&=&==-=--;:>>>;=&&&&==;>;;;-=&$$+$#$",
"$&$$&*==---;;==&$$@$$=->22>>:-----;;;:;-&$OOOOO+@+$+OOOoooO$$====*=====;=;>>>>-*=$=$==;:;;;;===$$$$#",
"$$$&&=-=--;;;;=*$$$$*-:,2>:::-====---;-=$@+OOOO++$@OOOoOOO+$==-====&===-;>>>>:-=$$#$==;;;;;-===$$$$$",
"$$$$&*==-;;;;;-**$$$*-:>,>:---==*===--==$OOoOOOOO+$OOOOOOO$$=---=--===;->>>>>>-&$$$$==;;;;;=-==$$$$$",
"$$$$&**---;;>;-*$$&*=->>>>:--===*=**===$$OOoooOO#$#$#OOOO+$$-:::;;;==;;>>>23>;=&$#$$$==;;;;=====&&$$",
"$@$O$$&=-;;>;;==$&&*=->>>:;--====*=*=*$$OOooooOO+$$$$+OO+$$*-:>:;;====;>>>22>;=&$$$$====-;-====$$$$&",
"$$##$$&*=--;:;==*&*==->>>:-==--:-**$*$$$+O.oooO+$$$$$$$$$$&=:>>>>--=;=>>1332>;=&$$&$====-=-====$$&$&",
"$$O@@$$&=-;-;-====*=-;>>>:-==-::==*$$$$$OoooXOO$$%&**%$==*-:>>>>;--=->>23232>-===&=$==-=--=-==$=$$$$",
"@$$O@$$$=====--====--:>>>;-=->::-*&$$$@@OOoOOO$$$%$=====--:>,11>>;>;->>2332<>;-==-===-;;==-===&$$$$$",
"@$$O$$$$&&&===;-----;>2<,:--;:>;-**$%$$@+OOOO@$$$&&*===-->>,,,,>>>>>>2333331>;--=---;;;;---===$$#$$@",
"$$@$OO$$&&&&=-;;::;>>222,>::,>,>;=**%$$$++O+@$&**&==-*--;>>>2,,>>>>>12233322>;>;;;;>>:>;-:;-==$$$$O$",
"$$$OO$$$$&&==;>>>2>222621,,,,,,>:-=*=$$#@@@@$******-*--;:>,21,,>>22212333221>>>>>:>>>;;--;--=$$$O#+@",
"$O+OO$$$&&&==>>>333335642222222,>--=*$+$$$$&*=-=--=-==-;>>,>,,,<2>2>>2222221>>>>>>>>;-----===$##OO+@",
"OO$OO$$$&===;>26777776766425252,>--=*$$$$**----------=;>>><>>>22<222>2>>221>>>1>>>>;===&=&&&$$$+O+O+",
"OOO+@$$&&=-->>378009887777666522::-=*$++**----;-;;---;>>22>,1,>223>>>>>>112>>>2>>>-==$$$$$$$$$#O+OOO",
"+O$O$$&&==;>>268qq0009999777652,>;-=*$+$&*;-;;;>>>>;>>222>>>>>123>>>>>>>>1>1>21>>;=&$###$$$$$#@OO@O+",
"O+O+@$&==;>12680qq00000099776532>>-=%$$$*--->>;>>>>>23222>>>>>><2>>>>>;>>>>>>>1>;-&$+OOO#OO@+OOOOOOO",
"OO+++$*-;>>26700qqq0q0q009776432>>-=&$&&*=>>>>>>222253332>>:>>>>>>>;;;;;:>>>>>>:-=$+OOoOOOO@+OOoOOOO",
"O+++$%=-:>2270qqwwqwqq0q09764322>>;=*&&*=;;>>>11122676622>::;-;;>>;;---;;>>::-:-=$$+OoooOO+OOOOooOOo",
"OO+@$*=->>2570weeewwwqqq08764222>:;=&&*==->>222>233676321::-=-=-------=-->:;;-;=*$+OOXoooOOOOOXXo oo",
"oOO+$*=-:1268qeeeeeeewqq076532<>>-&&$$**=>>>22122366622<>;==*$$*$******--:-=---=%++oooX OoOoooXXX oo",
"XoOO$$%=:>370qeeteerrewq976222>-=&$@+$$*-;<22222233532>>-==$$$$$$&&&***==-=====*$+OoXXXoooOooo  X oX",
"XXXO++%=:>3780eretteee007522<>-=$OOOO$$*=>>2222232332<>>-=&$$$@$$$$$&****==**=*$#OOoXX.ooOOOoX X    ",
"X oOo+$=:,2670eetttewq9722,>>;*$OOOOOO@$=>>2>2233232<>;-==&&$$$@$@$$&&&&&&*%=**$#OoXXXoXoOOoXo      ",
" XXooO$*:>237qetteew0862>>::-=$+OO .OOO$=;><11>22<2>>>;-==&$$#O$@O@$@$$$*$**=**$+OoXX XooOOoo X     ",
" X XoO+&->258qertew0732>:-==$$+Ooo.oooO$%-:>>>>>>2>>>;-=*=*&$$@OO@+@$@$&$&&&*$$$Ooo XX .oOOoo. X    ",
"X  XXO+$->2670eeeq0732>-=*$$@+Ooo  . oOO$==;:>:>>><>>-==**&&&$@@O@$O@$$$$&$$***$OoXX   .oOOoooX    .",
"  XXXO$$->2570qeq9852>-=$$++Oooo .   ooOO$$==--;;>>>;--=**&&$$$@O@$$$$$$@$$&**&@Oo   XooooOOoooo oo ",
"oo XoO+%->2367008621>-=$+OOoooXX    . XooO$$==--;>>>>;=***&&&&&$$$$$$&&@$@$&**%@Ooo    XooOOoooXXo. ",
"o oooO$=:,22577632>:-=$$Ooo o          oooO#$**=-;>;;==****&&*&&$&=&**$$$@$$***$Ooo    .oooOOOoOOoo.",
"oooooO$=:>122222>>-=*$$+Oo              Xoo+$$*==;;;>==**=&&****=====&&@@$$$**$$+ooX     XOOOOOOOOOo",
"ooOo+#$=:>>>1>2>:==%$$+OoX              oooO+$$==-;;;==&**&***==---=-*&$@+$$$$*$#oo     XoOO+OOOOOOO",
"OOOOO$$-::::>>:-==$$$OOoX                oooO$%%-;;>;===-***==-;;;>;-*&$$$$$$**$$Oo     oXoO+#+OOO$O",
"OOOO+@*-;;;;:--=%$$OOOooo                   +#%*--;::-----====-:>>>>;==$$$$$$&=*$Ooo . X oOO#+#$#$@O",
"OOOO+$*--=----=&$@OOOoo                     +#$*=--::--::----->>>>>>>-=&$$&$***&#Ooo   XooOO$$$$#@$O",
"OOOO+$===----==$#OOooo                      ++$=--::>::>>>;::>>22222>;====&&=**$$Ooo  XoXOO$$$$$$$$$",
"+OO+$*=-======&OOoooX                       +#$%--::>>>,,,,>>22363222>>;-==*=&&$##OooooooO#$*&$$$$$O",
"++@$*=--=*===$$OOooX X                    Xoo#$==;,,222222222345633222>>;-==*&$$$#OOooooOO+$$&&*$$$$",
"$%*=-;>-===*&$@OoooX                     Xoo+#$=-:,124432545666666663331>-=&*$*$$$+OOOOoOO@$$&**=&&$",
"*=-;>>>;-=*$&$Oooo                        Xoo#==:,2256665566677777766732>;==&$*&$$$O++OO+++@$$&===&*",
"-;,<222>-==*$OOXoXX                      XXo+$=-:12567877767788777766762>;=&&***$$$$##+O+O++$$*=----",
",234662<;-=$$OOX                         XoO@%-:,23677877798997776667751>-=*%****&$$$$@OO+O$$$=->>>>",
"46777732>-=$@OOo                        XXo+$*-:,23788887990000977777662>;=***=*==*$$O$O+O+$$$=:>222",
"77000762>=&$OOOo                         XO@%=-:>2478888890qwwq977666531,;==**===*$$++$++O+$$=->3567",
"00q00062:-&$OOoo                        XXo$*--:,267898890qeww0773333321>:-*=====$$$@+@@++@$=:,36799",
"qqwwq062>=$@OX                           oO$=-->,467999890weeq833211>>2>;-=*==**$$O+O@$$$$$*;,3700qq",
"eeeew072>-$$O                            o$=--:>246888899qqq0952>>>>>>>;-==%**$$@+OOO+$$$*->238qwwww",
"rtttw072>=$OOo                          oO$=-;>,256888889000752>>=>-;;===**$$$@+OOOOO$$*=;>259qeeter",
"tttewq72>-$$OO                         oO$=-;:>,24677777877722>;;=-===&&*$$@$++OOOooO+$&->2570wtttyt",
"yytew07<>-*@@O+OO   o  X           X  OO@&-;>>>>267776667652>>-=====&&$$$$$@+#OOOooOOO$$=:257qetttyt",
"tytrw072>-*$@+OOoOXXo          OXOXO OOO$=->>>>225677652221>:====&&&$@@@@O@+O+OOooooOO+$=>247qettytt",
"tttte072>-*$@OOXXXXXO oX  O    OOOOOOOO$&->>>>22336654322,>:-==&&&$$$OOOOOOOOOOOOooooO+$=;>369wettyt",
"rttte073<>-*$OOOOoOOooO Oo OO OOOOOO@@$&=;>><><33566222,>>:-=*$$@#$#@OOOOoOOOOoOoOooOO+$*->247qrttyw"
};
