/* XPM */
static char *_649345765323[] = {
/* columns rows colors chars-per-pixel */
"100 100 34 1 ",
"  c #3E79AE",
". c #3F7CB0",
"X c #407BAF",
"o c #417EB1",
"O c #4583B4",
"+ c #4886B7",
"@ c #4988B7",
"# c #4987B8",
"$ c #4C8CBB",
"% c #508FBD",
"& c #4F90BE",
"* c #5091BF",
"= c #5395C1",
"- c #5699C5",
"; c #589CC7",
": c #5A9EC9",
"> c #5DA3CC",
", c #60A7CF",
"< c #60A8CF",
"1 c #60A7D0",
"2 c #63ABD3",
"3 c #66B0D7",
"4 c #67B2D8",
"5 c #69B4DA",
"6 c #6DB9DE",
"7 c #6FBCE1",
"8 c #70BEE2",
"9 c #73C2E5",
"0 c #75C6E9",
"q c #77C8EB",
"w c #79CCED",
"e c #7BCFF0",
"r c #7ED2F3",
"t c #80D5F6",
/* pixels */
"rrrrw0752>;=$#OOoooOooooooooooOO###$$%*=-:,,12344554222,>:;==$#O   oooo  .Xooooooooooo@#*->1260wrttw",
"rrrrr07641>=$#OooooooOoOOoooooO##$$$**=-;,2222345443221,,:-%###o  oooo ..   . XXoooooO@#%=-,260wwrtt",
"trrtee0762>=$@OOOoooOoOOOOOOO@@$$$====-:,2235455655322,,:;=%OOoo                 XoooOO@$*->259qwrrr",
"rrtrreq762>=&#OOoOooOOOOOO@####%=====-:,2556556665432,>::;=#OooX                 oXooOO@$%=:159qrrtr",
"trrrrw0753>-*$@OOoOOO@@@##$$$$====--::226688666656532,>:-=#ooXXX                   ooOOO@$*:<59wwtrr",
"rrrreq762>;=&&#OOOO#@@#$##$$===-:;-->2268998866666542,:;-%@oXX                    XXoooOO$=:259qwrrr",
"wwewq962>-=&$$##O@@$$$*$%$%==-::>:>>1269000886686652,:;==$oo                      X XoOoO$*:,590wwww",
"qqq0962:=&$$$$##@@$$*==*%%=--:>>1>,22680008888888552:;;-=#oX                      XXXoOOO%=:<590wqwq",
"099752>-&$#$$##$@$*=--=*&=-;>>>22223589909888888663>::--%@oo                        XoOO@$=:,4790009",
"77642>-=&#####@$$**--=**&&->>2222445588998866666652>::-=$OooX                       oooO@$=:,4689977",
"4432>-=*$$@#@@#$***-=-**&=-;>2334545566886666666632>::-*$OoX                        ooOO#$=;,2576766",
"1>>>:-*$$$@OO@$$$****=**&*=;>234445456666555556543<>::=*$Ooo                       XXoO@$&=-><444422",
":-::-=&&&$#####$&$*****&**=;>235555556554445555432,>:=*$@oo                       XXoOO#$&*=:>2<2,>:",
"=&=--=*&&$$##@@###$***$&&==->234455445433322444422>::=*#OoX                       XXXO@$$$*=:>>>>:-=",
"$$&==***&&$@OOOO@@$$&&$&&&=->>23243443332222232<1>:--*$#Oo                        ooOO$$&&*=-:::-=&$",
"#$&$***=&&$@O.OOOO$$$$&$&&==->>>2223232<,,,,<2<,>>--=*$#Oo                       XooO#&**=**---*$$##",
"#$$$$&===$#OoooooO##$&$*&&&&*;>>,2221,,>>>>,,>>::::-==$#Oo o                    XooO#$*=====--=%#@O@",
"@$$$$$&&$#OooXXoOO@#$=**$&$&&*=>,<<,>>----:>>>:::---=%$$Oo.X                  XoooO@$*=---==--*$@OOO",
"O#$$$$$&$#oo  o.oOO$%=*$$$$$&&=;:>>>::-=*-:::::--:;-=%$@OooX                  XooO@@&*=------=$#@oOO",
"@#####$$$OooXX o oO$&=*$$$@#@$*--:::-==***=--=----:-=%$@Oooo                 oOOO@#$*--:--:::=$@OOOO",
"@#@O##$##Ooo oXoXoO$$*&$$#@#@$&=--:--=***&**==--::--=%$@Ooo                 OOOO@#%==:::::>:-*$@OOoO",
"OOOOO####OooXX  ooO#&**&&$#@@#&*=--=*=*********-:-:-=*$@Oooo                OO@@#*==:>>>>>>>-*$OOOoo",
"oOOOOO@O@ooo.  .XoO#$*=*&$#O@#$*===******&**&$*=--:-=*%$OOooX               O$#&*-:>22222,>>-$OOoooo",
"oOOOOOOOOOooooo XoO#$===*$#@O$&&*=*%$***&$**&&=-:::--=*%#@oooXo            O@$*=:>12554222>:=$OooXXo",
"XooooooOOOOoXo  ooo#$===*$##@$$&$$$#$$*&*$**&*=-::>:--==%$@OooooX oo oO.OOO@&*=>>256776542>:=#O.XX o",
"oXooXooOOOOOooXXXoo@$===$$$#$$$$$$###$$$*$**&==-:>>::::-=*$#OOooo XooOOOO#$&==>25679097521>-&OOoo   ",
"oXXoo.ooOOOOooooooO#$=*=&$$$$$$###@@@$$$$****=-;:>,>,>>>:;==$OooooooOO#$&&&=;>14690qwq9642>-&@Ooo o ",
"   XXXooO@OOooooooO#$*=*&*$$$#$##@@O@@#$$%**==-:>>,,,,11,>>=%$OooooOO$==--;:>25690qwwq9632>-$#Ooo o ",
" Xo  XooOOOOoooooO@$&*=***&$$##$$##O@@##$***=-::>,22222222>:=$#OOOO@#&-:>>>22579qqwerq0642>-%#OOo XX",
"o   o ooOOOOOooooO#$*=*=*&&$&&$&$$#@OO@$$$*=-:>,22224223222:=%$#O@@#&->222236700wwrewq9662>;=$#oooXX",
"X     ooOOOOoooOO@$&*=======*&*=*$$##O@#$%=-::2232222224421>-=$$##@&->22236690qwwwrwwq0662>;=$$@Oooo",
"oXXXo.ooOOOOoOoOO#$&==-======**==*$$###$$*=-:>222422222242>>-==$$$*->>23566700wwwwwwwq0762,:-=$#@OOo",
"oooooooOOOOOooOO@$$==-------===-==*$$$$$&=->><245322222222>;-==**=-:<224567900qqqwqqwq9752,:-=%$##OO",
"OooooOOO#@@OOOO@@$*=::::-::--------==**==->>2246632222222>>;-*=*-->,2244667899900qqqq97642>:-==%$#OO",
"OOoOOO@@$##@OOO#$$=::>>>,>>::---:::------:>,255552222,<<2>:--==*=:>2244456799999990q076522>;-=%$###O",
"@@O@O@$$$$$#OO##$=->>,<>>,>::--::>>>>:::::><333322222>>>>>;-**&==-><2445567777999999775<1>:-==$$##@#",
"@##$@@$$&$$$##$$=-:,222,,,,:::-:>>,>>>>:>:><2232<<>>>>>>>::=*&$==:>><35555666778799975<,::===*$@##@@",
"@O##@@$**&*$&$&&=:>12222<<,,>>>:>>,,<,>>:>>,22<>>>>>:>::::-=&$&*-::><34555556667787863,:-===%$%$####",
"#@$#$%*****======>,222222<,,>>>>>,12,,,>>>,><>>-;::--:::=-==&$$==-->22332445555566653,:===%%$$$$#@#@",
"$$#$$*=-----=-=-:>>221,2,222<,,>,,21,,>>>>>>>>---------*==*&$$$==-:><2222<<244455443<>:*=$$$$$$$#$##",
"$$$$&*=-::::-:-:>111,1,1222222<1,12,,>>>>>>>:--==-=====%*$$$$$*=---:>>>>>>><23332<<<>:==$$$$$$@@$#$$",
"$$$$&==::>:>:::>:>>::>>,2223332<12,,,,,>>>>:-----=====%$$##$$*$===-:>>>>>:>><<<>,,>>:-=$$###$#@$$$$&",
"$$*%$=-::>:>:>::::;;;::,23233322,>>>>>,,>>>:;--====$$$$@@O@#$$&***=-::::--:><<>>::--===$$$$$$$#$$$&$",
"%$%$*=--::--:---=====-:>2223222>>>>>>>,2,>>:----=$%$$$#@OOO#$$$$$$*-::--=-->,>>;-=*====%$$$$$$$$#$$&",
"$%*$==-----:--==**====;><2222>>;--::>>2>>::-*=-*==$$$@OooOOO#$#$#$==::-==-->>:--********%%$*%$$$$$&$",
"=***==------==**$$#$==->,222<>--=--:>>>>>=******=$=$$OooooO@#$$@$$&---=**=-::;-***%%$*=======$$$$$$*",
"==**=--==---==$$$$#$$=->2222>:-===-:>>>:-**%$$&*=$$#@Oooooo@@$$$$**====**=-:>--**$$$%==-==-==*$$$$$*",
"=***==------=**$#@#$$=:><2,>>-=**=---::-*$$$$@#$$$$#@OOooOO@$$*%***===*==-:>>:**%$$@$=====-====*$*&&",
"*=**--------***$$@@#%=:>22>>;-**$===----=$##O@@##$##OOooOOO#$==*&&&&&&*=-->>>-**$$$#$==;-==--===*&&&",
"=****--------**&#@@@*=:>,>::-=*&&=====-=$#@OOOO#####@OOOOO@$*==*&&&&&&*-->>>>:-*$###$===-----;==****",
"=****;-------=*$#@@$&=:>>>:--=*$$==&===*$@OOOOO#@###@OOOO@#$=-====&&&*==>>>>>:-*$###$====;;--=-=****",
"**$&**===--*--*$$#$$*=->>>;==**&&%*$*==$#OOoOoOO@#$$@O@@@#$=-:--====&=->>>22,:*$####$$===---;-==****",
"*$$***=-=----=*$$$$&*=-:>:-==*===$=$%*$#@OOooOO###$$$$@$$$$=-:;-===&&=>>>>2<>:=&###$$===----=--=-**=",
"**$$$$*=======*$$$$&==:>:;==**=-==$$$$$#@OooooO#$$$**$%$$$=->>>:>=====;><<22>-*$$#$$#=$=-----===****",
"$&$$$***=**====*$*%*=-::::=**=:-=*$$#$#@@ooooO@$$&***=**==-;>>>>>===-;>>2222>-**$&$$=$==------==****",
"&$$$$$$$&*$********==::>:-===-:-==$$$$#@@OOOoO#$$&&*===--->>>2>>;>;;;>>2322<>:-*=*&*==-;--;---==**&&",
"$&$$$$$$$$$$**======::>>:--=--::-=$$$$#$@OOOO#$$$$%===--:>>,12>>>>>>>123223>>>;=====;-;;;;;;;-=&&$*$",
"&$$$@#$##$@$$*-----:>><,>:--::::-=*&*%$$@@O@#$$$*%==-=-::>>>2>>>>>>122233332>>;;;;;;>;;>::>:;-=$&&$$",
"&$$###$$$#$$**-:>>>,,222,::::>>::-===&*$$$@$$%*====-=---:>>>,>,,>22122233222>>>>>>>>>>;;:>>:;-&&$$$*",
"$@###$#$$$$$**:>,22223222>,,,1,,:--=**$%$$$**======----:>>>>>>,>>212>22222322>>>>>>>;;;;;;>:-==$$$$$",
"@###$$$$$$%**-><2544444422222221>--=**$$%*===-:-------:>,>>>>,,,>2>>>1>>222>12121>>>-=------==*$@$@$",
"@@@$$$$$&***->,46666655442344421>::-=$$&*=---:--:::-::>1,>>>>>,1222>>>>>>22222232>>-=&====*===$#$@@@",
"@@#$$$%***--:,268988666654444422>:--=$$*=:::::>::>>>12221>>:>>>111>>>>>>>22222221>;=&$$$&*&=$$$@##@@",
"O@@@$$&*=--:,2578988886866655432,::-**$*=->:>>>>>,>222221>>:>>>>>>>>;>;>>>>>1222>>-=$$#$#$$$$$@@@@@@",
"#@@@#$==::><256999999988766554422>:-=*===;>>>,>,22224442>>>::-:>>>>:;;;::>>>>2,>>-=$#@@@@#$$$#@OOO@O",
"@@@#$*=-:>,256890990999888655332>>-==*==->>>2222222464422>:------;::---;->>>>>>>-=*$#OOO@##$##OOOOOO",
"O##$$%=-:>24680qq00q009997654432>>--====:>122222224665421:-=*=*==-;--;--->::-::-=*$$OOOOO@@#@OooOooO",
"oO@#$==-:,25790qqqwwqq009765422<>:==%==-;>2222222234321,:-==$$$$$*======---=----=&#@OOoOOOOOOOoo ooo",
"oOOO$$==:>2679qwwewwwqq9865533<>-&$$$==-:>232222224222>:-=&$$####&**=*=========*$$#OOoooOO@Ooooo o o",
".oOO@#%=:,4589wwweewwq0865442<<**$##$$=->244322242222,>--=$$$#@#@$$&**&&========*$OOoOooOOOOooX   ..",
". oOO#$=:>2569qweewwq98643<<<>**##OO@$*-:22223233222,>:-=*$$#@O@@@$$&&$&=$$====%$#OOoooOOOOoXo   oo ",
"X.oooO#&->2469wweeq09652<,>>>;*$OOOOO@$=->222222221>::-==*&$$@#O@@@$##$$$$%====*$@ooooooOOOOooXXX   ",
" oXXOOO$->2369qwwqq9642>;;*-**$@OOXOoO#*-:>111,11,>::-==**&$$###OO###$$$$$**=$=$#OoXXoooOOOOoooo    ",
"X  o O@&->2369qwq09642>:****%@OOoo oXOO#*--:>>>>,,>>:-****&$$$$#@@##$$$#$$$&%==$@oooooooOOOOoooooXX ",
"o  ooO@&->23589098642>-=*$@O@OOXooXXXOOO#$*=--:::>>:-==**&&$$$$#@#$$$$$#@@$%===$@ooo o oOO@Ooooooooo",
"o XXoO#&:>225677642,:=*$@@OOoXXX  ooXo OO@$%==-;:>::-=***&&*$=$#$$&$$$$#@@$*===$#ooX  oXoOOOOooooooo",
"o XooO$=:>2245442,>--&$$OoX XX X     X OoOO#$===::::==&$*$=$&*=$&*=*&$#@@@$====$#OoXo .oooOOOOoOOooo",
"ooXoO@$=>,>22222,:-*$##@OXX X           XoO@$$==--:-=*&***&$=*$=*===*&#@@@$%===$#Ooo   oooOO##OOOOOo",
"ooOoO#*-:>>>>>>:-**$@@OOXX             XXoOO#$$=--:--***=%&&$&====-=*$$@O#$$$$%%$OoX XXoooO@##@OOO@O",
"OOOO@#=-::::::;=*%$@OOOXX              XXoXO##==-::--====*&&====-:--=*$@@##$$==$#oooXXXoooO@$##@O@@O",
"OOOO#$=;:;;;;-=&$@@OOooX                    #$%=-:;;-----=====--:-::=*$$$#$$$*=*$OooXo o.OO#$$##@$#@",
"OOOO#$=;;-=-;-=&$@oooo                    XX#$==-----;;;:--==-;->>>:-=%$$$$$&***##ooX  ooo@$&$$$#$$@",
"@OO#$&=-==-===&$@Ooo                    XoXo#%%=-:;;:::,,:---;:,>2,>>-=*$$$$***$#@Oo ..ooO#$**&$$##@",
"OO##$=--======&#OooX                    Xooo#$%=-;;::,:,,>,::,12222,>:-==*=$$**$###oOoooOO$==**$$$$@",
"##$*=-;-=&=&=$#OoXX                     XXoO#===-::,,1221,,,222222221,:-==*$&$&$$#OOOOOO@#&*=****%$@",
"$*=-->:-&&&&$$#Ooo                      XXoO##=--:,,223222223433443222,:==*=*$&$$$##OOOO#$&***==**$$",
"==::>>>-==$$##OoXo                      XXoO#$=-;,223443322444445555442>-==$$**%=$#####@#$$&&&=--***",
">>,222>:=&&$#OOoo                        ooO$=-::1224644344444665555442>:==%$**=$=$$######$&$*=-::-:",
"2254542>-=%$#Ooo                        ooO#%=::,2445655446566644434542>-==&&*===**$$$@@#$#&&&-:>,><",
"5666652>-=%#OOoo                        Xo@$=-;:>2456666667787745554422,:==&&======&$##@#@#&*=:>2245",
"78998641:=%#Oooo                        Xo#%=-:::256866788898886533322,>:-=**==-===$$@$#@@#$*->25678",
"0900985,-=$#Oooo                        oo#*--;:,367886888900874322<2,>>:-=**=-==&$##@###@$*->257999",
"w00w0852:=$OX                           Xo$%--::25668868890008522,>>>>::-=****=*$$#####$#$&=>2690w0w",
"weewq95,:*$Oo                          Xoo$=--:2256868689900863,>:>>>--=**$$&&&$##O@##$&==->259qwwww",
"etrew952:=#@oo                         Xo@%=-:,2455666688898632>--:---*%$$$#$##@OOOOO#$&=:>367qwrrrr",
"tttww951-=$@OO                        XoO$=;;:,24465666688653,>---====$$$@@O@@@OOOOOO#$=->2570wrrrrr",
"ttreq96>:=$#OOOOoX   X X          XXXooO@%->>>,2345655555553,:--===*%$##@OO@OOOoooOoOO$&->2690wrrrtr",
"etrew942>:=$#@OOo.oXX          Xooooooo#$=::>><23456553343,,:-====*$$#OOOOOOOOOOOo OOO#$=>2560wrtrrr",
"rtrew972>:=$#OOoooXoOo o        ooOOoO@$*->>,<22444554332,,--=*%$$$$#OOoooOoOoooOoooOO@$=:2369qwrrrr",
"eetew0622:==$OOoooooXXo Oo X..oOO@OO@@$*=->>,<24454443<<,,:-=*%$$@@@@oooooooooOooooooOO$=:>2570rrrtw"
};
