/* XPM */
static char *_649345772652[] = {
/* columns rows colors chars-per-pixel */
"100 100 34 1 ",
"  c #3E79AE",
". c #3F7BB0",
"X c #407BAF",
"o c #417EB1",
"O c #4583B4",
"+ c #4886B7",
"@ c #4988B7",
"# c #4987B8",
"$ c #4C8CBB",
"% c #4F90BE",
"& c #5091BF",
"* c #5395C1",
"= c #5699C5",
"- c #589CC7",
"; c #5A9EC8",
": c #5DA3CC",
"> c #60A7CF",
", c #60A8CF",
"< c #60A7D0",
"1 c #63ABD3",
"2 c #67B0D7",
"3 c #68B1D7",
"4 c #67B2D8",
"5 c #69B4DA",
"6 c #6DB9DE",
"7 c #6FBCE1",
"8 c #70BEE2",
"9 c #73C2E5",
"0 c #75C6E9",
"q c #77C8EA",
"w c #79CBED",
"e c #7BCFF0",
"r c #7ED2F3",
"t c #80D6F6",
/* pixels */
"rtrrw0852:-&$+OOooooooooooXXXXXo++@@$$**-::<112344223111::-**$@#  oooX  XXoXoXooooXooOO$*=:<460wrrte",
"rrrrr09641:=%@OooooOOoooooXoooO+@$$$***=;<1112253422111<:;=*@#OO  oXX       .oooo oooOO@$*;<159werrr",
"rtrtrw0862:=%@+OoooOoOooOoOoOO+$$$*&&*-;11445355525211::;-*$OOoo           X o.   oooOO#$*-;<49wrrrr",
"trtrre0861:=&@OOOoOoOOOOoOO+++$$*****-:<15555555555311>:;=$@Oooo            ..   oXooOOO#$*-:48qrrrr",
"rtrrrw0851:-&$@+OOOOOO+OO++#$$&**=*=-:>157776556555511::-*$Ooo .            .   .   ooOO+@*-:58werrr",
"rrrrrw963>;*&$$+++++##$#+++$$%**===-;:137897766556551::;-&#oo               .       ooOo+@$=:38wrrrr",
"errrw061:-*&$$@#++$$$%$$$#$$%**-;;-;:1378998776676631:-=*%OoX                       ooooO@%=<470wrwr",
"wwwq083:=*&$$$$@$$$%&**%$$%**=-;:;::1257999777777651::-=*$OoX                       oooO+@*-:370qqqw",
"0q0983<-*$$$$$@@@$**==*$$%**==;:::<1155778876677861<;;-=*$Ooo                        oooO@*-:3690000",
"887631:-*$$$@$@$$**===**%$*=-::::111145767665666631:;;;-*$+Oo                        ooO#$%=:1579989",
"65331:;**$$$#$$$%**==**%%%*=-:<11111245655354555331;;;;=*$OoXX                      XooOO$**:<456666",
"1<<>:;***$$$#$$$%$*****$%***=:<1211114433241225431<::;-=&$+oX                       ooOO#$%*;:143341",
":=;:;-****$$$$$$$*&***$*%*%*=:<1222221211111111211::;-=*$#oo                       XooO#$@%*-;><11<:",
"***===*****$$@#$$$$*$*$$$%$*=;<11111211111:111111<:;--**$+ooX                      XoOO##$$&-;::::;=",
"$$&*****=**$@+++#@$%%$$%$%%%=-:<11111111:<:<:1:1::=-=***$Ooo                       ooO$$$$%&*-;;;=*$",
"@$%$%**==**@#OOO+@$$$*%$%%$$*=:::1111::::::::1::;;-==**$#oo                       Xo+@$%%%%&=--=*%$@",
"@$$$$**=*%$OOoOOO+#$$%%$$$$$$**-::1::::----::>:;;=-==*&%+ooX                    XXoO+%&&&&&&=-=&$+++",
"#$$$$$***%@OooooOO#$%*%%$$@$$$*=::::--====-::;;--=---*&%+ooo                   .ooo+$&**=====-&%@+OO",
"#@@@@$$*%#OooooooO+#%*%$$$#+#$**=;;-==*&&*--;---===-=&%$+Ooo                  Xooo++$&&====-;=&$+OOO",
"+@$@@@$*%#OooooOoO+$**%%$@+++$$*=====&&&&**==-*====-*%%$Oooo                 ooooO+@%*===-;;-=%$+OOO",
"++#+##$$$#OOoooo.O+$%%%%$@@++@@**=***&&&&&&******==-**%$OOooX              oooOO+#$$&=-=;=;:-&%$+OOO",
"OO++++@$$OoooooooO+$%%*%%@#++#$$****&&&%&$&&*&&**=--**$+OOOooo X          ooooOO$$&*=-::>:>;=&%OOo.O",
"oOOOO##$#+O.o.ooOO+@$***%$+OO#@*$***&&&&&$&&&$$*==--=*%$#OooooX       ..  oo++#$&*-;:>>>>>>-=%#O oo.",
"oOOOOo++++OOOooooo+@*==*%@+O+#$$&**$%$&%%&$&&$&&==-;-*&%$#+ooooo...   ..  oO$$%*=::133321>>;=%Ooo...",
"oOOOOoOO+@+OooooOOO@*==*%@####$$$$$$$$$*%$&%%%&*=--:-=**%%#+OoOoooooooooo+O$$*=-:143663321:;&$OX o.o",
"ooooOOOoO@@OOooooO+$$***%$@##$$$$$$$$$$$&$%%$%&*--::::;==*%%$O+OooooO+++$$$%*=;1266888751>;-%+OooXX ",
"ooooO  O+#@+OOoOOO+$*****@$@$$$@$$@@@#@$$$&$&&**-;:,::>>;;;*%$+ooooO++*$***=-:136899097511;-%+ooXoX ",
"..o.o OOO+@OOOooOO#$***%$*$$$$@$@@@####$$$%&&**--::,11111<>-=%$#+oO+#**==-;;<136890ww0863>:=%+Ooo.oo",
".ooXooOoO+++OOOoO+@%*****$$$$#@$$$$+#++#$&&&**=-;:111221311>-*%#++++*=;>><11236800www09631:*%#+OO .o",
"o.XX oooO+++OOOO+@%********$$$$*$$++OO+#$$&*=-;::1111222332<;=&%$#$**;<1133358990wwww08631>-&$#oOOo ",
"o o o oOO+OOOOO@@%%***==**$$*$$**$$+++++@$&*--:>11112224551<>-=&$#*=->22555789qqqwwww08631>-&&##OO..",
"O.oooOOOO##@OO##%%***==***=****=**$#++#@$&*=-::111111112221>:;-****->143557899qqqqwqq08631>;=&%$+++O",
"Oooooo+####++O#@$**==-;=*===**===*$$$$$$$*=:::1122111113311::;====;:1243557899000q00098651>-=&&$$@++",
"+OoOOO+$$$$$##$$$*=;;;::;;--=-=-==***$$*&=-:112452111,1111::-==*=;::124557777999909998653<:-=&&%$@+#",
"+++O+#@$*$$@@$@*==;::<:::::;;-==-;-==***==::1235411,111111:;==*==;:<11435577767899998531>>:-=&&$$#$@",
"##@@$@$****$$$*$=-:111111::;--=-;:;;=-==--:,11222111,>:,<::-=**==;:<14435555567777776311>;-=*&$$##@@",
"@$$$@$****$*$**&=;<1442111::;-;;::::;:;;-;::11111,,,:::::::-**&*=;:<123344445566677641:;-=&&&&%$@$#$",
"$$$$$**=*****=**=;<13341111::;;:;;:::::;-:::<11<::::::;;-:-=*&%==-;:113211114555565511;=&&%$%$&$$$@$",
"$$*$$*=-========;:113422111::::::::::::::-::<<:::;--=---===**%&*==-:<11<1<<112244321::=&%$$$$$%%$$$$",
"$*$**=;:;::;;-==::1211111111>>>::<<<<::;;-::::;--=======**&*%&%*==-::<<<:<:<1111111<:=*$$##$##$$$$$$",
"&*$**-;:<::::;-;;:<1><11111111:,<<<::::;--:;;-=====****&%%$***$**==-;:;;:;;:>>111:::-**$#####$$$$$$*",
"&****=;::<::;;;;;;;;::::11312111<1<<<::::::;;-===****%$$$@$$$******=;;----;;:>>::;;;=*$#OO+##$$#@*$*",
"*****=;:<::;;;-=====-;:>11111111<<:::::::::--===**%$%$$+@++@$&$$***=-==**-=;:>:-==*=*$$@++++$@@$$*$$",
"&*%**=;:;;;;;=****%**=;:,1,111,::;::::<<:::--===*$$$$$+++++@$$$$@$$*===***--;;--=**&**$$####$$$%*$**",
"**%*=-;;-;--=*$**$$$*==:1,111:;-==-;:::::-==*==**%$$$#+OoO++$$@@@$**==*&%*=-;--*&$$*$$$$$#$$$%%%$$$*",
"*=*=---===-=**$#@@$$$*=::11,::=***==;:::;=***%***%%$#+OooOO##@$@$@$==*&&%**--**&&$$$$$$$$$$%%%&&****",
"===*=;--===**$$$@++@$*=:1,,::-*****=-:::=*%%%%%%%%%##OOOOOO+###$$*$**&%$**---=*%$$@@@$$$%%%&&&=&***=",
"====--======$$$#++#@$*=::1,::=&%$%***===*%%%$$$$%%$#+OoooOO+$$%$$$&&*$$%**-;-=&%$@###$%*%%%&&==&**=*",
"=======-==**$$#++O+@$==:<1::-&%%$&&&&*==*$@$###$$$$+#OOOOO+#%%%%$%$%$$$**-::-=*%$#O++#%%&%****-****=",
"===*==--==***$$#++O@$*=::::-=&$$$$%$&&*&%$@+++#$+#++#OOOO+#$%%%%%$$$$$%*=;:::=&%$++O#$%%&***-=--*===",
"===*==-==****$$#+O#$$*=:::-=*&$$$$&$$&&%$#+OO+O#$#$##+O###$%=&&%%%$$$$*=-::::-*$#OO+#$$&**=----**===",
"*=**===****$$*$#++#$***;::=*&%$$$&$$&&%$#+OOOO+O+#$$$$##$$%&==&&%%%$$&*-::<::-*&#+++@$%%***-----====",
"=*********$*$$$++@@$%&=-;-=*%$$&&&$$$$$@#+OoOOO++$%%$$$$%%&*=-=&*%%%%%=:::<<:=&$#+++#$$%**--=--=====",
"=*********$$$*$#@@@$&&=--=*&%%&**&%$$$$++OOooOO#$$%&%%&%%&*-;>;;=**%**=:<1<1:=&$$+++$#%%*===---=*===",
"**$***$*$$$$$*$$$$$%**==-=*%$&==*%$@$+$#+OOooO+#$%&*=**&&*=;;>>;==***=::11:::=&%$$#$$$%**-------=**=",
"**$$$$$$$+$@$$$$%%%&*=---=&%&**=*&$@##$##+OOOO#$$$%&***=*-;;>>>;:--==::11,11:-=&%$%%%%*-----;;-*****",
"**$*$$$$+#++#$$*&&*==-::-=****==*&$$$$$$@+++++@$$$%**==-;:::>>::::::::111111:-=*&&&***--;;;;:;-*$***",
"$*$$$$@#++++#$**&==--:::;=*=*==-=**$%$%$$@++@@$$%%**===;;;::>:::::::11111111::-======--:;::>:;-*****",
"*$$$$$#$#+++#$*=-:::::1::-==--;;=****&*%$$@$$$*****-==--;::::::::111111111111:::;;;--;;:::<<:;=****$",
"$$$$$$$#@#++@$==::::1<1::::;::::;===*&&&&$&&*******==-;;:;-;-::::1:1<1<111111111,>>;:---::>::;=****$",
"$$$$$$$$@@@$$*=:<1121111:::::<:::===*%%*&&***--*==-=--;:::;-;:>><:::::::111112111,::----;:;:;-**$*$$",
"$$$$%$$$$$$$*=;<1244442111,1111<:;-=**%&*=---;---;-;;:>>>:;::::>::::::::<112124221:-*===-==;-=**$*$$",
"$$$$$%$$*$%*=:<14665554411112411:;;=**%*--:-;::;:::>111>:;;;:::::::::::::<12335311--*&***=*==**$$$$@",
"#$@$$$*****=;<136766666552225311::;=*&*=--::::::>><11211>:;---;;;:;:;;--::1111221>:-*&&&$%***%$$$$$$",
"#$#@$$**=-;:<1258887766655533221>::=***=-:::<:<>11114221<:=====;;;;;;=-;;><:<111<:;*&$$$$*&*$$$#@@@@",
"@#$@$***=::115678989886776655221>:-=====;:<1111111235411::-=****=-;-=--;-::::<<<:;=*%$$@$$**%$#OO+++",
"##@$@***;:14668909099998966522211:-==*=-::11411111135111:;***$***========;-=;;:;-=**$@++@$$$$#OOOoOO",
"+##$$$*=;:15689000q0009986655221:-====;:<1123111111311>:;***@$@$@**===*=*===-;-==**$$+++#@@@+OOoooXO",
"O+++$***;:15670qqww0q0098665451:;*&&*-;::144411111111<:;=*$$@+++@$**********===****$#++O++#+OOooXooO",
"ooo+#@$*;:15690wwwwwq098655521>:*%%&&*-:1255441411111:;-**$$#+++#@$**%$$$****=***$$#+OOOO#+OooooXooX",
".ooOO+$*-:14680wwww0088632211>;*&$@@$*-:11531133111:::-**%$$@+OO+@$$*$$$$********&$#OOOO+O#Oooooo.XX",
"o.ooo+#$=;14590www098631111<::=%$+++$&*-:112441111:;==**&*$@@++++$$$$$$$$$$$****$$+OOoOO+##Ooooo oXX",
"..oXoO+$=:<2590qqq97731<:-====$$+OOOO@&*;:<11111>>:==**&&&$$$++++#$@$$#$$$$*$***$+OOoOoO++@+Oooooo X",
" o.ooO+%=:11570008873<:-=****$@+OOXOO+@&=;;::>::>:;-**&&&$$$$$@$+@$$#$$@$$$$****$+OoooOO++#OoOoooooo",
" o ooO@$=:>1578887541;=*%$@@++OOooooOO+@$&*=--;:::--*&%&&$%$$$$$##$$$$@+++$**==*@+oOoOOOO##+OoOooooo",
"oXXooO@*->114556611:-=*$@++OoOo.ooooXOOO#@$$*==--;-=**$&%%%%&$$$$*$$$$$++++**=*$@+OooooOOO++OOOOOOOo",
"o. oo+$=;:111121<>;-*$$$Ooooo. . X XoooOOO+$$*==;-==*$%$%%%&$*$&***$$$++O+$**=**$+OooooooO++++OOOOOo",
"ooXoO+$=:<>>><<:;-=%$#$Ooo. .      X   ooOO+$**=---**&$%*%$%$&&&$**$$$++O+@*****$+oooooooOO$##OOOOOo",
"OooO+$*=;::::;;=**$$+OOooo          X ooXOOO@$*=--==*&%&&%$%&&&&*=***$#OO+$$*$*$$+OooXooOO+@$$+O+O+O",
"OOOO@$*-;:-;--=*$$#O+ooo X             XooOO@$**-==******&&%&&***==*$$#+++#$$**$$+Oooooooo+$$$#++#++",
"OOO+$&=;:-===-&%$#OooXo                  ooO$$*=--=**====**%$***=--*&$$++##$%%*%$#OoOooooO#%%$##$@$#",
"OOO#$&=;=====*&$#OooXX                    O+$&**=====-;;;=****==-;;-*%$@##$$$%**@@OOooooOO@%*%$$@@@#",
"OOO$%&==*===*&%$#ooo X                  Xoo#$**=;==--::::==*===;:::;-&$$$#$$%%*$@+OOooooO+$***$$$$@+",
"++#%&===&&*&&&%+oooX                    ooo#$&*=-;---::::;---:::>>>:-=*%$$$$$%*$@#+OOoOOO$&*=*%$$$$#",
"#$%&=--=&&&%%$$Ooo                      XoO#$**===;;::>::::::::1>1>>:;**%$$%$%%$$$++OOO#$&*==*&&%$$@",
"%&=;-;-*&&$$$++ooo                    XXXoO#$*==;;::,11>:1::1111111>>>;*%%%%%%%%*$$@O+#@$**==****%$%",
"=;>:>::=&$$@#+OooX                      oo+$**=-;::1111:1:111111311111;=&%$%$$%%&$$$@@$$%&****--=*%*",
">,,>>>:=&$$$+OOXX                       oO+$*=;;;:1112111111224212221<>-*%%%%$***&&$$$$@$$&***--:;;:",
"133331>-*%$#Oooo                        o+$&=;;::<14454212235442111111:=**&%%*****&%$$$+$$%**=;>:<11",
"6668621;=%$OOOoo                        o+$*=;;;:14555534555553121111>:-=*&$$**==*&%$+$+$$$&*-:12446",
"8888851>=%$+ooXX                        o+$*;;;-:13556656666654211,1::---*&%&*==**&%$@$$$$$*-;116799",
"0000861>=%$#OoXX                        X+$*=;-::2777767697775411>:::;=-*&%$&*==*&%$#$$$$$$*-1569000",
"wwww083>=%$OoX                          oO$*=-;:1577877679999511:;:;;==**&$$&&*&&$$$$+$$$$*->380wwwq",
"eewwq82>=%#Oo                         oXo+%*=;:145677767699962,::;-;-**&$$$$$%%$$$#++#$%**=>169wrrrr",
"rrreq83>=%#+oo                         oO@%=-::155565767999641:--=-=**%$@@++@$+++++++$$&*;>169wrrrrr",
"ttteq93:-%$OOO                         oO@*-::115555655576652::-==***&$$@+OOO+O+OOOO+#$%->1660wrtrrr",
"trtww83>=*$#OOOoo o X  X           ooooO+$=;::11235555556551::-=***&%$++OOOOOOOoOOoOOO$%->1690wrrrtr",
"rttew83<;-*$#OOoo  X oXXo        oooooO+$*=;:<11245555444211:=*&&&&$$+OooOoooooOoOoOo+@&*:1570wrrrrr",
"ttrrw861<;*$@OOo.oooooXXo    X  ooOoOO#@*=;::1142235422111::==&%$$$@#OoooooooooOooooOO@$*:13690rrrrr",
"eerre8711;=*$#Ooooooooooo     ooOOO++@$&*=::,11222224211>::=**$$$#++oooooooooooooooooO+$*;<1580rrrrw"
};
