/* XPM */
static char *_649345791299[] = {
/* columns rows colors chars-per-pixel */
"100 100 34 1 ",
"  c #3E79AE",
". c #3F7BB0",
"X c #407BAF",
"o c #427EB1",
"O c #4583B4",
"+ c #4886B7",
"@ c #4988B7",
"# c #4987B8",
"$ c #4C8CBB",
"% c #4F90BE",
"& c #5091BF",
"* c #5395C1",
"= c #5699C5",
"- c #589CC7",
"; c #5A9EC8",
": c #5DA3CC",
"> c #5FA7D0",
", c #60A7CF",
"< c #60A8CF",
"1 c #60A7D0",
"2 c #63ABD3",
"3 c #66B0D7",
"4 c #67B2D8",
"5 c #69B4DA",
"6 c #6DB9DE",
"7 c #6FBCE0",
"8 c #70BEE2",
"9 c #73C2E5",
"0 c #75C6E9",
"q c #77C8EA",
"w c #79CBED",
"e c #7BCFF0",
"r c #7ED3F3",
"t c #80D6F6",
/* pixels */
"rtrreq853<;*$@OOOoooOoooooooXoXoO+#@$$**=:,223333332322,,;-=&$$+ XXXXX  XXooooooooooo++$*-:1469wtttw",
"rrrreq9651:*%@OOooooOoOooooooOOO@$$$%**-,,1233333333332,:-=&$@+o  XXXX     Xoooooooooo+#$*;,248wrrtr",
"trrtew9752<=*@OOOooOoOooOooOOO+$&$*&**-:,2353445433332,,-=&$@@oo          XX ooXoXooooo##*=;,470rrrr",
"rrtreqq863,-*@+OOOOOOOOOOoO@+#$%&****=:13555545444443,,;-=&#+ooX           Xoo o X oooo++$*=:280ertr",
"trtrew9862:=%$##O#+OO+OOOO++$$%&***==-:15566655545553<,;-*$+oXXX           XX  XX   ooo++@%=:48qwtte",
"trrrrw963>:**$$@$$#$#+$+##+#$$%*=*==-:,25668655555553<,;-*#OXXXX           X X      ooooO@%*:26qwrrr",
"rtrtwq73::=**$$$$$$$$%%$###$$$*===-=-:146888666666652,;=**#oXXXX                    oooOO@$*:269weer",
"wwwwq851:*&%$$$$$%%&&&&$$#$$%&**---;:,24686656666662,:;=*%#oXX X                     ooo+@&=:469qwww",
"qwqq963:=&$%$$$$$&**==*%$$%%&**=-;::,,1456665666664::;;;-%$OoXXX                     oooO#*=:25899q0",
"9998641:=&%%%$@$$%**==*%$$%&&**-;;:::<1245544555542:;;:;=*$+oXX                       ooO#$=:1368899",
"666522:;=*&%$$$$&**==**%%%&&*=-;,::,,12223322344431:;::;-*$OoX                      ooooO#$*-:256666",
"22221:;-=*&$$$$&%&*=**&%%%%%*--,111:1222222<<22221::-:::-*%Oo X                     oooO+#$*=:124443",
",:::;;;=-=*&$&$&%&***&%$%%$%&-;,11121111,,,::,,12<::;;;;=&$OoX                      ooOO##$&*;:,222<",
"=**-------=&&$$$%%&*&%$%$$$$%=;,112111,:::;:;:,,::;-;-;-*$Ooo                       ooO#+#%%=-;,,::-",
"%&&**=-----*$$@$#$%&&%%$$$#$&*-,,:11,,::::-;;::::--=---=&$Ooo                       oO###$$&*-;;:-*&",
"$$%%&**-;-*&$+++@#$%%%%%$$#$$&*-:::::;:---;;:,:;-==-=-=*%#oo                X       +#$$%%%%*---=*&$",
"+$$$$%*-;=$@#OO++#$$*$*$$@@#$$&-;;,----===-;;,;--===-==*$+Oo                    Xooo+$%%&&&*====&$++",
"@@$$$%&=**$#OOOO+#@$**$$$$O@+#%*-;--==****--:;;-====-***@+oo.                X  XooO#%%**====-=*$@+O",
"+$$$$$&**$#OOOOOO+@$***$$#++O#$&====**&&&*--;;-==**-==**@OooX                 XXooO+$%&====-:-*&$+OO",
"++++#$&**$#OoOOOO+@*$*$*$#OOO@$$&*=*&%%%%&**=-=****-=*&$@OOooX               Xoooo+#$&*===-;:=*%$+OO",
"O+#++#$&*$+OOoOOO##$***$$#+OO@#$%**&%%%%%&*********-=*&$+OOoooo       XX  XXoooOO@#$%*=---;:-*&$+OOo",
"O+#+++$$$$OOOOOOO#@$$***%@OOO+@$%**%%%%%%$%&%**&**=--**@++OOoo oXX   XXX  oooOOO$$&&=--;:::--*%@OooO",
"o++O++$$$#+OoOOOOO@*****%$OOo@#$&&*%%%%%%$%*%%%&**---=%$#+OOOoooXX  X XX  XoO##$%&=-:::,,,,;=&$OooXo",
"oOOOO+++@@+OOOOOO#$$*==*&$OOOO@$$&&%%$%%%%$%%%%%**--;=*%$@#+OOOoXXXXXXXo XOO$$%*=-,,11,211,;=%OOoXoo",
"OOOOOO+++@@@OOOO++$%*--*&@++@##$%%%$$$&$%$&%%$$&**-;;-=**$$@@#+Oooooooo+O@@$$&&=,,24332321,-*$OoooXo",
"oOO+OOOO+@$@++OO##$%*-**&$@+##$$$$$$$$$$$$$&$%%&*-;;,:---=**&$@#+oO+@##$$%&&&=,,245666532,;-%@OooXoo",
"XOoOOOOO@$@@++++@#$&=***%$$#$$#$$$$$$$$$$$%$&&&&*-:,111,:1:;**$$+OO@$$&**=&=,,,5667788642,;-&@ooooXo",
"oXOOOoO+#@$$++++##%*=**&%%$$#$$$$$$@@#@#$$$%&&&*=-:12234221,;=*$#@@$&=;;;;,,,<566890086531;=%@Oooooo",
"OoooOOOO#@$@@###$$&**=*&%%$$$$$&&$$+++O@$$%&&**=-:,124444432:;=*%$$&=;,,122234568900086631,*%#+oOoXo",
"ooOoOooOO##@#$$$%**=-***&%%$$$$%&$$+OO+@$$&&*=-;;:22344475431:-=&&&=-,2455455578900wq08541;-&$@OOoOX",
"OooooOoO##@$##$$&===**-=*&&%%%%**%$@+O++$$$*=-;:,1224444474321;-=&=-,245655688800000007522,-*%##+OOO",
"OOOoOO++#@$@$$$*=--=---****&&&*=*&$##+##$$*=;;:,12222244443321:;-=-,,345566789999000096532;;**%$@#++",
"+OOoOO#@$$$$$$**-----;;-=*=***==**&$$$$$&&*;:,,22222223353321:;;;;,,2334566888999998866531,;**%%$$$#",
"#+OO##$$***$$$*=-;::::,:---==-==--*&$%$$&*=:,,23322222233321:;;;;;,,2333556666898988665431;-*&%$$$##",
"$+###$***=*$***=;:<22121,::;;-----=**&&**==,,2333322222221,:;;==;;,,2233434545686666542<,;;=*%$$$$$$",
"$$$$$**===****==;,22442221::;----:==**=**=::,2322221,,,,,,::;;==-;:,,23333334455666521::;-=**%%$$#$$",
"$$*%%*=-=====---:,<3554332<:;---;;;=--===;;:,23222,,,:,:::::==*=-;::,32221,224455542<:;=**%%%%%%$$$$",
"$*%**==--;---;=-;,245565431,:;;:;-;;;:;;;;;:,22,,:,:::;:;:;;==*=--;,,22,,,:,2224442<,:=&$$$$$$%%$%%%",
"%%**=-:1:;;:;;--:<244544522<::;::;;::::;;=;:,,,,::;;=;;;;====**===;;,,,,;::,112222,:--&$$++$$$%&%%$%",
"**==-;,1111>;---;:2233333222,,,,:::::;:-==;;:::;=======*********==-;,;:;;:;:,,21<,::-*&@++OO#@$%$%%&",
"*==--:12221::;---;,1112232222<1<,,,:;:;===;;;;;;-==****&*&&&*****==----=--;;::,,,:;-=%$+OOOO##$$&&&&",
"*=-=-;:221,:;-==*--:::12222222222,,,::;;;;;;;;===***&%%$%$$&&*****&==*====--::::;--**%@+OOOO#$$%&&**",
"=-==-;111,:::;******=-:<<22122212::;::::;:;;;===**&$$$$$$$$$%%&%%%&*=****==-;:;;-***&$@OOOOO#$$%&&**",
"=-==-;:,:::;-**$&&&&*=;,2111<<,:;:;::::::;;;;===*&%$$$#++++$$$$$$$%*&&&&%*==--=***&&$$@+OOOO#$$%*&**",
"----;;:;;;;-=*$@$@$$&*-:,,,,,,--===;;::::;===*==*%$$$#++o$+$#$#$$$%**%%%%**===**&%$$$$@#OOO#$$%****=",
"---;;,;;-==*$$@#@++$$&=:,,:,,:*****=;;:;;=*&*****&%$#+o++o++++++#$$&**%$%**==**&%$@++@@+##+$$****==-",
";;;;;:;;===*$$#++O++$&=::,,,;-*&%%**==;;=***&&**&&$$#+o+o++##+++#$$*%$$%$*===*&&$@++++++##@$%*===-;;",
":;;;:;;;==*$$#++O++@$*=:,,::;*&$$%%%&*===**%&%$&&%$#+++o+++##$$$$%$&$$$$*=---*&$@++O++++##$%**==--;;",
";;;;;;;-==$$$##+++o+$*-:,,;;=*$$$$$$$&***&&$$$$$$$###++O++#$$$%$$$$$$$$&*--:-*&%#OO+OO@##$$%*=----;;",
":;;;;;;-***$$##Oo++$$*=;::;-*%##+$$$$&&&$$$$$#$$$$@$##++###$$&$$@$$@#@$&--;:-*&$#+OoO@@#$$%*=-;--;;;",
":;;----***$$@++Oo++#$*=-,;;=*$#@+$$$$$%$$$$@++$$$#$$$$$#$$$$&&%$$$@+#$$*-:::;=*$#@OOO##$$%*=--;;;;::",
";;---==*$$@@@#OOOo++$&*-;--**$#$$$$$$$$$$##o++++@$$$$$$$$&&***&$$$$$$$&-;::,:-*$#+OOO@##$**=--;;;;;;",
";;--==***$@###+O+++$$&*=--=&%$$$$$%$$$$#++OOo+++@$$*&%$%&**=-==&%$%$$&*-::,::-*$#OOO++#$$**--;;:;;;:",
";;-=-***$@#+##++o++$&&*===&&$$%&&%$+###@++OO++++$$$********=;-==*&&%&*-:,,<::=*$#++@@##%**=--;:;;:;:",
"-==***%$#+O+####$$$$&**==*&&$%&&&%$@@@@##OOO+o+#$&&**=**&*=--::===*&*=-,,,:,:=&$#+++##$%*---;;:;;;-;",
"==*%*%$$#O+++@$@$%&&**====&&&&%**$$$##$$###+o+#$$$&****===-:::::-=-==;,<,,1,:=*%$$$$$#&=-;;;;::;===-",
"***&&%$@+OOO++@$&&**==-;=**&&&***$$$$$$$$$#+##$$$$&*==---;;::,:;;:;::,1211,,,;=*&&&&&&=-;,;,:,:-====",
"**&&%$$#OOoOO#$*&*==-;;;-=*******&&&%%&$$$$$$$$$%&*===-;;;:::::::::121122212,;-==***&*-;;,,1,,;-====",
"**&%$$$#OOoO#@**==-;,::;;===*====****&*&$$$$$$%%***==---;;;-;;;::,,2222222221,,;;--===;:;,211,;;-===",
"&%&%%$@++OO+#$$*--:,,,::;;;;--=;===*****&*&*******==-;;;;--=-;;::,,,<1122223221,1,;--=-:,,221,;;-=**",
"&%&%&$@+O++##$==-,,,2,,,:;:;;:;;;===*********======;;:,;:;-=-;:,:::::,,,222333333,,;---;:,,,,,;-=***",
"$&%$&$$$###$$*=;,,,22221,::::,,,:;;==**===;;;;;=;;;:,1,,:---;:;:::;;;:::,234454532,;---::::,::-==*&&",
"$%%$%&&$$@@$*=::,4233221,,:,222,:;===*==;;:;;:;::,,1121,:---;;;;-;:;;;;:,224555642,;--;---;;;-=&*&&$",
"$$$$%$&$%****::>25555533121,2322:::-===-::::::,,,121133,::;=--=----;;;-;:123355532,;--=====--=&&&&&$",
"$$$$$%%**=--:,<34666555332433222<::--==-::<<,,,,<22333<,:;-==*====-;---;:,11234431,;-*****--=&%$%$$$",
"$$@$$$$*=;:,,13556866655555433321::----::<123<<222<3322,:-=**%%&*=------;::,11211,,;-*&&%**=*%$$##@#",
"$$$$$$**-;22446668988866665533221,:---;:122532222233322,:-*&$%$%%*---=-==---:,,:,;;-=&%%%%&&$$++#OO#",
"@$@$$$*=-,14568899099988866543331:-;:-:1224453222222<,,:;*&$$#$$$%*==-****==-;=---;-*%$$$$$$$+OOoOOO",
"++#@$***-:2256990009999886655532::==::12254544222121,,;-=*$$$+++#$&*=*&&&*&=========&$$$$$$#@OOOOoOO",
"OOO+@$**-:23569qq00099886556542,;***-:124565443322,,,;-=*%$$#+O+#$%&*%$%&&&*===*===*%$#$@##+OOOooOoO",
"o.OOO##*-:14689q00099865345532,-=*%**-:13565544332,;-==*%%$$++OO@$$*%%$$%$&**====**%#####@+OOOOooooo",
"OoooOO#$*:13589q0098654222221,;*&$$$&=;:224554332,;-***&*%$@+++#+$$%%$$$$$$&&&*=**$###$#$#@@OOOooOoo",
".o.OOO+%=-13488909865421,;;;;;*&$+++$&=;,122332,1,-**&&&%%$$@@@#@$$$$$$$$$$%&*=**$@++++@#$$+OOOOOooO",
".oo.XO@%=:>24688886541,;--=***$$+O++@$*=-;,,,,,,,;-*&%%%%$$$@$$$$$$$#$#$$$$%&==**$$+O+++$#$#OOOOOOoo",
"oo.ooO@%-::246665643,;-*&&$$$@+OOOOO#@$$&*=--;,,:--*&%$&&$$$$$$$$$$$$$##@@$&&==*$$++O+O+@$$#+OOOOOOo",
"ooo.X+$*-:12232342,,;*&%$@@OOOOooooO++#@$$%&&=-;;-=&&%$&&&$$&$$&%$%%$$#O+O@&====$$+OOOOO+#+++O+O#OOo",
"oo.oO+$=;,1122<1,,-=&%$$+ooooXXXoXoooOOO++$$%*--;-=*%$%$%%&$&$%$%%%%$@#+o+#&===**$#OOOOOO+#$++O+OOOo",
"OXooO+%=::,:::::-=&%$$#OoooXXX X  XooooOO++#$&=--=*&&&%*&%$%&&&$%**%$@#o+O#&*=*&$@+OOOoOO+@$$@++#OOO",
"ooOo+%*=;::::-=*&%$#+OOooo X  X    XXXoOOOO#$&*=-=**&&&&&&%&$%%&%*&%$#+OoO#&&*&&*@+OOooOO+$$$$++O#@O",
"OoO+$&=-:;--===&$$@OooooXo           XXooOO+$&*=-********&%$&&&&***%$#OOO@$$&&&&$@+OOOOOO+$%&$##@#@O",
"o++$$*-;;--==**$@@OoXXX X X              oO#%&*=-****=-==**&&&&&=&=&%$#o++#$%&*&$@+OOOOOO+$**$@$$@@O",
"+o+$**;;--*=**%$+ooo    X   X           XoO@%*=====*=-;;-=&&&&&*=--&&$#+oo$$%%&&$$#+OOoOO@$***$$@$#@",
"++#$**--===**%%$OooX                    oo+$&**-=====:;;;=*****--;;-&&#+$+$$%%*%$$++OOOO++*=**$$$$$#",
"+@$*==-=*&&%%%$+ooXX                    oo+$*==--==--;::;===---=;;;;=&$$#+#$$%%%$$@O+OO+$**==**$$$$#",
"$&*=-;-*&%$$%$#+oo                    X oO@%*---===-:::;:--;:-::,,,;-=&$$#$$%%%%*$@#++#$*=;;;=**&%$#",
"**-;:;-*%%$$##Oooo                   X XoO$&*-----;;,:::-::::::,,,,,:;*$$#$$%%%%*$$@+@$$*=;;-=***%%%",
"-:,,:;-**$@@#OoooX                 o  XooO%*-;;;::::<:::::::,,,1,2,,,;=&$$$%$$%&**$$$$$***=;-=====**",
",221,:-=%$@+OOoXX                     XXO$%*;;;;-::11>::::::1111,,,,,;=&&$&$%%&***$**$$$**=-=-;:::;,",
"35442,:=*##OOooX                       o+$*-::::::222221,222221,,,,,,;=&%$&&%&*****%%$$$$**==->12233",
"666652:-*%#@ooXX                      Xo@$*-;:-;:1333332233222,,,,:,-=&=*%%$$*===*%%$$$$$**=;>245666",
"880864,:=$##oooX                       X+$&-:;;-:2455554455321,,;,;,;=&&*%$$&*===**%$$$$$$**;1468899",
"0q08852:**#oOoXX                        +@&=-;::<3666656666432,::;-==&=&%%$$%*=***%$$$$%$**=12780qww",
"t8q0864:**##XX                         oO@&*-;:>25677665688642,:;;===&&&$$$$$&*&$&$$$$$$%**;148wwtww",
"tttqq63:**#oo                         ooo@&=-::15666666668863,:;-===&&%%$#@@$$$%$$$%$$$*&=-,480ewttw",
"tqt0063;*$##oo                       .ooO$*=;:135655556686652,;-====&%$$##@@#$#####$#$$*=;1368wewttw",
"ttttq83:**##oo                      o ooO@*-::22554455556653,,;==&&=&%$$@OOOOOO@#O@@###*=,3480wetttt",
"ttt0872:*&$+OOoooXXXXXXoXXXX      XXoooO#$*;:,12434444456553,;==&=&&&$#@OoOoOOOO+OOOO@$&-,3688wwtttt",
"ttttt73,:=&$+oooooXXXXooXXXX     XXoooO#$*-;:12433435433333,,=*&&&&&$@+OOOoOoOOoo+oOo+#&=,3580wttttw",
"ttqt883,,;*%#O+oooooXoooXXX     ooooOO#$*==:,2442324433322,;-=&%$$$$@OOooooooooooooOoO@$*;,4880wettw",
"tqttt86,,:;&$++ooooooooooX Xo XXoOOO#$$**=;:1223333433311,;-=&$$$@+OoXXXXoooooOoooooO@@$*-,3680tttt0"
};
