/* XPM */
static char *_649345831570[] = {
/* columns rows colors chars-per-pixel */
"100 100 34 1 ",
"  c #3F7AAE",
". c #3F7BB0",
"X c #407BAF",
"o c #427EB1",
"O c #4582B4",
"+ c #4886B7",
"@ c #4988B7",
"# c #4987B8",
"$ c #4C8CBB",
"% c #508FBD",
"& c #4F90BE",
"* c #5091BF",
"= c #5395C1",
"- c #5699C5",
"; c #589CC7",
": c #5A9EC9",
"> c #5DA3CC",
", c #60A7CF",
"< c #60A8CF",
"1 c #60A7D0",
"2 c #63ABD3",
"3 c #66B0D7",
"4 c #67B2D8",
"5 c #69B4DA",
"6 c #6CB9DE",
"7 c #6FBCE0",
"8 c #70BEE2",
"9 c #73C2E5",
"0 c #75C6E9",
"q c #77C8EA",
"w c #79CBED",
"e c #7BCFF0",
"r c #7DD1F2",
"t c #80D4F5",
/* pixels */
"wrew99652>;=*$@#####+#@$$$@$@@###@@$$$=-:>>1223222223321>:;==%$##OOOOoO###$###+########$=->124790rre",
"trew09652,;-=$#@###$$#@$$$$&&$$$&$$$&==-:>1222222224342,;;==$$#+OoooooooOO#O+OOOOOOOo+O#$=->22470wrr",
"rrrw986431>;=*$@$$$$$##@$$$&&&&&=&&$$&=::><222221222322>;=*%$#+oooooooooOooOOO#oOOooooOO#%=:>1269wer",
"rrrq966422>;=*$$$&=$$$$#@$$&&&&&&&&$&==-:>1<2222222322,:=*$$@@OooXoooooooooOO+O+OooooooO#$==:>277wer",
"rrrq976421>;-=$=====$#++@$$$$$&==$=$$===;:>11221<224421:==$$@+OoooXXo.XXooOOO+Ooooo ooooO#%=;>2570we",
"rrrw97532>::==*===$$#+++#@$#@@$$$$$$$$$==->222122223221>-==$#+OooooX o  ooooOoooo.  ..oo+$$=;>2570er",
"rrrw07632,:---=====$@@##@@+O++O##$$$$$$$=->12<222244221:-=&$@+OOooo      oooooooX    XooO#$=->2479ee",
"rrrwq9632>>:========$$$##@OOOOOO#$$@$@@$=->122222332221>:===&@OOooX    X ooooooX     .ooO#$=;:24790w",
"wwww096522>;--=*=$===$$$$OOOOoOO+#$#@#$$==>112112221,>,>:;--=$+Oooo.    XoooX          oO@$=;>13679q",
"qqq9997522>;==**$=$====$$#+OOoO+#$$$$@$$==::>>11,2>>>>,>>>::=@+OOoo... XXXoo           oO@#==:>23679",
"99977765221>-=**=$====$$###+oOO#$$$$$$$==---;;:>>>::;:>1>2>:=$+OOooo  o XooX          ooo@$==-:>2367",
"6565556422,>;-=========$$$#OOOO#$%%%$=$=======-:::;--:>2222:=$#Ooooooo.oooo         .ooo+#$%==:>1226",
"3322<234332>:-=======$$$#+OOOO#$$=$==$=$===$====--=--:>242>;=@#+oooooooooo X          oO+#$===-:><23",
",>>>>><2223>>--======$=$#OOooOO$$========$=$=$==-===-:,242>=$#+O+oOooOooooo X        XOO##$===-:>111",
">;;--;><222>>-=====$===$#+OoOO+$&=====$$$=$$$====*==-:1222:=#+OO+OOooOooooo         oOO+#$====;:>1>:",
"--===-:><2>>>--========$$#OOoOO$$==$$$$$$$$=========->122>-$#OOOoOOoOOoooooooo      oO@@$$$===;:>>:-",
"*$***=;;,,::;-=====-===$$+OOoOO#$$=$$$$$$$$===--===*-:>2>>=$@OOOOOoOoOooooOoooo .oooO#@$$==---:::;==",
"&$$$%*=;>::;--;==-=====$$#OOooO+$$$###$$$$=$=-:-==*$=;>>>-=$@+OOoooOooOoOoOOooXooooOO@$$===;::>::-==",
"@@$$$%=;::;;;--=-;===$=$$OOoooO+@$$$$#$$=$===--==*$*=->>;==$#+OOoOooooooOooooooooooO@@$*==-::::;-=$$",
"@@@$$%*-;;;;;-;-;========#ooOOO+##$#$+#$$========*$$=-:;-=&$@#+OOOOoOooOoOOOooooooO+#$&$==-:::;===@+",
"O+@@@$==;;=;-;:;-===$====ooOooo++#$+#$$$$=$======$$*=::-===$$$@#OOOOooooOOOOOoOOO+@#$&===:;-;;==$#OO",
"O#@$$$&===;=;;::;=======$OOoOOOO+$$$#$$$$=$======$$&-:;-==$===$@#+OOOOOOOOOO@#$##@$$$$==;:::;===@OOO",
"+#@@$$&*===-=;:::--=====$OOOoOOO+$$$$$$=$$=$====$$$=:>-=*===-==&@@+OOOO+O@@#@$%$$$%====-;::-===$#+OO",
"+#@$$$&&%====;::::-=====$#OOOOO++#$$$@$$$$$=$=$$$$==:>>-===-;--==$@+++#@$$$===========--::::==$@OOOO",
"#@$$$&&&**==--:>:::---=%%#+oOO+#@$$$$$$#$$$=$&$@#$%-:,:;;;;;;::;==$$$$$***=-=--=-;;;--;::::;==$#OO+O",
"@$$=&&*&&*===;:>1:::;-==%#%#+++#+=$==#$$$@$$$$$##$%->,2,>>,>>>>>:=====;=-;;-----:::;;::>>::-=$#+OO+#",
"$$====*&*&*=-;>>,>>::-==%$#$$+@$$$=$$$#$$$$$=$$$$$=;,23222222221>:;::>>>>>>>>:>>>>>>>>>>>::-=$@+O++@",
"$======&&**=-:>>11>>;===$#%$$$$$==$==$##@$$$$$@$$%-:223544432222,>>11111<>>>>>>>11>1>,,>>:;==@#OO+$$",
"$==-====*&==;:>2221>;-=%%$$$$$$===&&#$##$$$&*$$$%=;>23556665644322222222322,>>>>>22222<<1>:==$#@++$$",
"====--==*$*=->22221>:-==%%$$$=====&$####@$$&$*$%=;>123466566666432224455532<,,,,22333322>:-=%$##@@+$",
"$========*==;>233321>:;-=$=$$$====&$$###$$%$***==;>22355657677655344444443321>,<2233422>::-==$$$$@$$",
"====---===;;>2255532>>:;==$$$=====&&$$$$$$&*=-=;;>,2344555566565543424342222<>,2234322>>:;-==$$$$$==",
"=====;;;;;::2244654222>:-=**&==-==&$$$$#$&&=--::>>222324455654434432212222,>,,222222>>>:;;-==$$#$$$=",
"%==-;;::>,,,224665642322>;===---==&$$##$$&==--;::>>2222424443222222>>>,2>,>>>>,2222>:;;;;;==%$$@$$$$",
"===-;:,,12222355556555432>:-----==&$$$$$$*=---:>>>2>2<22222222222>>:>>>>>>>;::>,2>>;-==*===$$$$$$$==",
"==;;:,22223223544555565542>>::;===&$$$$&&=--->>>112>><>22222>22<>>::-::;;;--;:>>>;==**$%$$$@##@$$===",
";;;:,22334322222234666666322>::-==&$$&&===--->>>2><>>>>>>>>>12>>>;--;;;;-----;>::===$$$$@@####$$====",
";::123344433221>,,2566776422,>;;-*=$&=====--;><2<<>>>>:>>:>>>2>:-=-=========;;::-=%$$$$@+@O@@#$$===-",
":>12335653221>:;;:2256666532,>:;-*======*==-;>>21>>:>:-:-::>>>>-===========--;;-==%$@$@@OoOOO@$==-;;",
">12344665322>;===-:223454221,,>:--=-=-=&=*==>>2>>>-:-------:->-=%=%==%======--;--==$$@@OOooOO#$==;::",
">2344664422,;==$$=-:122321,,,>,,>--;--==**=-->>>:;--===--:;---**=$==$=======-----==$$@OoooooO#%=;::>",
",2444444321>-=$$$%=-:>122>>>>>,1>::;--==*==-->>>:--=====--;-=-**$=$$$$$========-===$#OOoooooO#%=:::>",
"12323443221:=%$##$%==;>>>:>>>>,,>>:---=====-->>>--==&&===-=*=***=$$$$$=====*======$$#@OoooooO#==::::",
"2223332221:=*$#@#$$$=-:>>::>:>:::-:-----====-----===$&$=*=**&&&&$$$$$$$$**=*&*=====$@@ooooooo#%=:,>,",
"32323221>;==$#+@+@#$$-;::::::::---=-========----==*$$%&$===$$$@$##@$$$$$**=&*****&$@@+Ooooooo#=;>112",
"4344221>:=*$+OoOoO@@$=;;:::;::==&&=&&=&=-====---==*$$$$===$$@@#@@#@@$$**&*=*=$&*&$@+OOooXoooo$=:1223",
"344322,:=*@+oooooOO@$==::;;:;==%$$$$$$*==-==----==%$$*$*==$$+++#@+#$$@$$$*&==$$%$@+OOoo XXoo+$=>2444",
"54522>>;%$+OooooooO$**-;;::;-=*@$@@@@$$==->--;--===*$**==&$+++++@##@@#$$*=====$$@+OOo. o .oo+$;>2445",
"54421>:=$@OooXoooo+@$==-:;;;=$$@++O+#@@=*---;-;-==$=&=====$$@@@O+++@O#@$==-==$$$#OOoXo .Xooo$*-,2445",
"4432>:;%@+oo Xo ooO+@===-:;==$@+OO+O+#@@$*=-----=&$=======$$##+++OOO+@$$=:-;==$$#OooooX ooo@$*;:1245",
"4332>:=$+ooX   XoOO+@===-:-=%$++O++OO+#@@&=--==*=&==-=---==$$#+OO++OO#$==-:-==*$@+oo.XXXXoO$%;:,2245",
"5332>-%#Ooo.o oooO+@$$$=====$@+#+++O++O+@$&=-***&$==--;;--==&$#++O+#@#%=:;;:;=*$@Ooooooooo@%=;,,2454",
"5432>-$@oXo.  ooOO+@$&$&===*$$@@+@#+O@O@@$===*&*$===--;-;--=&$$@@O#@$$=-;::;;==$$+ooooooO@@=-:,24455",
"3532>=$+oo  oXoo+#+@$$&===&=$$$@@@++####@&===*$$$$==---=-=-==&&$$$$%&=--:;;::-=%#OOooooO@#==;,224434",
"322,:=$OooooooO@#@$$&&$===%&*$$$@$+@##@$$$==*$$$$$==----=-====&&=***=--::::::;=$#@OOOOO#$%=;,,224333",
"2,,>;*@oooooooO@$$&=&==&$==$$%$$$@@@$$$$$&*=&&$$&===-----*===-=-==---:;::::::;=%$#@#OO#$%=:>,2233232",
"1>>>-$+Oooo.oo+#$====&=&$=&=$=$$$$$$$$$=$===&$$&&==-----======---;::>::>>;:>>:-=$$####$*;:,,22233222",
">::-==+OooooXO@@$&============$$=$$======--====&*=--;>:--=-==---;;:>>>>>>>>>>>;==%$$@$%=:,223433232,",
"::>-==#OoooooO+#$==--========$$$$=$$====---=====---;>>>;-=**==--;;:>2,>>>>>2,,>:===$@$=-:1334553332,",
":>:==$$OooooOO#@$&=---=-======$$=$$=$=-=-:---===--;>>>>;===*==--;;;:>>>2>>22222,>==$===:,,355555432,",
">:;==@#OOoooO@@$$===-;--=============-::-;;------->>>2>;-=**=-=-==-;>>>,22254442,>====;>,235565432,,",
"---==$#OOoOO+@@$$$=-;;;-=============>>>>-:>:;;>>>>>21>--==========-->>,2256666522:;-:>1234565432,,;",
"-=-==@#++O#+#$$$$==-;;;--==-=--===--;11>>>;>>>>>>>>22>>;-==*=**&**==->>>23568866531,>21223554322,:;;",
"-===$$#+##@@$$$$==-;;>;--=---;----;:><21>>>>>>>>>>2<>>>:---=**&$$&=--->><2356666544222222333322,:;;=",
"===$$$##$$$$&&**==:>>>;---;;>;:;-;>>2<12<2,221,,,,,,>>;;;-==$$$$$====;;:>,23555565435333222222>::--=",
"==$$$@$$$*======->>22>>;;>>>>>>>>>>222222222221,,,,>;:;-===$$$$#$$===;;;;:>234555555543222<22>:;-===",
"$&$###$===--;-:>>2222,>>>>>><>>>>22222234433222222>::;;-=$=$@$@$$%==--====->222355665422,,>>>:;;====",
"&$$$$$$==--::>>>22322,,,>22222<223332456655333322<,::;;-==$$$$$$$=======&*=->>2223566521>:;;;;;===$=",
"&$$##$&==--:>>2224322,,12223333233356666664544532,>;;-=*=$$$$$$$$=%====$$$*-->>>2356522:;;-==;-====$",
"&$$$$$$==-:>>2233432,,>,2235443543355666666664422>;-*=**$=$$@##$$$=====$$%*==;:>,23432>;==**==---===",
"&$$#@$$&=-><22232321,>>,223555333223566666666432>>;=*$**$$$$+#+@$====%$$$$$==--:><222<>;=*%*===-===$",
"$+#+O#$&=->><2222211>>>,,23222322222235545666422>:=&$$%$$=@@@##$$%====$$$$$$*=-:>>2<2>:;==***=======",
"$$OOO#&&=->>>>2>>11>>>>>>,,>,,,,>>>1222334444421>-*@$$$=$$$@#$@$=%=$=$@$$$$$$=-;:>>111;;=*$=======$$",
"@@+OO@$=->>>>>>>>>>>>::::>>>>>::;;:>12221222232,-=$@@@$$$$@$$$$=$=$$$@#@$$@===-:::>1,:;;=**&$======+",
"#++OO$&=->->>>:;;>:>---;;;----=====;>>>>,>>>,11>-*$@@$$$$$$$$@@=%$=#$+++##@===-;::>,:::===**&=$==$$$",
"+OOO+$&=-->-;;----;-=-===-=*=*$$$$==;::;:;;;;>>>=%$$$$*$$$$$$$$$$$$$++OOOO+$==-=;::>::;===***$&$$$++",
"OOOO$$==->>;---=--====&==$$@##@@#@$===-;;==-;:>:=&$$$***=$$$$$$$$$$@#OOOO++$=====;;:::;-====$$$$$$++",
"OOO@$&=---->-=*&=$$$=$$$##++OOOOO@@$%====*===:::=$$$&==*$=*$$$$$$$@#+OOoOOO@=====;;;::;======$*$$@+O",
"OOO#&==-->--==&&$$$#@@#OOOOOOOoOOOO@$$==****=:;;=$$&*=====%$%$$$$$##OOoOoOO$=======;;;;-=====%$$@#+O",
"OO$&=--->---=&&$#+O+OOOOOOOOoooooOOO+$$$%*==;:;=&$**=====$$%$$@@@$@#OOOooO+$=======;;;-;;;--==$$@#++",
"@$*=--;::;-==%$#+Ooo O OOOOXO O oOOO++#$$*=-::;=$$*==-===**$$###@$@#@OOOoO#$===$===;;;;--;;;;=$$@@@#",
"$$=-:::;-;==&$#@OOO.OXO.OXOOXOXOoOoOoO##$*=;:>;*&$==---==**&$$$$$$@#OOoooO#$$=$===;==;-;;;::-=%$$$$@",
"*==:::::;-=&$@#OOo. O X OoOoO OOooooOO@#$=:>>>;=***=-;-=*%%$$$@$$$$$@Oooo+#$$====-===;=;;;:::==$$$$$",
"==;>:::;==*&$@+Ooo .   O O O O OOoOOoOO#$=:,1,:=*===--===$$$$$$@$=%$#OOOOO#@$=========;;:>1,:====&&&",
";;>>:;-===$$#@OOo.    .o O OOOOXOoOoOOO@$->22>>;=&==-==***$$$$$$%=$$$OOoOO+@==========;;>221>:=-==--",
">>>>>-===$$@@OOoo         O XOOOOoOOOO#@*:2222:-==*=-==*$$*$$=====$=$OOoOO@#$$=$=====;;:,2222>;;-->;",
"><1>:-===$$#+oo          O OO   oOOO+#@$=>232,:-===-===$*$%*=$$====$$+OooOO#$==%======;:,22321>:>>>1",
"322>:;==$$#+Ooo           O  O OooooO+@=:1232>:-----====*$==%===$$==$#OOOO@@$$$==-====;:>12333222232",
"5421>--=*@@OOo           XO  O  XooOO@$=>1222>>-;;::;-=======&=$$*&$@+OOO@#@$======**==;>12256455666",
"7642>>-=%@#Ooo           O O X XoXoOO+$=:1<<>>:::>>>>:;;-;===$$$$$$@@+oOO@#$$$===****==-:,2356887997",
"97622>:==$@Ooo          XX  O   ..ooO+@=;>>>><>>>>2,>>>>>:-=$$@$@$$#OOOoO@#$=====*****=;:>1247890000",
"q97641:;=$#Ooo        XXO O     .ooOO+@==-->>>>>,22222,,1>=%@@@$$$$+OOoOOO#@$$=$*****==;;>12589qwwew",
"ww9642>-*$@OoX       XOX OX      oooO+$$===;>>222322222<1>-%$$@@$$$++OOOOO##$$$$$*=-=-==;>>24699wree",
"ew0752>-=%@+oX       oXOOXO       oooO+$$==->222333222222>;=$$$$$$$+++OO+####@@$$*=-===;;:,2368qwrrr",
"re0752>-*$@@OXX      XOOO X X   oo.OoO+@$&=->>233222222,1>;==$$$$$$$@$@#@@@@#@@@$*=-=*=--:,23589werr",
"rw9762>;=$@@OXXXX   OOOOOOOXXXX . o..O+@$$&-:2233222,2121>:;==*$$$=$==$$$$$##O@@&==**$*=;>224579were",
"rew862,:=*$#OooooooOOOO+OOoooooo.ooooO+@$$==:>243222,2222<>:-=**$$===$=$$$$@$$@$==$=$$==->124679werr",
"rrw0621>:=%@OOooooOOO++OOoOoooo.ooooO+#@$==->242222222222>>:;-*$=$$=$=$==$$@$@@$$$$@+$$=->134679wetr",
"rrw08422>-=$#++OOOOO+O+OO+OOOoooooOO#@$$==-:>243222222222<>>-==$$$$$$=$=$$$$+$$#$+++++$=-:125790werr",
"wee09642,>-*$@#++#+++O#+@@@#+OoOOO+O@$$==-:>2242322222321>::-=$$$$++O++#$$$$$@##++++#$$==-125780werw"
};
