/* XPM */
static char *_649345868165[] = {
/* columns rows colors chars-per-pixel */
"100 100 30 1 ",
"  c #3F7AAF",
". c #3F7BB0",
"X c #407BAF",
"o c #427EB1",
"O c #4583B4",
"+ c #4886B7",
"@ c #4988B7",
"# c #4987B8",
"$ c #4C8CBB",
"% c #4F90BE",
"& c #5091BF",
"* c #5395C1",
"= c #5699C5",
"- c #589CC7",
"; c #5A9EC8",
": c #5DA3CC",
"> c #60A7CF",
", c #60A8CF",
"< c #60A7D0",
"1 c #63ABD3",
"2 c #66B0D7",
"3 c #67B2D8",
"4 c #6AB5DA",
"5 c #6DB9DE",
"6 c #6FBCE0",
"7 c #70BEE2",
"8 c #73C2E5",
"9 c #76C6E9",
"0 c #77C8EA",
"q c #79CBED",
/* pixels */
"90986542,:=*%$$$$%$$$$$%&&&&$%$#$$#$$%**-;:<111111112111:==**%$#@@##O#@%%%%%$$##$$#$###$%*;>113580q9",
"q09885521:-=*%$$$%$%$$$%&&=&*&%$$$$$%%&=-;;:>1111111211<;=**%$#@OOoO+o+$@@$#######@++++#$&-:>1246809",
"q00975411::=*%$$&&&&&%$$&&&&**&**%$$$$&*=;::>11<><11221;-*&&$$#+OOOOo++@+#o#++++@++oo+o++%*;-:135890",
"qqq86431,:--=**&&==&&$$$$&&&&*%&%%$#$$%**-;::<>:>>1111<;*&$$$@+OOoOooooooo++++#++ooooooo+%&*-;>1469q",
"qqq96421::;-=*&**-*%$##+@$$$%$$%%$#@#$$%**-;::<:>11111>;*&%%$$@+oOoOOoooo+#+#+#++oXXoooo+$%*=;>1458q",
"qqq06531:::-==*=-=&%$+++@$@@##@@##@+####$**;:>:<>,11111;-&%%$#+OOOOoooooooo+++$ooXXXXXooO$$&=->1468q",
"qqqq85311::--==-:*%%#@@@@#+O+OOO+@+O+O@@#&*;:<<<>11111<:-**&&$#@OoOoooooo+ooo+oooXXXXXooO@%&=->,479q",
"qqqq854311::-=-=**%$$####@+OOooO+++OOOO+#$=:::::>><1111::-*-*%$#@Oooooooooo+ooooXXXXXXooO+$&*->1459q",
"qqqq8854211::==**%%$$%%$$@OOooooO++OOOO++&=;::::<:,::<<<--:-=*%$#oooooooooooXXXXXXX    XO+$&==>>4579",
"90088885421:-=**%%%%%%%$@@OoooooOO+OOOO+$$*==;;;::::::<:::::;**###ooooooooooXXXXXX     XO+$**=->,458",
"88868865421::==*%%%%*%%$$#OOooOOO++++++$$&***===-;--;::::,1,:=$$#oooooooo+ooXXXX    XXooO+$%&=-;>245",
"555544554411:-=******%%$@OOOoOoO++++@$@$$$%$$***====*-:1221,-*%$#+#oOOoOoooXXXXX    XoooO@$%&==->>24",
"232122444321:-=**=***%%$@OOoooOO++$$#$$$$$$$$&******=-:1341:-*$$#++++o+o+oooXXXX      oO+$$&&*==;>>2",
"111:::123221::===***%%$$#OoooooO##$$$$$$$$$$$&&***%**=:1441:=%$$##+o++o+ooooXXXX    XoOO+$%%**=->>>>",
":::--::11211:---==***%%$@OOoooO@#$$$$$$$#$#$$&&&*$**=;,343,:*$$$@@@@+++o+ooooXXX  XXXoO+@$%***=;;>>>",
":-====:<,11,<::==**=***$$OoOoooO#$$$$###+#$$&&****%%*:,131:-%$$#%####+++oO+ooooo  XXooO@$%***=-;>>;;",
"=****=-::,,<::---===***$$OOooooO##@++@##@@@%&&****$%*;:11,:=%$##$#$$@++o+o+oooooooooo##$$%&=---:;:--",
"*$%%%**-::<::::----***$*$$OOooOO+++++@##$$%%&*==*&$$&=:11:-=%$$$##++++++o$##+ooooooooo#$&&=----:;-==",
"$$$$%**--:::::::;;=*****%OOOoooO++++++##$%%%&*=***$$%=::::-*&$$$+###++ooo++++ooooooo$#$&&&=----:;=&&",
"##$$$%*=-:::<::::;=*$$**%OoooOOO+o++++##$%&&&*=**%$$%=::;-=*&&%$$$#+o+#+##$oo+ooo++o#$$&&==-----=&&$",
"++#$$%**=;:::<<<:-=*****$OoooooO++++###$%%%%*****$$$*;:;-==*=*&$$$##++o+###+o##+++++$$&&========*%@@",
"++#$$%**=--::<<<:-******$OoOOoOOo+#+##$$$%&%***&%#$$*;:-====--=*%%$#+#$#$####$$#####$$$&==-===&&$@OO",
"O##$%%***==::<,1<:==***$#OoOoOoO++####$$$$%%%&&%$$$%=::-=---::-=*%$$$##$$$$$&&&&$$$&&&&&=-===&&%@@OO",
"##$$%%%%*==-::,1::-****$$@OOOOOO+##$$$$$$$%$&&%%$#$*-::-----:::-=*&$%$$%&**==&&&$&&&&&&&==-=&&&$@O+@",
"$$$%*******-::,11::==**$$##OOOOO+#$$$@$#$$$%%$$@@@%*-:>>:-:::>>:;==****===--*==&&&&=&&===---&&&$@@##",
"%%********==-:1111::-=*%$$####O$$$%%%$$$$@$$%$@@+@%*;>>,:>,,,1111;;;-=;;;;-;==**==&&&===---&=&$$@@@*",
"%**=-==****=::,22,:::***$$$$###$$$&&$$#$#$$$$$@@+$%*>1211121113421<::::::;;;-==========--;--&&$###%%",
"*=----==***=:,1221<:-**%$$$$#$$$&&&&$$$+$@$%$$@@+%&->134433243442121111<>>>;---=-=--=------&&&$####*",
"*--::--=***-:,24421::=*%$$$$$$$*=&&%%$+@@$$$$$@$$*-;,234444455554224221111>:---=--;--;:;:-&=&$@+#%%*",
"=--::--=**==:,34421,:=**%%$%$%**&&&%$$$#@$%$%$$$&*->,134555555655544322221<:----;;>::::::-&&&$$$@%#*",
"=-:::;--===-:155542,::==*$$$$$**&&&%$$#$$$$$$&$&&-:>,235534568655554222221>;----::>>:>:--=&&&$$$#$**",
"*--::::;--::14566642,<:=**$$$***&=%%$$$$$$%%&&&*--:123333355555555312111><>;---;:>>>:;---&&&&$$#@%%*",
"*=;;;;>>>><<2457665221<;-*$&&&*=&&%$$$$$%$%%***=;;>1212123464446452<>:<<:;;;--;:>:;:-==*=&=&&$$+#$%%",
"==-;>>><>112455755544221>-&&&&=*=&$$##@@@$%&**==-:><1<111233433232>::;;::;===-;;::;==&*&&&&$$$$@$$$*",
"==;>:>1112224455555444421:-====*&&%##@#$$%&***==;;>><><<112112211<:===;=======--;-=&&&$&$$$$$$$#$%%*",
"--;;<123324444444444454541>:--==&&$$#$$$%****=-;::>>><<<<1<11121>;===*===***====-*%$####$##$#++$%&==",
"-;:>13444544322222445555521<>--=&$$$$$$%****=-;;>>>;>>>:>::><11>;=**&********===&&$##$####+o#o#$&===",
";:>1444554321<>>::1225555421>:-=&&%%$%%&%***=;;>>:>;;;;;;;;:>1<;=*&&%%%**&&&**==&&$##o@o#oo#+##%*==;",
"><1345554421<>-==-:125555421>>;-=&&&&&&&&&**=;>>>>;;;;=--;;;>>>*%%%%%%%&&&&&**=*&&#@$oo@o#o#o$$%*=;;",
"11345555421>;=**&*=><244211>>>;;-&&&&&&%&%&*-;<<>;;-;===---;-;=*%%$%$$%%&&&****&&&&$#@@oooooo#%&=;:>",
"11455554411>=&%@$%*;:<121>:>:;:;;=&==&&&&&&=-:>>;;-==*==-;;-=-*$%#%%@%%%&&&&&&=&&&&@@oooooooo$&&-;>>",
"1344454321>;=%$@#%**;:><>:;;;:>:>&===&&&&&&==;:;;===***=---=***&%$$$#$%%&*&&&&&&&&$@###oooooo#%=;::>",
"134444431>>-&$@@#$$&=;::;;;;;;;:;====&&&&&&&=-;;;==*****=--***&%%$$%%%%%&*&&&&&&*&&##oooooooo$%=;:::",
"23444321>>-&$@@++#$%*=-;;---;;;;-====&&&&&&==---==***&***=**%%%%%$@@#%%%&&&%%&&&&&&$##ooXoooo+%=><11",
"4444321>>=&%##+++##$%*=--==-=-===&&=&&%&&&&**--==***%%***=**$$$$@@@$$$$%&&&%%%%%&&$#@oooXXXXo#&;<112",
"444432>:-&$@+ooooo+$%==-======**&&%$$%%%&&**====***%%$%*-=*$$$@@###@$$$%&&%%%%$%&$$##oooXXXoo#&;1243",
"454421>-&$@ooooooo+#%*========*&&%$@#$$%&&===--=**%%***--*%@++++O@#@$$$%%&%%%%$%#&o@oooXXXXXo+*:1445",
"55431>:*%@OXXXooooo$%&*==*==**&$$#+O##$$&=---;--=*%***=--**+++O+O+O@@@$%&&&&%%$@$o@oooooXXXX+$*:1455",
"5543>:=&$ooo X Xoo##$&======*&##++OO++@$&*-;;:;-=****==--*$#+++OOO++++#$****&&$$@+OoXXXXXXoo+$=:1455",
"5442>;*$+oXX   ooo##$&&&&==&&$@@OOOOO++@$&=;;;;-=***=--;-**#+++O+OOO+#$%**=*&&%$@OooXXXXXooo$&=:1455",
"5541:=&+OXX    Xo+o##&%&&==&$$@@O+OOO+++$%*-;-==***=-;;;-=*#$+OOOOO+++$&=*=*&&&$@+ooXXXXXXo#$*->1355",
"5441>*%+oXX   Xooo##$$$&&=&&&$@o+++OOOO+$$*---=****=;;;;;;**$#++OO+++$%*==-*=&&$@+oXXXXXXoo#&=:>2445",
"5541>*$oo    XXoo##$$$$%&&&&&@@@++OO+OO++%*--******=-;;;--**$#$++++$$&&*==*==&&&@+oooooooo$%=;>14555",
"4441:&$oo X .ooO#o#$%$%%&&&$&$$$+++++++$$&*--=*&%%*=======*$*#$+#$$$&&*=======&&#+ooooooo+$*=>124445",
"4321;&+Oo   XXOO#$$$%$%%&&&&$$$$#+O+@@+$%&--*&&&%%**====*****$$*$&&&*=*-==*--=&&@+o+oooo+$*=:<224444",
"221>-%+ooX ooOO+#%&&&&%%&&&&&$$$$$+@$$$%&**-*&&$****=-==**$*%$******-=--=-=---=&$+++$o##%*-;>1234444",
"11<:=*+oo.XXoOO+$%%%&%%$%%&%%%$$$$$$%$*$**=***&**====;-**%*$&$**===-;--;---;;;=**+#@++#**->>22244442",
":::;=$+OooXooo++@%***&%%%%*&%%$$$$$$*****=-=******=-;;-=*%%***=**=--::;;;;;;>;-=*%##+@@*=>>122444431",
":::;*$+OoooXXOO+@%%**%&%&*&*%%%$$$$*****=;;===**==--::;=*%*$*$**==-;::;;;;:><<:;**$@@$%*;>123445442<",
"1::-*&+OooooOOO+#$%*&***&%*&&%$$$*$$$*===;;=-**=-=-:>>:-**$****=*=*-;>::>><111<>=**#$$*=:<244555542<",
"::-*&$#OOXooOO++#%%%*****%&%%%$$$$$**-;;-;-;===---::1::=**$*$**%&**-;:>>><222421<-****=;>1245555432>",
"::-*%$@+OoOoOO++@@%**=***%%**$%%**$**;<::-;;---;;::><:;=***$***$%%&*-;;><2446443<:====<<1245555421<:",
"-==*$$+OOOOO+O++@%$&*=***%**$**$$*==-11<::;::;:;:::1::;=**$*$*$$$%%*=->>1245666431<;<<<1235555421<>;",
"-==%$@OO+O++++++@$%*==****%*******-;:11<:::::::::>:::;-=*****$$#$$%**-;><23466444422132224444321>:;;",
"=**$$@++@@#$#$#$$%&=--=*&*==*=***-::1111111,>>>>>::;;-=*=&&%$##$$$&&=--;>>124444444455444442221>:;;=",
"*&%$#$###$$%%$$%*=-:--======-----::1123111111,>>>>>--***&&&%$$##$$&&=====;>,244444555544322111>>;;-=",
"&%$@#$$$%%&&****=::::--==--::::::,3333443321111,>>;-===*&%$$#$##$$&&&=&&&&=>12244556655421,>>>>;;-=*",
"*%$##$$%%****==-::::::----::1:::12445445543212221>;-===&&%$$$#$$$%&&==&&&&&;>>1245676542>>>>>;>;;-=*",
"*%$$#$$&***===:::::::---::,111122445655554443341>>;=*&&%%$%$$$$&%&&=&=%$$$%&=>>>24555541>;;;;;>;;;-=",
"*%$#$$$&&&==::::,:::--==::1112223555667754444321>>-&%%$%$&$$##$$%&&&&&%$$$%&&=;>>245551>;===-;;>:;-=",
"*$$$#$$%&==:::::::---=-:::122324444557555455442,>==%$$$%$$$#@#$$%&&=&&%$$$%%&=;>>12442>;-***=;;>:;==",
"*%$$##$&*=---:-::::==---:<121112333455544445441>;=&%##$$$$$##$$$%&=&&&$$$$$%%==;>>2442>>-***=-;;:;-*",
"$%$@+$$**=-:-:=-=---=--;::::1111212344443334431>-&&$@#$$$$$#@$$$&&&&%$$$$$$$&&=;:>1331>:-****=-;--==",
"%$#+@$%**-----=**==-===-;:::::::::1133111111111:&&$#@#$$$$$#$$$$&&%$####$$$$&==;:>1321:;-***======&&",
"%####%%**--==**********--;:;;;---;:>11111>>>11<;&%#@#$$%$$$#$#$$%$$$++++@#@$&&=;-:<111:;=*******&&%$",
"#@@##%**---=**********=====***&***=:>>>:::;;:::;&$#@#$%%%$$$$$$$$$#@++o+++@$&&&=-;:111>;-=*****&&$$$",
"#@@#%%**====**%%%*%%%******%%%$$&&*=;:::;;--;::-&&#$$%&&%$$$$#$$$##+o++oO++@$&=&*-:>1<:;-==**%%%$$##",
"++##%%**==-=*%%%%$$$%%*$$$$$$#$#$$&*=;;:--=--:;-&$$$&&&&%&&$$$$###+++oo+Oo+#&&&==-;>><>:;-=**&%%$###",
"+++$&**===-*%%$$$####$$@##@#++##@#$&&=--====;;;*&$$%&&&&&&$$$$@##@++ooOooo+#&=&&*--:1>>::--=*&%$$+$o",
"++#**--==-=**$$##+@OO+++@#+++++@@$$$$&***==-;:-%$$$&&==&&%&$$#@+@@+oOooooOO$&&=&**-><>:>:;--=*&$$#++",
"#%*==-=---**&$#+OOOoOOOO++++OO+++@@$$*%**=-;:;-%$$%&*==&%&%$$+++#O+#OOooooO%%**%**;::::>::;-=*&$$###",
"%**-:;;-==**%$++OOO. O OO+++OOO+@+@#@@$**=;>::=*$$&**=&&$%$$#++++++oOoOoOo@#%*&%*=;;::::::::=*&%$$$%",
"===::-;--**$$@+OOO .Oo OO++OOOO@+@@+#$%%=;<<<>=*$%&===*&&$$$##++O@#+Ooooo@@%%****-;-;::::>::-=*&%%%&",
"-::::;-==*%%#+OO .o.XX OOOOOO++@@$$+$$@*=;<<1<-*&%&***&$&$$#@#++@@@@#ooooO@@%%**=--=--::,,,:;;=**&*=",
";::::-=**&%$@OOo     OoOoOOOOO@#$$$$@$$&=:122<;=&&&***&%$##@++#$%%@@+ooooo#@$******---::1111>:-===-;",
"::::-=**&%$#OOO X O    O.OoOO++@+++@$$%*;<342<-=&&&&*&&%$$$#$$$$$$#@@oooOO+@$**&**=*--::11311:;-;;:>",
"1,,:-**&&%$#OOX  X      oooOOOOO+OO$$%&*:1441>-**&**&&$%$$$@$$$$%#%#+oooooo@$$%%**--=-->123321>:><11",
"11::-=**%%#+OOo        o.oO.OOOO+OO+@%*-<1331>-******&%%$$$$$$$$###+o+oooo+@$%$******-->112454212224",
"511:-=**&$+OOX         X.oOoOOOoOoO@$&*:11211:-======*&%$%$$$$+@#@@+oOoooO+#$&%%&**&*=-:113455455555",
"641::-**&$+OOX         X.OoOooOoOXO+$&*;>,11>:;;--;-===***&$#+++##@OooooOO+#$%**&&&&**-:>13467787777",
"8631:;=*&$+OXX     X   XOooooX oOOO+@%*-:>:::>::>:;;;---=**#@OOOo+OOOoooo++@$**%&&%%&*=-:114578999q9",
"98621:-=&$+OXX      XX  oooooo oXoO+$%&-;--;:>,:>>>>>>;:;=$#+OOO#++oooooOO+$$$$$%$%**=--:1134579qqqq",
"q9641:-=&$#+O        oOOOoOooXoXoOO+@%&&*=--:>11111:>:::;*$++OOOO#@oOoOOo++@$@@$$***==--:>:13558qqqq",
"q0641:-=*$#+o     X  OOOOOo .oooooOO+@%%*&*-:>1111<>>::>;=*++OO+##@+#oOOO++@++++$**-==---::11358qqqq",
"q9631:;=&$@+oX  o.oOOO+OOOOooooOoOoOO@$%%%&-:111111>>>>:;=*$+#++#+@@@##@@$$++O+$$*--=**=-;:111479qqq",
"q8542:;=*%#+OoooX.oO+@++OOOOooOoOoOOO+@@%%&*-1111>>>>:>;;=**$$$#@@$%%%$%$%$$++$$&*==***=-;:112469qqq",
"q9642::=*%$+O oo OOO@@@++OOOOoOoOoOO+++$$%&=;:1211,>:>>::;-**$$$$$%*&&&&&%%$$$$%**=*&&*==;:112457qqq",
"q08621::-=%#+OOOOOO++++@+++O++OooOoO+##$$**=:,12111>>11:::;=*&%$$%%%&*****&%$%%%&&&%%$**=::>24579qqq",
"0086411::=*#@+OO+@##@##@$$###+OOOOOO##$$***-:13211<1111>::;-=**$$%$$%%*****%%%$$%$%$$$%&=-:125677999",
"89885321:-**$$#@#$$###$$$$%%$#++++++#$$**=;:11121111111<::;==*$$@$@##$%%%&&%$$$$$$$$$$$%*=:<245679q7"
};
