/* XPM */
static char *_649345877219[] = {
/* columns rows colors chars-per-pixel */
"100 100 32 1 ",
"  c #3F7AAF",
". c #3F7BB0",
"X c #407BAF",
"o c #427EB1",
"O c #4583B4",
"+ c #4886B7",
"@ c #4988B7",
"# c #4987B8",
"$ c #4C8CBB",
"% c #508FBE",
"& c #4F90BE",
"* c #5091BF",
"= c #5395C1",
"- c #5699C5",
"; c #589CC7",
": c #5A9EC9",
"> c #5DA3CC",
", c #60A7CF",
"< c #60A8CF",
"1 c #60A7D0",
"2 c #63ABD3",
"3 c #66B0D7",
"4 c #68B2D7",
"5 c #67B2D8",
"6 c #69B5DA",
"7 c #6DB9DE",
"8 c #6FBCE0",
"9 c #70BEE2",
"0 c #72C2E5",
"q c #75C6E8",
"w c #77C8EA",
"e c #78C9EB",
/* pixels */
"78776532>:-=&$&$*******==---==&$$$@$$$&=--:>,1221222222>>;===*$$##++$$=======$$&&&$$$$$$$=;>>2266897",
"97776552>:--=&&**===**==----;=&&$$$$$$$*==;:>,11,2235221>-==*$$+O++++$$==$=$$$$$$$$#@OO#$=-:>>122778",
"08876622>>--==*==---==***----===&&$$O$$&==-;:>,>>,,2241>-=**$$$OO++++$$$$$$$$@@$$$OOOOOO#$=-::>22679",
"0007622<>>;---==-;--**$$*****=&&&$$O+$$$%==;:,>>>,12221:=&$&&$+$+++O+####$#+#$$$$OOOoOOO#$==-;:>2379",
"0808632>>::-----;:-*$$$+$&&$&$$$$$OOOO$$$$=-;:>>,,1222,:=**$$$$$@@O$O$$O$+##$$$$OOoO.oOO+$$==-:>2279",
"00q863<1>::;;-;::;=*$+O+@$$@$OOOOOOOOOOO+$$=;::>>>,1,22:-====*&$$$$OOOOO#O###$$OOOoX ..oO$$==-:12670",
"wqw0752<>>>:;;;:;-*$@+O+@$OOOOOOOOOOOOOoO#$=;:>::>,,2<,>;=====*&$$$OOOOOOOOO@+OOOooo   OO#$==-:>269q",
"www0875222<>>>::;=*$++++$OOOoo OOOOo .O.o#$=;::::>>,,22>>;-;;-==$$OOOOOOOOOOOOOooX     oO+$$=-:>2690",
"wqwq08665222>>;-=$&$$$$$$+OOooooOOO .oOOOO$=-;;;::>>,22>>:>>>;-=$$+OOOOOOooOOooooo     .O@$&==->2690",
"qqqqq0887662>>;==$$%$$$$$OOoooXX OOOOo.OO@$&=---;;->>>>>>>>2>>;=&$$OOOOOOOOOOoXXXX     .O@$*==;:,269",
"999990988662>>-=***$&$&$+OOoXoXo OO OOOOO#$&=*==---;::>>>222,>;=*$##OOOOOOOX oXoo      oO+$&==-;>,67",
"7777688987622>--=&=&*&&$+OOooXooOOOOOOOO@@$$$$*======:><26322>;=$$$$$$O#OOOoo oXXX    oOO$$*===-:,26",
"6665356887652>:-====**$$OOOooXooOOOOO@##@@$$$$&*=**==->25662,:-=$$$$$+@+OOOooo.ooX   XOOO$$=&==-:>22",
"2222125666552>:;--==**$$OOooXoXo O@OO@O$OO+@$$$&&&&*=;>26762>;===$$$$$$+OOOOooooXo   oOO$$=$&=--:,12",
"22<>>><23552<1>::-====*$OOOooXooOOO@@@OO@#@$$$$&*$&*=;156762:-==***$$$$+++OoO.oooo  ooOO$$*===-->,,,",
">>::::>122222<>>:---==&$#OOoooooOO@OOO@OOO$O$$=&*&&*=:<2662,;========*$$$@OOOOooo XooOOO$$===--:>>,>",
":-==-::>>22222<>>;:-=&&$$OOooXoOOOOOOOOOOO$$$**===$$=-12522>;-======&$$$@O$OOOOooooooOO$$%*--;;>>>>>",
"-====-;->>22222>>>:-==*&$$OOooooOOOoOOO+$$$$$%===$$$%->2222>;-==*===*$$$$$$$$OOoooooOO+$%*=-;;;>>>>;",
"=$$&==-->><222222>;=&==&$$OooooooOOOOOO+$$$$$====*$$$->2211>:======*&$$$$$$@OOOOoooOO+$$*==;;;:>>;;=",
"$$$$$=--;>2233222:-=&==*$OOOoOoOoOOOOOO+$$%$$====$$$$=>2>1,::;;==*=&&$$$$$$$@OOOOOOO+#$$*=;=-=;:-=**",
"@$$$&==-;>>22332<>-====&$OooooooOoOOO+$$$$$*$===%$$$$;>>>>>::;;--==&$&$$$$$$$@$OO+O++$$&*=-==---=*$$",
"OO$$&==--:>235532>;====&@OOoooOoOOOOOO@$$$%**==*$$$$*:>>>:>>,,,:--=&*&**&$$$$$$$##++#$$$===---=**$@+",
"$$$$&===-:><23632>;-=*&$+OoOOOoOOO++#$$$$$$****$$$$$=:>>:>:>,,,>:-=====*=*=*==&$$+$$$$$**-=-==***$@$",
"$$$&===--->>23662<>==&&$@+OOOoOOO+++#+$$$$$$&=$$$@@$->>>>>>,222,>:;=====-----==$$$#$$$%**=====**$$$$",
"$$&==-=---:>226662>:==*$$$OOOOOOO+$$$O$$$$$$$$$O++$*;>,1>>>123322>>:;--;;;;;-=*$$$$$$$&**=--==**$$$*",
"&==--;:----:>26662>:--*$$@+$+OO$$$$$$$$#$@$+$$$+++$*;>22<,222266621>>>>>>>;;-=*&$$*$$%**=;;==**$$%%*",
"--;:>:::-=-:>36775<>;==&$@$$O@+$$$&*$$#$$$$$$$++++$=:13222222677763222>>>>;;==**=*$$&$*=-=-==**$$&*=",
";:>>>>>:---><367752>:-=$$$$+$$$$$&**&$$O@#@$$@+++$*=>222464366787766222,>>>;-==***=***==-===**%$$$=-",
">>1<21>:--:>12788521>-=*$$$$$$$===**$$$$$@$$$++#$*=;>2266566688897776222<,>;-***=*====---===$$$$$*==",
">>222<>>:;>>26798632>:-=$$$$$%*=*=**&$$#@$$$$$$$$=-:,26666568899998662222>>-=*=*==-===---==$$$$$$*=-",
";>2222<1>:>>27998862>>;==$$$$$**=**&$$$#$$$$$$$$==:>22266566899099763222,>;==**==-----=-=**&$$$@$$=-",
"->>2222>>1126800087632>:-*$$$%===*&&$$$$$$$$$$$*=->,22662366889999622<1,>>;=***=--;;===**&*$$$$$+$*=",
";:>22212222678000086622>>=*$$**=*&$$$$#$$$$$=&===:>2223222667887773<>>>>;;==*=----;=***$$$%$$$#O$$*=",
"-:,123223266890088766632>;****-*&&$@@+O+$$$$$=&=-->222222336667663>>>;->=****-=---=**$@$$$$$$#$+$$&=",
";:>1233666678999776766662>;==--*&$$@O$$$$$&$&&==-;>>><22222236633>>;=*===****==-==*$@@@$######$$#$==",
":>122666777777776666666662>>;;-=&$$@@O+$$$=&&==-:>>>>>>>>2222262>>=*&&&&=*&&*=***$@@++O++++OO#O$$==;",
">>12377777766553323666677322>>-=$$$$$@$$&=====-;>>>;>>>>,>>>125,>=&$$$$*&*&&&***$$@OOOOOOOOOOO#$*-;:",
"11267778876322,>>>2236767432<>;=*$$$#$$$$&$==-->>>>>>;;>:::>,22:=*$$$$$&&&$&*&**$@+OOOOoOOoOOO$$=-:>",
"226679897622,>:-=-:>26677432<>;-=&&$$$$$$&$==->>>>>:;;;;:::>><>=&$$$$@$$&&$&&*&$$@+OOOOXOooOOO#$=;>>",
"266888876621:-*$*=->2244422>>>>;-*&$&&&&&&&=-:>1,>;:;---;::>:>-*$@$@$$$&&$&$&&&$$$@OOoOOooooO#$=->>2",
"36788876622>=&$$$$=->1222>>>>;;;-=*=&&&*$&*=-:>1>:;;----:::;;-=$$$##$$$*$&$**$$&$$$+OOOoooooO#%=;>12",
"2677886622>:=$$#$$$=:>,1>:;;;;>;-====*&$*$$=-:>>:;;-==--:::--==$$$$$@$$%=**$$$=$&$$++oooooooo#$-:,22",
"6778776222>-$$O#O$$=-;>:;;;;;-;;--=***$$$$$==:>:;;--=---::;-===$$$$$$$%*$=*$$$$&%%$+#Oooooooo#$;>122",
"677766621>=$$+OOO#$$=;::;-=----;=====*$$$$$==-:;-;;-==--;;;===%=$$@@$$%$%%&$$*$$&*$@OOoo.oooo+=;,223",
"77876622>-$$++OOOO+$=-;-;====-=-===*$$$$%$$==-;----====-:;-=$=$$#+$$$$$$**$$$&$=$*$+Oooo   XoO$;2466",
"7876622:=$$OOoooOO+$*=--=======***$$$$$$$*==-;---=====-;>;-$$$##+O++$$*=$&&$$&$&$$$+OOoo   ooO%;2667",
"888622>;%$OooXooXOO$*====*=====*$$$+#+$$$==-;:--=====-;>>;=$##+#+OO$$$$$*$$*&$$$$$++Ooo    Xo+=:2678",
"99872,;*$OoXoXXXXo+$$*===*===*$$$$OO++O$$-;::>>:--==;;:>:-=$#OOOOOO+#$$$&&=$$$$$$#OOoooo   oo$=:2789",
"98742:=$OOX    ooOO$$$*=*===*$$#+OOOOO+$$=->>>>>;---;:>>>=$$OOOOOOOO$$$$*&*&$$$$$OOOo    XXoO$=:2798",
"8872>;*$OX   X ooO+#$$***===*$$$+OOO++O+$*-;>>>;;;--:>>>>;=##+O+OOO+O#$$===*&$$$OOOooX  XXXoO$;>2788",
"9962>-$OoX    XooOO+$$$*****$$@+O+OOOO++$&->><>;;-;;:>1>:-=$$+OOOOOO$$$&====$=$$#OOXo    XoO#*;,2788",
"9972>=$OX     ooOOO#$$$$****$$@++OOO+OOO$&->>>>;---;:>>>::=$+++OOOO$#$$*==&===&$$+Oo.   XXo+$=:26788",
"8862>=$oo    .ooOO##$$$$&&**$$$@+OOOOOO+@*-:>>---=--;:::;-=$$++OOO$$$**========$$+oooXXXXoO$*;,26889",
"8772:*Oo     ooOO#$$$$$&&$*$$$$$++OOO+#$$=;>>;-*====;:;;--=$$+#+O$$$**===*=====$@OOoXooXoO#%;>246888",
"7762;*OOX . .OOO#$$$*$%$$$&&*%$$@+O+$$$$*=>>;-======-;;-===$$$$$$&*====*=====-==$+ooooooO$*;:2247788",
"664<;$+oo  .ooOO$$&*$*$$$&&&&$$$$++$$*$*=-;;--====---;-==$$$$$$&***==--*===-:--=$#++OO++$*=:22667876",
"522>:&Ooo XXXoOO@$$*$%$$$$$&*$$$$#$$%**==-:;-===-;;--;-==$#$$$==*=----------;:;=%$+OO++$$->133678876",
"22<>-$#OoooXoOOO+$*%$$$$****&$$$$$$$%*===;:;---==--;>>;==$=#$&&&===-;;-----;>>:=*$$+++$$-:1226678766",
"22>>=$#OoooooOOO+$$$*$&*$***$&$$$$$$$*=-->>;;-==--;>>>:-==$$&$&====-;;;;;;>>>,>;=%$@+$$*;12266787762",
"21>:=*#OooXooOOO+$$$$&&$*$$&&$$++$#$&*-;;:;:;---;:>>>>:-=$$=&$=&*=*-:>>>>>,222,>;*$$@$*=:23568988762",
"2>>=*$OOOXooooOOO$$$$$&&$*$*&$$$$$$$*;>>;:;:---;:>>>1>:-=&&&$&&&***-;;>>>2246622>=*&**->125688987632",
">>:=$$#OoOooOOOO+++$*&***$*$*$$$$$$&=>>>>::::-;;>:>>>>-=&&&$=$$$$$**->><22677662,>;==;>>236788886632",
">:-=$+OOOOOOOooOO+@$$***$&$*$$$$$$*=:221>>:>>::>:>>>>--==&&&&$##$$$*=;><2357766322>>>,2256787886622>",
"::-&$OOOOOOOOOOOO+$****&**$**$$$$$->>322>>>>>>>>:>>>;-==*=&&$$##$$$&=;>>22367764443236466687866621>>",
";-=$$#OOOO+++OOO@$$====*$****&&&&=>22622222>>>>>>>>;-==%**$$$$@+$$$**-;>>>26666366667777778676622>>:",
"==$$#$$#++$+$@@$$$====*==*=====-->>2363332222<2>>>:-=*=$&&%$$+@O++$&=--*=;>366666777989886665332,,:;",
"==$#$#$#$$$$$$$$*=---===**=----:><366776532222222>;-===$$$$$@+++$$$&-***&=-1256677800097662222221>:-",
"=$$#++$$$&$$$$&=-;--===*==-:>>>>>3777777663222222>:==*=*$$#$$#$$$$&&**&&$&=:>23668800098622222221,:-",
"=*$@+#$$$&*&=*==-;;-==*==-:>111226778888763323321>-=*$$%$$$$$$$$&******&$$$=:><36800089622,>22222,:;",
"-*$$$$$$%*===------==*&=-:>222226700008866366422>:-=$$$$$$$$$$$&**-=**&$$$&==:><26780862,>:>>22222,;",
"-*&$$$$$$==-;--=====&$==->>22236688008876366632,:-=$$#$$$$$$$$$$**=***$$$$$&==;><3688862>:;;>>1222,:",
";=&$$$$**=-=--=====*====->,12226778888766666622>:=$$#O$$$$$+##$$******$$$$$$==-><267875<>;-;>>11,,,:",
"-**$$$**==-===*******===;>>>,22366778776553362>>-&$+++$$$$+@$$$$&**&$$$$$$#$&=-:>257772<:---;>>>>>>;",
"***$$&*=----=*&$$***&*=-;:>>>>>2256776622222222>=$$OO+@$$$+$#$$$&&&$$$O@$$$$$=-;>237763<:-=-;>>::;-=",
"**$$&&*=---**&$$$&&&&*=--:>>>>>>>2236632222222>:*$O++$$&$$$@+#$$$$$@OOOOO$O$$==;:>26752>:---;:;-==**",
"*%$$&*===--**&$$$$$$$*==-::;-;-;:>>225222>>>1>>-*$++$$$$$$$$$$+$$@@OOOOOO#O$$===->236622>:;--=-==*$$",
"$$$$***====*&&$@$$$$&*---;--===-=;:>2222>>>>>>>-*$+$$$*$$$*$$++$@OOOOOOOOOO$$&&&-:,26322>>;-=-==%$$$",
"@@$&*====--*&&$$$$$@$**=***=****==;:>>2>>>>>>>>=$@$$$**&$$$$$$$+@OOOOoOoOOO#$&==-;,23632,>;-===*$$#$",
"@$$&*=-=--=*&$$@@$O+$$$$$&&******=-;>>>>>>>;>>;=$$$$****=*$$$$O++OOOoOoOOoOO$===-->234332>:--=*%$$O+",
"$$*=-;-===-*$$$+OO+OO@$@$$$$$$$&**==-;;>:>>>>>-&$$$$===*$&$$#O+OOOOOoooooOO$&====->223322>>:=-=$$#$$",
"$=-;;;---===$$$OOOOOOOO+$$$$$$$%**===--::>1>>>-%$$$====&$$$$$OOOOOOooooooOO$*==&=->1223322>:-==&$$$$",
"=;::::;;-==*$$OOOOooOOO++$$$$$$%&====--;>>222>=$#$$===&$$$$$++OOOOooooOooO@&****=;>,<22222>:;-==$$%=",
"::>>>:;--=*$$@OOoooooOO+$$$$$$$**==*==-;>2222,=%$$&====$$$$+OOOOOOOOOXooOO$$&===-:>>,1222>1>;--====-",
">>>>>:---=%$$+OooXooooOO++++$$***-====-;>2522,;=$=&===&$$$O$OO+OOOOOOXoXOOO$&&*=;:::>,22222>>>;-=--:",
",>>>:;-===$$$Ooo.  ooOOOO++$@$%**======;>26622:==$$=&&&$#OOOOO$OO+OOOXXoXOO+$&==--;;>>,22222>>:;;:>>",
"1,>>;-===%$$OOoo ooXoooOOOOO@$$%&&&*==->26765>;=$==$&&$$#@$OOOO+++OOoXoXoOOO$&====;;:>,2336522>>>,22",
"2,>:-====$$#OoX  ooooooXOOO$@+$$$$$&=-;>26862>-=&==$&&$$$OOOO$+O+OOOooXoXOOO$&&&===;;:>2366663222222",
"22,:-==$=$$#OO     . oXoooOOO$@$$$$&=->>26652>;==$==&$$$$$O$@@OOOOOooXo.XOOO$&&&*===;;>2366786335666",
"72>:;===*$$OOo      ooooOXOOO+@$$$$&=;>222421>--=====&$$$$+++OOOOOOoooXo.OO@$&$&$====:><366899777777",
"762:;-==$$+Oo      oXooooOOOO+O+O@$$=->>3222>>:::=--====&$+OOOOOOoOooXXooOO#$$&&$$=$=->1267889009989",
"9621:;==*$+OoX    oo.oooOoOOOOOO#$$&=;>>2,>>>1>>::;---==*$+OOoooooOOoooXOO@#$$$$&&$==::>26667800qqq0",
"0962>;==%$#OoX     oXoooOOOooOOOOO$$=;;>>>::>22,>>::;;;-=$#OoOoooOooX.oooO#$@$$$$$==-:>><2246780qeew",
"q962>:-=*$#OoX   o ooOOOOOOOOOOOO$$$*=--;;-:><211>>::::;=$+OoooooOOOooOooO#$#+#+$$==::::><<22578qewq",
"q862>:-=*$$Oo.o..oooOO+++OOOOOOOOO$$**=-===;>22,1>>>:::;-$#OOOooOoOOOoOOO+##+++#==-:::::>>>><2370qqq",
"0752>:-=*$#+oo  ooOOO$$+++O++OO+O$$$$&****=;>>2211>>>>:;=$$OOOOOOO+O+$OO$$$#++#$$=;::--:::>>>2360000",
"9732>:-==$$+OoooOoO+$$$$##+$@@O+$O#O$$$%%**=:2222>1>>::;=*$$$+++O+$$$$$$$&$$++$$=-;:-----;>>><368000",
"9822>>;-=*$@OoOoOOOO$$$$+$$+$@#+++#++$$$$*&->2222><>>>>:-=&&$$$O+$$%**===***$$*=--;--==-;;:>12268990",
"98621>:;-=$@OOOOOO$$$$$$$$$$$$$+O++O+#$$$==->>232<<1>>>>:;=*&$$+#$$*===-=--=***==--=*===-;>>22667999",
"876521>>>=&$+OO$$$$$$$$$%*$=*$$++O@O+$$&==-;>23322222<>>>:-=&&$$$$$$$===---====*====$*===-:>26667778",
"7876522>>-=&$$$$$&*$$$$*====**$$$$O$$$**==;>>2222222222>>;--=&$$$$$$$*==---==*=$&=$$*$$*=-;122566786"
};
