/* XPM */
static char *result[] = {
/* columns rows colors chars-per-pixel */
"100 100 32 1 ",
"  c #3E7AAE",
". c #3F7BB0",
"X c #407BAF",
"o c #417DB1",
"O c #4582B4",
"+ c #4886B7",
"@ c #4988B7",
"# c #4987B8",
"$ c #4C8BBA",
"% c #4F90BE",
"& c #5091BF",
"* c #5395C1",
"= c #5699C5",
"- c #589CC7",
"; c #5A9EC9",
": c #5DA3CC",
"> c #60A7CF",
", c #60A8CF",
"< c #60A7D0",
"1 c #63ACD3",
"2 c #67B1D7",
"3 c #67B2D8",
"4 c #69B5DA",
"5 c #6DB9DE",
"6 c #6FBCE1",
"7 c #70BEE2",
"8 c #73C2E5",
"9 c #75C6E9",
"0 c #77C8EA",
"q c #79CCED",
"w c #7CCFF0",
"e c #7CD0F1",
/* pixels */
"             %;:>114577554211111<:=*&$$#Oooo.oooXoooo oooXOO#%*=:>1333444457786664221;&@o           ",
"            o$;;:>145555421>>>>;=*$####OOoooo.oXoooooooXooOO$*=;>13775557688998676441-&+o           ",
"            $=;:;<14555431>::;--*$$++OOOOooXooXooooooXooooOO$=;:,37878788090009976621;&+oo          ",
"            $=;::12455542,>:;-=*$$+OO+@Ooo oXooXooooXoooOoO#*-::14799990000www0087641-&+o           ",
"         XX+$=;;<14575442<:;;=*$#+OOOOOOoooX oXoooooooooOO+$*;:12780qqwwwwweeew008741;&$ooX         ",
"         Xo+$=;><45777542>:-***$#+oOOOooooo.X.oooo.o ooOO+$*=:12479wwwwwweeeeee008741;&$+oo         ",
"          o+#*=:146777752>;-=&%$$OOooooooXXXo oXooooooooO#$*->1458wwwwwwwewweew008751:-&+oX         ",
"         ooO#*=:146888751>;-**$$@OoOoXoX X  .o..ooooooOO+#$*-13478wwwwwweweeeww009773>-&$oo         ",
"       X XoO$**;156808741::;=*$$+OoXo X .o X Xoo.ooooooO+@**=1467qwewwwwweeeewq0098641;=$@OXXXX     ",
"  X  X   Xoo#$=:147898511::;=*$#+OoX   .   XoX o..oooooO+@$*-1460wwwewwwwweeewq0988741:&$@OoXXXX    ",
"o..X X X ooo+$=:2589851<:::;=*%#OOoX oXX . o XooO.oooooOO@**:1480wweeewwweeeee00987741;=$+ooXooX    ",
"XoooX . Xooo#*;1478762<>;:;-=*&$+OoX    o  ooX.oO..ooooO+@$*-146weeeweweeeeeeq09887741:&$+OOooXo    ",
"oXoX.Xo ooOO$=>1577541<:;;===*&$Oo  XX XXooooooo.. OooOO+@%*:<48qwweweeweeeew098765541>&$Ooooooo    ",
"Xoo  XooooO#*:1457641<:;===**=*#OOOooXX oXooo.oooOO.oooO+@$*-148qwweeeeeeeee097544332,;&@O+oo+oo    ",
"ooX  ooOOO#*:134454411::===**$*$#OOOOooXooooooooOOoO.OoO++%*:<48wwweweeeweeq85311,1>>;=$@++++oOoooXX",
"ooooooOO#$=>1434244441:;=****&**$#@OOOOOoOOooooOOOOOOOOo++$*-159weeeeeeeewq8511>>>>>>=&@#@+oo++oOooo",
"oOOOOO+$*-<3433244442,:;=***$&&%%$##+oo++oOOoO++O+OOOOOO##$=:250wwwwwwwew0841>;-===-*&$##+O+OO+OOooo",
"+####$%=:144443124421,:;=***&&*$$$$#+++o++++###$#+++OO+O#$%;148qwwwwwwww0741>;=*&&&$$$$#@+#+@+@@OO++",
"&&&**=::3555432234421::;;=*%&%*&&%$$#+++++$$%%%$$$++@OO@#%&;159qwwwwwwq073,>-=*$$$#++OO+++#+#######$",
"=;:::13468654334444211::;=********&$#++@+#$&&**%%$$@####$$=:149qwwwwww074>>-=*&$++OOOOOOOO+@@##$$%**",
"112455680086544444422111>:===*=****$$#$#$$%*****%%%$##@+#$&;158qqqwwq0751>-&&&@@OOoooooOOOO+#$$&&-:>",
"4567889qq0866554444144421:;=-;-==***$$$$$$&&*****%$##@+O##%;,48000889751>=&$$@+OOOOoooooOOOO#$&&*;:1",
"68890qqeeq0866544444444421:::::;---=**%$%%&*&***&%$@OOOOO$$;14565554554>=&@OoooOOoXXoo.ooOOO+#$*=;>1",
"689q0qqeeeq088543114444554111111:;:;-=**&*%%%&&&%#@OOOOOO$*;113211><11>-$@OOooooXoXo..ooooOO+#$&*:14",
"66900qweqwwq97441134444444111111<<>>;;==**&&%%%$#OOOOoOO@$*::::,;=*-;:;*#+oXX    X oXXXoooOOOO$&*;14",
"56790qeqeeeq97411111223222111144221>>;---**&%$$#OOooXoXOO$*::::-&$$$*=*$+ooX     XX   XooooOOO$$*;11",
"446890qwwweq9521<>::::>:::,11244421>:;;;=**&$@@+OOoo XoOO$===-*%$++#$%$#OoXX          XXXOXOO+#$&;:1",
"23668qqwwew0751>:;;-====;;;:>11432>>;--=**&$@++oO  X  XoO$%%&*&$OOO+#$$OOoX X       XXXooXooOO#$*;>1",
"144689qwqeq953,:;=*&%$&&&*==;:>122<;-**&&$$#OOoo        O#$$%%$@OooOOOOOoXXX         .ooXoooOO$$*;<1",
"234579qqqw0741:;=**&$$#$$$$&*=:111>-*&%$$$#+OOoX        OOO#$$OOooOoOOOooX X      X X  oOXoOO+$&;>11",
"3345680weq851:;==*&$#++OO++#$&=:<1;=%$####+OOoo        oOOO$#OOoooOoooooo            ooooooXOO&;:121",
"4456780wq051:;=*&$##O+OoOOOOO#$=;;**$@++O++OOo           O@#OOOooooooooo          o  XoooXOOO#&;1243",
"5565690q983:;=*%$#@OOOOXoooooO#$*=*$$+++++oooooXX      ooO++OoooXooooooXX          XoXOXooOO+$=:1344",
"56668888841:=*%%$@+OoOoX.ooooO+@$$%$$++o+o+oooXXX     XooO++OoXoXOoooXXXX      X. . O OooooO$&=:1345",
"6666668642::=&%$#@OOOXO o..ooOOO@+@$@++oo+oooooX     ooo+#$#+oooXoooOXXXX   X   XXO Oo oooO#$&-:,244",
"4444555542:-=%%$##+OOOoo oo.ooOO+++#@++o+o+oooooXX  ooOO#$%#OooooooXXOOXo   XXXXXo O XO oOO#%*=:>134",
"3444442221:;**%%&$$+OOXXoooooOoOo++++o+ooooooXooX ooXoo$%*%$+OoooOoOoo+oXo XXX XXX. .oX.oOO#$*=;>>11",
"333311111,:-****&%$#OooXooooO.O.+oo+o+ooooooXoXXXXoooO#***&$@++OooOO+++ooXX ooooOoOOO  OooO#$*;;>>>1",
"121111111:;;*--*&&&#OOooooOoOOoOo+o++ooooooXoXooXooo+#*=;-**%$+OOO++#$+OOXXo oooOoO O o OOO$&==;;;>>",
"11111::1::;;:-=**&&$OoOoooOO.OO.Oo+o++ooooXoooooooo+$**;:;-**&%+OO+$%$$+OOooOoOOOOOOXOXOoO+#$*==;;>>",
":1:::::::::::--**&%@OoXOOoOOoOOO+oOOo+oooooooooooo+$%=->>:;-**$@+@$%*&$@+++ooo+OOOOOOoOO OO$%**=---:",
"::::-------:::-==&%OOOO ooOOOOOOO++O+ooo+o+oooOooo+$=->>>>;=*&%#@$$&==&$+o+o+++@OOOOOOOXOO@$%&**=*=-",
"--:-===*--=::--=*%$OO  OoO+o+OO+++o++o+o+o+oOoOoO+#&->>>>;-*&*%$$$%*==&$++o+++#@+@@@@@+O#$$$%%****==",
"-:=-==****-:-::*&$+O.O OOOO+++++OO++o+++O++oo++++$&->>>:;-=**&%$$%&==-=&$@++++#@##$$$%%%%%$********=",
"=--===****-:=::=%$+OO OO++++++++++++++@@++o+o@@#$=;>>;;---*&%&%$$$&&=-=&$##++@#@$$%%&=*-===*=**=****",
"==-=====*&*-==:=%$+OOOOO@##@++O++O+o+o@#+++++#$%*->>:---=*&%$$$$#$$%*=-=*$##@$$$@$%%=::::---=-======",
"*----===&*==-:=*%%OOOOO##$$$++++O++++++#@#@@@$$*=:::;-==&%$$$$@###@%===*&%$$@$$$$$%*:::::::---==-===",
"*-=:-=--=---==:*%@++++@$#*$$@+@OOoo+o++##$$@#$&=-;>;-=&&%$$$$$++@@$&&==*%$$$$$$$$$&-::,1<:::::==*=*=",
"===-=-::=::::::&*$@#$$$$%%%$$@++OOOOO@$$$$$$$$*=;;>;-*&$$$%$$$$##$+$***&$$%$$$%%$%*;:1:111<<:-=***=*",
"%****=*::::::::-**%$$%$%%%%%$$@@+OOO#$$$&$$$$$*=;>>;-&%$$$$$%$$##++#$%&&&%%%$%%$%%*=::,1<<<>;-===***",
"&**==*=::1112:::-*%%%%%$%%%%%%%$#+++#$$%$$$$$&*=;::;=&&$$$$%%$$+OOO+++$$%%%%%$%$$%**=::>:<<:;-=*****",
"*=**&&:::::21,::-*%$$$$$$$$%%***$#$++$$$&$$$$&*=;:>;-&$#$$$%$$#OOOOO++@$$%%$$$$@##$**;;;:;;;;-==--**",
"==*=*-=::::::2::-*$$$$$$$$$***=*&$#@+@#$$$%$&*=;:::=*&$@+$#$$@+OOOO+O+@#$$$$$++O++#&*--;--===---;;==",
"*=====::::::::::*%$$$$#$$$$*====&##@##$$$$***=-;:::;&$$+@+#$#+OOOOOO+++@$$$#++OOO+$&==---=**===---=-",
"=====---=-:::::-*$#$#$##@#$$*-=*%$#$$$$$&$*=-=;:::;*&$@++++@++++O+O+O+@@$@@+++oOO+$&=;-;-****==---=*",
"=**********=*==&%$$#$$@@@@#**=-=&&$$$&&%**=;;;::>:&$$@@+OOo++++++O++++O+++++OoOoO+$*=;;;--***=*=----",
"==&==&&&%%%%%%%%$#$####+O+@$&=;=**&$$&&**=;:::<>;*$#++OOOOO++++OO+++++O+OOOOOoooOO$*=;;:;;=*=**=-;--",
"=*=&&=&%$%@+O+++@@O@@@#OOO@#$&==*&$$$&&&*-;:>>>;*#OOooOOOOOOOoOOOOOO+OOO+OoOoooOO#%*=;;::;-====--;;;",
"-*&==&&%$@+OOOOOOOOO@O#OOO++@&==*$$#$$**=;:>,>;*$+OooOooooOOOooOOOOOOOOOOOOooooO#$**=;;::;;--;-;;::;",
":;;===&%$OOOoooOOOOOOOOOOOOO@$*&$$#@+%**-;:>:;=&#OoooooooXooooOOOOOOOOOOOoOoooOO#&***=;::;;:::;;:>>>",
"::::==&%$OOO ooOOOoOOooOXOOOO$%%##OO+%**=-;:;=*$OOoooXoXXoooooOOOOOOOOOooOoooOoO#&&&*=;;;;:><>1:<111",
",::;-==%+OooooooO oOoOXoXXOXOO###+OOO#$%&==;=&##oooooXXooooooOOOOOOOXOoOOoooooOO$%&&*===;;<11<111221",
"11:::=&%$OOo O oOOOoXooooX XOO+OOOOoo++@$&==&$OoooXooXoooXoXXOOOOOOOOoooOooOooOO#%&&&**==:1111111441",
"11,::=&%@OoOo  O O oo X    XoOOoOOOoooO+#&*$#Ooo   XXoXooooXOoO+++OoOOOoooXXXooO+$$$&*&*-:1222444444",
"421>:=&$#Oooooooooo    X   oOoOoOooooooO@%$#OOXX   XXooooOoOOO++#+OOOOoOooXX.oOOO###$&**-:1455544454",
"443>;=*$OOooooooooo       X  oooooooXoXO#$#OoX   X   XXooOOOOO++$#++OOooXo ooooOOO+$$&&=;:3577765565",
"5441:=&$OOoXoo.ooo           XoooooooooOO+OOoo       XoOoOOOOO+$$&$$@OOXooooooOOO+#$$&&-:15889886675",
"4431:=&@OooooOo..X .        oooooooXXoOO#@Ooo       X ooOOO+O+@$&&=*&+OOoooooooOO+$$&&=;117900877554",
"433,:&$Oooooooo            X.oooooooooO+#@Oo         XoOO+++++@$&-:;=$#+OOOOOoO+##$***;:159qw0975544",
"121:=&@OoooOoo .           ooooOOoooOOO##OOoo        oOO+++++@$&*;<1:=%$##+OO++#$&**-;:149qww0875543",
"11::*$+oOoooooo            oOOOOooooO+$$$@OOo       XooO+@$$$$&*;>111;-*&$$$$$#$$&*-;:147qwwwq975431",
"1>;=%@OOoooXoX  X       X  .OOOOOoOOO$&$$#@OX      XooOO$$$&&**=;>221<:;==*&&$%%**=;:>179qwwe0986432",
",>;*$#@ooooXo..o       . ooOO#$@OoO+$&**%%$OoXXX  ooOOO#%&**==-::>14411::;;=*=*==:::<148qqweqq087542",
"1,;&$@+o+ooo o          XooOO%%$#+#$%*===*$OooXooooO+@#$&**=;;;:>14444411>>:>>>>::::1458qqeqew098644",
"3,;&$#++OoooXXXX        X O+$*=*$$#*-;::;*$+OoooooOO#$$%&**=;;::111444111113141111113460weqeeeqq9774",
"4,:*%@+ooOoooXXXO  O .  oOO#&-::=*-;><<>:*$+OOooOO@#$%&%&&*=*=;>:<<<11111144545432123469qeeweqq00976",
"4>;=&$@++oooooXX XO . OXOO@%;:21<>111411;$$+OoOoOO$$&&&&$&&*&*=;;:;:>>,113444544332245680qqeweq00985",
"3>;=*$$@+OooooooO XOoOOOO#%-:4555556764<-*#OOO++#$%&**&&*&&&$%&*=-=;::::>>1344444234455890qeqq000885",
"1>;*&%$#+oOoooOoOoOOOO+$%&=:258898909841=*$#+O+#$$****=*&&%$$$$&**====;;-;>1144442444555880qq9887754",
">;=&&$@+++OOooooXOOO@#$%&-:1580q0www0841;*$#++#+$$%%&****$$###$$$****===*-;>11131245544566908854332<",
"=&$$$$##++++oo+oOO@@$%*=-:1480qewweeq941:*$##$++$$$&&***&$##++##$&&****&&*-;:<>1244433345896421:>;;-",
"$#@+@##++++++++++#$$$*=;:1280qeqwwweq851;*$#+++O+##$$$&$$##+OO##$$%%&&&&%*=-:::1244422344553,:==**&%",
"++++++@@++@+@#$$$%&&*=::1280qeeewwwwq841;&$#+OO++++#$$++#+O+O+O#$$$%&&%%&*==;:>144432234442:=&@@$##+",
"oooOo+o+o++@#%&=====-::1480qeeqeweww072:=%##OOOOOO+++OOOOOOOOOO+@@$$%&&&*=**-:11444333333,=&$@OOo+oo",
"ooo++o+O++++$*=;:::::12590eeeeeeweew851;*$++OOOoOOOOOooOooOooOOO+++$&&&&***;;:1434343322:=$@OOXOXXoo",
"XooooOo+o++#%=;<111124580eeeeeeewweq851;*$@OOOOOOoOOoooooOoooooooOO@%*&***==;>114455432:*#+OOXXX XXo",
"oXoooOoOo++@&->244445680eeeeeeewweeq851;=%@+oOooooooooXoXooooX.oXoOO$&***==;;:11455542:%$OOoXXXX X  ",
"Xooooooooo+#*;145586880eeeeeeeweeee0841;*$@OOooooooooXooXooXo  oXXOO$&*===--::1458842:*%+ooXoXX XX  ",
"oXXXooooo++#*;24788780weeeeewwweeee0841;*&#OOoXOoooo o XX XX    XXoO$&*=-;;::11688741;&@OoXXX o.    ",
"XXX  XoooO+$*:1477890wweeeeeewweeeeq741:*$$+OOooooooo.o  o o X  XoO+$&*=;:::11589754:=%#Ooo         ",
"XX  o   oo#%*:1477900wweeeweewweeeq9641;*$@Oooooooooo   X X Xo  XoO+$$&=;::115898741:*$#oXX   o     ",
"XXX   ..oo#%*;14788000wweeewwwwwee08541;&%#OOOXOoooo.oXo X     oooO+#$%=;;1147898651:*%#OXoX        ",
"        Xoo$&-<278900wwwewweewwweqq744>-*%@+Ooooooo.o.o   X  oooXOO@#$*=-;>147887741:**#oo   .      ",
"      . XXo#$*>15790qwwwewwwwwwwe08541>;*$++OooXooo.oXoXo oooooooOO@$&&*=;<156887741:-&$+o          ",
"        X o+$*>14789qweewwewwewwq97511:-*$+OOXXooooooo o.ooXoOOOOOO#$&*=-:1345666541>-*%+o          ",
"        XXoo#*;147790weweewqqqw0q8511>;*$+OooOoo.ooooo  XoXoOOOOOO+$&&=;::114466541::;=$Oo          ",
"             $;146680wwwww0009999742::=*#OoOoXooooOooXXo ooOO+OOO@#%&=;;::,3355542<:;;=$+oXX        ",
"             #;146678900099887788621:;=$OOoooooXoooXXooXoo OOO+OO#$*=::::>13455541>>:;*#oX          ",
"            +$;14456788987776555741:;-*$+oooooooooooo..o ooOO@+@$%*;:,::>124557541>::;*#X           ",
"            O*;<124677787644244431:;=*$#OOoo XoXooooXooXOXoO@$$%**:>111113445755411>>-&+o           "
};
