/* XPM */
static char *_649345891515[] = {
/* columns rows colors chars-per-pixel */
"100 100 29 1 ",
"  c #3F7AAF",
". c #3F7CB0",
"X c #407BAF",
"o c #427EB1",
"O c #4583B4",
"+ c #4886B7",
"@ c #4988B7",
"# c #4987B8",
"$ c #4C8CBB",
"% c #4F90BE",
"& c #5091BF",
"* c #5395C1",
"= c #5699C5",
"- c #589CC7",
"; c #5A9EC9",
": c #5DA3CC",
"> c #5FA7D0",
", c #60A7CF",
"< c #60A8CF",
"1 c #60A7D0",
"2 c #63ABD3",
"3 c #66B0D7",
"4 c #68B2D7",
"5 c #67B2D8",
"6 c #69B4DA",
"7 c #6DB9DE",
"8 c #6FBCE1",
"9 c #70BEE2",
"0 c #72C1E5",
/* pixels */
"2222,:1::=*&$$***==****--;;;-=&$$@@$$%$&&*=-:,<,,<2222,::=*&&$$$@@$@$*=----=*&&&**&&&$$$$*=::::,,<22",
"222221<::=******=-=====--;;;==&&%$@@@@@$%&*--;:,,,2232<:;**&&&$##@#$%&*--***&%&&&&$$$@##$$*---:::<22",
"323222::;===***==---==*&=----=&&%$$+##@$$&&=-;,:;;,222<:-*&&&$$$#$$$%******&$&%%&$$@#OOO@$*===--:,22",
"655322::;======-::;-*&&%&****&&%$@#OOO#@#$&&=---,,,<221;=&&&&%&$&$$$%&&&&*$$$%%&$$@#OOOO@$&**==-;:24",
"654422:;--*----;:--*&$$@$%%%%$$@$#OOoOO###$&*=-;;:,,,2,;=&&&&&&&&&&%%%%&&&$$$&&%$#OOOXOO#@%&&==-;,25",
"677522:;-----;;::-=%$@O#$%$##OO+OOooooooOO#&*=--;;;,,,,:-**&&=*=*&&%%&$&$$$$$&&$#OOoXXXO#$$&&&=-;,25",
"788752,:;:;::::::=&$@#O##$#OoOOOOoooXooooO#$*===--;;:,,;-===----=&&&$$$$$###$$$@#OOoXXXOO@$%&==-:257",
"09097222<,12:::;-*&@#O#@##OOoXXXoOoXoXoXoo+$&*===--,,,,:;---::--=&&$$$$$##@#@#OOOOoX  XoO@$$&&&-:268",
"0009774233331,;;=&$$##@$##OOooooXooXoXoooO#$&&===--;:,2::::,,::;=*$&$$$#@OOOOoOoooXX   XO#$%&&=-:258",
"0009997777752,;=&%$$@@#$#OOooXXXXooXXoXooOO$%&*&***-:,::::2222,:-**$$$##@OOOOOOOOXXX  XoO#$$&&&:;257",
"99799999977521;-*&$$$$$$#OOo XX oooooooooO#@$%%&&**=-::::22232,:-*&&&$$$#@OOOOoOOo    XoO#$%&&*=;,27",
"67767899997532;=*&&&$%$$#OoooXX XooooooOOO##@$%%&&&**=;:235432:;-*****$$##OOOXOOooX  XoO#$$%&&&*-;27",
"36645779977621:-=*&&$&%$OOooXX  oXoooOoOOOO#@$$%&&&&**;2366532:;-*&**&%$$@OOOOOoOoX   oO+@%&%&&=-:,3",
"25322257767652:;==&&&&%#OOooXoXXXooOOoOOOoO#@$$%$$&$*=:2677622:;-****&&%$##OOOOOoo   oOO@$&&&&*=;:,2",
"222,,,25556522,::==*=&%#OOO.XXXXooOoooOooOO#$$%@$%$&*=1277742::;--==-**&$$##OOOOooo XoOO@%&&&*==;;,1",
"1,,:::<22222522,:-=-=&%##OOooXXooooOOOOOOOO#@$%%%$%&*-1267742:::;;::-=*&%$$#OOOOoXXoXoO#$%&*=*=-:,,,",
",;;-;;::12225532,,;-*%$$@#OOXXXoXOOOOXOXOO##$$&&&%$$&=,344542:::;:::-=*%%%%$$@OOOXXoXOO#$%***--;,,1,",
"--=*--:-;,2457521,;=**&*%@+XoXoXXXXXXOOOO###@%&&&%$$%*:224541::::::--**&%&&%$#OOOXOXXO#$%%*=-=;,,,,;",
"*&***---:,2575342,;=*&*%%#+XOoooXOXOOOO+#@#$$%&&&%$$$&:222422,:::::;-***&&&%$#OOOXOX++#$$&***--:;;;-",
"*%%&**=-;12577552,-*&*&&@+OOooooOXXOXOO#@@$$$%&&&$$@%&,<2222,1::::;--==&*&%%$$#OOOOOO#$$%*****-----*",
"$$$%*-=-;:2577762:;***&$+OXOOooXooOoOO+#%@%$%%&&&$$#%*:<<22122,,:::-=-=***%%$$$@OOO#+#@$%&&**===-*&%",
"$$$%***=-:2267775,;=**&$+OOXoXOXooOOO++@@%%%%&&%$$#@%-:,2:222222<:;==-===**%&&%#@#+O##$$%%&******&%$",
"$$$&*=---:22577761;=*&$$+OoOOXXOXOOO###$$$%$%%%%$##$&-:,:2,223222::;;--=-=****%$#+O###$$%&&&****&%%%",
"&%&**==-;:12577852:*%%$##++OOOOoOOO+###@#$$$%%$@##@%*;,,2:22356522::;---:-:==*%#+O#O##@$%&&&&****&%%",
"*&**=;;;;;:2278872:-**$$###OOOOOO+##@@@#@$$$$$@##O@&*;,22:2225754322:;;:::;-&&$@++##@@@$$&&******&**",
"===;;;:;:;::278993,;**%$#$##+OO+##@$$@$#$#@$$$#+O#$&=:122222277886622,:::;-=*%$#@+#@##@$%*=****&***=",
";;:::2::;;;:2700951:-**%$@@#####@$$%%#$@@$$@$##+##$&-:222222257999742,:,:--*&&$$@@@@#@#$%***&*&&&**-",
":>11222,;;;127009721;=*$$$#$##$$$&&&$$$##$@$##+O#@$*;:2222237780099742,::;-*&%$@@$###@$%&%&&&&&&&*=:",
"12232521:;,,37009722:;*%$$#$$$%%&&&&%$$##@$$@@###$&=;,2225256780000742,::;-&%$$$$$#$@$$&%&&%%%%%%*=;",
"22557522,1,259009752,;=*%$#$$%%&&&&&&$$$$@$@@##@$%&-:12455227800009722,,:;=&$$$@$$$$$%$&%%%$$#$%$%-;",
":23765532223790009732,;=*%$$$%%%&&&&%$$#$$$@@$@@&&=::25542278900007322,::-*%$#$$$$$%$&%$%$$$$#@@$%*;",
";>26655222559900009852:;-%$$$$&&&&%%$$$$$$@$@$$$&=-:22222227789998722:,;-*&$$$$$&&&&%$$$$$@$@#@##$&*",
"-,2554433477000009977322;*%$$%&&&$$$@@#$$#$$$$%&&*:,222222577899973,;;-=&&&$$$&$&&&%@@####@@@@@##$&*",
";,22574354790000997663321-*%%&&&$$@@##@@$#$#$$$%*-;,12,::225579764,;;&=&&&$$$&$&%%$$##++O#####@#$%&*",
";,23767777900099987634562,=****&$$@#O##@$$$$$$$&&-;:::,,,22236654,;&&$$$&$$$$$$%$$$#OOOOOOOO###@$%*=",
":,236878799990877563336652:;--*%%@@#O##$$$$%$&&&-;-:;:,::2,22363,;&$$$$$$$$$$%$$$#OOOOXOOOOOO#+#%&-;",
",12578889977574322322365532,:;=*$$#@#O@$$$%$%%**-;;:;::::::,2252;&&+++$$$$#$$$$$#+OOXOXOOOXXOo##%=;:",
"22579998977322,:;;,2234673322:=*&$$@##@#$%$&%**-;;;-;;;;:;;:122;&$$+o++@$$$$$$$#+OOXOXXXoOOOOO#$&=;,",
"357890997522,:==*==;,3375322<:-*&$$#$#$$$%%%**=:::;;-----;;:,1:*$@+++@$$$$$$$$#++OOOOoOXOoooo##%&-,<",
"56799987522,;*&&%**;:23332,,:---&&%$$$$$$%$%*=::,::;;-==-;;:;:-%$++++$$$$$$$$$$+++#+XXOoooooO#$%=:<2",
"7799997632<;*%@$$$&=;,22<,;----*=&%%$$$%$$%**-:::;;;===-;::--=*$+++++$$$$$$$$$$#+#+OOooooooOO#%*-,23",
"478099652<,*%####$%&-;,,;--==--*&&&%%$$$$$$%*-:::;;====;;;;-=**$$+$$#$$$$$$$@#$#@@#OOOoooXooO#%*:<23",
"579997633,=&$###O$$&=;;;-===**==&&%$%$$$#$$%*=;:;;;====;:;:==*&%$$$$$$$$%%%$$##$$$@#OOooooXoO#$-,<33",
"79997652<;&$#OOOO#$%*---=*&&***&&&&&%$###$$$*=--=;;-=-=-;:-=**&$$+@@$$$$&$$$#$$$$$@#OoOXXoXoo#%-,336",
"89987522;*%#OOOOO#$%*=-*&&&&**&&&&&%$$@#$#$%*=========-:::;*&&%$$++$$$$&$$$$#$$%$$@@OOOXX  XoO$;<678",
"9997542;*$#OOOooXo#$&=**%%&&&&&%&&$#@##@$$%*=;;===*===;:2:=*&%$#++++$$$&&$$$$$$$$$@+OOoX   ooO$-2689",
"099742:*$#OoXXoooO#@&**&%%%%&&%%$$##O@#@#$*=-;;======;:22;*&$@@O+oo$$$$$$$$$$$$$$@@+OXOX    OO$;2899",
"00872:=%#OoXXXXXXOO$$%%&%%%%%%%%$##OOOO@$*=;:::;====;::2:;*$@#OO+o++$$$$&&$$$$$$$@#OXOXX    o#&;2799",
"0095,-&$oo    oXoOO#$$%$%%%&&$$@##OO#OO#$%-;:,,;;;;;::12:-*$O#OOoOO+#@@%%$%$$$$#@@OOOXX    Xo#*;2799",
"0983,=%OoX   oooOOO#$$%$$%%%&$$@##OOOOO##%-;12,:;;;;:,21:-%$#OOOOO##@@$$%%%$$$$$@OOOoO X   oO$*:3790",
"0072:*$OoX   .XoOOO##$$$$&%%$$$#OOOOOOO@$&-:21,:;;;::,21:-%$##OOOOO#@$$%&&%%$&$$#OOX  X   oO#$=:3890",
"0982:&#OoX  .oooOO@$$$$$$$%$$$#@#OOOOOO#$&-,2,,:;;;;::,,;-%##O#OOO#@$$$%&%%$$&$$$OOoOX    oO#&;24990",
"0972-%#o     oooO@##$$$$$$%$$$$#OOOOOOO#$*;,<<,;;==;;::;;*%$O#OO+O@@$%&&&$%%$&&$#@OoXXXoXoO#$-,27990",
"0972-$#o.   XooOO@#$$$$$$%$&$%$$@#OO###$%*;2<:-==*=*=;;;=*%$##O#@@$%%&&&&&&&&&&&$OOoXXXXoO#$*:247999",
"9872;$Ooo   ooo+#@$$$$$$$$%$%$$$@#O#$$$%*-,,:-==**===--*&&$@@@##$$&&&&&&&%%&==&&$#O.XOXOO#$*;2247999",
"7752-$OoX  oooOO@$$$%$$@#$$&%%$$##O@$$&**;;,:-===-----=*%%$#$@@$$&&&&&&&&&&&==-*&#OOOOOO#%*-13577999",
"663:;$OooXo oooO@#$$$$$@$$%$&$$$$$#$%&*==-:---===;;---=&%$@$#@$%%&&&**&****==;-=&$O#OO@@$*;,25579997",
"422:=&#OooXooooO@$$$##$#$$$&$$$#$$#$%&&==-::--====;;;;-=%$$#$$$%%%&**==**==;;;;*&$@@#O#$%-,235799976",
"322:=$#Oooooooo+O#@$$$$$$$$$$$$$###$$&==-:-:--==-;-;,;-&%$$$$$$$&%$*===-==;;,::-*%##@@#%=;2355999973",
"32:;*%#OooooooOoOO@####$$$$$$$@#@@#$%&=--;:--==-;;;,,,-=&%$%%$$%$&&*==--;;:122,;*&$$#$$=;12377999877",
"3<:=&##OoooooOoOOOOO@$$$$$$$@$@####$%-::;:-:;&=-;::,,;==%%%$$$$$$&%*=-;::122442,-*&$%&*;,22579999764",
"2:-&$#OOOOooooooOOO@##$$$##$$@##O#$$*:2::;--;-;;;;::;-&&%%$%$$###$$**-:,22276522:--*=-::235899998753",
"::=&$#OooOOoooooOO#O#$$$$$$$$##O#@$*;22::--::;;-;;-:-&&&%%$@@@###$$%*-:2225766522::::222357999997522",
":;=&$#OOOoOoOooOOOO$$$$#$$$%$@###$*;2522::,,::::-;--=&&%%$%$$##O##$$&=;>222566522222266677997997322,",
";-*$#@#OOOOOOoOoO#@$$$$$$$%$$$#$$*;23632222:::::::-=&%$$$%$$##+O##@%&=---,2364633466999999978976321:",
"=*&$##@OOOOOOOO#O@$$%%$%$$$$%%%&*;125763222:,:>::;-*%%$$$$$####O#@@$&&=&=-,26553477900909977666632,;",
"*&$####@#####O+@$$&&%$$$$$$%***-::377776622::2,>::=&%%%$@$##@@###@@%&&&%%&-<3356789900009766566622,;",
"=&$#@######@##@#%&&%%%$$$%&==-;;1278997763222222::=*&$$$$$@$$@#$@%%%&&%$$%*:,237790000097643336632,;",
"=%$@@#$#$#$$$$$%%&%$%$$$$%*-;,:,2690098765223222:-=&$$$#@$$$$$$$$&&&%%$$$$&=;,36799000997332356653,;",
"-*%$##$$$$$$%%$$$%%$$$@$%*-;,,22370009975323332::=*$$@$##$$$$$$%&&&&%%%$$$%&*-,<3799009722222337752:",
";*%%$$$$$&$&&%%$$$$$#@$$%=;,,11379000097523333<:-*%$##@#@$@$#$$&&&&&&&$$$$%%&=;,237900062,,12346552,",
":=*%$%%%&&&&&$$#$@$$$$$%*-;:,12370000975323322::=&%#@O@$$#$#@$$%&&&&$&$$$@@$%=-,<3790094,,;;,223322,",
";=*%%%**%%%&%$####@$#$%%*-;,:12377000875333221,-*$#@@O##$$@#$$$$&&&$$$$##$#$%&=;:2700872,;;;,122,,,:",
";=**%**&**&*$$@@##$@#$%&=-;;:1125799977522<222:-%$#OO@#$$##$#$$$%$$$#+++#$$$%&&;:2580872:;-:,,,:,;;;",
"=****&***=*$#@#O#####%%*=-;,,;,1267887522<<22<:=%#@O##$$$#$@@@@$$###++O++###$&&-;:370762,;;;::;;-=*=",
"**%********$$@@###O##$%*=;;;;;;,,24566522<,2<,;=%$#O##$$$$$#$@@@#+OO+oO++###$&&&-:2788721,;;;-;-=**&",
"%%&***&&*$$$$$###+O##%*==-;;;;;;:,1245532,,,,,-*%#@@#$$%$$$@@$##+O+oOo+oOO+##%&&=;>688632<:--==**%$%",
"%%&&****$**$$$##+O++$%***===;=-;;:,123322,,2,:-&$#@@%&*$$%$$$@#+OOo+OoooOOOO#$&&=:>677773::-==-**$$$",
"$%%*******$%$$##O+++#%%%%**===-=-;:,222222,,,:=%$#$%%%%&%$$$@#+OOoOooooOXOO#@&&&=::5777632:-===&%$$$",
"&**=-==****%$$##+OO+#$$$%%**====-;::,212122,,,*$##$%&*%$$%$$@#OOoooooooooOO#&&&=*;:3677632::=-=&%$$$",
"*==;;==***&%$@#OOO+OO@$$$&****==-;::::,,24222:*%$$$&&&%$$$@##OOOOoooXooooOO$&&&**-:3667732:;-=**%%%*",
"=;:::-=***&%$@#OOXOXO@@$$*&*&*=--;::::,222222;*$@$&&*&$$$@@#OOOXoooXooOooO#%&&*&=;22366732,:---=&***",
":::2:--=**&$$#OOXOXOOO@$%**&%**;;,,:::,<24422:*%$$%&&&%$#@#OOOoOooXoooooOO$$&&&*=::22566322:;;;-===-",
"<>:::;==**&$@OOoXXXXOO@@$$$%&*=;;:::;::<36663:=%$$$&&&$@##OOOoOoOoOoXXXoOO##%&&&=:::2233222:::;--;;,",
"2:::;=***&&$#OoXXXXOOOO@#$$%&**-;;;;::1256772,-&&%%$%$$$#+OXoOOOoOoooXXXXOO#$&*===;:222333222,:::,12",
"2:::=***&&%$#OXXXXXXOOOO##$%%**----;;:1257762:-*&$&$%$$@#OOOOOOXOooXXXXoooO+#%&=*==;::23355332,,,222",
"2::-=**&&&$@OoX XXOOXOOOOO#$%%**=&*-;,1277772:-&*$$&$$$@#OOOOoOoOooXXXXoXooO@%%%&**-::<2667775222352",
"22:-***&&$$@OoX  XXOOOXOOO#$$%%*=&&-;:2357521;=*&$*$&$$@+OOOOOOOXooXXXXXXXO+@%%%&&*=-:,3678997755565",
"62:=***%&$#OOo  XXXOOOoOOO##$%%&&&*-;,225522::-**&*$%$$$#OOOOooooXXoX XXoOOO$$$%$%&*=;22588999877675",
"72:-=*%*$$##oo  XXXOooOOOO##@%%%&&*-:122422,::;-=****$*$##OoOXoXXooooXXoooO#$$%@$%%&=;<2577998999988",
"732:==*$&$#Oo.  XXXOOOoOOO###@@%%&&-:,2222:::,,:-==***%$$#OOXooooooXXXXooOO$$#$#$%%*=;,2377677990009",
"872:-**%$$@Ooo  XoXOoOOOO#O###$$%&*-;::,,::::<,,;==*****@#OoXXXXXoooXoXoOO@@####$$%*-,,2333333770009",
"862:-**%%$#Oo  XXoOOO####O##$@%$$&*---::;--;:,,,;;=====%$@OXo XXoXXOoooOo#$$##O##%*-;,,,22,2<2369999",
"752:-=**&$#OOooXooOO#$$$$#$$%$$$$%**---;=*=;:,,:;;;--==*$@OoooXooXOOOooOO##@#O##%*=;:;;;;;;::,237979",
"63::-=*%%$#OooooOO##@%%%#$$$%$%%%&***=*****-:,,,,:;;;-=*$#OOOoOXoOOOOOO##$%@###$%=;;,-;--=-;;;236777",
"32:;-=**&%$OOOooOO@#%%%$$$%&%%%%&%%&&&&&%%&=;,111::;;==*%$##OOOOOO##$$$$%%%$##$%=;;;;--====-:,<24555",
"32::-==**%$#OOOOO##$&&%$$$****%%%$$%$%%%$&&-;,222,:;;;-**%$###OOO@$$&&*&**&&%&&=-;;:-=-=**--;,,22355",
"32:;-====*$#OOO#@$%%%%$%*******$$$###$%%&&*-,,221,::;:--=*&$$##OO#$%&*==---=***=-;;--***=--;:,222332",
"22::::---*%$###$$%%&&&%&*====**$$#$#$$$&&&=;:12322,,,::;==&&$$#@#$$$%&=--:--=====-==*&&***-;:,122222",
"2222::::;*&$$$$%$***&&&*==--;**$$###$$%%&*=;:,22222,,,:;-**&&$$$$$#$$%=-:;--=***==**&&%%&*=;,,,21221"
};
