/* XPM */
static char *_649345964094[] = {
/* columns rows colors chars-per-pixel */
"100 100 31 1 ",
"  c #3E7AAE",
". c #407BAF",
"X c #427EB1",
"o c #4582B4",
"O c #4886B7",
"+ c #4988B7",
"@ c #4987B8",
"# c #4C8BBA",
"$ c #4F90BE",
"% c #5091BF",
"& c #5395C1",
"* c #5699C5",
"= c #589CC7",
"- c #5A9EC9",
"; c #5DA3CC",
": c #60A7CF",
"> c #60A8CF",
", c #60A7D0",
"< c #63ABD3",
"1 c #67B1D7",
"2 c #68B2D7",
"3 c #67B2D8",
"4 c #69B4DA",
"5 c #6DB9DE",
"6 c #6FBCE1",
"7 c #70BEE2",
"8 c #73C2E5",
"9 c #75C6E9",
"0 c #77C8EB",
"q c #79CCEE",
"w c #7BCEF0",
/* pixels */
"XXXXXXoXoooO+%*-<<3233311<<<;*&#@@oooo XXXoOO@$&&&*&$$#@@OoXX.ooo@##&=-<<33331222<<;*&#@oooXooXoXXX.",
".XXooXXXXXoO#&-<33313<1<<<;;*&#+Oooo     XXXOO@#$&&&&$$##@OOoOOO#&&&=,<12333333<3<,;=&#@Ooooooooo.X.",
" XXoXXXoooO##*;<53<<<<<<<;;*&#OOooooo   .XXooOO@$&&&&&&&&%$#@##&&=-,<3554553<3<<<<,;*&#@oooooooooXXX",
"ooXXXXXXoOO#&-<23<>,,;,;;-=&$+OoXX      ..XXXOO@##$%&&&&=**&&&*;;,<366676621<<<<<<;;*&#@OoOOOOooooXo",
"XoXXXXoo@@#%-;<2<<;;;;;-**&&#@ooXX      ..XXXoOO+@##$&&**--;;;<245668888653<<,,<<<;-*$@+ooOOOooooXoX",
"oXXXooO###%*;>21>,;-=*&&&&%&#@oXX       ...XXXoOOO+@#$%&*=;;,<567778909864<<,,:<<;;-&$@OoOoOoooooooX",
"ooXooOO#%&&;<121>;--&##&#&$$#Ooo        ..X.XoooOOOO@$$&&-;:<2579090000753<,;;<<<;;*&$@OoooOoooooooo",
"Xoooo@##&*;<145<>;*&#@++@#@@OOX X       ....XXXoOooO@#$&&=;<<<689000q0065<<,,<<3<;-*%#@OoooooooXXoXo",
"oOOO+@$%*;<25552>;&#@@O@OOOOooo             XooooooO@#%&*-;<<368000q00964<>>><42<;=&#@@OooooooXooXoo",
"O++@##$&-,356762<-&+O@+@OOOooo              XXXoooOO#%%&*-;,<2690qq000662<>><11<;-&#+O+OOooOoooXooOO",
"@#####$*;1568754>=&@@@@@OOooX               .oooooOO#%%**-;,<479qqqq00762<<<<1<>;&#@ooooOOOOOooooO+#",
"$$$%$&*;,4578851;*&#+#@@Ooooo               oXooXoO+#%&*=-;,2580qqqq08664<<<<1<;*$+OooXoO@@OOOOOOO##",
"&&&&&*;;<5665851,-&&$$#+OOooX             ..ooooooO@#&**=;;<469qwwq0097652<21<>-$@OX ooooO@##@####%%",
"&***;;><35555654>;=**$##+Oooo             ..XoooooO@$&**-;;158qqqwwq00865<2<<<;*#OoX XXoOO@##%%#%&%&",
"=*-;;<11344458841>;=*$##Ooooo              .XooooO+##%&-;;<470qwwwwqw087621<<;;*#oo.XXoooOO#$$%&&***",
";-;<1331114468864<;=&$##OOoXo               oXoooO+@##&*;>168qwwwwwww08752<<>;=%#O X.XXoOO+@#$%&*--;",
";;<<24412<45788872;-&&#@OOooXX         XXXXooXXooOO@#%*-;<580wwwqwwwwq98531>>;=$@oo  XooOO+@##&&-;;;",
":<<343312<4780q963<;*&#@OoooooX           XXooXooO+#%%*;>4780qqwwwwwwq085411;;*$+oXooo oOOO@@#$*-:>:",
"<<<<133122480qq962<;*&##OOOOoo X .      XX oXXooOO@#$&*-<580qqwwwwwwww9855<>-&$#Ooo o ooooOO##$*;:::",
",<<324432459qq09852,*&#@OOO@OOoXX.  X X XXXoooooOOO##%*;<588wwqwwwwwwq9854<;*$#ooXX XoXoooO@@#&=-;:,",
"<<<344334470qqq086<;&#@Ooo@@@OoooX.XXXXooooooooOOOO+#$&;168qqqqqwwwwqq854<;*$+ooXo  oXooXXoo@$$*;;;<",
"<<1344354580qqq0961-&@OOoO@@@@OOooX.XXooooooOO+++OOO##%;<6889900qwwwq8641;*%#ooo X     XXooO@$&=;<<<",
"11344555570qqwqq96<;&#OOoO++##OOoooXooooOoO+++OOOOOO@$&;<5568880qqwq864<;;%$+o.      o X XXo@#&=;<1<",
"13355666780qqqqq961;&@OoOO+###OOooXoXoOO++###@OOOooO@#&;>11156890qq864<;;%%#+oo        XXXXO@$&-<<32",
"55557888880qqwqq97<;&##OO@#$$#OoooXXooOOO@@###OOoOoO@#%*-;;>156800q85<;-*%#+oo.         XXooO#*;<132",
"5566888880qqqqqq071;*##@@##$$+ooooooOooOOO@@@@OoooOO@@$%**=;>2588q062;;*$$@o..            ooO$*;<224",
"6688808990qqwqqq084,;&%##%%$#OOoooooOOOOOOOOOOooooOO@#%%%%*=:<468q85<;*$#OoX..           oXoO#*;<325",
"8899000qqqqqqqqqq85<;-*&%&%#+OOooOOOOOOOOOooooooooO+###$%$%*;>458084;=$@OoXo.              oO#%;<<35",
"7890qqqqqqqqqwqqq874<:;=**%##+OOoOOOOO#OOOoooXoXooo+##%%%#%*;><4885<;&@Ooo              X XXO@&*-,35",
"79qqqqqqqqqwqqqq08864<;--%%##+OooOOO+##+OooXXoXoooO+#%%##%&*;;<5685<*$@oX X              . oo@@#&-<2",
"79qwwqwwqwqqqqq098654<;;*%&$#OoooOo@+#OOooXoXXoXoOO@%%%%%%*-;:15851;*#Ooo                 XXXo@#&=,3",
"58qqwqwqqqqqqwq087541<;;-*%%#OooooOOOOOOoooXX..XoO+##%%%%&&-->2554<;&@Oo   X                 oo+#*;<",
"58qwqwqqqqqqqq00855<<;;-=*&$+OooooOOOOOoooXXXXXXOO@#&&&&&&*-;<665<;=#+oX . . X              XXo@#&;<",
"580qwqqqqqqqq00755<<>;;-*&&%#OOooOooOOOoooXXoXXoO@O&&&&&&**=>3661>;%@oo..                   XXo@$&;<",
"470qqq00q0qqq8752<;;;--&&&&%##OOoOOOoOoooXXoXoXoOO#&&&&&*==;>334<;&@OX .X  XX                XO#%*;;",
"580qq00098088752<;-***&&%&%%$#@+ooooOoXoXoXXoXooOO##&&=**=;;<33<;*@oo.. X.                 .XoO@$&;<",
"580000887776541,;-&&&&%%%%&&%##++OooooXooXXXXXooOO#&&&&=*=->>>>>=#Oo X X XX                XXoO#$*;<",
"6890088554421<<:;*$&$%#%$$&%%$###OOooX.ooooooooOO#&&&&&&*-;,>;-;%Oo  ... XX                XooO#$=;1",
"789988554<<<:;;;-*###$$$$$$$$#@OOooooXooooOooooO#&&&=&===;;,,-==#OXXX...XX               X XXO@$&;>4",
"88988754<<;-===-*&#&$#$$$%%%$@OOooooXo.oOoooOOO@#&&&==;;-,,>;==&OXX..XXXXXX             XXXooO@%*;<5",
"89998741,;=&&&&&&&%#%%%%%%&%#@ooooXXXXXoooo+OO#O&&===;;;>><>,=&&oXXXXXX.XXX..          X XXoO@#&*;<6",
"9000852<;=%$###$#&%%&&&&&&&#@OoXooXooXXoooooO##&&=;;;,>>,>,,;*&@ooXXoXXXXXXX.X..      X XXXo##%&;<48",
"0000852:-&$##+####%&&&&&&&&#@ooXXXo.XXX.Xoo+@#&&&;;;>><<<,<<=&&XoXXooXoXXoXXX.   X   XX XXX@@#&*;158",
"0qq074<:=%#@OOoO@##&&&&&&&%#Oo.XXoXXX.oXoo+###&*=;;,<<336,<,=&&ooooooXoXoXXXXXX X    X .XXXo@#%=;250",
"0q0852>;&%+OoooooO##%$$$%%#@OooXoooXXXXoooO#&&&*=;;;>3636<<>=&@OoooooooooooXXXXX XXXXXX XXXo@#&*;280",
"qq075<;*%#OOooooOO+########OooXXoXoXXXXXooO#&&&*;;;<<66<,<<>=&@OoooooOoooXoooXoXXXXXX X  XXXO#%*;268",
"q0862:=$#OOoooooooOOO@OO@OoooooooooooXoooo##&&=;;><36464<<>;&&#OoooOOoooooXoooooXXXXXX.XXXXoo#%=:268",
"q085<-&#OoooXXXoooooooooOoooXoXooooooXXooo#&&;;;;><33433<<;*&&@ooooooOooXXXoXoooooXXXXXXXXXXO@%=<589",
"q085<=$@OoXXooXoXoooXoXoooXXXoXoo@@oOXXXoo#&*;;;><33343<,;*&#+OOooooOOoXXXoXoooooooXoXX.X .oO@$;<580",
"0074;&#ooXXooXXooooooXoXoXXXXXooooooooOOO#&&-;<<<33<3<<;;&&$+OOoOoooooooXXXoXooooooooXoXooX.O@&;168q",
"q072;&#oXoXXXXoXooooooXoooXoXoooo@oooOO@&&*;;<<313<<>,;;*&+OOOXoooOoooXXXXoooooXooXoXoXoXXooO@*;470q",
"085<-%@oXXXXXXXoXoooooooo o.XooOooO oO@#&&;><33313<>;;;-&#OoXXOXoOoooXXXXoXooXoooooooXooXooo+$*<589q",
"075,=$@OoXXXX.XXoXooooooo.o.oooOooooo@&&=;,<3633<<>;;;=&&@OOXoXoooOooooooooOoooooooooo..ooo+#&;<589q",
"07<:=$#OoXXXXXXXXXXooooXooXooooOooooo#&&;<<133633<>;;=&&&OoXoXXXoooXo.oooO@@+OOOOOoooooooO+#%*;35800",
"971:=$#Oo X  X.XoXXXXoooooXoooooooooO#&*;<<13666<;;;=*&&#OOXXooXoooo.oooO@###@###@ooooooO+#$&;<589qq",
"071;*&#oooX X X  X X. XoXooooOOoooooO+&-<<13<6<<,;;=*&&&#OOoXXXXXXXo ooO+#&$$$%%#@OOoooOO@#*;>15890q",
"881;*&#OoXo  ..X. .X XXXXXXoXoXoooooO@&-<<36<3<<;;;-&&&#OOXXXXXX.oo..ooO#%%&%&&&&#@@++OO@#&*;<4890qq",
"95<;*&##oo o  X        XXXXXXXooooXoO#&;<<<<<<,>;;;*&##+OoOoXXXXo..ooXoO#&&&&*&&&%##@@@@@#&-;1689q90",
"83<;*$@@o o X        X XXXXoXXXXoooo@&*;<,>>>,,;;;=&&+#OOooXoXoX.X.o.oo+%%&&&&%%%%%%#$##&&*;<4589099",
"51;=&#+OOo  X          ...XXXXX.   @#*-;,,>;;;;--*&&#+@OOoOXoXXoooooooO#%%&%&%%%%%%&&&&&&*;<34689998",
"5<;*$#OoXoX            .XXX.XX X  o@&*-;>>,;;--=*&&#+@OOoooOooXXooooO+##%%%%%%#%$#&*--=--;<115688988",
"4<;%#@OooX              ...XX...XXO#=--,>;;===**&&#++oooOOoooXXoooOO+##%%%%%%#$##%&-;;;;<<<446890986",
"1;*$#Ooo                 XX.X X Xo@&--;>>;==&*&&&##+ooooooooXooooO@@##%%&%%%$$%%%%*;;<<1255567990986",
"<;*$@@oXX                X X X X O#*,,<<;;==*&&&&&+OoooXoXXXoXoXoO+@@##%%%%%$%&&&*-;<245666688900086",
"<;&$@Oo         .       X X . XXo@*;<2<<;=**&*&&%#+OoXoX oooooooOooOOO#$&&$&&&***-;<35689898900qq085",
"<-*$#Oo        .         .. .XXo@&;<553,;-***&&&$#+OoooXoo oooooOoooOo@#$&&&**;;;;<45780qq00000qq983",
"<-*$+o   XX             X   XXo@&-,355<<;-***&&%$#+OoXXXo oooo@@OOoooO@#&&&*-;;;<<5589qqwqqqqqwqqq84",
">;&#+o o             .    .XXo@$-;<565<;=**&*%$$#+OooX.XXo oOO@OoooooO+##&**-;;<146890qqqwqqqqwwqq85",
"<;*$+Oo X              .   XXO@&-<2662,-**&&&$###OooXXXXooooOO#@OoooooOO#&*=-,<355689qqqwqqqwwqwwq85",
"1;=$#OooX               X. XX@#*;1676<,--&&$#%%$@OOoXXXX oooO+#@OOOOoOO+#&&--,<356880wqqqqwwwqwwqq96",
"3<;&$#OoXX             . .XXO@%=<5775<,;=&#$%%%#@@oooXoXoooOO#@@OOooOOO@#&&=-,<46880qqwqqqqqqqwqqq86",
"51,;*#OoXXX  X          .XXoO#&-<6965<,;*&$#$#$#OOooXoXoooo+@++OOOOooOO##&&&--;12790qqqqqqqqqqqqq086",
"53<<;%#OoX.             XXoO@%*;170961<-=&$$$$#@OoooooooooOOOOOOOoOoOoO##&&&&&-;<580qqqqqqq000009888",
"533<;&#@oXX            XXoO#%*-<590974<,=&%&%$#OOOoooooOOOOOOOOOoooooO+#$$$#&&&->480qqwqqqq099088885",
"533<;*$@oXX            oo@#%&;,170q8761,;==&&$#OOOooOO@@#@OOOoOooooooOO#$##@+#$*;160qqqqqq0888886655",
"131<;*#@oXXX         XXo@#&=;;<57qq97741:;:-&$##OoOo+@@##@OOOOoXoXoooO#$##+O++#*;<600wwqq08888775555",
"11<>;&$@ooXXX  X     XoO@&*-;<270qq097652<<<-&#OOooOO@@###+OOoooXoooOO###@OoO+#&;<60w0wqq08775755333",
"1<<,-&#@ooXXXX      XXo@#&-;<4690qwq0987665<;&$+OOOO@O+OOOOoOoXoo oOOO##+#OooO#&;<690wqqq8755554333<",
"<<<;=&@@oXoXXXXX.   Xo@#&*;<268qwwwqq998987<;&##OO@@OOOOooOoo.oo ooooOO#@@OooO+&;<69qqqqq8554444311<",
">,;-=&#@ooXoXXXXXXXXoO@#*;<5680qwwwqqqqqq97<;&&#@@OOOooooooooo. XX oooOO#+OoO@#&;3680qqq9654224231><",
";,;;*&$@OoooXoo.XXXoOO#*;<4688qwwwwwwqwq085<-*&###@OoooooXX.    o  XXooOOOOO+##=;3680qq0863332431<<>",
">>;-*&#@oOoOooXoXXoo#%&;<14580qwwwqwwwqq985>;=&##@@ooXoXXX..       X XoOoOO+@#%=;<360qq065333331<1<>",
">>;;&$#@OOOoooo XXo@#*-:<34680qwwwwqwwqq864>;&&$#OOooXXoXX           XXoooOO##&*;>368q08633313431<>;",
";,;;&&$#OOOOo.XoXXo@%=;<<<2680qwwwwwwww085<:-&%##OoooooXXo            XoXoO@##%*-;368088533<14421<;;",
";--*&&$#@@@OOX. XXo#&-:,<<3588qqqwwwwwq952<;*&%#@OOooXoXXX..           oooOO##%&-;<5688652111131;;;;",
"***&&$$##@OOoXo XXO#&-:<<134589qwwwwww064<;-=&&##OoooooXoX..           XooOO##%&*;,34866544311<;;=;*",
"&&&$$$$##++OoXo XoO#=;<<1115689qwqwqwq85<<;-=&&#@OooXoooXXX           .XooOO##%&**;>36665551<>;;=**&",
"$$$@#@##@+OOoo  oo@%-;<<1<155880qqqqq972<:-*=&&#@OoooooXX..           .XooOO###%&&-;3666755<,-***&%&",
"##+OOOOOO+OOoooo@@#&;<<2<<<456800qqq9852,;-=*&&#@OoooooX..              oooOO@@#@&=,1568853<-*$%%$$$",
"#@OoOooooOOOoooO@#*;<<2<><<35790qqqq974<,;--*&$#@OoooXoXX.              XoOO+OOO#&*;4588651;*$##@###",
"OOooXXoOoOoOoOO##&=;<3<<<<<3580qq0q0864<,;-*&&%#OooooXXXX.              oOO+OOOO@&-<367651<=&$##@@+O",
"ooo.XoooooooOO+#&-;<12<<;><46900q0q9873<<;-&&###OooooooX. .           ooO+++OOOO$&;<<5553<;&&$#@OOOo",
"oooXooooooooO@#%&-;<<<<:;<158000q0q9851<,;=&%%#@OoOooXXXX           oooO+####@@#&*;:<551<;*&$#@Ooooo",
"XoXoooooOoooO##&-;,<<<>:><1588009999851<,;-&&%##OOOOoooXX.X.         oO@$%%%#$%&*-;<13<<;*&$#+OooXoX",
"oooooooOOoooO@$&=;><:>:><<458008888764<>;;-&&%%#@@@OOooX.X.        oooO#%%%%***=-;;<11>;&&##@ooXXoXo",
"o XoooOoOoOO@@$&;;,,<>><<448888865541<;;----&&%%##@@@ooXX..      .  oOO$%***-;-;;;:<3<;*&#OOOoXXXXXo",
"XooXoooOOoOoO#%=;;<<<<<<245868652<>;-=&&&===&&&&&%$#@OooXXX.    oXXooO@$&*;;;>;>><<33;-&#@OOoXXXXXoX",
"XX oXoOoOooo+@%=;;<<<<114454554<;-=*%$####%%&&&%&&&$#OOoXXX. . ..oXoO@$&*;;;<<<<<<343;*&@OooXXXXoXXX",
"oXXoooooooooO#%=;:<1111342111<;-&%$#+OooOO+#$%%%&&&&$@OooX.XXXXXXooO@$%*;<<<<<<13243<-&#OoXXoXXXoXX.",
"  XXoXoooooo@$*=;<<14111111<>;*&$#OoooXXXoOO@#$&&&&%$#OOoXXXXXXXoOOO#%*;;<<1213333<<;&$@OoXoXXooXXXX"
};
