/* XPM */
static char *_649345978356[] = {
/* columns rows colors chars-per-pixel */
"100 100 33 1 ",
"  c #3E79AE",
". c #3F7BB0",
"X c #407BAF",
"o c #417DB1",
"O c #4582B4",
"+ c #4886B7",
"@ c #4988B7",
"# c #4987B8",
"$ c #4C8BBA",
"% c #4F90BE",
"& c #5091BF",
"* c #5395C1",
"= c #5699C5",
"- c #589CC7",
"; c #5A9EC9",
": c #5DA3CC",
"> c #60A7CF",
", c #60A8CF",
"< c #60A7D0",
"1 c #63ABD3",
"2 c #67B1D7",
"3 c #68B2D7",
"4 c #67B2D8",
"5 c #6AB5DA",
"6 c #6DB9DE",
"7 c #6FBCE1",
"8 c #70BEE2",
"9 c #73C2E5",
"0 c #75C6E9",
"q c #77C9EB",
"w c #79CCED",
"e c #7CCFF0",
"r c #7DD1F2",
/* pixels */
" X X  XX ooO@%-,25566555511:;=*$##OOooXXo oooo+#$$$#+OOOOoXXoXOOO#$&=;><112666866521:-$#oXo . Xo  X ",
"  . X     XO#*:15554555511::=&#OOOooo.   X oooo+####++O@OOOOOOOO$*=;>11266686886553<:=&#O o  Oo X   ",
" .   X  .XOO$=:1542224421::=*$OOooooo     . oooOO##$###@#$$$##$*=:112677888886666531:=$+OXXOoo.oo X ",
"   o  X oOO@&;15521111221:;*&#OOoooo       XoooOO+###@$$&&***=-:1268999qq98886565531;=$+oOXoOXoooXXX",
"XX  X   oO@$-:2541111211:-=*$$OOoo        .  oooOOOOO##%*=;:>125780qqeeqq99865556531:*$+ooOXooooo. o",
"XX o X oO@%=:14521:<::::-==**$OO o      X  o XoooOOOO##$$*:11569qqqeeeeeqq9652256531:*$+OooOOoooXo O",
" o    oO#&=:125521::::-*****$#Ooo        X  .XooooOoOOO$%=:<127qqreeeeeqqq8522656231:*$+oOoOXoo oXo ",
".   XXOO$*-:156622::-=*&$$&$$#Oo.          o X ooooOOO#$%*;1146qqeeeeeeeqq8666676611:*$+OOooooXo X  ",
"o XXXoo+$=:1466631:=*&%#@@%$@OOX             XoXooooOO+$%=-:126qrrreeeeeq98788996211-*$+OOooooo. X  ",
"  XXXoO+&-:1589651:=*%$$#$$#OOO             XXoooooOOO#$**-:126qrreeeeeeq999999621>:=&%@+OoOoo oO oo",
"o.ooooO+&-,1688851;=%$$#$$#@OOo             oooooooOOO$$**=:,27qrrrrereqq99999851:-*&%$@+OOOoXo  o  ",
"ooooOO+$&:,3688751;=&$$$$##OOOo             oooooooO+#$&%*=;>39qrrrrreeeqq999861>-*$$++O+++OOOOOOoOo",
"OOO+##$*=:12688851:-*&$$$$$OOXX               ooooO+#$%&**=;169wrrrrrrrqq9909751-*$+OOOOOO+++O+OOOOO",
"O##$$$*--116689852:;*&%$$$@OOoX               oooOO+$$$&&*=:17qrrrrrrrrqq998662:-$$+oOoOOO++#$$$OOOO",
"$$&**-;;:<16789863,-=&%$$$@@OoX              ooooOO+#$$%**;:29errrrrrreeq086551:*$+OOooOOOOO#$$$$$$$",
"*&=-:><:112680q9651:=&%$@@OOOOX             XXoooOO++$%&*-:17qrrrrrrrreeq86632:=%+OoooOoOOOO+$$*&=*%",
"==::122122569ww0751:-&%$+OOOOOXX         X o.oXoOOO+#$&*=;159wrrrrrrrrreq87551:=$OOooooooOOOO$$*--==",
"-::1553255690qwq965::&%@+OO+OOOXX       X ooooooOO+#$%**;,57wrrrrrrrrrreq8651:*%#OOoooooOoOO+#$&=:::",
":114455666790wew965,:*$@O+++++OOO X      X oooOO+++#$**=:27qwrrrrrrrrrre9861:&%#OOoooXoXoooOO#$%=:::",
"125555677690weew0962:%$OO++@@@OOOoXX  XXoo.ooOOO+##$$%*=:59qerrrrrrerrrq861;*#+OOo o.ooooooOO$%*=::,",
"25666667799werreq961=%@O++$$$$##OOOXoo.ooXoOOOO#####$%*=,69qerrrerrrreq821:&$OOoXXXoo ooooooO$*=::11",
"5666679990werrewq96:=$#@@@$&%&&$$@OOoOOoOOOOOO##+++##$&-,58qqwwwerrreq821;&$OOoo X  X   ooooO#%=:123",
"688788990qererrwq061-%$#@$%&**&%%#OOOoOOOOO@#$$#++OO@#*=:168999weeeeq021;=$#OXXX       XXXoOO$*;1455",
"699899qqweereeerq951:*%$#$%&**&%$#OOOOO###$$%%$@+OOOO#$*;<126799qeqq861;*&#OOXXX        XXooO$*;1455",
"89900qwwerrreeeeq961;*$$$%*===%$$#+OOOO##$$%$$@@OOOO@O$%*=::16689qq961;=%#                Xoo$*;1266",
"899qqwwwrrrrreewq961:=*****=-=%$#++OO+@#$$$$##OOOOOOOO@$$&*;<1568q963:=*$o                 Xo#*:1556",
"89qqwwwrrereereeq964:;==*====&%#@O+@O#####@OOOOOOOOOOO##$$&*::147882<=*$Oo                XXO#*;1566",
"90qwwerrrrereeeeq0751:;;=--=*%##OOO##O@@#OOOOOOoOoOOO+O##$$*-::26761;*#Ooo                 Xo#%-1166",
"80qwrrrrrrereerwqq9621::;-=**#OOOOO@###@OOOOOoooooOOO#O#+@$*=-:1261<;$Ooo                   oO$=:156",
"90wrrrrrrerewrww086521::-=*%%#OOOOOO@O@OOoO XXOooOOOO##O+#&*==:1621:*#Oo X                  oO#*-116",
"9qwrrrrrrrerrrq97621<::;****$#OOOOO+@#OOOOoo o.ooOOOO@O+@$%&*-:121:;%Ooo                  XXoO+%=:15",
"9qwrrrrrrereew996411::=***$*$OOOoOOO@#OOOXooX  oooOOO+@@$$%**-111::=$Oo                   XXoo#%=:16",
"0qrrrrrreeeewq96231::;**%&$$#+oOoO+O+#OOooooo  oOoOO++$$%%&*=:111:=*+Oo                      X#$=;15",
"9qerrrrreeeeq97521>;-=&$$$$$@OOooOOOOOOOooooXoooOOOO+#$$&***->11<;*$OooX                    XX#$*;:5",
"8qerrwqqqqqqq7621>;-*&$$####@OOoOOO+OOooooo.oooOOO+##$$&***-::11:=%#OoXX                    Xo#$*-<4",
"8qerwq0q98998641:;=*&$$@++++++OOOOOOOOOoo.ooooOoOO+#$%%&***-:1>:;&$OooXX                   Xoo#$*-:2",
"8qqqq9987677721::-&%$$#@+++O+OOO+OOOOOoOOooooooOOO+$&&&***-:>::-*$#Ooo o                X XXoO#$*-:2",
"80qq98862654211:;*%$@@@OOOO+OOOOOOOOOoO.oooooOooO+$$&&***-:<:;==*$+O o                  XXXXo+$&*;<4",
"80q9986621111:>:;*%$++OOOO+OOOOOOOOOO  OoOOooooOO+$&**-*-:1<:=*=$#oXX                   XXoo+#$*-;15",
"90q9766211:;;;::;*%$++O+O+++OOoOOO.O.O. oOooOOOOO@%*=--::11<;=**$OoooX o                oooo+#$&=:16",
"9q098631<;-=*-;;-=%%##++@##@OOoo oooXooXOOoOOOOO#$&*-;>11111:-=$+oo  X                  Xooo+#$*-<27",
"qqq97631;**&&******%$$$#$$%$OOoX ooXoXoOXOOOOOO+#&=::1144111:;*$Oooo XXXoo             XXXo##$&=;<78",
"wwq9861>-*%%$%$%**%%%%$%&&%$OOXXo.XXoXo XOOO+++$*=;:11222111:=$OOoooooXX oX X           ooo#$&*=;270",
"ww0085,-*&$$$#$$$%%$$%%%&&&$OXXX .o  oXOoO+O@$$&=;:115622221;*#Oooooooo  ooXX X         ooO#$%*=:168",
"qqq961:-&%$$++++####$$$%&&&@OXX o .o o.oOO@#%%&=--:,3662111<;*+OoooooXXXoooooo          ooO#$&*=:170",
"qq0861;*&$++++OO++++O++$%%$@OOO oooXXoooOO+$$&&=::126661111<-$+OOoooOOoOoooooooX        ooO#$*=-:159",
"qq972>-*%$+++O++OOO+OO+#$$@OOOO o o.o oooOO#%&=-:11566311>1:-&+OOooOooXXXooooooo        oo#$$**-:268",
"qq861:=&$$+++OOOOOoOOoO+O@OOO  OoOOoOOOOOO@$&*-::155651,>>:;=*$OOOoooOOXoXooOoOo        OO##$&*-1479",
"qq851;=%$++OOOOOOO  OoOOOOO O XXXOOoOOOO##$$*=-:112531<:;;-*%$+OoOoOooo XooOoOOoOoOXo ooOOO+#%=:1680",
"qq85<-*$+OO+OOOo OOO O OOOO X  OXOoOOOO+#$$*=-:,11121>:--*%%$+OOOOOoooooooOoOOXOOO  OOoOOO+@$&=:278q",
"w072>-%$++OOOoooOoooOOoOO O  O OOOOOOO@$$**=-;<11221>;-=*%$#+OOoOOOXo o.oooOOooO O OoOOOOO@@$*;158qq",
"q851:*%$+OOoooooo oOOoOOOO    OXOooOOO$&*=-::<132411:-**%@++OOOOoOoOoo.ooOOOOOooOXOoOOO@OO##$=:1680q",
"072<;*%$#+OoooXXo OOO Oo O O OOOooOOO$*=:::11225541:;-*&$+OOOOooO.OooooXOOO@+OOOOOOO@OOO###$&=:1680q",
"861>-*&$#OOooXXX o  XOX O X O  OXOOoO#*-:1<11267521:;**$@+OOoooooo ooXoO##$@#OOOOOOOOOO#+#$&*=:488qq",
"061:-*&%#OoooXXX     O   XOO XO XOoOOO%=:11116862,::-*&%$++ooooo.oXoXoOO#$&&$#@+O@OO@OO@##$**:<680qq",
"961>-*%$#OooX X         O  XO  OooXoO#%-111126621:;-*&&%$+OOoooXo ooXXoO$&&&&$$##@$##O###$$*-:1700qq",
"962;=*%$#OoXX  .         O O ooXooOoO#*;11126651::;=*$##+OOooXoX .oo ooO#&**&&&$%$$$$$#$$$&*;<289qqq",
"971;**%$#Ooo oX            . XXooo.OO$*:13125211::=*#@@OOOOooXoXoXo o oO$&&&$$%&&**%%$$%%$*=:1689qeq",
"961-*&$$+oooo             . .Xo.XooO$*-:1111111:;=*##OOOOOoOooXXo.X .XOO#&$$$#$$%**=&=*&*&=;12689qqq",
"82>-*%$+OOoo              o X .  oOO%=-:11111>:-=&$@OOOOOoOooooooooooOOO@@#+++@#$&=----===;115689q00",
"61>=*$+Ooo    .               o ..O$*==:<11::;-=*%#OOOooXOOooooooOooOOOO+O+OOO+@$%&:::::;:1135689008",
"21;=%$+OoX                X X  oOO#%=*=:,,:-==**%$@OOooOOOXOOoooOOOOOOOOO++OOO+@$$=-::::111456890qq8",
"2>-=%$+ooo                   X ooO#*==-:1:-=**&&&#+OOXoOXOooooOOOO+OOOOOO+OOO@@$$%=:::2226266789qq98",
"2>-*$$Ooo                   . o.O+$=-::<:-**&%%&$+OOoOooXXXOoooOO+OOOOOO+O++@@$$%&=::1567776890qwqq7",
"2:-*$#oo                        O$*;:<<:;***&%$$$@OOoOXooXoXOOOOOOOOOOOO#@@+##$&*=-:117899999qqweeq8",
"2>-*$#oo                        #%-:11>:=***&$$##OOOooO ooXO OOOO+OOoOOO##@@$$&==;:12689qqqqqwweeeq8",
"3<;*$Ooo                        $*;<11:;****%$###OOOoO XoXooOOOO@OOOOOO$$$$$%&==::12580qwweeerrrree8",
"5<;=%Ooo                        &-:111:=**&$$#@+OOOOo oooX.OOOOOOOOOoOO$$&$%*=-::12669qwrerrrrrrreq8",
"61:*%+oo                   X oo$*;<11>-*&$$$++#OOOoOoXX  oooOO+#OOOoOOO#%&&*==::112690qerrrrrrrreeq0",
"51:-&+Oo                     XO*;>122:-**&$+++O+OOoooXooo.OOO#O++OOOoO@$$***=::112579qeeerrrrrrreeq8",
"61>;*$Oo                  XXoO#*:<221:-**&#+OO+#OOoooooooOOOO@O++OOOOO#%**=;::116689qwrreerrrrrreqq8",
"621>*$+o                  oooO$->2621:--*$##++OOOoOOoooooOO#O@+++OOOO+$&==;;:<1269qqwrreerrrrrrreq08",
"7531-$@oX                 ooO$&;15762>:-*$+++++OOOoooOoOO+O###+++OO++@%**--=;;:1580qwreeererreeeqq08",
"7621:&@OoX             XoooO$*->588831>;*&$@$+OOOOOOOOOOO###+@++++O+$%**--***=;:179qreeeeerrrewqq008",
"6651:&@OXX            XXoO#$%-:279q8621>;*&%$+OOOOOOO+@$$$$#+++OO++#$&*--**&**=:169qwrerrrrewwqq0088",
"6551:&$OoX            oooO#*=:168qq98751>:-*$$+OOOOO+#$$%$$$@OOOO+@$$&=-**&$$$*:169qwrerrreeewqq9097",
"6541:&$OOX X        XXooO$%=;159qwwqq88621>-*$++OOO##$$&$$#@OOOOOO#$&&=**$$$$%*;169wwreereeqqq988887",
"6511;&$OoXX  X      XXoO+$*;>59qereeqq99851:=%#++OO+$$$+@+OOOOoOO+$$&&&&&&$##$&-<60qeeereeqq99888887",
"421:=&@OoXoo    o   oooO$&-<28qerrrrwqqqq96,-&$$#++###+OOOOOOOXOOO@#$&%&%$$@@#%=>69qweeeeq0888887666",
"11::=&$OOooXooo.    oOO$*;168qerrrrereeeq951-&%$####@OOOOoXooXooooO+#$$$$##O+#&=<69qeeeeqq8886666623",
",::-*&$OOoXXooo ooooO@$&:1590wrrrrrrrrreq85>=*%$$$+OOOooX       XoooOO+###O++$&-1780weeeq87777555231",
":::*&$@@OoOooXoooooO#%*:1580wrrrrrrrrrreq71:=*%$$@+OooooX       XooooOO#++O++$*:1589wwwq9876525232<<",
":;:=&$@OOooooXooooO#&=:1569qrrrrrrrrrrrw921;=&%$#+OOoooXXX        XXoOO+OOo+$$*-<168qwq0865522521<;;",
"=---&$#+OOOOoOoXoO#$*;12567qrrrrrrrrrrrq51:*&%$$+OOOOooooo        XXoooOo+++$%*->168qqq086211221>;-=",
"&***&%#@OOOOOXoOOO#*->15669qerrrrrrrrrq71:-*%%$+OOOoooooXXX         XXoO#++#$&&=;<5890986311>>>:-**&",
"#$$%%$$#OOOOOXOoO+$*;1556890wrrrrrrrrr92>-**%%$$#OOooooooXX         XXoO++#$$%&=;<368986521;;;-=*%$$",
"OO+@$$$##OOOOoOO+$%*:267990qrrrrrrrrrw61:-*&%%$#+OOooooX o          XXoO+#$$$%&*;>15898651>--*$$$$#+",
"OoOOOO++@OOOOOOO#$*-,588900qwrrrrrrrwq61;**&%$$+OOOoooooXX          XooOO$$$$$&*-><5888751:=&$##OOOo",
"oooooOOOOO@O@O+#%%=:26999990qrrwrreeq95>;=**%$#OOOoooooo  X            X+#$$$$&&=;<5888621;=$#OOoooo",
"XXo oooo OO@@$%&=::136999900wrrreere082:;-**$$+OOooooXoXX             oo##$#+$$&=;1688862<-&#oooXooo",
"XXooXXooOOOO#$&=::156999999qwrrweeee063>:-*&$#OOooooXoXXXXX         ooo##$$$$$&&=;1578851>=%+Ooo o o",
" Xo Xooo OOO@%=-:1559999780qwwrreeeeq731>-*%$+OOoooooXXX            ooO$$$$#$$&*->136675<;*%+oooXXX ",
" X  o.ooOoOO@$&:13567665679wrreeeeeqq721>;*&$+OOoOooXoXXX X       XXoO#$%%$$%*=-;>125651>-*$Oooo.o X",
" X OXo OXOXOO%&:12565553680qwrweeeeq9862>;*&$+OOOooooXXXX         XXoo#******-;:>><2553<;=%#ooXX..  ",
"O   O OoOXOOO$=:,5555535690wwreewwqq86211:=&$@+OOOoOooX          XoooO$&**==;>1<><1252<>=%#OXXXX . o",
"  O  oooOXXOO%=:15555556790qwew0qq87611>:-=&$###OOOoooo         XXooOO#%*=->111<<<1352>=%+oXXXXX o  ",
" XO O OXO OXO$=:115556679990q0096551:-=***&%$##$##@OOoXo o     XXoXoo+#%*-:<1221112551;*#Ooo   XXo  ",
"o   X  O O O@$=:,2566679778866632,:-*$@@@$$@+##@##$+OOoX       XXoooO#%&-:><223323253:=$#ooo XX    .",
" X  O  O O O+$=:125668766665211:;*&$+OOOOOO++@@++##@OOooXX     ooooOO$*=;>>2235255521;*#oo  X  o  X ",
"  X XX     O+&=:135667666321,::=&%@OOoXXXXoOOOO+#$$#@OOoO o  oooOO###*=;><1556675653<-*OOoX   XoXX  "
};
