/* XPM */
static char *result[] = {
/* columns rows colors chars-per-pixel */
"100 100 32 1 ",
"  c #3E7AAE",
". c #3F7CB0",
"X c #407BAF",
"o c #417EB1",
"O c #4582B4",
"+ c #4886B7",
"@ c #4988B7",
"# c #4987B8",
"$ c #4C8BBA",
"% c #4F90BE",
"& c #5091BF",
"* c #5395C1",
"= c #5699C5",
"- c #589CC7",
"; c #5A9EC9",
": c #5DA3CC",
"> c #60A7CF",
", c #60A8CF",
"< c #60A7D0",
"1 c #63ACD3",
"2 c #66B0D7",
"3 c #68B2D7",
"4 c #67B2D8",
"5 c #69B5DA",
"6 c #6DB9DE",
"7 c #6FBCE0",
"8 c #70BFE2",
"9 c #73C2E5",
"0 c #75C6E9",
"q c #77C8EA",
"w c #7ACDEE",
"e c #7BCEF0",
/* pixels */
"            o*-;<>125777553222251<:=**&#OOOooo.OoOoOoXO O OO$&=:,125556566699776632,,=&$O           ",
"            o*-;;<1557775511<11<:;=*%$$#OX o.oOoXOOoO.XOXOOO$*=:,,566666698909876552,:&@Oo          ",
"            #*=;;<115755521<<<<;;*%$$#$#OOoXOooOoooOooooooOO$*=:,26889999900q0099663::&$O.          ",
"            $*=-;<15775321<><:;=*%#####+OOoOoooooOoOOooooOOO$&=:,269999000wwwqq097631:%$Oo          ",
"           O#&=-:157775111<::==**$#O+O#+OO X O OOoOoooooOOO@%*-:,6790wqweeeweewq99651:%%OO .        ",
"          oO#&*;>257777521::==**$$OOOOOOO O oXoXoOoo OXOOO#$&::1269wwwwwweweeeeq09852:&%OO.         ",
"          oo#$*->17799772<:==***$#OOOoOOoOOo.o OoOoooXXOO+#%=:11580wwwwewwewweeq09764::%#Oo XX      ",
"         Xoo+$&=>179999751:==*$$$#OoOOo O. XooOo.ooooOOOO@$&=,1259wewewweweeeewq09964,:&%OOO oo     ",
"     o X  XOO#%=:57909975<:;***$$#OOO   OXXOXoOX O OoXoOO@$*;<357qwwwwweweweeeq0099641:=%$OoO       ",
"o.oX  .  X OO@$=:579q07511>;;**$%#Oo O O  o o  OO O ooOoO@$*;<369wwweewweweeeeq0099752:=%$OOX  o    ",
"oXo X XX  ooO#*;<57907751>::=**$$@O.XX OO  O OOXoO OO OOO@$*:<579weweeewweeweeqq099654:=%@OO.OO     ",
"OoooXo  XoooO$=:1779772<>:::;=**$OOoXX X  O OX OO OX Ooo+#$=:>57qeeeeeweeeeewwqq099964:=$@OOOO..oo  ",
"ooo. .o ..OO#&::2777721::;;;;***#OOO oXXO  Oo O .O OO.OO@#$=;117qweeeeeweweeeq99999964:&%OOOOOoOoooo",
"XoX  XXoooO#*;:227752211;;===;**$#OOOOOOOOOoOO OO.XX.oOOO#%=;>57qweeeeeeeeewq977656642:=$@OOOOOOoOoo",
"o     XOOO@&:<12255542<:;;===*;*&$@@OOOOOOOOoO OOOOOOOOO@#$*;:17qeweeeeeeeeq875223452::=$@OOOO@OOoOo",
"ooXo. OO#$*:,111122521::;;=*****&%##@@OOOOOOOOOOO@OOOOOO##$*;:57qwweweeeewq9711>:::,::=&%$@@OOOOOOoo",
"oOOooOO$%=:<1111122421::;==*****&&&$#++++###+++#@#@OOOOOO#$*:<59qeeeweeewq751>:;;;;;==&&$$$#++++OOoo",
"OO++++$*;15222<111221::::;;******&&$$$@$$$$$$$$$##@OOO@##@$*:<69qweweweq873<:;=*&=&&&&&$$$###+++OOOO",
"%$%$&*-:1555211:12221:1::;=********%$$$#$$$***&$$$#@O@@OO@$=:169wwwwwwq975<:==**&&$$$##$$$$$@#$$###$",
"==-;:<15797521:112111112>:;=*=;****&&$$$$&***=*&%$$##@@O@@$=:26qwwewqq973<;-****$$@+O@+@#$#$$$$$$$%*",
">>11366999755111211112221:;===;=-***&%$$&&**==**&%$$@OOOO#$*:17qwqqq99751;=**$$$@@OO+o++++#@$$$$&*=;",
"2566899qw0975522211125555<::;;;=---=**&&&********&%$@OOOO@$*;16988777651>=**$###OOoOooooo+#$$$&&*-;>",
"56999qwwwq9955211111255655<1::::;-;--********&&*&&$$@OOOOO$*:25655512111=*$##OOOOOoooooooO++@$$%*=:1",
"5799qqwwwww9755111112557752111:1::>>:-==***$$&&&%$$OOOOOO#$*:111>:::><:=*$OOOoooXXOXoooooOo+#$$%*=>2",
"6780qqwwwwwq9511:111245564211<121111,:--==*%$&%$#+OOOoOO@#%=::::=*&*==;*$OOoXoooXXXXX oooOO++#$&&-:1",
"55690qwwwwwq752<:::::112221112555531<,::-**&&$$$#OOooooO@$*::;=*$@+#%**%+Oooo   XXX XooooOO+++#$&=:1",
"33679qwwwww075<>:::=;;:::::111555521>:;-==*&&$#+Ooooo.oO#$**=**$OOOO#$$#OooX    XXXXX XooOoOOO$$**:1",
"135689qwwww861>;=*=%****=**::<25651,:::-==*%$#+Ooo  .  O#$*%**$@OOoOO@#OOOo .   XXXX o.oooOOO+#$&-:<",
"113678qwwwq82<;-%%%$@$$$%%**=:15651::-===*%$#OOoo  .   XO$#$%$@OO .oOOOOooX         oXooooOOOO#%*-><",
"1226780qwq85<:=*%%$$@@@@@$$***:155,:=&&&&%$@OOoo       oOO#$$@OooooOXoOOooXo        o ooOoOOO#%&-:<1",
"1133689qq861:-**%$$@@OOOOO@@$**:11:=&%$$$$$#OOo        oOO#$#Oo.o oXXOooo.          .ooOoOOoO$%=;111",
"3233579q072<;=*$%@@@OOooOOOO@@$;>:-&&$$$$##+OOo       . oOO#Ooo. oXXo ooX X       o o oOoOoO+$*;>111",
"2533589986<;*&$$$+OOoooXoooOoO@&===&$$$@##@+OX.        .OOO@O  . ooXo XXXX   X  o  oooOOOoOO$%=:1111",
"3555578861>-*%$$+OOOOoXooXXXoO+$$&&&$$++@++OOooX    X O OO@@O X  ..oooOXX   .  X ooXooOooOO$%*->1255",
"523356765<:=&$$#+OOOooo.XoXoOOO+@#$$#@++OOOOooo       XOO@$OO o o.oooooXo o X .ooXoOoOoOoOO$%*-;1155",
"211133553<;*&$$$+++OooooXoXoooOOO@#$$++OOOOOooXXoX    OOO$$OOooX..oooOOXoXXXoXo ooOoOoOoOO$%&=-><111",
"111221312<;*%$%$$$++OooXooooXOOOOO+#++OOOOoooo.oX  .ooO#%&$+OO OooooOOOOooXoXooooXOOooOoOO$$&*-:1<1<",
"<1<1<1<1<<-=&%&%$$$+OooooXooOOOOOOOOOOOOoooooooooooooO#%=&$@OOO ooOOO@OOOooXoOOOOOOOOOoOO+#$&*-;::1<",
"<<<<:<<<::-=***&&$$$OOooooOOoOOOO+O+OOOoOoooooooooooO#&==*&%$@@OOOO@#$$OOOO.oOOOOOOOOOOoO++%*=--;:::",
";::;::::::;===**%%$$OOOooooOOOOOOOO+OOOOooooooooooOO#&==-=**%%$OOO@#%%$$OOOOOOO#O@OOOOOOO++%**=-===;",
"--=;=-;;:-;;;-**&%%#OOXoOXOOOOOO+O#OOOOoO.OoooOoOoO+&*=-:-=*&&$@O#$%*=%$#@OOO#$#$#@@@OOOOO$%&*==****",
"*==*====--:::;=*&%$+OoooXOOOOO++@+#O#OOOOoOOOOOooO+$&--::-=*&&$##$%*-==%$@@@#$$$$####O@O#$$%&**=****",
"*******==-:::;-*&%+OOoooXOOO#++#$##OOO#OOOOOOOOOOO@&=--:-==&&$$$$%&=::-%$$#$$%%$%$$$$%$$$%%%&***$$**",
"$***%&&&*=:::;;=&$OoooooOO+O+++@##$####@#OOOOO@O+$&--:---=&&&&&&$*=::::=&$#$$$&$&&&*******&***=***$$",
"&%*&%$**==--:;:=&#OOooOOOO#####$$#@@@$#@#OOOO@O$$*-:;-=-=*%%$&$&%*==:::=*%$$$$&&%&*=-::;===*=*****$$",
"%%&%****&=-::::-&$@OOOOO+######+#@@@##@$###@@#$$&-;-=*****%$$$$$%&&=:::;=&%$%$$&&&*-:,1::::=-==*****",
"%%&*&***==-:;::=*$@+O+O##$$$##$+#O@@##@$$#$##$%**-;-=***&$$$$$#$$%%*:::==**%%$%$&&=:<121<<::;-==***$",
"%%&***=-----:::=*$#@@##$$%$$$$$+@@@O##@$$$$#$$**-;;==*&*$$$#$$##$$%==::=**&$%$&%&&=:12222<<::-=&*$$$",
"$%%&**=--;:>>>;-=%$$$$$%%%%%%##$#++@@$$$%$$#$%*=--;-**&%$$$$$$$$$$%*=;==*&&&$%*%*&->1222311<:-**$$$$",
"$$%&&*=-><11><>;==*%&&&&&*%%&&&$#@@@@$$%%$%%$$**=::=-&&$$$$%%$$$$$$$**=*%*&*%**&&*-;>111211<;-*&$*$$",
"$$%%&*=;>111111>;-***&&&&*&*****%$$$$$%%$%$$$**=-;:=*&&$$$%&&$$###+$$$*&$*&*&%*&&*=-;>>>>11;-**&*$$$",
"$$%%&*=>><222221>-*&&&%%%%%**--=*$$@$@#$$$$$$%**-:;==&&$$$$$$$$+#O++@#$$&&$$%$$$$$%=-;>>:>;---*&**$$",
"$%%&*=-;:>112321>=&&%%$%%&**-;;;*%$####$#$$$%&*==;;=*&$$#$$$$$@++++++$$$$$$$$##O+#$&=;>>;;---*****&%",
"%%&**=--::><111<;=&&%$%%%&*=;;>;=%&$$#$$$$$****==--=*$$##$$$$$+++++++#+$$$$$##OOO$%&-;;;;;-==****$&$",
"%&&**==---::<<1>-*&%%%$$%%&*;;>;=*&&$%%$$%*=**==;;=*$$##++++$@@@+#++$@#####OOOOOO#$&->;>;-*=**&&*%%%",
"$%&**=*===--;;:-=*&%%%%$#%$*->>;-**&%%$$%%*====;:-*$$#@O+O++++$##+$$#$+#+#OOOOoOOO$%;;;;;;=**&%%*%%&",
"%%&&*=**&*&******&%&%%$$$$#*=:::;=*%$&%&&*=--=;;-*$#O+OOOOO++#++++@$#@#++OOOOoooOO$&=-;>:--***%&&*&%",
"%&&&***&%%&$$$$%$$$$%$%$###$&=::=*%$$%$%&==;;:;=%#OOOOOOOOOO+OO+++##@+O#OOoOoXooO#$&==->::-********&",
"&&&&**&&$$#++++#+#$$$$$@#@@$%=:=*$$#$$&&*==::;=*$+OoOoOoooOOOOOO++++++OOOOOooXoO+$%&&=-:::---=*====*",
"==**===&%$+OOO++++##$++OOO@@%&&=$$##@$%**=--;=*&#OOoOoooOooooOO+O+++OOOOOOoOoooO#%%%&*-;;:-:;;-;---=",
"----===&%@++oOOOOO++@OOOOOOO#$%%##OOO$&&**=:-*&#Oooo.ooooooooOOOO+OOOOOOOoooooO+@%%%&===--::::::::::",
">-;-;==&$#OOOOoOOOO+OOOOOoOO@#$#+OOOO##$$&*-=&#OOoooooooooooOOOO+OOOoOOOoOOoooOO$$%%&**&=-:,:>>,:<<:",
">>>>;-=&$$+OOOOoOOOOOOOXoooOOOOOOOOoOOO@@$*=&#OOooXooooooooOoOO++OOOOOOoooXoXooO+$$%%&&&=->1<1,<111<",
"1>>>:-*%%#OOOooOOoOoo.oo...oOOOOOooXXooO+$%%#OoX   oXoooOOoOOO+++++OOoOOooXooooO+@@@$%%&*-,112221211",
"121>:=*&$@OOOOOoOOXXXO o  ooOOoO Xo XoXOO$$@OO  .  XoXoooOOo++##$#+O++ooooX oooOOOO#$$$%=-<253521111",
"2221>-*&$@OOOooOoXo.o XX XX  oooOo o ooXO$@Ooo       oooOO++++#$$$$#+o+oo. oo ooOOO##$%&=;1566555155",
"3221:-*%OOoOooOOOoXoX   XX oXo oXXoX XOOO@OOoX       ooOO++#+#$$&&&&$+oo oo ooooOO###$%&=:2687755555",
"222<:-&@OOOoOoo  o  X      oXoXX O  X  O@OOooX       ooOO##$+#$%&&==&@+OoOoOoooOOO##$$&=:,5999765512",
"111>;*$+OoOOOooX           oooooXo X oOO@+Ooo       .ooO+$##$$$%&=>>=%@OOOOOXOOOO#$%%&==<280q9761515",
"111:=%$OOooOoooXX       X XoOoo.o.XXo O@#OOOo     X XoOO#$$$$$%&->11>=%$#@OOOO@O$$$%%==:168qq9865511",
"1<:-&$#OOOoOO X          . ooOOoo.X oO@$$@OOo      XooO+#$%%%&*-;135,>=&$$#@@@@@$$%&*=:158qww0865511",
">>-*%$+OoOOooooX X       XoOOOOOO OoO@%$$$#Ooo     ooOO+$&&*==-;>1363,>;=*%%$$$$$%%*=:,58qwwwq875551",
">:-%$$++OoOooXoX oX     oooOO#+OO.OOO%%*&%$OO .   ooo$$$$*==-;;>>156511>;-=*&&&%***=;<168wwwwq086521",
"1;-%$#+OOOOoooXX     X X oOO+$$#OOOO$*===*%@OOo.ooooO$$%&*==;>>>12556311<>::::::--;;<<380wwwwwq87651",
"1:*&$##OOOOooXX o. XXo XooO+$**$@#@$*;:;-*$@OXo.ooO#$$%&&**--;>11255531<<122211:>:>><158qwwwewq99765",
"3:-*$$#+OOOoXooXooo o oXoOO$=--=****::::=*#OOOoOOO#$%$%%&&==--><11112111125565521<<<1258qwwwwwqq9965",
"1>=*$$$++OOooo .oXooooOOO+#*-:>::::1111:*%@OOOOO##$%%%&%%****=;;>>>>>><113566642111<22580qwwewqqq965",
"1:=**$$$++OOoooooOOOOOOO@$&->1231555661:*$@OOOOO$$%%%*%%&******=;--;;::><14565521111125680qwwqq09775",
"<:=*$$$$##OOOoO.OOOO@#$$&*=:15687799971:*$OOOO@#$$********%&%%&*===---;;::<555521122122578qq00886651",
":=*%&$$$##@+OOOOOO+@$$&**=:156999qqq972:*$OOOO@#$$%****==*%%%$%*&===-=-==;<15431111221125790886221<:",
"&&%$$$$#$@$+++OOO#$$%%===:,5690wwwwe062:&%O@@O##@$$&&*=-=&&$$$$%&***=-=**-:<1<1<12211112568651>:;-==",
"$#O@$#$$##$$#@$$$$%***==:,579wweeweq061:=$@+#O@O+@$$&&&&&%%$$$$$&********=;:<<<11221<<125661>-*%&$&$",
"OOOO+###$$$$$&&&&***=*::<2690wweweww95,:=$@O@OOOO##$$$$$$$$$@$#$%&&*****==;::><12211<<1222<;*%+O+++O",
"OOOOO++@##$$%*=-:;:==::1590weeweewww95,:&$@@OOOOO+#@++OOO@#O@@#$$$%*****==;;:<<122211111<>-%$OOooOoo",
"XoOOOOOO++$$&-:>:<::<1269qeeeeeeeee072:-&%@OOOOOOO+OOOOOO+OOOO#$$$$*****==-;:<15522111<<;=$#OoooXooo",
"OooOOOO+O+$$&;,245212569qweeeeeeeew065<-&%@@OOOoOOOOOooOOOOOOOOO++$%*==*==-;><25555211<;*##oooXX   o",
" OOOOOOOOO+$*>1565657990eeeeeeeeeee092::=%@OOOOOoooOOoXooOOOOoOOOOO$%*=--=-;:<1566522<;%#OoooXXX Xoo",
"X OXoOoOO+#$*>569999999weeeeewweeee062::=%O@OO oooooooOOooo oX ooOO$%===;;;:>1578862<;*$OoXoXXXXo.oo",
"OXO OXOOOO+$&,368909qqqeeeeewwweeee074,:=&++OoooooOooOoooXoo o oooO%&&--;;:>15589861>*$+Oo.X X o   o",
"OXo  OO OO+$&,168890qqeeeweewwweeew064::*$+OOOoooooooooX.o.oo oXoO+%%&=;:><<25899831-%$OoXo    o   o",
" X O O OOO@&->,67890qqeeeeweeweewww965,:&$#+ooooooooooooooXo.o ooO#$%&*-;:<558qqq73<-$$ooo   XX     ",
"  X     O+@&=:,57800qqweweewwwwwwwq755,-&$@OOOoOoOoooooooXo oXoooO#$%&&=;:1579qq861>=%$Ooo X   o    ",
"     XO XO@$&:,36800qweeewweewewwq9621:=&$+OOoooooooooooO oXooXOOO#$$%*==:<37909962>-%$+oo  .       ",
"         OO@&&,36800qweeeewwwwwewq751<:=&$@OOoooooooooooXXoOOoOOOO#$%&&*;:135789861>-*$+o           ",
"    X    XO@&-:15780qweweeewwwwww9621:-*$@OOOooXOoooooooooOOOOOOOO$$&===;:155678761<;*%#oo          ",
"          O@&&:15670qweeeewwqqwq9751::=$@OOOooooOoOOoXoXXXOOOO+O##@&==;;:>11357863<:-**$oo          ",
"           X@*:<56990qwwwwq00009964::=&$@OXO  oOOOOO OOXXOXOO@@@#$&*-;:>>>12357751>;-=*#O           ",
"            @&:<45669000000999979521:==$OOO oOoo OO O  OOXOO@$$$$&&;:<<<><22557521<-;=*$Oo          ",
"            @%-:2266999999966666651::=&$OO Oo OoOOO XXO  OOO@$$%&*;>1111<233577551<;;=*#o           ",
"            #&:<1245666996655554541::=&$OOO OO O OOOOX OX OO$&&=-:,131333367775721<<:;*#o      .    "
};
