/* XPM */
static char *result[] = {
/* columns rows colors chars-per-pixel */
"100 100 32 1 ",
"  c #3F7AAE",
". c #3F7CB0",
"X c #407BAF",
"o c #427EB1",
"O c #4583B4",
"+ c #4886B7",
"@ c #4988B7",
"# c #4987B8",
"$ c #4C8CBB",
"% c #508FBD",
"& c #4F90BE",
"* c #5091BF",
"= c #5395C1",
"- c #5699C5",
"; c #589CC7",
": c #5A9EC9",
"> c #5DA3CC",
", c #60A7CF",
"< c #60A8CF",
"1 c #60A7D0",
"2 c #63ABD3",
"3 c #66B0D7",
"4 c #68B1D7",
"5 c #67B1D8",
"6 c #69B4DA",
"7 c #6DB9DE",
"8 c #6FBCE1",
"9 c #70BEE2",
"0 c #73C2E5",
"q c #75C6E9",
"w c #77C8EB",
"e c #78CAEC",
/* pixels */
"          oO$*-;:>25677877776665332>>;-$#OOOOOO##++++OOoOoO+$=;>222566777799977652,>>-=$+O.         ",
"          XO$**-;>2257776765666332<>>;-&@OO.oOO++++#OOOooOOO$$=;>>22677899800777622<>-=$$Oo         ",
"           X+%**;><36766565565662<>;--=&#+OOOOOOO#O+OOOoooOO+$=->>24679890q000977532,;=*$+oo        ",
"            O$**=>247766553222222>;*=**$$OOOOOOoOOO+OOoooooO+$$-:13680900qwwqqq08762,>-*$+oo. o     ",
"          XoO+$*->277774432<,>,>>:=&$$$$$+O.O.OoOOOOO.oooOoO+$=;>247900qwweeeewq97642>;=$$oooX     X",
"         XXXO+$*;>279965622>>>::;=*$$$#$$@OOOOoOOOOOO.ooooO++$-:,477000wwweeeew097752>>-$@OoOXo.    ",
"          XXOO@%->270997632>-----=$$+++###+OoOOOOOOO..ooOOO+$=;>26790wweweeeeeeq07752<>;=$+ooOX.    ",
"         XXXXO+%->580099762>;----=$$#+++#@OOOOOOO.O.oOOOOO+$=->14690wwwweweeeeeq987642,:=&++Oooo    ",
"o   X .o XXoOO+$=>59q000952>:;---=$$++++++++OOOOOOoooOoOOO+==:12590wwweweeeeewq00976322;=%$+OO.  OOX",
"O OXoo   XXooO+&;,59qq00732>:;;--=$$++O+++++++#OOoOOooooOO$=->2570qweewweeeeewq0997763,:;%$$+OOOOOXX",
"O oo . X Xooo+$*:1390q09622>>;;---$$+O++++O++OO+OoOoOooOO+$=:>2690weeeeeeeeweeq0009762,:-$$++OOOOOOO",
"OOoO    XoXoO$$=:149909742>>>>;;-=$$++++OO++++OOOoooooooO#$-:>257qeeeeweeeeweq0q0009752;=$$++O+OOOOO",
"ooo       oO+$=;,25779952,,>>>;;:-&$$$$+++@@+O@OOoOoooOO++&-:>1570weeeeeeeeeq0000000862;=$##++++OOOO",
" o .  XooO+$$=->,2357752<,>>>>;;;-=*&$$$@@@@++OOOOoOooOO+$=-;:1260weeeeeeeeeq9777899862;=$$$$@$++OOO",
"O.     o++$&=-;>,1355542,>>:>::;:-===&&$$@$@+++OOOOOOOO++$$==->260eeeeeeeeeq97654777762>=$$$+$+#@OOO",
"     XoO$$==-;::>,223322,,,::::;:---=====&$$$@@+#+++OOO+++$$=->169eeeeeeeqq97322223332<>-=$$$+++@OOX",
"oO  ooO$==;;:::::>22222222>:::;>:::-=======$*$$$$$++O++O+O+$&->159qwwwwq09762<>>>,2,<>>;-**$$$$$+OOX",
"OOOOO+$&;>>,>>:->>>>>22252,>>:;;>:;-=====----*&$$$+++++OOO+$&->2590qq009752<>;;;:::>:;-;=****$$$@++O",
"+$@$$$=>1252,:;-:>>>><2352,>:>;>:;;-;-----;:-==*$$$++OOOoOO+&;>27909999742<>;----;-=====***$&$$$@$++",
"$**=->125662>>;--:>>>22672,>::>::;;::-----;>;-==&$@$++OOOoO$*:12788767542,>;-=====*%%%$$$***&&*$$$$$",
"--:>256788521>:;:>>>>257742>>>::>>:::;--;-:;-====$$$+OOoooO+&;1577555222<>;=====*$$$+@$$$$$*$*$*$&&*",
":>22689999731>::::::>267762,>>>>>:>>>::;----===*=&$$+OoooOO+=;25532222>>>-=====$$$++OOO+@$$*%*&$*&=-",
">127800q09962>>::>::>267862<,>>>>,>>>>>:----=&&*==$$+OoooO+#=:221>>:::::;=*$$$$$++OOOOOO+@$$*$$*&*=>",
"2257900qqq9621>:;;;>>25776422<22232221>:--==&&&$$$$@OOOOOO+$=:>>;---=-===%$+++$+OOOooOoO++$$$$$$$=->",
"226780qwq09622>:;-;:>,2454222222365332>>;-==&&&&$$#OOOOO++$$--;=*$*$$=*=&@+OOOOOOoOoooOOO+$$$$$$&=->",
"125670qqq09621:------;>222221122676532>>;--=&&$$$#OOooOO+$&=--=&#+#+##$$$+OOooXooooooooO+##$$+$$&=->",
"2255790009732>--=**$**-:;>>>,225676522>:>--=*&$@+oooooOO@&*===&@OOooO##$+OooooO oooooOOOO+##+$$$$=->",
"222268909762>:==$$$$$$*$**=-:12678732,>>;;-=*&$+OoXoooOO$$***$@Ooooooo+OOOOooX  oXoooooO+++###@$&=;>",
">22237899722>-=$$++OO+++@$$*=>2688622>>>>--=$$+Ooo.XXoo++$$$&$OX. ooooOOOO .  o oXooooOOO++++$$$*=:>",
",>222577742>-=$$+OOO+O+++@$$=->2772<>>;;;-**$+Ooo    Xoo+@$$$OoX o . XoOoOO. X.XXoooOOOO+++++$$&=;>>",
">>12226752>;=$$$++O+OOOOO++$$$-232>>;--=-=*$$+Ooo     ooOO+++oX      oXooOX . XXoooooOO+++++@$*=;>>>",
">:>>22552<:=$$$#OOOOOoXoOOO++$=:2,>;=====*$$+Ooo X    oXOO+OOo    . X ooOOoooXXX OooOOO++#+$$$*-:>>:",
":>:>>2322>;=$$++OOOX OO oOOOO+$-:;;-===%=*$$OoooXX   XooooO+oo      oXXOOXXXXoOXOoOOOO++@$$$$=-;>>>:",
">:;>>222>:-&$#++OOOOOX  .o.oo+$&====**$%$$$$+ooXXX    ooo#+Oo.  X    OXXXO O O OOOOOOO@@@$$$==;>11>>",
";-;:>2221:=&#+OOOOO   XOooooOO$$$$%$$$%$$+++OOooX  Xo.ooO#+oo    .XXX OOO OOO.OOOOO+++$+$$**=;:>21>>",
":-;:>>12>:=$+++OOOOOXO O.. oo++#$@$$$$$$#O+OoooooX  oooO##OOooX   XXOOOOoO OOOO+O++++++$$**=--:>,,>>",
";-::>112>;=$$+++++OOOoXXooXOoO+++++$$$@$+OOOOoOXoXooooO#$$OOooo. oo.O++OOOOOO++$+++++@$$$***--->>,>;",
"---;:>>>>>=&$$#$++++OXXXo.XoOOOOO++++++++OOOOoOooooooo#$$$+OooooooOOO+#+++O+++$$$$$$@$@$***---;>>::;",
"==-=-:>::;=&$$$$$$++OOoXoXOoOOOOO++++++OOoOOOOOOooooO#$=$$+++OOOOOOO+$$$+$++@$$&$$$$$$$$&**=--;;;===",
"$=$=----:--=*&&$$$@++OOOXooOOO+O++++$++OOoOoOOOOOoO++$$==$$$$#+O+O+$$&*&$$$$$&&===$$$$&$**=---;-*%%*",
"$$$&====--;===*$$@++OOoooooOO+O#++$+##+OOOOOOOOOOOOO$$$**$$&$$$+$+$$=;--=*$%$=====&&$&=&&==--;-=%$$@",
"OO@$$=&=-;>>-==$$$+OOXooooOOO+##$$$$$#++OOOOO++O+O#$$$***%$$$$+$$$$=:>>>-=%$==--===========----&$$++",
"OO+$$$&&=;>>>-=$$$+OOooXooOO##$$$%%$$+++OOOO+++O++$$$=*&*$$$$$$$$==:>22>-====;;;;-=-;;;------==&$$+O",
"OOO++$$$=:>>>:-=$+OOoo OoOOO+#$$***$$$$$+O+OOO++#$$%*$$*=$*$$$$$*-:,252,:--==-=;;:>>>>>>;;----==$@Oo",
"OOO+++@$=:>>>>:=$++OoooOOO+++$$***&$$&$$+++++++$$$&&&$$*=&$$$$&&=:,24521>;------>>>22221>>---=-&$#++",
"OO+O++$==:>22>>:*$+OOOOOO+++$$$$*$$*$&$$$$#$+@$$$==$&$&*$$$$$$$&-:>23532>:;-=-=;;>2367531>>>;-=&%#oo",
"OOO+O$$&->>>12>:=&$$++++$$$$$$$=**$$*$$*$$$$$$%*=&=$$&$&&$$$#$$&=:>,24211::-===-:>15777532>>;-=&$+OO",
"oOOO+$$=;>,1222:-=&$$$$$*$$$%$*&%$*%$**$$$$$%$**&==&&$&=&$$$$$$$*=;>221,>:;-=-=-:>157776532>;-&$#OOO",
"OoOO#$&=:>22222>>-==&&=**=$**=***&**&$$$%$$$$%=*===$%&**$$$$$$$$*=;>><>>;;---=;;;;1566666321;==$+Ooo",
".OO+$$==:1235322>>;-=-========--===**%$$$$&***=*==-==*=$*=&$$$$&*=--:>>-=---=;--;>123366631>==$$+O+o",
"ooO+$$=->235545321:-;------=->>>--=*$$$$*&***=====-=**==%***&&$&====---=========-;>>2233321;==$$+Ooo",
"OOO+$$=;>25667765>>:---=---:>2>>>--*$$$$$$$**$**$==*==$$$$$$$$$$&&$=**=&&&&&*=*%=-->>22321>;==$+++oO",
"oOO#$&-:>236777752::-===-->>>222>;-&$$$$$$$&$=$$*=&=$=$$$$$$*$*$$&&$&*$$$$$$$$$$$===>>2211>;=$$++oOo",
"OO+$$=-;>>22578632>;---=-:>>1232>>;=$$$#$$$&*=$*$*==*$$$$$$$%$$*&&&&&&$$$$$$#+++@$&=>11111;-=$+OO+OO",
"O++$*=-->>>1266632>:--=--::>235322>=*$$$$$$=$$$$%**%$$#$$$$$$$*$&$&&&$$+#++OOOO+O@@=->1111>==$+++OOO",
"OO+$==--;->>22322,>:---=--->12532>;==$%$$$$=*=$**=$$$#+++O#$$$$%$&***$$+++OOOoooO+@$-;>>>>;=$#+++OOo",
"OO#$=---=;;;>>>>>>::---===-:<233>>-&&$$$$&&*=$&$$$$@+OO+O+O++$$$&&&&$$+++OOoooo.OO$$==;>>>:=$$+++OOO",
"O+#$$====----;;;----;-;==*=->22>>=&$$$$$$&$*&&&$$$+++++OOOO+++#$$$&$$$++OoOoo.ooO+#$==->>>-==$$$$+Oo",
"O#$$==----=====&===---==&&=->>>:=&$$$@$$$&$&&&$$$+OOO+O+OOOOOO+$$$$$+++OOOOooooOO+@$$==;>:;-==$=$#+O",
"$$$$=----==&*&&&$$===-*$$&*==--=$$$++@$$$$&&*&$$+OOOOOOOOOoO++$#+$+++++OOoooooOO++#$$&=-----====%$#$",
"$$==-;--====&&$$$$====$$$$$&&=*$+++O+++$$$$&&$@+OOoOOOOOOoOoO+####++OOOOOoooOOO+@@#$$$=&==:;----=**$",
"===-:;;-==$$$$$$+$$$$$$$$++$$$$+OOOOOOO+++$&*$+OoOoooOOOOOOO+++#++++OOOOoooo..OO@#$$$$$$==->:::;===-",
":::>:;;====$$$$+$$$$$$++++++++++OoOooooOO+$&&$OOoo.OOooOOoOO++#+##+OO+OOoooo.OoOO#@#@#$$&=:>>>>>;;;-",
":>>>>;-====$$$@++@+$@++OOOoOO+OOo.oo XoXO+$$+OXOXX .ooOOOOO++$#$##+++OOOo.o.oooOOO++@++@$=:>12>::;-:",
">>1>>>--==$$$$+++++O+O+OoOoOOOooooX  XXoO++++oo X  oooooO+++@$$$$$$+@+OOo.o ooooooO+++++$=:>22>>:;-;",
">122>:-==$$$$++++O+OOOoOooOooOooXXX  X.XOO+Oooo    o.ooO+++$$$$$$$$$$$O.oX.ooooooOOOO++#$-:222>>:;;:",
":>2>>;==$$$#++OOOOOoOXoooooXoXXoXXX    XO+OOoX ..   ooOO$$$&$$======&$+Ooooo.oXoooOOO+$$==>>222>:;;:",
":>>>;==$$$#$#++OoOO.ooooXXOOOOX     . XOO+OXOo    o ooo#$$&&====-;::-$+OOoOoooooOOOO+##$=->1232<>>:>",
"::>:-=$$++@++OOooOooooo. O Ooo         o++OOX .    XooO#$&&=====:>>2>&$+OOOOoooOOOOO#$$&=:226422>>>>",
">>>;=$$$++++OOOOooooXX .  OOoooX  X   O++++OOo  X   oo+#&&=-=--;>>33>;&$$$+OOOOOOOOO#$$=->2566321,>>",
">>-=&$$++++O+OOoo.o   oX OoOOo o X  Xo+@$$+OO    X.oOO+$&=-;;;>><3773>;&$$#OO+O+OOO+$$=->247775322,>",
">:==$$+$+++OOOoOooo X  XXoOOOOOXo o oO$$$$$+Ooo o ooO+$$=-;;>>>2267762>-*$$$#++++++$$=->2279977622,>",
">;=&$$$+++++OoOooo.oXXXXOoOO++Oo...oO+$==$$$+oo.oooo+$$==-;;>>>2368762,:-==&$$$$@$$$*=>>257009863222",
">-=$$$$+$++OOOooooooo o .OO++@OOOOOO$$====$$+Oo.ooO+$$$==-;:>>233786522>>>>::-==$***-;>23790q0976222",
">-=$$$$$$#+OOXOooO ooOoOOO+$$$$+++++$=--=$$#OOoOoO+$$&**=--;;>235676322122222>:;----;:<2690qwq076521",
">-=&$$$$@$++OOXoXOOoOooOO+@$=*$$$&$=-;;==$+OOOOO+#$$$&&*==-;>>233363222<2255521>:;-;;><3690qqq087622",
">;=$$$$$$$++OOooOoOO@++$+$&=--==---->>:=$#OOOOOO#$$&&&$*==-;;>>2222222,22267752>:::;:>,2600qq009752,",
":-=&&$$$$$++OOOOOO+@$$&$$*=-;:;>>>>222:*#OOooOO+$$**&&*==---;>>>>11>>>2>2368852>::::;>>25700q008722>",
"-==&$&&*$$$$++OO+#$$&*=**=->>><2222562;*#+ooooO+$$===*==;--;;;;>>>::>:>>>268752>:>>:;>>23780998622>:",
"=&$$&$&$&$$$$++@$$$======;>,2323568751:$$OoooOO+$$$*===-;;--;;;>>>:>:>:>>256732>>:>:;;>>36777632>:--",
"$$$$$&*$&&&$&$$$$*=====--:22557768075>;&@+OOoOO+#$$%==-;:;---;;;;;:::>:>>236622>>>:;-;>,25652>>-==*$",
"@++$$$*%&**===---------;>125797970863>;&@OOXOO++#$$$*==;:;;-==--;;::::::>>36322>>>::-;:,222,>-*$@#$+",
"O+++$$$$&**=-;:::::;;::>2268900qqq05<>-&$+OOO++++#$$$**=----=-=--;:::::>:>23222>>>>:;;>><>>;=$OOOOOO",
"oOO+$$$$$&==;>>,,22>>>>25790qwwweq85<>-&$++O++O++#$$$$$$&=*=====-;::::::>>22222222>::::::;=*$OooXoXo",
"oOO#$+$$$$*->>23432222579qweweeeew05>>;&$$++++OOO++++$+$$$%*====--;;::::>>>>2232322>::;-==$$OoXX  oX",
"oO+++$+#$$&=><6777636660qeeeeeeeew053>;=&&$+OOoOOO+OO++$@$$$*$$===-;::::>>><2366622>>;-=$$$OoX    oo",
"oOO+++++$$$=>26809888780weeeeeeeew073>>=-&$+OO.OOoOOO++++#$$$$$$&=-:::>>>>>23676632>:;=$$+ooo X  . o",
"OOO++++++$$=:2690000000qeweeeeeeew076>>;-&@+OOO ooOOO+OO+++O$$$$$*-;;:>>,>,26607752>;=$+OoXo  X  ooO",
"OOOO+++++$$=;257890000weeweeeeeeew075<>;=$+OO.OXoOOOOO+++O+O++++$&=;;;>>>2237000852:=$#OOoo    oooOo",
"OoOOOOO++@$-;,367900qqweeeeeeeeeewq062>>=$OOOOXoOooOOOOO++++++O+$$=-;;;>>>2670qq952;=$+ooXXX o...ooO",
"oooOOOOO$$&=;<2679900qweeeeeeweeww0752>-=$+OXOXOXOoOO++++++++O++$&=-=;;;>25800w086,-$$OoXXX  .o     ",
"ooooooO++$*->>3467990qeeeeeweewew0763>>=&$OOOoOXOoOOOOOO++++++O++$=-;-->>268000083,=$+OOo   Xo o    ",
"oXXo.ooO+@%=:,2557890weeewweeeew0863>>;&$+OOOO OXOOXOOOO+++#++++$&*-==;;><57900093>-$#+oo   o.      ",
" oX ooooo+$=;>226779qweeeeeeeew00762>;=&+OOOoOooooOOOOXOO+++++++@$*-;;-;>236777073>-$#+oo           ",
"X   ooooOO#%-:>26699qweeeewwwq09065>>=&++O.OOXXXOOOOOOOXOO+$$@$$$&-;>>;>,233578072>;%$#o            ",
"     XXooo+%=;>245790weeeeww0009653>;&$OOoO XXOOOOOOOXOOoO+$$$$$&=;>>2>>2223468862>-=$#ooo          ",
"          +$*-:226770qqwwwqq9907632:-$$OOoXoooOOO+OOOOOoOO+$$***-;>122222334667732:-&$$+            ",
"          O$*=;>236779000009997752>>;=$+OOOoOoOO+++OOOOoOo+#&---;>1236665365667632>-=*$$O X         ",
"         XO@%*;>>22577990979977622,>:=*$OOoooOO+++++++OOoOO#*=-;>>2566666767776632>;-=*$OOX         ",
"         XO+$=-:>22467799977766452,,:;=$+oOoOOO++++OOOoOOOO#$-;>>23336676788777622>>;=*$+O .        "
};
