/* XPM */
static char *result[] = {
/* columns rows colors chars-per-pixel */
"100 100 30 1 ",
"  c #3F7AAF",
". c #3F7CB0",
"X c #407BAF",
"o c #427EB1",
"O c #4583B4",
"+ c #4886B7",
"@ c #4988B7",
"# c #4987B8",
"$ c #4C8CBB",
"% c #4F90BE",
"& c #5091BF",
"* c #5395C1",
"= c #5699C5",
"- c #589CC7",
"; c #5A9EC9",
": c #5DA3CC",
"> c #60A7CF",
", c #60A8CF",
"< c #60A7D0",
"1 c #63ABD3",
"2 c #66B0D7",
"3 c #68B1D7",
"4 c #67B2D8",
"5 c #69B5DA",
"6 c #6DB9DE",
"7 c #6FBCE0",
"8 c #70BEE2",
"9 c #72C1E5",
"0 c #76C6E9",
"q c #77C8EA",
/* pixels */
"        XoO#$&*=;:<3456687665552111:::*%#@+OOO+##$$@#+OOOoO#$*=;:>,13566669766652<::==*$$@O . X     ",
"         oo+$$&*-:<3555665666552211<::=*$@OOOO@@#$$#++OOoOOO#$*=-::<25667788766521:::**%$#OOXo.     ",
"        XXoo+#$&=;,155555555655552<:::=*$@+OOO++++@#+OOooOoO+#$==:>136676899977552<::=**$$OOo o     ",
"         XXoO+$$*:,256555543334511::***&$+OOO+OO+@@#OOoooooOO+$*-:<156770000q9965521::=**#Ooooo     ",
"          oXOO+$*:<56655221111111>:=&%&%%#+OOOOOO+++OoooooXoO@$=->12666800qqqq096521<::=*$+OOXXX   X",
"           oo+#$*;<58755422<,>:::-=&%%$$&#++OOOO+OOOoooooXOO+#&=>1356680000qqq9965521::=*$++OoOoo.Xo",
"X           oO+$*;<58866551<:-:::-=%$$$$$%#+OOOOOOOOoooooOO+@&=->15568000qqq0q0975422:::=%#+OOoooooo",
"ooX X o.   ooO+#&;168876751>;--;-=&%$$$%%%$#++++OOooOoOooO+#&*-:1156700000qqqq096642211:=*$@+OOXoooo",
"oo..o.oX.  ooo+#&-169999861<:;;::-*&&$$$*&$$$@+++oXOOoXOOO+$*=:>1578900qqqqqq008655521,:=&&$#+OOOoOo",
"oooo o   o ooO#$&:269909761>::;;:==&$$$$$&$&$$#+OOOoOoOOOO$&=;>157990q00qqqqq098965551<:=*&$@++OOOOO",
"OOooo    oXoOO#%=:25990964<::;:;:;=&$%$%&$$$$###OOOOXoOXO+$*-;>158800qqqqqqqq098976652,:=*&$$#+++OOO",
"Oooo    oXoOO+$&=:15799751<>::;;::=*&%*%$$$$$###+OXOooXOO+$=;:<15690qq0qqqq0q999999653,:=&$$#@@+++O+",
"Ooo     .oO++#&*=:15696641<<,:::::==***&&$$$$$##OOOooOoO+#**=;:<4680qqq0qq0q08889997651:=&$$$$$@++OO",
"oo     oo++##%*-::12566511<<,::::::-==***&$$$$##O+oOooOO#$&**=:<1680qqqq0qq097666699951:=&$$$$$$#+OO",
"o     XO+@$$$*==::,254521<<,::::::--====*&%$$$##+++OOOO+#$$*&*=:1580qqqqqq0985555666552,=*$$$$$$#++o",
"o   XXo+#$%%*===-:,1111221<::::::::;-;;==**%%$$$#++OO+++++#$$*=;<480q000098752211255521:-*&&$$$$$+OO",
"oooXooO#%***=====::::11422::::::::::;=;--==**&$$$$#@++++OOO+@&*=:570999966551,::<111<<<:=*&&&$$$#+OX",
"OooOO+$&=;;:;-=**;;;:<<4521<<::::::-:-:-:;:--*&&$$$@++OOOOO+$&*;,3666666521<:::;::<:>::;=***&&&$$@+O",
"+##@#%*;:<<<:==*===::>15651<>:::::;:::-:;::;-**&&$#$++OoXOO+$&=;<55533531,::-===;;;;-;==***&&&&$$##+",
"#$%&*;:<1121:=***==;:>156521::::::;:::::;-::-=**&$$#+OOoXooO$&=>12111111<:::=*====******&&&&&&&$$$$$",
"%&=-:1354541:;=====-;>16652<,:::::::>:::;-;;=***&$$$+OOoXooO@&;,11<:::::::=****=**$%$$&$&$&&&&$&$%$$",
"**:<4666665<:=======;:16652<::::::>>::::;--=***&&&%#OOooXoOO$*:,,>:::;--===******%$####$$$$*&&$&&$&&",
"=;<156677751::======;>266521<<,,<<1<1,::---=*%%%&&$#+OoooOO+&*;::-==*=*==*&&&&&*$@++O+++#$&&&$&$$&&=",
"-:<367997751::===**=;:14551<<<:,222211:::===*&%%$&$$+OOOOOO+&*;-***&%%%%*&$$$$$$#+OOOOO+#$$&&$$$$&&-",
":><459997641:;=****==::1221<<<11255221>:-==*&%%$$$@+OOOOO++#&***$$$$#$$%&$###O+++OOoOOO++$$&$$$&%&*-",
":,125677651>:-=***&**=-:<<:,<<12365551::-:==*%%$$++OOOO+++$&***$++#+++##$##OOOOOOOOooOOO+$$$$$$&%&*-",
">,<1566652<::=*%&$#$$&*==;::::<2566531::-==**%%#@OOOoOO+$$&*&&$#+OOOOO+##+OOoOoo.OoOOOO++$$$$#$$$&*:",
":,<125654<::=*&%$+#+#$$$%%*=-:<466642,:::;==*%$+OOooooO+$$&$&$+OXo oooOO++Ooooo.oOOOO+O++$#$$$$$&&=;",
"::><13552<:;**%#++OOOO++##$**:1577611,,::-==*$++OoooooO++$$&$+OooXXo ooOOOooo.oo.OOOOO++$+$$$$$$%*=:",
":::>11242:;*%$#+OOOOOOO++##%*=:45531>::::-=*%#+OoXXXooOOO$$$$ooX     XXOOOOooooooOOO++++@@$+#$$%&=-:",
"-;::::11:==*$##+oOOOOOOOO+##$&=<21,:::--:=*%$+OOooX XXoOO+##OoX      XXOOOOXo.ooOOOO++@@#$$$$$$&*=:;",
"===-:::::=*%$@@+OooOOoooOO++#$*:<<:;===-=**$++oO X  XXooO+O+oo        XOOOOoOoooO++O++$$$$$$$$&*====",
"=*==-::;-=*$+++OOOoOoooooOOO+@&-:;--===***%$#+Oo X   ooOOOOOo        XXOOOOXOoO+++###$$$$&$$&***=-==",
"*&**=;::=**$#++OooOoooooooOOO+%**==&&=&&*%$$+Oooo. X oooOOOOo   .    oXOOOOOO+O+#@$#$$$%%&&&**=:::==",
"*&*==;:;-=&$#OOOOOOoooooooooO+$&&&$&%%&&$$#+OOooo o XoXOO+OOo X    oo OOOOOO#+#$$#$$$$%%&&***-;:::;=",
"*&**=;::-=&#++OOOOOoooooooXXO+##$@$$$&$%$#++OooooXo XXOO+OOXoX     XOOO+OOO+##$$$%$$$$%&&***=-;:::-=",
"****=;::;=&$+++++OOOoOoXoXoOOO++##@$$$$$@++OOOoooooooO++++Ooo  o XooO++@O+@#$$%&%%$$%%%**=*==--:::==",
"&&**=::;;=&$$#++++OOOooXooXoOO+O+@@@@$$#++O+O+OOOooooO+$#++OOoooooOOO###@##$$&&**&%$$%%&**====-;;-=*",
"$&$&*=;==*&$$###@++OOOoOoXoOOOO+++$@$#@#+OO++O+OOOooO+#$#@+OOOOOOOO+#$$%$$$$%****&%%%%**=====---=*%$",
"+#$$***===**$$$$#++++OOOXXXOOO+++@###$@@+OOO++O+OOOOO+#$$#++++OO+++#$&****&*&*===**&&**====--;=*$$##",
"+O+#&*&&===*&&$$$#+OOO.oooooOO@###$$$$#@+O+++++++O+++@$$$@@@#@+###$$*=--==***=-===***====-----=&$#OO",
"oo+#$$&&*=--**%$#+OOOOOoXXOOO+#@$%%%%$##+OOO++++++++##@@#@@+##+$$$&=-:,::=*==-;-:===--:----:-=*&$@OO",
"oo+####&*=::;*&$#++OOo X.OO++@#$$**$$$$#OOO+++@@+@$+$#@@$#$$@$$$&&*:,<2<:===-::::::::::::----=*&$+OO",
"Xooo+++$*=:::=*&%+OOoO Oo.OO+@$&***%%$$#+O+++++@+$@$#$$$$$$$$$$%**:,2441::;;---::,<:1<1:::--==*$@+Xo",
"oooOOO#$*-:<::=&%#+OoooOOO+++$&&**&&%$$###@+@+@#$$@$$@$%%$$$$$%%*;,35551>::;-;;;:1223421::--==*&@OOX",
"oOooo+#$*::<,::=&$#++OOO+#++@$%&*%%%%*%$$$#$##@$$$$@@$$$$%$%$$$%=:155551<>::---:,12666621:::=*&&@OOX",
"oooOoO#&=:,11<,:*&$$##+@##$$$$&&**&**%%%$%$$%$$%$&$$$$$$%%$$$$$%=:115431<>:--=-;:14667652<<:-=%$+OOX",
"ooooO+$&=:,1121:==**%$$$&$$$&&******&%$%$$$%%%%%&$&$$$&%%%$$@$$%*;:<231<,>:-=--;:<256866521:-*$#OOOX",
"ooooO+$*=:<4311<::==*&&*&*%%&*=====*&&$&$$$&&&&%$$&$$&&&&&$$#$$&*-:><11:::-==---::15566552::=*$+OOXX",
"XooO+#&&->135442<,:-=====***=-:--==*%$$$%%&&&&&&&*&&$&&&&&&&$$$&*=-::>:-==-==-;:::12555552<:*%$+Oooo",
"oooO+$&=;<34535431:::=--====-::::-=*%$$$$&&&&&&%&&*&&&&&&&&$$$$&*===:--=***====-=::1124421::*%#+OooX",
"oooO+$&=:<25566652:::==-;=:::11,>:-*$$$$$$%&&&&%$&$&&&&&&$$$&&$&**===**&&&&&&****:::<1222<:=*$+Ooooo",
"ooOO+&*;:125666752,::-==:::<1122,:-*%$$$$$%%&$$$$$&&$&$&&$$$$$&&***=&=&%&$&$$$$$%**=:12211:=&#@Ooooo",
"ooO+$&*-::12568862<:----;:<1124511:=&$$#$%$%&$$$$$$&&$$$$$$&&&&**&&**&$$$$#@#@++$%&*::<,1::=%#+OoOoO",
"oo+#$**=::><256663<>:=--;::<245551:=&$$$$$$&%$$$$$$$$$$$$$$$$&&&&**&&&$$+++++OO++@%%=::1<<:*$@OOOooo",
"oOO+$*==-=:>1233431::--;::::15553,;&&$$$&$$$$$#$$#$#++++O+#@@$&$%&*&&%#++OOOOooO++@%*=::::;*#+OOoOoo",
"oo+#&*==-;:::<1<:<<:::--:=::1222,:=&&$$$$$$$$$$###@@++++++++#$$$$**&%$@+OOoOooooOO@$%*=:::=&%@++OO.o",
"oo+$&*==---:::::::::=::====::21::=&%$$$@$#@$#######++++++OO+##$&%*&%$$++OOooooooO++#%%*:::=&%$$@OOoo",
"OO+#&*=--;;--::====:::==**=::1::*$$$#+@#$@@$##$@$#+++++OOOOO+$$$$&$$@@+OOOooooOOOO+@$%%*:==*%%$$#Ooo",
"O+@$&=--:===-==&**=====*&*===:=*$$$$@++$####$$#@++O+++++OO+O##$$$$$@@++OO oXoOOOOO+$#%%**==*&&&%#+OO",
"@$$$*=-;-=====*&&**===***%*&&*&%+++++O+++@@#$#+OOOO++++++OOO+#$$#$@+O+OOOoo oO+O++##$$$%&&=****%$##$",
"&$&*---===*=&&&&%%%*=*&%%$%%%%$#+OOOOOOOOO@$$#+OO.oOO+OOOO++##$###@+O+OOoooooOOO++#@@#$#%&=:=:=&&%%$",
"*=-:;;-==*=*&&$$$&&&&*%$$@@@@#++OXoOooooOO@$$@OooOoOOOOOO+++@$$#@#++++OOOoXoooOOO+O++++@$&=::::=**&&",
"=-;:;--==**=&&$&%$%%%%$#@+++++OOooooX oXOO+#+OOo X oooOO+++#$$$$#@++++OOooXo  O.OO+O++++$&&-:::=**&*",
"=;>;;;==**&&&&%$$$$%$$#+++OOOOOo  X  oXoOO++OOXo.X oooOO####%$$$$$#$###OoooXXoooOoOOOO++#&=:::==**&*",
"=-;:>;===&&&&%$$$$$$$+@+OOOOOooo      XXoO+OOoX XXooooOO##$$$*$$&**$&#+OoXoOOXooXOOOOOO@$&=--:-=**&*",
"=-;>:==&&&%%%$$####$+OOOOOOOOXo        XOOOOO X XXXXoOOO$$$******=*=*$+OoOOoXoXoooOOO++@%&*=:::=****",
"==--=*&$$%%&$$$@#@+@OOoOooOOOOX       XOO+OoOoo   XoooO+$%**=====;;;;*#OOOOoooOoOOoOO++$%&=-:::-==*=",
"==;=&&&$$$$$$#++++OOOooooOO+o          OO+OOO .   XXoOO+$**=====:::<:*$#++OOoooOOOOOO+#$$*-::,::---=",
"-;-*&$$$$##$#@+OO+OOo.ooooOOO X       .O++++O.oo XooOO+#**=;;;;::<22<=*$$#+OOOOOOXXO+@#$&*::,<<:::--",
":-=&&$$$@$####++OOOOoooooOOOo.Xoo    O++$$$++O Xoooo+@$&*=;;::<<<2652:=*$$+++OOOOOOO+$$&=-:11211,:::",
":=&&$$$@#$$@@@+OOO.oo XoOoOOOOO o    O@$$$$++Oo.oXoo+#$*==;::<1125675<:*&$#@++++OOOO@$&==:125531<:::",
":=&$$$$@$$@@O+OOOOOXX XXoO+O+OoooooXO+$&&&$$+OOoooOO#$**=-;;::1156662<:-=&&&&$#@+@@#%&&=::1556521<,:",
"==&&%$$$$$$@++OOOXOOOOOOOO+#++OOOOOO@#%%&&$#+OOooOO+$$%**=-;:<1456652,::::--=*&$#$$&&*=:::2568621<,:",
":&&$$$$$$$@@OOOXOOOOOOOOO+#$$#O++++@$%**$$##+OOO++##$&$%*=-;;:15556421,::,<,:;**&*&**=-:,156876521,:",
":&&&%$&$&$$@OOOOOOOOOO+++#$&%$##$$$$*=**$++OOOOO+$$$$$***=-;;<24445411<111121::-==**==::1566998631::",
"=&&$%$%$&$##++OOOO++%$$%%%%*%%%%***=-;**#OOoOOO+#$$&$&**==-;;<1113411<<<115551::=**===::2569988531:-",
"=&&$$%$$&$$$#++OOO@%%&&&%&*=****===::;*$+OOoooO+#$%&%&$*==-;:<<<1<1<<:,<<25662:-======-:156668651:--",
"&%$%%&&&&&$$$#@+$$%&****&**==:::::<<<;*#OOooooO+$$&**%*==;-;:::<>>:<::::125661>-===*===:15566663,:=&",
"&$$$%$%&&&$&$&$&%%&==**&==:::::::<11<;*$+oo.ooOO#%$&***=;;-;;::::::::::<<25651>:-======:1255222:==&%",
"$#$$%%&&&&*&**%***===***:=:111111141:;*#+OXooOO+$#$&**=-;:-::::::::::::><15651>::=***==:,111<:;=%%$$",
"@#$$$%&%&*&*===::=::=*=:::122544453<:=*#+ooooO++#$$&&*=-::-;;-::;::::::,,15651>::===**-:>1>:;*$#++@+",
"++@#$%%%***=:::::::::::::2256666764>=*&#OOOOO+++#$#$$**=--;:-:;::::::::<,14521<::--=*==:;;;=*$#OOOXO",
"oO@#$$%%%%*=::<121,::::256669999973>==$$+++OO++++#$&$$&*==-;---;-:>::::::<3311<>:::=====***&#Ooo X O",
"oO+#$$$$%%*-<1555542,225699900qq083<:=*$###@++OO++##$$$&&&&=-----;:::;::,><13111<,:--=**&*$$Oo.o    ",
"OO##$$$%$%*=:256665445679qqqqqqq085<:-*&&%#@++OOOO+@@$$$$&&=====-:::;:::>><1136421:-==*$$$#+Oo     O",
"O+@#$$$$$%&=:15799666669qqqqqqqq0851:;=**&$@OOOOOOO++@@$@&&&*====::::::>,<1246662<:-=*%$#+oo.     XX",
"O+##@@$#$$&=:15699999699qqqqqqqq08631:;==&#+OoooooO+@@@$$$$%&*&*=;:::::,<<12688651::=%@++OooX     OO",
"OO+++@#$$%%=:12567999990q0qqqq0q09651:--=%+OO. OoOOO+##$$$$$&&&&&=:::-:::<15809661:=*$#Oooo    XO OO",
"OOOO++@#$%%=::256679990qqqqq0qqq09662,:=*#OOOOoooOO++###$$$&%%$&&=---:::><46800861:=$#+ooooX  .oXXXO",
"OOOO+++#$%*=:,225667990qq00qqqq099752::=%#+OXOXOOOOO+#$$%%%%$%$%&*-:-:::>158909961;*$+OooXo   .o.OXo",
" OOOOO+#$%*=::22256699qqqqqqqq099652,:=&%#OO OOOooOO+@#$$$%$$$$$&=-::-:->168998861;*#OOooX  ooo   OO",
"ooooXOO+@%*=:1,22556900qq0q0q009752<:=&%$+OoOoo ooOO+O++#$%%$$$$&&=:--:->168888861=*#+OoXo  oo   XX ",
"oooOOoOO+$%=::,125579000qqq00976542::*%$+OOo OoOOOO+O+OO@#$%$$#$&&=::--:<14556886<-*#+OoX          O",
"oooXoo OO+%*:::1245690qqqq00996652,:=&#+OO oO  oOOOOOOOOO+$%%%$&&=::::::114446765<;*$#OoX           ",
"    XXoooO$*==:<155690qqqq00976551::*%+OO O.o OOO++OOOOO++#$%&&&=::122111234457741;*$#+oXo          ",
"     oooOO$**=::12567900000987651<>=*$+OOoXooXOO+++++OOOOO@$&*==::223522254555652::*$#@+X o         ",
"      Xoo+#%**-:,<156779999666641<:-=$+OoOOXOOO++$#+++OOO+#$*=-::,245555555555552<:*&$#@OoX .       ",
"        oO#$$*=-::<2566788666653<>:-=*$@+OXOoO+++##$+++OO+@$&=;:,1125556666665552::==&$@OOo         ",
"        oO+#$*==::<24566796666511>::;=&$+OOOO++@$$##@+OOOO+#&=-:,,,12356666765552,::=*&$+Ooo        "
};
