/* XPM */
static char *result[] = {
/* columns rows colors chars-per-pixel */
"100 100 30 1 ",
"  c #3F7AAF",
". c #3F7CB0",
"X c #407BAF",
"o c #427EB1",
"O c #4582B4",
"+ c #4886B7",
"@ c #4988B7",
"# c #4987B8",
"$ c #4C8BBB",
"% c #4F90BE",
"& c #5091BF",
"* c #5395C1",
"= c #5699C5",
"- c #589CC7",
"; c #5A9EC9",
": c #5DA3CC",
"> c #5FA7D0",
", c #60A7CF",
"< c #60A8CF",
"1 c #60A7D0",
"2 c #63ABD3",
"3 c #66B0D7",
"4 c #68B1D7",
"5 c #67B2D8",
"6 c #69B5DA",
"7 c #6CB9DE",
"8 c #6FBCE0",
"9 c #70BEE2",
"0 c #73C3E6",
"q c #75C5E8",
/* pixels */
"oooOOOOOO@@@@$**=::254677887755<::::-=&&$$##+#%%$&&&&$+O+O##@$&=---::24777777553<:-&=&%$$$$@+OOOOooo",
"ooooOoXoOOOO@@@$=:,1546677877652<>:,:-=*%$$+@@$$%$$$$@+OOO+O+#$&=-=-<25677877753<:-=&=&&***$@+OOO..o",
"oXoOooooXOoOOO+$&;,224466778777455222::=&%$@@$$$$$$$@#OOooOOo+$&&==-,247770777752::-===****$$+OOOooo",
"oOooo  oXooooO+@&-:15466667776766645<:-=*%$+#@###$$$#OooooooO+@%&=-::<46970007743<:::==-=**$@+OOOooO",
"Oooo o XX..ooOO#&=:26666666546677451:-==*&$$+###+##++ooooXoXOO#&=---:1568000008742:::--:-=*$$#OOOooO",
"OoXo..XXo oooOO+$*:1666666652546552:-=*=**&$@#++##++OoooXXoXo+$&==:::12790q0q087621,::::--*$$@OOOOOO",
"Ooo.oo XXoo.ooO+$*;267666742222222<:-&=**=*&$$#@@#+OooXXoOOOO#$==:::>2670q00000751<<:,::;-**$$#+OOOO",
"OoooooXo  oooOo+$&:56777776521122<::-===--==&$$$@+OoOXOoXOO#@$&=-:::256000q0q007522111<<;-=*$$@@###O",
"oooooXooXXooooO#$*:5677707651<<222<:-----:--*&$$@OOXoooOOO+$$%*;:,<25570q0q00007422<<2<,:-=&%$$$@@+O",
"Oooo o.XooooOOO$$=:5477887421<1222<<::-::::-=*&$@OOOOOOoOO$%&*-:<222470q0q0q0097655222<,--=**$$$$@+O",
"OooXX  X ooooO#$%=:247000741<12122221<,<::;-=*&$@@OOOoOOO+$&*=-::1257800q0q00977645222<::-=&&%&$$@+O",
"OooX    .oOO+++$&=-<57007622221<2255221<:::-=*&$@#OOOOOO+@&&*==-:,157800qq0099777766532>:-**&%&$$$#O",
"Ooo    ooO++++#$&=-:5700765222<246642222:::=**$$@#OOOOO+@%&&*&*--;:5700000q097777777432>--=*&&%$$$++",
"oo    XoO+++++$$&=-<56777552221256642222::--**&&$#OOOOO#$$$$$&&*=-:579000q0877666777742<:-*&&&&%$$+O",
"oo   XoO+@++@$$&&=::25467452221<25222232<,-==*&$$@O+OO+@@@@$@$$&*-,27700908764565677473<:=****&$*++O",
"ooX XoO+@$$#$$%&*=-::>5544432222225222521<:--**&$@#++O##++OO++$$*-:27777776662225565453<:=***&&&$$+O",
"ooXXoO+#$$$$%%%***=--,1476532222322222551,:;-=*%*$@#+++OOoooOO+#&=:242555522211122244222:==**&&&$@++",
"OoooO+#%$**=***%%***-:2477653322232122552,,;-=*%*$$@++OOOooooO+#$=;:,,1<,,<<,::,1221122,-====*&&*$+O",
"OOO++$&*=*=-=*%%%%**-:14777433<22<12255211::;==***$$+OOO.ooooO+#%*=---;::::;;;-:,,,,,,,-===&*&&&$$#+",
"OO++%*-;;;;:=*%$$$$*=:1477642<21121225541,:;--*%$$$@+Oo...ooOO#$&&&&**===;;-===;::;,;,--=**=**&&$@++",
"OO@%*;,;::::=*&%$%%**-:36665221222225242<:;;-=**$*$$+OooooooOO@$$&$%$*%*==-==**-;-----==&**&&&&&$$+O",
"#$$*;,,,>1:;=*&$%$$%*-:26552<11125352222:::;-****$$@OOOoooooO+$$&&$$$$$%*&****=---*********&&&&%$#++",
"$$*=:2221::-***$$%%**-,2551,<,1254525221:;;;-**%$$$$+OooooooO+$*$$$$###$$&****=-=*%%$&&&&*&*&&$%$$@$",
"$%*;:242,:=***$&%$$%%-;1221,:,112645422,::;-=*%%$$$$+++oOooo+$$$$$+#O++#$&&&&*=**%$$$$&&&&**&&&$$$#$",
"&*=;,241:-*%%$$$$$$$%&=;,,:,::11564555<::;;-=*%$$$$@#OOOOOOO#$$$++++OO+O$$&&&==&%$$#$$$&&&**$*%%*$*$",
"*--;,11:-&$$@@$$$$#$$$%=---;:::1567462<::;--=**$$$$@##++OOO#@$$@+++oOooO#$$$$$$$$####$%$%%&&*$&&$$$*",
"-;;;,,,;=%#+##########$***--;;:2566765,::;;=**$$$#@#OO@#@##@$@###++oooO+#$$@@$@$$#$$$$$&%&*&$%%$$$**",
"-;;;:,;-*$+++O+#++o++##$&&**=;125676421::;;-=*$$#+OO+@@@@@@$$#OOoooooooO######O+$$$$&$&&*&&%$$$$$$**",
"=---;:-=%$#++OOOoo+o++##@$$&*-,2666552211::-=**$#OO+++##$@$$@OOooXooXoXoO#+O#O##$$$%&&&***%%%$$$$***",
"=*=---=&$$#+OOO++oooo++o+@$%*-:2552521221:;-**$@#OOOO+##@$$@#oooXXoXXXoOO##+OO##$$&&=&****%$$$$$$$**",
"**&****%$+OOOOOooooooo++++#$%*;,<1211111::==*@@#OOoOOO+##@##OooXX XXXoXO#@#+###$&&&=====***$%$$$$$**",
"$$%&&&%$#+OOoOoOooooo+o+O+#$$*=;::::<,,<:;=*$##+OOooooOOO#OOooo  XXXXXoo#@@#@#$$*--==----***%$$$$*$*",
"##$$$%$@++OOoOOooooOoOoOO+@@@*=-=::--:::;-*&$#++oOooo+oo++Oooooo    XXo+##$$$$%*-;;;;;;;-==%$$$%**$$",
"+++#$$$$+O++OOOOooOoooOoOO##@$*========--*&%$++OOo+oooo++oo+ooXX    XXo#$$$$$%*-:,,::;;;;-********$@",
"+O#$$$$$###+OOOOOOOooOOOOOOO#$***&*&&*==*&$$++oOooooo+o+oOooXooX  Xooo+#@$$&**-:,,;;;;;:;=======**$@",
"++#$$%*$$$$@OOOOOOOoOooOOOOO#$$*%%%$&&=&&%$$+++o++ooooOoOooooXXXXoXXoO+#$$&**=:1:;;;;;;;;-=----=***@",
"+++@$****$$$+OOOOOOOoOOooOoO##$$$$$$%&&&&%$##+++o++oo++OooooXXoXooooO+$$$%**-;:::;--;;;::;;----=**$$",
"+++@@***$$$@#OOOOOOoOooOOoOOO#@$$$$$%%&&%$$$##++++o++oo+O+oooooooo+OO$$$&**=;::,::--;;:,::;;-=-=**$+",
"OO++@***$$$$##+OO+OOOOOOOooOO##$$$$$%%&&$$$$$$$#+++ooo+oo++ooOooO+O+$$&**=-;;:,:::;;::,,1::;--==*$++",
"oOoO#$*$***$#+###OOoOOOOooooO##@$$$$%%%%$$#$%$$$#++oo++ooooo+oo+++$$$&*-;:;:::,,:::;::2121>;--**++Oo",
"XooO+$$$&**$$$##++OOOOOoooooO+@$$$&&&&&$$@@$$$$$$#+OO+OO+ooO+OO#@$%$*=::<,:::<1<<,:::15221<:;-*$+Ooo",
"XXoo++$$$***$$$@OOOooOOoXoooO+@$&&&&**&$@@++@$$$$#+++OOoOoOOO++#$&*=-:1122<<111<121112552<<:;=*$#ooo",
"  XoO+@$$===**$@++OOOOOoooooO#$$&=-&&&$@++@+#@@$##+O+o+O++o++##$&*=::155521221222552254221<:;=*$+oo.",
"  XooO+$*=;;-*&$@#OO+OooooOOO@$&&===&&%@@#$@$@###++++++@#+##$$$%&=:<266652522222566766652,::-**$+o..",
"  XXoOO$*-;:;-*%$$#++OOooOOO@@%&===*&&%$$$#@#@+#++O++##@$$$$$$%%=:<5677442422122677777652<::=*&@Ooo ",
"    ooO$*;>1,;-=%$$$#++++#++@%&*--====&%$$$$$$$#+++++#@$$$$$$$%&=>577765552111<26798087651:;**$+oo. ",
" X  ooO#*;2221,-=**%%$#$@#@$$&=-----=*&$$%$%$$$#$+++#$$$%%%$$$%&-15776655451111147700076521;*&$+Oo..",
"   XooO$*:23422,;;--*&%%%%$$**=::::-&&&%$$&%%$$$++$+$$%%&&%%$$&*->3656442221:>:>2678777742,-**@Ooo..",
"    oo#$*:14665221<:-==**&***-:>1>:-**%$$$$%*$$$$+@$$$$*$*$$$$**=:255551<:::::>>2567777642:-*%#+oo  ",
"  X oO@*=:156666442<::-=====-:<111:=*$$$$$****$$$$@@@$***$$$$*$$=:22211::--:::::1257777642;=*$#ooo  ",
"  ooO+@*=:1566766451::::-::-:12122:=*$%$$****$*$$$$$$**$**$$$@%*=:111<:-====---:1255546631:=$$+o  X ",
"   oO@$*=:2677877652::::::<:125552:;*$$$$$%**$$$+##$$$$**$$*$*$*;:>>1:=**%***==-:111254732:*$+ooX   ",
"  ooO@**;<24678877621<::>225245565>-*%$$$%*$*$$@#+@@$$$**$$*$$**;;::;=**$%$$****=-::,22422:*$Oooo   ",
" XoOO$$=;<2568800775211<<223466774<-*&$$%%%%*$#+++#$@$$$$$$$***=-;;--**$@@+@@+$%**&*;:1222:*@+oo    ",
"X oo#$*=;:156789097621<<2255667774:-&$$$%$$$$@$+++@@@@$$@$$$$**===-=**$$@++++++#$$$&*-:>11;*@Ooo.   ",
" ooO@**=::>25677877622<22555476761;=*%$$$$@$$++O+OO#@$#@@$$@$$***=-=*$@#+OOooOO+#@$$&*=;:;-*$+oo.   ",
" XOO@*==::12266666642112222556521:=*$$$$+++++++++++#@##@@$@$@$***==*$$#O+oooooOOOO+@$**=--=$$+OoX   ",
" oOO$%=;::124442525222222225551>:-=*$@@@+OO++OO+O+@$$@$@####$$****=*$$#Oooooooo+OOO@$$$*=-=*@#+Ooo  ",
"ooO+$*=::<122422<112211111122>:-**&$@++OOOOoOOOO++@$$$@$###@$$******$#+Oooo.OooOOOO@#$$***=$$$#Ooo  ",
"ooO#$*=;:12242,,::,,<<>:::11:;-*&$$@+OO+OOoOoOO+++#$$$$$@@@$$$*$*$$$$#OOOoooo+OOOOOO#@@$$**$$$$#Oooo",
"OOO@%=-:::1111<::-::11:::::=*=*$$+++++OOOoOooOOOO+++$$$$$$$$**$$*$$$##+OooooOOOOoOO++++@$*$**$$#OOoo",
"OO$&*=-=::::11:;:;:::::;:==***$#++++oooooOOOOOOOOO++@@$$$@$$*$*$$$$@$#+o+oooOOOOOOOOO++@$$$****$#OOO",
"@$&*=-;=-;:::::--;::>::-==*%$$#+OOOoooo.oooO+oOOOO++++@$$$$**$*$$$$$$$+++Oo+OOOOOoO+OO++#$$****$@#++",
"$%*==-----:::;;--=::,:;==*%$$$+Ooooo.o.oooOoO+oOoOoOO++#$$$$***$$$$$$$$+ooOooOoOoOOOO+O+#$$*$*%$$#O+",
"$%*=====-=-;;;-;;-;,,;-=&&$#@#Oo  .XXoooXooOOoOOoOoOOOO+@$%&**&&$%%%%%@@OOOOoOooOoOOOO+O+@$$&&$$$@##",
"@$**====*=-;;:;-;,,,,;&&&&$$#+OX   X  oooooOOoooooOoOOO#$%&*==*%&&**=&$@OOOoOoOoOOOOoOo++#@#$$$$@@O+",
"@$********=;;;:,;,,;-&&$$$@$+OXX      ooooOOOOOoOOoOO##@&&*=-========&%$+++OOooooOoOOOOO++++$$$$@@O#",
"$%%%%$%$&*--;;-;;;--&&$@$$$#OOXX      ooOO++OOooooOOO#@$&*=::::-:-:=-=&$##+OOoOOOooooOOoOOO+$$%%$$@@",
"$%%$$$$%&&=--===---*%####$++OoXX    o.ooO+++OOOoooOO##@$&=-:<:>>:::::=&%$#OOOoOOooooOOOOOOO+$%&&&%$$",
"&&%$$$$%&%**=*==**&%$#++++++XooX     .oO+#@#OOOOOOo##@@*==::12111<1<:-*&$$++OOOoooooXOoOO+@$%**=***&",
"=&%$$$$$&********%%$##O+++++OXXXXoo .oO+@$$@@##OOOO@$$*=-::<222255452:=*$$##++OOoooOOOOO++$%**--====",
"=*%%$$$%$&&&**%*%$$##O+O++++oOXoooooooO$$$$@@$#OOOO@$$*=-:::212254665:==&$$@#++OOOoOOO+++#$&=-;::===",
"=&%$$%$%%%*&*$&%$$$+@+++++++OoooOoOOOO@$$$@#$@+OOO+#@**=-;;:112566642:;=**&$%$O++oO+++O+++$&-:,::--=",
"&&%$$%%$%*&&%%$$$@$$$@@$$$$+OoOoOOOO#@@$+++++#+++#@@$***--;::15777741::;--=*&$@@++++@++++@$=:,,,:--=",
"&%$%%%%%&*%%$$$#$+$$$%%$$$$#+ooOOO+O#@$@+OO+++++@$$$$$*=-;;;:12657652,::;:;;*&$$##$$$$$$$$*-,2<,--=*",
"&$%$$%%%*%*&%%$$#$$&&&*&%%$$+OO++O##$$$#+oOOOOO+@$$$$**=-;;::15456431,:::1:::=&&$%%$$$%$$*-:,22,:-*&",
"$@$$%$$*&*&&%$$$$$&**=&&&&$$++O+#$@$$$@OOoOOOO##$$$$***=-;::>1255473>::,:122::=&%%$%$&&**-:,242,-*&$",
"$@$$$&%**&%***%$$&*-===&&*&&@###@$$**$#O.oo.ooO#$$$**$*=;;;;12523543<<<<12252:-&%%%$%&**-:,1221:=&$@",
"#@@$%$*%%&********=--=***=*&&$$$$$$*$$+Oooo.oOo+#$*$$*==;-:>222323322<<<25665:-*&%$%$&*=;:,,,,,;*$#+",
"O+@$&*%******=--;-;;-*=*==-**&&%$$*$$#OOooo.ooO+$$$%**==;::>235222<2<21256662:-=*%$$$$*=:::;:::*%#+O",
"O+$$&*&****=--::::::=====:--=***&*&%$+OOoo oooOO$$$&**--:::2254512211122447741;=*%$$%%*-;:---=*$@+OO",
"O@$$&&**=*=-::,<,,,:::-:::::::;===*%@OOOo oooO++#$%&**-;::<2244222122225777742;=*&%%%&*=-=*==%$#OOOO",
"@@$%&&***==-:1<2211,:::1::111>:::;=&@OOoooooOOO#@$$&&*--::,1442212222225277742:-***&&&&***&&%##OoOoO",
"O@$$&&&**=-:225225222112225655442:=$@#OOooOOO+@@#$$%&**--:<1555222522225257742>--==&&&%%$$$$#++oXooo",
"OO$%%&***==:246666452224577777765:-&$@@OOO+O###O+++$&&=--:,24521225211522574522>:;=*%$$$$###+Ooo  oo",
"O#$$%&&*&*=:126677764446770000772,-**%$@@@$@@OOO++$$&&*=-;:,22222532212225566332,;=*&$#++#$+ooXX  oo",
"O#$$%&&&**=:<2577776647700q000075:;***%$&$$$@OOOO++$$&**-;:,22225655212226578883,-=&%$#++##+oXXX  Xo",
"+@$$%%&&&*-:>15677767778000000075:;-=****%$@#OOOoO+#$&**=-::22255453212222679873,-=&$#++++oooXXXXXoO",
"O+@$$&&&&*-;:2545767777000qq008762::;=***$@+OOOoO+++$%**--,,,,123352<<<123680982,;=%#+++OOooXX oXooO",
"++#$$&%&*=-;:12235477700000qq077421>:;=**$#OOOoOoO+$$%*---::,,:,2<222<11137909842:=%$+OOoooXXX XXXOO",
"O++$$$%%*==;<12222547800q0q00074221::=**$$+OOoOO+O++$%&=-,,,-;::><<221<<258898762,=$#++ooooX  o oOXO",
"O+@@#$$**=-;,122<22570q0q0q00743211:-=%$@#OooOoOoO++$%&*--------:>222211348888664:*%#oooooXXooooXXOO",
"O++###$%**;:<11,11247000q000073<:::;=*$@#OOoooooOO#@$$$&*--=====:<<22<<2277867772:*$#Ooooo oooooooOO",
"OO+O##$$%=-:,,,,<12570000q00752>:;;;*$#OOoooXooOoO#@+@@$&==*=*==:1222222367467672;*$#oOoXXXX   ooXXO",
"OOOO+++$$*=;:::::<2578q00q0973<::;;=*$OOooo XooOO@##++@$$&**&==-:2555555466667642;*$+oooo  XXX oXOXO",
"ooOoOO+#$&=-;;:::<157800000845<:;;==&@OOoo oooOO+$@#++##@$&&===,<5666645646464742;=%#+ooooo X oXXooO",
"oooOOO+#$&*=---;-,<267999997651>:-=*%@OOooooooO@$#$+####@@%==-,,54667777766666552:=&$OOOoooXXXooooOo",
"oooOO++#$******--:,257799987742:;-=**@OOoOOooO#$$$$$$$@##$$&=:,,25554777776766422>-*$@OOOooooXoooooo",
"oooooO+@$*&*&&**--:224777877642:-===*$++OOOOO+@$$%$%$$$###$&&--,::,<2667777764622:;=$$++OOOOoOoOOooX",
"oXoOOO++@$$$%&&**-:126667877762,;-==**$$@@++O@$$%%%%%$#+##$$&&=-::::<546888776451::=*&$$$++OOOOooOoo"
};
