/* XPM */
static char *result[] = {
/* columns rows colors chars-per-pixel */
"100 100 28 1 ",
"  c #3F7AAF",
". c #3F7CB0",
"X c #407BAF",
"o c #427EB1",
"O c #4583B4",
"+ c #4886B7",
"@ c #4988B7",
"# c #4987B8",
"$ c #4C8BBA",
"% c #4F90BE",
"& c #5091BF",
"* c #5395C1",
"= c #5699C5",
"- c #589CC7",
"; c #5A9EC9",
": c #5DA3CC",
"> c #60A7CF",
", c #61A8CF",
"< c #60A7D0",
"1 c #63ACD3",
"2 c #67B1D7",
"3 c #68B2D7",
"4 c #67B2D8",
"5 c #69B4DA",
"6 c #6DB9DE",
"7 c #6FBCE1",
"8 c #70BEE2",
"9 c #72C1E5",
/* pixels */
"OOO+###@@$#+@@$$=;:<14456666551<;;;;=*$*$$$##$%***%%&$@+++#@@@***===;12566653441<;=**$$$$%&%$$@@@+OO",
"OOO++OOO+O+O+#$$*;:<11446667552<:;:;;;=**%$$$$$*%$%%$$#+OO++##@%***=;>1556666521::=**$**&***&%$@++OO",
"OOOOOOooOoOOOO+@*;:<1246566765521111<:;=**$$$$$$$$%$$#OoOOOoO+@$***=;:<366666631<:-=****====&%$@+OOo",
"O+OOoooooooOoOO#$=:<13335567766563331::-=*%$#$$$$$$$@OOooo.Oo+@%&**==:<3667776521:;=-*=====*&$$@++OO",
"OOOoooooooooooO#$*;<14455663655666631:;==**$$$$@#$@@#OooooooOO#$$=*==;<1578987621::---;;:-=*%$$+#+++",
"OOOooo ooooooOOO@&;:1445555535463341<:====*%$$$@#$++OooX ooooO#**=**=:<3689999751::;;;:::-=*&%@@@#++",
"OOoooooX.oooooOO$*;:4555555332223331:;;;;===&$$$$##OOoooooooO+@***==;:<5699999751<:;:::::-==&%$$@@@#",
"OOOooooo.XooOoO#@%;<243566642212441<>;:;;::;***$$++OoooOooOO+#$*===;;:16899999751<:::<<<::-=*%%%$$@@",
"OOOooXXoo ooOOO#@*;<4456765411124221<<::<<<;;**$$+OOOooOoO+#$$&==;=;:<37999999761<,::1<<::-**&%%$$++",
"OO.o o.ooooooOO#$*::14578652111222221<<111<>;=*$$+OOOOOOO##$$&*=;;;:<168999998654<<<:,<:::-==&&%%@++",
"OXo X  .ooOOOO+#$*=:<268865111212356422211<<;=**$#OOOOOO+#$%&*===;;:126899997763411<<11::--=*&&%$$#+",
"OooX   oooO+O+#@$*=:1589863211112366665331<>;=*$$$OOOOO+#$$%&*&*==;>167899986663322221<:::==**&%$$#O",
"oo   XooO++++++#$*=;<677863211124776656541<:;=*%$@+OOO+#$$$%%%%%%*=:1688999966554352211,::==&*&%*$@#",
"ooX   ooO++OOO+$$**:<476655341214676535531<:;=*%$$+OO++@$$@$$$$$$*=:1377998655224554211<:--*=&*&$$@+",
"Ooo  ooO+++O++#$&*=:<146635441112555335531<:;==*&@+OO+++##+++#+#$*=:1466876321222555221<::*=***&%$@O",
"oo. XoO+++++@$$$$==;:<12666434142242457541<:;=**$@#+O++++OOOooO+@$*;11233311111114442211::=*=*&&%$#+",
"OooooOO#+#$$$$$&&**==>>266434421222145652::::-*%*$$##+OOoooooooO#$*::>><1<<<<<<<1121211<:===*****@##",
"OoooO+@$$$$%%%$%%%&&=;>266645431221245652<::-==**$$@#OOOoo oXooO+$**==-:::::::>,<111111<:====****$##",
"OoOO+$$&%%&=&%%%$$%&*;>266665414211145552::::==**$$$+OOooo.oooOO+@$%&**=--:::;::,<<1<<<:;==****$$$@O",
"oOOO@$****===&%$##$&*;>146664111121245542<::-=***$$#+Oooooo.XooOO+$@$$%&*===;-=;:,,<<<:;===****&$@#O",
"OoO#%*======*&$$+$$%*=:13353111122212454<:::-==*$*$$+OoooX oooOOO#++##$$%*====*;:::::::-=***$***$+OO",
"OO#$*=;=-==***$@$#$$&*;>2111<>1115222241<:::-=**$$$@OOOoXo.ooOoOOOOO++@@%%****=;:---=--==*****$$$++O",
"O+$%*;:;-=*&$$$$@$$%&*;><<>>>>>125522221:::--=*%*$$@#OOoooooooO+O++OOOO#@&****=;-==**===***&*$*$@@O+",
"+#%*=:>;=&&$$$@@$@$$%**;:>::::><2525221:::::-**%$$$@##OOOoooOO+++OOOooOO@$$***====&&****=*****$$$@##",
"$$&*-::=&$@+O++@#$#@$%&==;;>:>:>155222,>:-::==*%$$$$###OOoooO+++OOOOoooO+$%&&===*&&&&********$%%$$$@",
"%%*=;;=*$#OOoOO+##+##@$&====->:>145551,:::--=*%%$$$$@#OOOOoO+++OOOOOooOo+@%&&=**&&$$&*********&*%$$$",
"&&*=;;=*@+ooOOOO+OOO++#%&&===;>>2255521::::-=**$$$$#@@##OOO+++OOOOOOOooO+@%&&&&%&&&&********$*$$$$$*",
"=====**$+OoooooOOOOOO+#$%&&*==:>2255211,:::-=*%$$$@@@$$$++O+++OOOOOOoooo+@$%$$$%&*&***====*$%$$$*$$%",
"*=**=*&@+OoooOOooOOoO+#$$$$&==:,1222211<<<:--***$##$$@$@##$@+Ooooooooooo+@@$$$$&&&**==---****$$$$$**",
"&&*&*&$+OoOoooOooooOOOO##@$%*=;>11121211<<;-=*$$$+++##@@@$$+Oooooooo.ooOO@@$$$%&===----:;***$$$$@@$*",
"%%%&&$@+OOoooooooooooOO+##$%&*->::,,1221<<;****#$+OO++#+@@++Ooooo XX.ooO#@$$$$&&=-::::::;-**$$$@@$$$",
"#@@$$$+OooooooOoooXooOOO++#%&==;-::,:11<<;-**#$##++OOOO+##OOoooo X   ooO#@$*%&&=::<<<::::-**$$@$$$$#",
"O++##+OOoOooooOoooooOOOO+#$$%*=-=-:-::::>;**$#$##+OOOOOO+OOOooXX     OO+@$%*&*=;,1111<<>:;**$$$@$$@#",
"OoOO++OOooooOoOoooOoooO++@@$$***==--*:::;=**%####OOOOOOOOOoOOXoX     o+@$**%*=;>223221<,:;=*%*%%$$#O",
"OoO++++OOOOOOoOOOOoOOOOO++@@$****=*&*=--=**%$##O+OOOOOOooOXXoooX.oX OO+@$$*==:<123111<<,::==**=**#@O",
"OOOO++##+O++OOOoOOOOoOOOOO+@@%%**&%%%*-**%%$##+OOO+OOoOOXoXoooXoo ooOO+@**==::122<<<,>>>:;;=-==**$@O",
"OOOO+@$$$##+OOOOOOOoOOOOOOO#$$%*%%$%%*===*$$$####OO+OoOoXoooooXooOooO+$%$==:::1211,<,,<<<::;-==**$$+",
"OoOO+$$%$#++++OOOOOooOOO+OO+#@$%%%%%&*****$%$$$###+OOOoOoOoooXoooOO++$%%*=::<<12<<,<<<121<:;--=*$$#O",
"oooO+$$%$$$@++OOOOoooOOOOOOO+#$%%$%%%&***$*$%$$$$@@OOOoooooooooo+++@$$%*-::<11111<:<:12211::;==&$#Oo",
"oooOO$$%$$$$#++OOOOOOOO+oooO+#@$$%%%&**%*$$%$*$$$@#+OOOXooooOoO+@@@%&&-::<<<11111111122531<:;=*$#+oo",
"XXooo#$$$$&$$@+++OO.OOOOO OXO+@$&&&&***&$$$%$$**$$+O+OOooooOOOOO@$%**=::11<1112121111465441:-=*$#OoX",
"XXXoOO##$&*&$$#++OoOOOOoOXXOO+$$&&==**&$$$$$$$$$$@@++OOOoOoOOO+@%%*==::1222212112222125541<<:=%$+ooo",
"X  ooO#@$***%$$#+OOOOOOX  oOO+$%&*===*&$@@@@$#$$$@++OOOOOOOO#@@$%*-::<22555241125555456422<<:*%$Ooo.",
"  XXoo+$%===**%$++O+++OoO OOO+$%*===**$$$$$$$$@@+++++#+##+++@$$$*-:<125555534422666666541<<:-*%@Oo..",
"    oOO$%=:;==*%$+$@+@+OOOOO+$%%=--==&%$$$$$$#@#+O+O#@@$@$$$@$**=:<4565555524225669766642<::=&$@ooX ",
"    ooO#%-::::=***%$$@+O+OOO+%%*--;-=*&%$$$$$#@#+++###$@$%$$$$$*;>266655552212156999777521:-=&@OooX ",
"    ooO#%:<1<<:;*****%@$++@$%%=::::--*&$$$$$$$#@#+++$$$$&&$$$$&*;<576555522111146699977641:-*$@Ooo  ",
"     oO#*:<122<<:::;=*%*%%%%%=::,<,:=&&%%%*%$$$@#+##$$$$*&&%$$&=:13553322221<1114666766521:-%%@+oo  ",
"    XoO$&:<35532221,:-=******::111<-*%%$$*$**$$$@$++@$*$**$$$***;<4621111<<<<<<1256766632<;=&$+oo   ",
"    XO+$*;,15565552<:::;-===:::222:=**$$$$$***$$@@+#$$$**$*$$$**;<1311<<::;:::<<143666662>;=&$Ooo   ",
"    o+$&=-,255666522<,:::::::11122::***#$$*$$*$$@##$$$$**$%$$$$*-:1111<;===;;;:<126355532>;=%+OoX   ",
"    o+$&=:<2566665521,,>:<<<122242::**$$#*$**#$$##+@@$$$*$$$$$**:<111<;*****=*-;<11124552<;*$OoX    ",
"  XoO+$*=:12566866551<1<12222555551:**$$$$**$$$+++++$$$*%*$*%%*=;<<<:;=*$$$*$**=;:::><132<;*@OoXX   ",
"  ooO+&*-:126688997552121254455665<-**$$*$*$*$$+++++#+@$$$$$$**=;:::;**$$$@@$$*****--:<11<:&@OoX    ",
" XXo+$&*;>125688999642112255556665:-*%*$$$#$$$$#++++#++$$$$$$**=;;;==*$@#+OOO+@$$****=;>>>;&+OOX    ",
" XXo+$&=::<2366689662222455555652<:=*$#$$$#$$#++++O+#$#$$$$$$%**=--=**#++OOoOO#@#+$#&&==-;=&$+XX    ",
"XXoO@%&-::1225656665422245555421<::%%$$###++++O+++######@$$$$$**=-=*&$++OOoo OOO+O++$***===%#+OX    ",
" XoO@&=-><12555525552212244542,::-*%$@#+OOOOOO+O+#@$$$$$@$@#$***==*&%$+OoooooOOOOOOO#$$$***%##OoX   ",
"XXo+$&=:><2255522222121222222::-=*%$#+OOOooOOOO++#@$$$+$$@$#$***=**%%@#OOoooOOOOoOO+###$%&%%##+OXX  ",
"XoO@$&=-:1225521111211111121::=*%%$$+OOOOooooOO+++#$*$*$$$$*****&&%%$@#OooooOOOOO.O+O+#$$%%$$@#OoX  ",
"ooO@$*-::12254211<112111,1,::=&%$$@+OOoOoooOoOOOO+@$*$*$$$$$**$*%%$%$@#OOOoOOOOO.OOOO###$$$$$$#Ooooo",
"OO@$%=--:::2221,<,,11111:::-*&%@+++OOOO.ooooooOO++@@$$$$$*****$*%%%$%%@+OOoOOOOOOOOOOO+##$$$%%$#+ooo",
"+@$&*=--::<111<,,<<<111:::=&%%@++OOoo   oooooOoOOO+@@$$$*$******%$%%%$@++OOOOOoOoOOOOOO+##$$%$$#+ooo",
"+@$&*==---::11:<<:1121:::-*&$$++XOOO O oooooOoOOO+++++$+*$***=*$%%%%%%%@++OOOOOOoOOOOOOOO###$$#+++o+",
"+@$**====;;>>>><<<1221:;-=*$$#OOoooXoooooXoooOoOOOOO++#$$%**==**%%****%###OOOOOooOOOOOOOO++++++++OOO",
"++$*****==;:<<1<11221>:==**%$+Ooo  o ooooooOOOOOOO+OO++$$%*==;=*&*=***%%@#+OOOOOOOOooOOoOOOOO++OOOoO",
"O+@$%**&**;:><122232>;=***$$@Ooo .    ooooOOOOoOO+OO##$$%*=;;;;======**$$@@OOOooOOooOOOooOooO++OOOoO",
"+#@$$$$$&=;::<11111<:***&%$$+ooo    ooooOOO+#OOOOO###$$$**;><>::;;;===*%$$#++OOOoooooooOoooOOO+##++#",
"@@$#@$$$&*;:::>>,,::=*&&%%$+Oooo   oXo OOO##+OOOO++@$$$*==;<<11<>:;;;=**$$+OOOOoooXoOoooooooO+@$@$#@",
"*$$#@@$***=;:::::;==*$$$$#$+ooooXXXooXoO++@@###++O+$$$$*=;<<2111<>>>;;**$$#++OOoooXoooooo.OOO@$%*$$$",
"*$$$@$$$&*=;-;;;===*&&$$$##+oooooooXoooO+$$@#@$@++@$$**-;;><112111<1<>=*%$$#+OOOoOXoOOoooOOO+$******",
"*$$$$$$*&**---===***$$$$#$$OoooooXOooOO+@@@@#@$$#+@@$**-;;><11144422<;=**$$$$@+OOooOooooooO+@*******",
"**$$$&%*%*====*****&&$$$$%$OooooXOOOOO+++O++@@$$@+#$$**=-;::<<233332<:;=**$$$@+OOOOOOooOooO+$*=====*",
"$$$$$$*$********$*$*&&*$%$$+oooOOOOOOO+@+OOO+##@$$$$$**=-;::<<156341<:;===**$$+OOOO+OOOooO+@*=--=***",
"$$$$&&$********&$&$**=***%#OOOooOOOO+O+OOOOO+++@$$$$$**-;;;::<145552<<;;;;==%$$#++##+OOoOO+$*=;;=**$",
"$@$$$$********&%%&**===*&%$+OooOOOOO+@+OO.oOO++@$$$$$**=;;::<1442541<<::;;;==*$$@#@@@+#OO+$*=::;**$@",
"###$$*%&***==******====**&$@OOoOOOO+++OO.oOoOOO@$$$$***;;::<<1142552<:::::::;=*$$$$$$@$#$$*=;::-*$@#",
"O+#$$$%&****==***=====****$$+OOOOO+++Oooo.oooOO+#$$$**=;;:::112425541<<:<<1<<;*%$$$@@$$*&*=;:;;=$$#O",
"O##$*%**%**==;=;;=:;===***%$@+O++O+OOOOooooooOO+#$**$*=;;::<2444222111<<<211<;=*$$@$$$$**=-=--=*$+OO",
"OO#$$*%&***=;;::::::-====***$$++OO+OOXooo..oooO+@$$$**=;;:<12334222211123362<;=**$#$$$&*=-=*===$$OOo",
"O++%&&&***=-::>,<<>>;;-;;==**$$$@$#+Oooooo.oooOO@$$%**=;;:<243342121111446641:;*$$@$$$**==****$@+OoO",
"O+$%*&***==-:<<1<<,>:;;;;;;;=***$$@+Oooo..oooOO+@$%%*=;;::<136641121214566664<;**$$$$*******$$#+OoOo",
"+@$%&**===-::111111,<:::::::;;==**$#OOo.ooooOOO#$$$***;;::<266342112214546763<:=*$*$$$$*%$$$$#OOoOoo",
"+@%%&***==-:111111111<1<<<11<<<:;=$@Oo.oooooOO+#@$$%*==;::<1566322222224456631:==****$$$@@$@#+OooooO",
"+@$%*&====-:1222334211<111333111;=$@+OOOooO++#+O##@***=;;:13653322421142446641<:-=*$$$@###+#+OO..ooo",
"O+%%&&*=&-::11223534122266676641:=*@@++######+++###$**=;:<135553555212224664641<:=**$$+OOO#+Ooo. Xoo",
"+@%%%****=::<1123634245367898751:=*$$$@$$$$$#+OO+O@***=;:<145555666511122566765<;**$$++OO##Ooo... oo",
"+@$$%****=::<<123344356679999861:**%*%&$$$$$#+OOO+#@&*=;:<1456556664211124667761;**$@++O++OOo.o ..oO",
"++$$%%***-;::<112144356689999851:-==***&*$$#+OOOO+@$**=;:<125566665211111578876<;=*$#+#OO+ooo ...ooo",
"++$$%***=-::,<1<1113566899999741::;==**%$$#O+OOOOO#$$*=;>1122222552241<113777731:;=$#O+OOOooo..XoooO",
"++$%%&**==;:>><>><<266899999861<:;;-=*&%$@#+OOOOOO+$$*-;:<11,>,12222211116777611:;*@@+OOoooo  o ooo+",
"++$$%%%*=-;:>>>>:><15899999975<:;;-==&$@##OOooOoOO#$***-:>>>>>>>1222211245666331<;*$#OOooo..ooooooOO",
"+$$$$%&*==::>,:::::15899999861>:====*$#OOOoooooOoO+$$$**;::;:;::<224212246666552<;&$OOooooo ooooOOoO",
"#@@@$$%&==;::::::::1589999963<:====**$+OOooo.ooOO+$$@$$**=-;=;;:1242222246553532<;&$+OoOoo ooXooooOO",
"+++@@$$&*=-::::;;:<1568999864<;=****%@OOoo...ooO+$$#$$$$&*===;:>1556655545655531>=&$OooooXoXo.oooOOO",
"+O++$@%&*=-:;;;=;:,1566999662<;==***$#Oooo.oooOO+$$@#@$$$%*=;;:<2556555566336321>-*$+OOooo.ooooooOOO",
"OO++@$$$*=-=-===--:<466777662<:-=***$@+O.ooooOO@@$$$$$$@$%*=;;<14555566666555521<:=&@+OoOoooooOOoOOO",
"OOO+@$***===*****-:<1456676641:-=**%%@+OOOOoOO#$$*$$*$$$$$**-;:<11<12566766552111:-&@+OOOoOOoOoOO+OO",
"OOO+@$$%*******%*=:<<256666541::=***%$#+++OOO#@$$$*$$$$$$$$**=;;::::125666665221<::*$+++OOO+OOO+#OOO",
"OOO+@$$$$*$$$$$%*=;:1445566552<:-==**$$@+++++@$**$***$$@@$$$$**-=--::12566665421::-*&$@@$$@@@@##+OOO"
};
