/* XPM */
static char *result[] = {
/* columns rows colors chars-per-pixel */
"100 100 32 1 ",
"  c #3E7AAE",
". c #3F7CB0",
"X c #407BAF",
"o c #417DB1",
"O c #4582B4",
"+ c #4886B7",
"@ c #4988B7",
"# c #4987B8",
"$ c #4C8BBA",
"% c #508FBE",
"& c #4F90BE",
"* c #5091BF",
"= c #5395C1",
"- c #5699C5",
"; c #589CC7",
": c #5A9EC9",
"> c #5DA3CC",
", c #60A7CF",
"< c #60A8CF",
"1 c #60A7D0",
"2 c #63ABD3",
"3 c #66B0D7",
"4 c #68B1D7",
"5 c #67B2D8",
"6 c #69B5DA",
"7 c #6DB9DE",
"8 c #6EBCE0",
"9 c #70BEE2",
"0 c #73C2E5",
"q c #75C6E9",
"w c #77C8EB",
"e c #79CBED",
/* pixels */
"252322<>==$$O++$$==;:>122222,:-====&$$&&=======----======$$=$$$#$$$$==;>2222<1>;;-$$$#+$$*-:22252552",
"5232<>>-=$$$+OO@$$=-;>1<225522>:--==&=*==-=------=-===$$$$$$$$$#$$$$$$=:>12>>>>;-==$$$$$*=->22345245",
"2222>:-=*$$OOOO$$===;>>22555522>>>---==;-:;;;-;--====$$$###$#+++OO+#+$=::>>>>>;;==$$#$$==->223555523",
"222>;==&$$OOOOO+$$==-:1235655222>>>>>>:>>>:>:>:;;==$$$$++OOOOOOOOOOOO$&=;>>>>>;-==$##$$=-:>256653222",
"2>>:==$$$+@OOOOO+$$==->256675542222222>1,>,>>>>;-=$$$$#+OOoOOOOOoOOoO$$=-:>>;---=$$#$$==-:,255522222",
",>;=$$+$O$OOOOOO+$$=*->2265776543666633222222>>:===$$#OOooOoooOoOOoOO+$&=;:;-----==$$&=-;>2222222222",
">;=$$O@#O$@OOO#$$$$$&=:>2577776677779776323222>>;==$+OooOooooooOoooOOO$&=--=--;;;==$$$=->>,2222>,121",
"-=$+OOOOOOOOOO+O$$$$&=:<2557797878000087765522>>;==#+OOOOoooOoooO.oOOO$&=-----;;-==$==-;>,,1>,11>,>:",
"=$@OOOOOOOO++$++$+$$$=;>235678888000ee008776421:;=&$OO++OOooOoooooooOO$$=-=--;>:;=====-:1>2>><>>>:-=",
"$@OoOOOOOO+#+O+++++$*=;>1267787788qweeww008762>>;-$$$+$+#OOooooo.oXOOO$&===-;:>>;====-->>221<>>>:-=%",
"+OOOOOOO+#O#OOO@+#$$&=;>2568878800qeeeeewq07721>;=*$$$$$#OOOoooo X OOO$&*===->>:=====-;>>2<><>>;-=*$",
"OOOOoOOOOOOOOOOO++$$*->,2788888900weeeeeewq8622>;-**$$$$OOoOOooooXXoXO+$**==-:>:-===-;;>1>22>>:;==$$",
"+OOOOOOOOOoOOOOOO$$%=;:267887888800wweweew09632>;=&$$$$+OOoooooXXXXoXO@&**==-:::===---;>,22,>>;-==$#",
"@OoOOOOooooOOooO+#$%=;,278877778880qqwwqw09732,>;=$$$$#+OOoooo X  XXOO@$%**==;:;=====-;>>22>>>;-=*%$",
"$+OOOooOoXooooOO+##%=;135897878880800q00076222>>-*$$$##+OooXX X    XXO@$%**==-:;--===-;>>2>>::;-=*$$",
"++OOOoooXoooOOOO##$%=;12577887778788000075222>>>-=$$##OOOooX        XOO$$%**=-::;-----;;>>>>;--=**%$",
"+++OoooXoXoooOO$$@$&=->2566887777677809862>>1>>:=$$$+OOOoo            O#$$$%==;:>-;;;;>>>>:---==**$$",
"+OOOooXX o o OO$+$$$*-:2226787767767888732>>>>>;==$#+OOOooX           OO+$$$==;>>>>>>>>>>>--**===$$@",
"OOOooo XXXX OOOO+$@$&=->>23677776777777522>>>>>-=*$+OOOOoX            ooO#$=*=>>>>>>><>>>;-*****$$+O",
"OoOooX oXoXOoOOOOOO$$*-::>223657755776672<>>>>>-=$$OOOOOoo            .oO$$*=->>>>>2222>>;=**$**$$OO",
"Ooooo o    X    OOO+$&===;>,235677576655322>>>>-=*$@@OOO             oXXo#$%=;:>><<33222>;=**&$$$@Oo",
"oooo XXX        OOO+$$&$*=;>,2242222525222212>>-=$$$$$$+o              ooO$*=;>>>>223342>;=*$*$$+OOO",
" o X.oo         ooOO+$$$$$=-:>,22222222222<<>>>-=&$$$O$Ooo            o.oO$%=;;:>>236632>;==*$$$$Ooo",
"X oXoX          ooOOO+OO+$$=;>>22112211222122>:-*$$$$$$Ooo             XoO#%--;:><3667622:==**$$#OOX",
"XXXoo           oooOOOO+O#$==:,,2>,2><,22>22>>;==$$$$$@+oo          X  o.O$&==>>>2377763<>;===$$+OO.",
"oXooXXO         oooooOOOO$$=;:>>>>>1>>>>2>>1>>;=*&***$+Oooo         XXooOO$*;>>>234676632,:==%$$OOoo",
"oooo            XooooO+OO+$*-:>>>>>>1>22><>>>:;-=*===$@Oooo     .o.Xo.ooOO$*>>22466777642<>;=*$#OOoo",
"OoOo             XoOOO+O+$$==:;;:-:>,>2>>>>>::;------$@OOoXXoXXXo OXooooOO&;>>26767767762>>-=%$$OOoo",
"oOO             XooOOO+O+$*=-;;===->1222,>>::-:-;;:-=&@OOoooXXooOOOOO OOO@&;>3677777778752>-==$+OOoO",
"Ooooo            XoO+##$$**--=**&=-:,221,>:;;;:;:>>;-*$@OOooooooO+OOOOOO+$*>>377080008076>:=$$#OOooo",
"oooo             ooOO#$$**==*=**&=->22221>>::>:>>>>;;=&$OOooooOO+O@OOOO@$&->26700000000732:-=$+Ooooo",
"XoXo            oooOOO#$***===*$&&->>3332>>:::>::>>:-*$@+OOOoOOO+@++@@$$&*->26000wwwq08621:-$$+OoOOo",
"ooXX          X oooOO+$*%%====%%&=-;>2222>>-::>::>;;==$$OOOooOO++#+O$$&**-:24700weeeeq042<>-=$#OOOXo",
" o            oXoOOO+@$*=%=;;==$&=-;>2<22>;-;;;-;;--=$@OOoXOoOO+@O$$$$*=-;>3700weeeee0875<:==$#Ooooo",
"o  o       . .XooOOO+$$*=*=:;-===--:>>22>>>-;;--;;-=$$OooooooOO++$$&&**=;>3780qweeeeeq065<;-=$$OO.o ",
" o          XoOOOOOO#$$*%==:::;=-;;>>>2>,>>:;;-====$$$+OOooooOOO$$$$$*=->26700qweweee0075<>-=$$+OOXo",
" X o        oOOOOOOOO#$$*=-;:::;::;>>>2>,>>:--====*&$$+OOoooooOO+$$$$==;<3670wqwwweeeq0861>;==$+ooo ",
"            OOOOOoOOO+$$&=--;::>>>>>>>>>,,>;-==**&*$$$$OOooooooOO#$&$=-:26700wqqqwwweq00732>-$$OO oX",
"     o XXXXOO+OOOooOoOO$$==-;:::>>>:>>><>>:;-====**&&$$+OooooooOO$$==-;>26700w000qweewq086<>-$#OOo. ",
" X    oXo OOOO+OOOOoOO+$$$===-;>>;;>>>>>>>:--===&$$*&$@@OOoOoOO+$$==-:>23700w0000qqwq0q0062>-&$+Oo.o",
"X   .ooooOOOO@O+OOOOOO++$$====-;--;:>:>>::;===*=*$*$$$$$+OOOoO+#$*=-;>>2670qq0000qqq0000762>-&$$OOX ",
"XXo  oooOOOO+++$+++OO+$@$$==**==---;;::;;;;===%$$$%&$$$$+OOOO++$$=;::>22780qq00080080880862>-&$#Ooo.",
"Xo  ooOOO+++++$$$$$$$$+$$$$**=*==--:>;;--===*$$$$$%&&$$$$#+OOO+$*=;>>>25700qq00000087777762>-=$OOo o",
"X  XooOO$@@@$$$**$%%$*$$*$***$*=--:>:;--=*=%=$$$$&***$$$$++OO+@$*->>,22678q00q0q00886776632;=$OOOXXX",
" X XXo+$$*$*****=======*&$*&*==-;>>>:-===*=$$$$O@$$&$$$$$$@+#$$=->>2222670000qq08877656632>-&$OOOoo ",
"    ooO#$*===-;;;;:;;;=**%*===;>>>2>;-=*=$$$$$+#O@@$@$$$$$$@$$*->,<22236788800089877656632>-$$OO oX ",
"     OO$$*-:>:>>,,>>>;;==%*=-:>>222>:-=*$*$$#+OO++@$#$$$$$$@$*=;>,22433567777877876656662>;=$OOOo.X ",
"X   ooO@*=;>,,<<222,>:;-===;>><25522>-=**&$$##O#O+++$+$#+$$@$*->>233332335536367775566542>;*$@OOo.  ",
"   XooO$%-;>22356532,>:;=;;>,<24562<>-=&$$$$++++#+@$+++$+#$$$*;>2265543253222<25633666632>=*$OOoo   ",
" .o ooO$%->226666532,,:;::,,22266652>-=$$$##++O+@#+O$+++##+$&&;>22655322221>>>22233676631:-=$OOo oX ",
"  XXoOO$*->>3676652322,>>,,223466752>-=$$$#++++#$O@O$OOO#+$$&*->246652222>::;>>223366642>>;*$OoooX  ",
"X .ooo+$*-;23666555542<222332232552<>-=$$$+$++#++$O$OO$#$$$&&*->2266322>>:=-->>>22463322,:=%$OoX. . ",
"  .ooo+$*->2346656777555444425343221;-=$$$+$$$++$OO+++O$$&&&&-;>,25622>:;====;:><232<,<,>:=%+Oooo   ",
" ..ooO#$-;>36666577777997776542322>>;=$$$+$$$$$$O$$OOO##$$&&&*-;>222,>:;==$==-->>,,>>:>::-=$$OOX    ",
"  ooO+#%-;<36636579999099997553222>>;=$+$+$$$$$$$$$O$O$$$&&&*=->><2>:;===%$*==-;:;;;;;-==**$$OoXX   ",
"XXooo#$=;>23666677900qqq099762222>>-=$$+++$$$$$$$$$+O$$$$&*===-;>>:;-=***%***==--=====**%$%$$Ooo o  ",
" ooOOO$=;246676779900qq000975222>>-=$$OOO@$$$$&&&&$$$$$%*====-;>::;===$=*%*$$%%%&$$**%$$$#$$+OoX Xo ",
"o oOO$%->247777799000000qq9752>>>;==$#+OOO+$$$$&&*$$$$**===--;:::-=-===$**$$$@$#$$$$$$@++OOOOoo    .",
" ooO$$*;>26999999000090qq09722>:;:=$#++OOOO@$$$$*$$&$&*==-;;;;:;;-;====*=%$$@+++O++@@++OO+OOOoXXX   ",
"  oO+$*->2690000q0q0000w00862>:;-=$$#+OOOOO+$$$$*&$&&====;;>>>>:;;;;;====*$$@+OOOOOO++O+OOOoooXX Xo ",
"oooO@$$=>2690w0wwqq900qq00721>;-==$$OOO.ooOO@@$&$$*====--;>>>>>>>::::;--==$$#+OOOooOO++OOooooXXXo  .",
"XXoOO#*->25900wweqq000qq0872>:===$$OOO.OoooO+$$&%&**====->>2>>>>::>>>;;;-==$$#OOOOoOOOOOOoo         ",
"o.oOO$*-:2470qweeeqqqqq08752:-===$$OOooooooO+@$$$&**===-:>>>>>>>>>>>>:::;==*$#+OOoOOOOOOo     X   X ",
" ooOO$*=;>2580qeeeeqqqqq8751:=$$$$$#OOo.oooOO+$$*&*====;;>2><>>>:>::;:::;-=*%$##OOoOOOOoo         o ",
".ooO+$$=-;<580qweeeewqq0762>-=$$$$$+OOoXoooOOO$$&==-=--;:>>121>>>:----:>:-=**$$++OOOOooo        X XX",
"oXoO+$$*-;<588qweeeewq0863>;-=$=$$$+++OOooOoOO$$=----;;;;:>111<>>--===--;=&*=$$@OOOoooo          XoX",
"XoooO+$=-><368qweeeew0873>;===$$$$##OOOoOX OO$$&-;;;;;;;-:><22,>;-**$==-==&=*$$OOOoO               o",
"oooOO@$*=>1368qweeew00861>-=$=$$##+++OOoXOOO$$*=;:>;;;>;;>>>222>:-**$*=-==&*&$OOOOoo             oo.",
".oooO$$*-;<2680qwwqq0863>-==$####+##+OooOOOO@&=-;>>>>>>;>>>2333<>-==&====***$+++OooX            oXoo",
"ooOOOO$*-;<370000qq00862>=&$++O+O#+OooooOXOO$$=->;>>>>>;;:>22322:=$$$=====*&$++OOooo            Xooo",
"oooOO+$==><380080808863<>=$#OOOOOOO+Oooo XOO@$*-;>>;;;-;;>>>222>>=========%$$$+OOoX             oOOo",
"OOOOO$$=-><377877777662>-&$OOOooOOOoooXXXOOOO$&-;-;;;;;;>>>>2222>;===-;-=&$$+OOOOoX             oooo",
"ooOO+$&=;>>36776777763>>-&+OoO O   o ..oooooO#$=-=-->->>>>>>22>>>:::;::-=$#OO+OOOoX             oOoO",
"ooO+$$&=;>>237776666<<>>=$Oo..           XooO$$===&=*-->>>>>>2><>:>:>>:==$#OOOOOXoX             oooo",
"ooOO@$*=->>23677743<<>>-&#OOO            XooOO$$&&&&->>>>>>>>>>>1>>>>>;-=$#+OOOOOXXX            ooXo",
"XoO+$$*==->2366773<>>>--&$Oo O          . oOO$$$&$&=*>>>3>3>2<>22>111>:-=$++OOOOOO              oo X",
"oOO@$$&*==>>367663>>----&@O              XooO$$$$$&&=>>3>3<2<2>211222,:;=$$+O+O+Oooo            oXX ",
"XOO$$$%=*=:<236632<>>->*$@OO.  .         XoOO$$$$$&&=>>><<2<2222222221>>;=$$$@@+OOOoo      X    XoXo",
"OOO@$*%$*=;>233322>>>>>*&@OO             .oO+@@$$$&==>>>>333333322223221:-=*$$*$+OOoooo     XX  Xooo",
"OOO@$$$**=;>223222<>>>--*@OO.OX           ooO++@+$$=;>>><><34666757765222>;===*$+OOOOOooo  XX.o ooOo",
"OO@$&&&&&=;>>22222>>,>-=*$@OOXX             oOOO+$*=-:>>>>2456677676765432>::==$@+++OOOO  oXo oooOOo",
"+@$$&&&&*-:>>,,>>>>>>:=**$$OOoo             OOOOO$*=;>>>>>,26777776666776222>:=$$@++$+OooooX   oOOOO",
"+$&****==;:>>>>>:>>>>;=**$$@OOoo            OOOO#$$=;>>>>>2279977667777875221>==$+@$OOOo. X XXoOOO+O",
"$$**=-==-:>>:>:;--;>>;=*%$$$OOo           XXOOO+$$%-:>,>>,2589997767777877622>-=$$$@+OO .oo X XoOO++",
"$$===;;-:>>>:;-----;;:-=*&&$$+O      .X  ooOOO++#$*=>>11,24790q99999877887755,;=*$$+OOoOoooXO OOOO##",
"$$*=-;>>>>2>>;-=-=--;:--***&$@Oo      XXoooOO#+$$$*-:,2227700qq09997877888772>;=$$$@OOOoOooXoOoOOOO$",
"$$*=-;>>>>2>>--====-;;-===**$@ooo X o XoooOO+$$$$$=-><24700wqqeeq999877778752>:=*$$OOoooOooOooOOOoO#",
"$$==-;>>2222>;--====;>;-===*$OOOo.oXXXXoOoOO+$$$&&=:,22670weeeeew099987799952>;=&$#OOOOOOooOOOOOOoO#",
"$$==::>>11<>>:;--==-;::;-==&$@OooXoXoXXOOOOO$%$%$==;>22790eeeeeeew0098789763>>-&$$$O+OOOOOOOO+OOOOOO",
"$*==:>>111<1>;-==&=;>>>-==**&$OOooXoXoOoooO+$$$$$*-;><2670qweeeeeq9897887662>;-*$$#++OOOO++OOOoOOOO#",
"$=-:>>1>11<1>;-====;>>:;-=*=&OOOoXoXoooOOoO++$$+$*-;>1267800qqeewq9878777622>:=*$$###+++++OOOOOOOOO$",
"=;:>>>,11<<>;-==&&=;:;:;---=*$OOoOXXooOooOOO+OO+$$=-:<25677800qqq09878877622>:=$$+#$#+##+OO+OOOOO$$=",
";>>>>>1><2>>:==&&==-;;--=--=*$OOOXoooooOoooOOOO+$**-:>2466667800098988877622>:=$$$$$++OOOO+O+OO+$$=-",
"<22222122<>>-==$$===;;-----=&$OOooOoOOoooooOoOO#$*=;:>22223347799767757776622:-%$$$#++OO++OOO++@$=;>",
"2222222222>:===$$$==---;;:;=*$+OOoOooOooOooOOO+$%*=-;>>222<224665644365776632>-**$$#+OoOO+++$$$$=;>>",
"222223562>>-==$$$$==---;:>:-=$$OOoOOOoOoOoOOO+$$$*=-;>>><>>,,<<<3222335566622>-==$$+OOOOO++@$$*=;>22",
"222356652,;-*$$$$$*=;;>>>>:;=*$+OOOOOOOOOOO+@$$$**=-;::>>>:>>;>>,,:,123456532,:-==$$$OOOOO$$$=-:><22",
"33255642,>;=*$#$$$*=;:>>>>>>;=$+++O+++@##$@@$$%**=---;-;-;;-;----;::,12455432>>;-=*$$OOO+$$&=-:>2222",
"35535422>;=*$$$$$*=-:>>>2,>>:=$$$$$++#$$$$$$$%*=*=---------=*****--;:>,222222,>;-=&$+OOO$$$=-:>>2222",
"22522222:=*$$#+#$==-:>>22222>;=$$&$$$$$$$%%***==-----======***$$%**==;:,24222>>:-=*$$O#$$$=->2223232"
};
