/* XPM */
static char *_649345741377[] = {
/* columns rows colors chars-per-pixel */
"100 100 34 1 ",
"  c #3E79AE",
". c #3F7CB0",
"X c #407BAF",
"o c #417EB1",
"O c #4582B4",
"+ c #4886B7",
"@ c #4988B7",
"# c #4987B8",
"$ c #4C8BBB",
"% c #508FBD",
"& c #4F90BE",
"* c #5091BF",
"= c #5395C1",
"- c #5699C5",
"; c #589CC7",
": c #5A9EC9",
"> c #5DA3CC",
", c #60A7CF",
"< c #60A8CF",
"1 c #60A7D0",
"2 c #63ABD3",
"3 c #66B0D7",
"4 c #67B2D8",
"5 c #6AB5DA",
"6 c #6DB9DE",
"7 c #6FBCE1",
"8 c #70BEE2",
"9 c #73C2E5",
"0 c #76C6E9",
"q c #77C8EB",
"w c #79CCED",
"e c #7CCFF0",
"r c #7ED2F3",
"t c #80D6F6",
/* pixels */
"etreq9532:-*$#OOoOoOO+O##O@O@O#$$$##$&&=->>>><2445432>>>>>:=*$$+ oO+OOOOoOOOOOOOOooOoOO#&*>,269qwrte",
"trrrw0742>-=$#OOOoOOOO#$$$$##$$$$$&&&&*-->>,222344422>>>>:-*$+Oo  oOOoooooooXOoOoOOoOOO$&=->260qwrtr",
"trrrww962>:*$#OOoOoO+##$$&$$$$$$&==*=*--:>2224555532,>>>:-=%OOoo    ooooXX  oX  oOoOOO@#$*><360qwrrr",
"rrrrwq964,:=$#OOoOooO#$$&*&*&&*======->>22445666653,>:>::-*#Oooo    X        X  XooOOOO#$&->3690wrrt",
"rrrww0852>:=&$#+OoOO+#$$&=======-===>>>355666667653,>::--*#Ooo                  oX oOOOO$&->5690etrr",
"ewq009642>-=$$#OOOOO#$$$&==--:>>>->>>25689987787652,>:-=*$Oo                      ooOOO+$*->369qweee",
"0099862>>=*&$##+OOO+#$$==-->>><>>>>23590q0088777652,:--=$@o                      XoOOOOO@&:>3690wqqq",
"888642>-=$$#$+++OO@$$====->><223232369www0988877542,:-==$O                      X .ooOO+$*:>26990099",
"66522>=*$+++####@#$***===-><2345566690wewq997776652>:==%+X                        OOOOO@$*:>26699996",
"4421:=*$#OO++###$%******=->2466666679qwww9979777522>:-*#OXX                      . XXOO@*-:>26699666",
"2,,:=*$@+OOOO@#$$$*****==-:<3687769990qq99997777542>:=$OOX                        oOOOO$*->>26666532",
">::-=$@+OOOOO@##@$$*****==:,26866766999999967776532>-*@OoX                      . oXXO@$*->><35552>>",
"==-=*$$+OOOOOO@@@$$$$****->,46767677999777779765422>-$+O                        oooooO$&*-->>232>>-*",
"*%==*$@+OOoOOOOOO@@$&$%*=-><4666667676766666666422>-=$OO                       X ooXOO$**--->>>>--**",
"$$$=*$#@OOooooOOO+@$$$**=-><3565656666565444453322:=*#+oX                      XO OoOO&*==-->>-**&&$",
"$$$$*$$#OOOoooooOO@#$**==::,2234535665433332322<>>-*$$Ooo                     oXXOOoO$*=--=---*&$@@@",
"#$$$&$$@@OOO  XOXO@$$*===-::>,224455532>>2,2<>>>>:==%$+Oo                     oOoOOO+%=---=-==%@@O++",
"###$$$#@OO    X  OO@$**===--->>2223322>>>>>>>::>>-==$$+OooXX                XXoOOO+#%==---==-*$+OOO+",
"###$#$@OOXoX    XOO$********=::>222<2>>::-::--:>::==*$+OOoX                 XOO++$$%%=------=*$+OOOO",
"#@#####OOO .     OO@$*&&$$$&*=:>>>>>>>----=---->>-==*$@OooX                 oO+$$$$=--:-:---=$+OOOO+",
"@OOO@OOOO        oO@$*$$$$$$*=-:>>>::-==*====-:>::-=$$++oo                 oO+$$$*=-;>,,>-:-=$+OOOOO",
"OOOOOOOOO        oOO#&*$$##$$*-------===**===-::>-=**$$+Oo.                o+#$%*--:,<2,,,>:=$+OOOoO",
"XOXOOOOO OO      XoO#$$$$$$$&*=---==*====&*==-:::-==*$$$OoX                o+$*=-:>,3533<,>-=$+OXooo",
"  OX  OOOO        oO#$$*$#$$$*==***$&**&&**==-:::::====$#O            X    X$*-::,2466652,,:*@OoXXXX",
"  O O OOOo oo   X oo+$$$$$$$$***$&$@#&**&===--:>:>:--===$#ooo      X o ooO+#$-;,2358908642>-*@OOXX o",
"X        Oo.     Xoo+#$%$$$$$*&$$$++#$*$&===-::>>,::---=*$+Ooo      XooOOO#$=->23690w08852>-*#OoX   ",
"       .oOoo    XXoo@$$$$$$***$$@+++@$$*====-:>>,,>:::--==$+Ooo     ooO+#$*=->1369wwew0852>-$#Ooo   ",
"       oooO      XoO#$*%$&***$$#+++++#$*$===--:>,1,,>:::--*$Ooo o ooOO+#&===>23690wtrw9852>-*@OooX  ",
"       oooO   o  ooO$$$***%=$$$$###@#$$**===-:>,1222,>>:>:=$OoooXXooO#$=--:>1480wereew0852>-=$Oo. o ",
"      X oOoo o   XoO$$%*%****=$$$$$$$$&***==-:,232222,>>>:-%+OOoOOOO#$=::>>2680weertew96622:=$#Ooo  ",
"        oOooo . .oo+$$***====&**&$$&$&$**==-:,1234322<,>>:-$#OOOOO+#&=:>>225800eereeew0863>:=$#OOo..",
"      ooooo.   .XoO$$======-==$&$&$&*$&&*=-::,235542111,,:=*#O+###$*-:>>22589wweeeewew0963>:=&$@Ooo ",
"oo    XooOoo  XXXO+$*-----::=**********==-:>>2256522,,<,>:=$$$#$$*=:>>22257800eeeeewew0862>:-=&#OOoX",
"o.o.ooXoooooXX XOO@$*=---->--===----:----:>,22565422,,,>>:=%$$$$=->>,>2245790qq0qwweww9742>>-=*$#OOo",
"oooooooOOooooXooOO$&=--:>>>-------:>>>>:>>>24455422<,>>>:-=*%$%$=->>,22245800qq0qqwwwq9742>:-=$$@OOO",
"OOooOooooOOoooooOO$*---::>>>----:>,,,,>>>>>243432<,,,>::--*%$$$*==:>12356799qqq00qqqq07522>:-*$#OOoO",
"ooOoooOOOOOOOOOO@$*-->:>>>>>>:::>>2222,>>>22222<,>>>::::-=*$$@#&==:>22456790000000qqq9642>>-=$#++OOO",
"OOoOoOOOOOOOOOOO$*=-->>-:>>>>>>>>2422<>,1>122>>:::-::::---*$++@%*-:>,245678009900qwq0752,:-=*$$++OOO",
"OOoOOO+O++@####%&--->:-:>><2>>>>,2222<,,1<>2>:--=-:-----==*$+O#*==-:>2445788889990q09622>>-=*$$+OOOo",
"OOooOO+++$$$$$%=--->::>:>><222<<,1222,,<<22>>-===------===$#++$$*=-:2244556777887998752>>:-=$$#+OOOO",
"OoOOO++@$%***==-:>::-::>>222222<,,1111,2,2>>:-===-===-=**$$#@+$$*=:>,<24454566655665422:;-==$$#O+O++",
"OOOOOO@$$====-::>>::::::>223322<,,,,,1122>>>-===*===*=*&$@++##$**--:><222<235653222211>:;-=$$#@+O###",
"OOOO##$$===--:>>>:-:::->>233332>>>>>,,11>>>--====*****$#+O++##$%**-:>,<<,,<3442<1>>>>::;;-==*$#####O",
"+++@#$$*====--::-::----><23522>>>>>>>>11>>:--=*=***$*$#OOOOO##$$%**->>,>:>,<22,>>::>:::;-===$##O++@+",
"@@@#$$**====---:---==-->>34322>>:-::>,11>>-==*=&**$$&#OOooOO##$$***-:,>:::,,<<,>---;-;::;--=$##O@O@O",
"@##@#$$**====---=====-->23522>---::>>>>:-===&$$&***&$OOoooOO#$$=**--:>::::>,,,>------;:>::;==##OO@O+",
"####$$**==-=---==*=**-:,2532>>>---:>>>>;=&$$#$#$$$$$#OooooOO#$==***-:-:--::,,>>;-===-:>>>>;=$$##O+O#",
"####$$*===-----==$$$*-->>3<>>>---:>>>>:-&#@OOO@#@$$@OOOoooO@$&======-;-::->>,,:-====-;>>>>:-=$$#+O@O",
"#$@#$&&&=--;;--=*$$$*-->22>>->-::::>>::=$#OOOOO#+@$+OOoooOO#&===*-**;;-;-;>>,:;-=***-:>>>::-=*&#@++O",
"@#$##&===-;;>>-=*%$**->,2>>:>>:-:-:>:>:=%#+OoOOO+@++OOooOoO$=-------;:;;;>>,,,-**&*==-:>>:--=*&#####",
"@@@@$&&==->;>>;-=***=-><>>:::-:--=-----=$OOoooO++$#+OOOOOO+$-->>::-:;:>;:>,<,;-*&&$*=-:>:--==**$$###",
"O@O@#$&=-;>>>>;-***=-:>>>>:--:--===--==*#OooooOO+#@+OOOOOO#&-->>>>::-;;>><<<,:-*$$$&--:::-===*&$###@",
"@OO+##&=-:>>>>;-=*==-:>>>>-::---=-*===&$#OooooOO@#####O@O@$*=>>>>:;--:>>,<3<,--*&$&*=-----===&$$#$##",
"#OO@O#$&=::>>>;--==-->,,>>:--:---***=*$#OOooooO#$$$$$###$$&=;>>>>:---->>2342,:-*&***=----===*&$##@#@",
"#@OO#@#&=-:>:>;-----:><,2>>:->>:-=**&&$#OooXoO@$$$&&*&$&&*=-><>>::-;->>2244<>:-***-==--=====*&$###$@",
"@O@O###&=-;;;:;-:---:>22>>::>>>>-***$$#@OOoOOO$$&&&***==--:>>>>>>:>::>22443,:--=:---::--====*&$#@@O@",
"O@+++@$&=----:::::::>,22<>>>>,,:--*&$$@@OOOO++%$$=%==*=-->>>2<>>>>>>>>24343>>----:-->:--===**$$@O@@O",
"#@+O++$$$=--:::>,,>,<2432,,,,,,>:-=**$##++++@$**=$=====-->>>2>2>>>>>>2234222>->-:->>>>---==*&$#@@OO@",
"@#++O+#$==-;:>>222223555322222<,:-=*&######$$*=======*=-:><<2>>2>1<>222223<>>->-::>>>:--===&$@@OOOOO",
"@OOOO@$$*=-->12456565666544442<,>-=*&$@@#$$**=-=======-:>>2222112>2>,22222>>>>->::::--***&&&#@OOOoOO",
"OOOOO@$**-::>256997777767655432,:--*&$O@#&===-------==-:>>12>2>22222>22222>>:>--:>--&&$$$$$#OOOOOoOO",
"OOOO+$$*=-:>2269qq0999999766542,::=*&#O@#*==---;------:>22122>22222>>>>><,>:>->>--=*$@@@#@@OOOOOoO.O",
"OO+++@$*=:>,2570qw0009099976542,>--*&@+##*=-:-:::;-;::122,><>21233<>>>>>>>>>->>>-=*$OOOOOOOOOOOXOoOO",
"OOOO@@%*-:,25690qq0000000975552<>:-=$$##$=--:::::>>>22222>>>>><222>>:::>>>>:>>---*$OOoOOOOOOOOOooOoO",
"oOO++$*-;:136800w0w000w008664322>>-**$$$&*::::>>>,<244422,>>>>,,1,:::--:>>>>;;--=$#OooOoOoOOXO OOoOO",
"OOO+$$=-:>24790we0w0q00098653221>>-*&$$***-:>>>,,2255544<,>::>>>>:------->>-;--=$#OOO    OoOO o XOoo",
"oO++#==-:,24800ewwwww000084422,,>>-*$$$$*=->,,,,22555542,>::-----=-====-->>----=$#OO oo ooOoO  oXX O",
"XoOO#$=-;,26800eeeeewww087431,>:--*&$@@$**:>11112255542<>:=-=*===*%=%$==-:----==$@O.o  . O O O    XX",
"XooO#$*=:,2690wweeeeew008522,>:=*$##@#@#$=:><22,<44542,>:-***$$&$=$=$*===-=====$#Oo      OOXO       ",
" XoOO$$=-,4680weeereew0852,>>:=*#OOOOOO#$-:,>>12344422>:-=***&&&$$$$=$*====$=&$$@OO    oX OO        ",
"X  oO+$=:,2560weereew0852,>:-=%$OOoOOOOO%-:>>>,22232<,:--=**&$$$$$$$$*%**=&&&&&$OO      XOO  X      ",
"  oooO$=-,3560wereew9742>::==%+OoooX XOO$=::>>>1222<,>:--*=**$$####$#$$&*&&=&$$#OO     o OoOO       ",
" o  oO#=->2580wrreq962<>-=**$+OO X XXoOO#*--;>:>,,,,>>--**-*&$#@#O###$&**=$*&$$+OXX  X   OO         ",
"   ooO#&->2580wewq9632>-*%$+OOoo      XO#$*=--:::,,,>>---****$$@##+@#$&&$$$$&$$@Oo     .XXOoo       ",
" o ooO#%->25880wq9642>:=$$+OooXo      ooO+$==---::>>>----=**&$$@+##$$*=$$$$$$$$Oo       Xoooo XX    ",
"X XXoO#$->2468998622>:=*$OOooXXX       .oO##===--:>>>>--=*=*&&&$#$&&&&&$$$$$&$$@Oo      oooOOOo  o  ",
"o.oooO#=:>12568642,::=*$OOoXo           ooOO$=*=*;:>::--*==&&**&&**====$$#$$$*$#OX        ooOXoX.Xo ",
"ooooo+$=:>1224522>:--*$@OoX              .OO#$***--:>;:*=*&&*==*==-====$$$$#$$$#OXX     . oOoOOOOOO.",
"oOOoO#$=;>>>222>>-=**&#Ooo                oO@$$%*-;:>;**=*======---:--*$$#$$$$&#OOX      oOoOOOOOOOO",
"OOOOO#$=-::>>>>:-=**$#+Oo                 oOO#$**-;>;-;-==*===->:>>::-=&$$$$$*&$@OO     . oOOOOOOO@O",
"OOOOO#$=--::::-=*$$$#+Ooo                   O#$*==->>-----=---:>,,,,>:-**$$$$**$#OO      XXOO+@@#@#O",
"OOOO##$=--=-:-==%$+++Oooo                   O#$*=--::::-:-:-::,22<<,,>-********&$OOo  X XoOOO@####$@",
"+OO##$===----==$++OOoOo                     O+$$*=->>>::>>>>>,<23323,,>---=*==**#@oX    X OO@$$$$$$#",
"+#O##$=-===--=%@OoOOoo                      O+$*=-:>>>,,<12<<23454442<,>::-=-**$$OOo..o OOOO@$$&$$$#",
"###$$--;-=-==*$OOoOoXo                    XXoO#$=->>12223233335655544422>:--=**$##OOO.ooooOO@$$*$$$#",
"$$$==-::---=*%@OOooXXX                      oO$$=:12235545556666656546442>:**$$$##@OOOooOOOO@#$*&&&$",
"*=--:1,>;-==*$OOXoooXX                      oO$=->22366666666786766666642>-=*&*$$$@OOOOOoOOO@#$**=&&",
"=-:1222,:--=%#OoooXX                        O#%->22466886688789988766684,:-***&&$$##@OOOOOOO+#$=-==-",
">>245442,:-*$+oo                          XOO@*->23567777899999887866663>:-*****&$$$#+@OOOOO##&=-::>",
"24567662>:-*$+OO                          Xo+**:>235777889900q0987688864>>-*****&&$$#@@@OOO##$*->>>2",
"56888762,:=%#+Oo                         Xo+@*-:>2366878890qwwq088666653<>--******$$####OOO#$$=>>334",
"88998862>:=$+OOo                         Xo+%*=:>2357777890wwwq965555442<>;***-*&$$##@###O#$*=><3466",
"99009862,:*$OOOO                         XO#*--:>236777789qwww9642222222>>---**&$#@O++###$$=->246799",
"wqqw0074,-*#OOOo                         o#$*--><2467877890q08622>,,,,>>>-=***$$OOOO+##$%==:<2689990",
"eeeww963,-*#+OOoX                       oO$==-:><25677778899652>:::::>:---=*&$$OOOOOO#$%=->13680qqww",
"rrrw0072,-%$+Oooo                      oO@==-:>>>356766666652,>:--=--===-=**$$OOOOoOO+$%=:12580wrwrr",
"ttrw00721-=##+OOOooooX o     o  oo o .oO#&-:::>><26666555422>:-===-===*&**&&$$@OOXooOO#&=>>369qrerrr",
"rtrw0062,;=%#++OooooXoX o XX  oooooooOO#$=-:>>>>2355544222,::===*=**$$$$$$&$$##OOooOOO#$*->369qerrrr",
"trre0962>;=$#OOOoOOOoooooooooooOOOOoOO#$=-:>>>>223455322,>::-=**%$$$$$$###$#$#@OOooOOO@$*->2579wrrrr",
"eetww962,-=$$OOOOoOOOOOOOOOOOOOO+#OOO#$*=->>>>>2344222<>>>:-=*$#$$$$##+OO#+@+@OOOOOOOOO$*-:2269wrrrw"
};
