/* XPM */
static char *_649345812854[] = {
/* columns rows colors chars-per-pixel */
"100 100 35 1 ",
"  c #3E79AE",
". c #3F7BB0",
"X c #407BAF",
"o c #417DB1",
"O c #4583B4",
"+ c #4886B7",
"@ c #4988B7",
"# c #4987B8",
"$ c #4C8CBB",
"% c #4F90BE",
"& c #5091BF",
"* c #5395C1",
"= c #569AC5",
"- c #589CC7",
"; c #5A9EC9",
": c #5DA3CC",
"> c #5FA7D0",
", c #60A7CF",
"< c #60A8CF",
"1 c #60A7D0",
"2 c #63ABD3",
"3 c #66B0D7",
"4 c #68B2D7",
"5 c #67B2D8",
"6 c #69B5DA",
"7 c #6DB9DE",
"8 c #6EBCE0",
"9 c #70BEE2",
"0 c #73C2E5",
"q c #75C6E9",
"w c #77C8EA",
"e c #79CCEE",
"r c #7BCFF0",
"t c #7ED3F3",
"y c #80D6F6",
/* pixels */
"rytteq9721;*$@OOOooOOooOooOooooOOO$$$$**-;,2234424243321::-**$$$ooooooXXooooOoOOOooOOO#$*;:2570wttye",
"ytttrw0761:*%$OOOOOOOOOOOOOOOOO#$$$$$**;,12233332223332::-*&$$OO  oo X  XXoooooooooooOO$$*;:157qtttt",
"tytteq0762:-%$#OOOOOOOOOOOO+O$$$$%$$**;:,2333343232532::-*&$#OOo         XoooooooooooOOO$&=;:28qtttt",
"tttteq0863<;*$$#O@++O+OOOOO#$$$&*****=;:23565533324532,:-*%$OOoX        X Xoooooooo XooOO$%*:17qttty",
"yttteq0852:-&$$$$$$##O#OO#++$$$******-;>23666333355652::-*$+OooX          Xooo.oo   XooOO$$=;270wttt",
"yttteq9731:=*$$$&$$$$+$O+#+$$$$&*****=-:33676643555722,;=&$+Ooo            XoX      XXoOO$$*:270wttt",
"ttttrq751:=**$$&&$%$$$$$+++##$$%***=*-;,34677666767521:;=*$+ooo            X X        oOO@$&-160qett",
"tetee072:-**&%%%%%*&&$*$#+##$$$%**=*=--,2666666677521,:;=*$#Oo             X          ooO$%*:278qwwe",
"weeq0971:=*&&*$$&&*****$$#$$$$$$&*==-=-:15655666763:::::=*%$Ooo                       OXO@$*;<3700qw",
"0qq08751:=*&$$$$$%**-=*$$$$$$$&&*--=--;::2522335332:-;::;=*$OoX                        OO@$=-:26799q",
"9997752>;-**&$&$%***=**%$$$$$$**-;-;-;;:,112112222<:-::::;*$Ooo                      XOXO@$&-:126777",
"335221>:;;=*%&$****=***$&$$$$**-;;;;;:::::::;:,11<:--;:,:;=$OooX                     X OO@$&*;:12355",
",::,:::::;;***%&*****&&$$$$#$%*;:;;:;:::;:;---;::::--::,:-&#Ooo  o      X  X          OOO$$%*-;:1222",
"----;;;:::;=*$%$$***&&$$$$++$$*;;::::;;;--==--;::;=-;;::;=$OOoo.XX                   XOOO$$%*=-:<<::",
"*****=;;:::=*&$$$&&*&%$&$$++$$*-;;::;;-;-==**-;:-===-;::-*$Ooo   X    X  X          OOO+$$$%*=;::;-*",
"$$%&**=:::;*&$$$$$$$*&&$$$+O+$**--;;===**=-=-;;;**=*--;--$+oo o            X        O+$$$$%**=;:--*&",
"$$$$$&*::-*%$@+$$$%%%&%%$+O+O$$**--********=;;;;--==-:--*$OO              XX      OO+$$$&&**=-;-=&$$",
"+$$$$$*=-*&$+$$+@$$%&*%%$$OOOO$$*-***$****==;;;;**%==-*-&@OO X X         Xo X    XoO$$&%***--;-**$$+",
"+$$$$$&==*$$++$$$$$%&*%%$+OOOO$$*****$**%**-=;-**=&====*&@OOO o         o     XXooOO+$***--;;;-*&$++",
"O@+$$$&***$#$+#$$$%%&&&%$+OOOO+$$****$$$$***==***%%=-=*&%@OOXOXX  X       oXXXoooOOO$&***-;;;-=*$@OO",
"O+$+++$&*%$$O$@$$@$%&&*&$$OOOO+#$**$$*$$$*******%&%=-**&$OOOOOXX XX  X   ooooooOOO+$$**=-;;;-=*%$OOo",
"OO+++$$&%$$$$@$$$$%%&**=$+OOoO++$*$$$$$**$*$****&&*=--*%$$@OOOOOoo X  Xo oooOOOO$$$%**--;:;;=*%#OOoO",
"O+++@@$$$$$@+$@$$$%%&==&$$OOOOO$+**$$*$$$*$**$$*&%=---*$$@@$@OOOOoXXXXooooOOO$$$$&*=-;;::,::-*$+oooo",
"OO++++$$$$$$#@$@$$%*=-**%#OOO++$$$**$*$*$$$%*%%%&*==:-=%%$$$$$OOOoooXooooOO$$$%**-::::::,1:;*%#OooXo",
"O+O$++#$#$$$@$$$$%&*=--=$@OO++++$*$$*$$$$$$&$&$%%**-::-***%%%$$$+OOoOOOO@$$&&**-:,22<1221,;-*$+oooOo",
"OO++$##+$$$%$$$$$%&**-=&%$@$++$$$$$*$$$$$$$&$$%$%**:::::---==&&%$+++#$%%$&***=:,22322532,,;-*$+OoooO",
"OOO$+O+O$$$%%$$$&&**--==%$$$@$$$$*$$$#$$$$$$*&$$%*-:>111>1::--*&$$$$%*==-=-:::12556676621,;=%$OooOoO",
"OOO$$+#$@$$$$%%%&**=*=&&%$$$$$$%$$$$$$#$$$%%%$*$&=:>23333231>:-*&$%&=;:::::<11237779776321;=%#OoOoOo",
"OO++++O$$$$%$%$&***-***&%$$$$$$&*$$$++++$$$%&&&**-:<2366663321:-***-::21222223367790077531;*%#OoOooO",
"@O++O+$O++$$$%%*=-:---***%$$$$%***$#O+O+$$%&****::<23637777632<:-=-::23666563477990009762,;=*$##OOOO",
"OOOO+O@+++$$%%*=:::----**%%%%$&***$#++++$$%%*=--:<1223377776431::-:<235676667778900009732,;-*$$##O#O",
"$O$O@$$$$%%%%*=::::-----**%%%&*=**$$+++$$$%==-:::112333464665321:::22665667777789909976321;;**%$$$#$",
"$@+@$$$%%*****;;>>:::::-=*****=-***$#$$$$&*-;:,<<1223236664331<:,:,<223366666779999766332,;-***#$$$$",
"$@$$$$&******=;:>121>1:::======--**$$$$$&**:::12122222233323<::::,,,222333466677777663221,;=*%$$$$$$",
"$$$$$&*;;;==-;;:<2233222:::;;=-=-=**$$$***=-:,12222121222211::::::,,<2233333226676621,:::;-*%%$$$$%$",
"%$$&**=::;;--;::<235666231::;;=---********-:,<22222211111<<:::;-;;::,<22,<,,<2333322::-=***&%$$%$$$&",
"&&**==:::::;:;::>23467766221:--;;=*=**==---:<1222<1<,:::::::;;;;;:;:,,,,,,::,223221::--&%%$%$$%%%%%&",
"**===::::>:::::::<2677777221::;;;-=*----*--::1211<,:::;:::::;;-==;;:,,,,;-;::,1111:;-*&%$@##$$%&&%&&",
"**=-::1221>:::;;::2666666521::::-=-;;;;=--*::<<>:::;--;;=-----==-=-;;;;;-;-;:,,<<:;-**&$++O+@$%&&&&&",
"==;::1233221:;=-=:>3333632221::::;;;;;-=**--:,:::-*=====&=*===**&==--==-----::::::-=*&$OOOOO+@$%&***",
"=::::125321<:-=**-:<<1222222111,::::-;-**==--:::--=****************=**===-=-;::,:-=*&$@OOOOo+@$&*==*",
"=::::>23321::=**&*--::<2212121221>:::--=-----:=--**&*&$$%%&&=&=*&****&***-*--;;;--**$$+OoooOO$%%**&=",
";:;::>1211::-=&&&&**=-:,,,,,11111::;-:;--;------**&&$$$$$%%%&&%%&%%*&&&&***------**&%$OOooOOO$%&***=",
";:;;:<11,::;=&$$$%$&*=;:,:,,,,,::;:;-:::;;------*&&%$$$$$$$$$$$$$$$&&%%%**=**=****&%$$OOOOXO+$&&===-",
":::::<::::-=&$$@#$$$%*-::,,,,,;-==---;;;;-*-*--**&&$$##$+@$$$$@@#$$%&$%$%***=***&&$$$+OOOOoO@$&==---",
"::::<,::;-**$$O+OOO#$&=;:,;:;-=&&&**=---;*****=**&&$+++O+$O$@@$O#$$%$%$%%&****&&%$@++OOOOoOO$&*=-;;;",
":::<:::--*&$$OOOOOO$$&=;:::,;-*&%$&&**--=*******&&$$$+++#$+#$OO$#$$$$%$$&**=**%%$++OOOOOOX++$&=;;,,,",
"<1,,:::--*$$+OOOOOO$$*=::,:;-*&$$$$$$&*-===**&**&&$$#++$+++$++$+$$$$$$$$&=*-**$$++OOOoOoOO+$$*-:;,,,",
"<1:::---=%$+OOOOoO+@%&-;,,;;=%##+$@$$$%***&*%&%&&$$$$@@$@$$@$$$$#$$$++$%*---**&$#OOOOoOoOO@$&*-:;;,,",
",::::::=&$$+OOOOoOO$$&*-;;;-*$#@O#+#$$$$%$%$%$%%%$$$$$$$$$$$$$$O+$++O#$%*;;:-*&$+OOooOoOOO$%*=;;,,,1",
"<:>:---*%$+OOOO.oOO@$&*-;;-=&$+++$+++$$$$$$$$$$$$$@$%$$$%$%$$$$@++++#+$*=;::-*&$$OOoOOOO+$&*=;;:;,,1",
"<>:::-=%$+OOOoOOOOO+$%&-;--*&#@@$$+$+$$$@@$@$@#$@$&&&&&&&****&$$$@++$$$=;;:::=*$$OoOoOO++$&*-;::,,,,",
"<:::;-*%$OOOOOoOOO++$%&=-==&$$$$$$$$@$++#$#@@###$$&&******===**$$$$$$&&-:::::-*$OOOOOOOO$$*--:::,,,,",
"1::::*&$+OoOoOOOO++$%%**==&&$$$$$$$+++++####@@##$$&****&**==-=**&&$&&&-::::::=*$$OOOOO+$$&=--::::,,,",
"::--=*%$OOOOOOOO+#$%&&**&=&%$$%$$$$O++#+$+$+@@+$$$&********;--;=**&&**-:::::;=*$$OO+O+#$**--::<<,,;,",
":-==**$@OOOOOO@@$%%&&**==&&&%%$&$$$$+$$#$$$+####$%&*=--===-;;:;;=--==::,::1::=*%$@$$+$$*=-;::<::;;:;",
"--=**%$OOOooOO$$&&**=*=*=*&&&&$&*$$$$$$$$$$$$#$$%%&*==----;;;:;;-:::::<,:11::;**$$$$$$&=;::<11::;;;;",
"=***&$$+OoOoOO$$&**=----=***&&&&***$%&**%%%$$%%$%&*=---;--;-;;;;;::,21111111::;***&%&*=;:,1122>::::;",
"****&$$OO.ooOO$$&*=;:;---===*************&%%%%%&&*==--;;------;:::,1211221222>::;==*&*=;:,2332,:::;-",
"==**&$$+OOOOO#$**=-::::-===--**************&*****==-;;;;;=**=--;::::,,1122232221>:=**=-:,223321>,:;=",
"&**&&$$OOOOOO$**=-;:,:::;-;=--=--==***--**----==---;,:,:;==*--;;;;;:::,<123533322<:---;:,12222,,;;-*",
"*&&&&&$++OO+$%**-;:,,,:::-;;;::;;--===-----;-----;;,,2,;;-==--;-;--;;:::1236667662::;;::<1222,:;;-**",
"&&&&&$$$$+$$$*==::11111,:;;;:<,::--=---;:::;;;;:,,,,2<,,;;===---=*--;;::12477777631:;;::::,11,;--***",
"%&%&%%$$$$$&**=::123221,::::111::::;--;;:::::,,,,1122<,,:;-=*-***=-----::2256767531,::::-::::;-****&",
"%$$$$$&&&***--;,123553211122222,:::::;;::<,111<<122222<:;;=**%****=;;;;;111144664421:;;---;:;-**&%%%",
"%$$$$$$%&-::::<233675422232322111::::::,<1222221222222<:;==*%$$***=;===;;;,,22332221,;;---;;-**$$$$$",
"$$$$$$&&*:,12235677977535335322211>::::122365222222221,:;=*%$$$$$*==-===*-;;,1112111,;-***-**%$$##@$",
"$$$$$&**=:<23367779997777756533221::::<255563332211<<::-=*%$$$$$$&**==*****=-;;::,,,;-***$*%%$$#+@@#",
"$$$$$&&*-:<2267890097777777655632:::<2346666635322,:::-***$$$###$$**=**$%***=;---:,:;**%&$$$$$##@O##",
"OOO#@$&**;:267800099887756677532:;;::1366767653321:::--**%$$@++@#$$***$$$%$*===;;;;;-*%%$$$$##++OOO+",
"OOOOO@$&=:126700009977565556532,:==-:<23677766322<:-=**&%%$@+OOO#$***&$$$%$***==----*&%%$$+#+++OO++O",
"OOOOOO$%*:12667909775322223221,;=*&=-:11356676321,;*&&*&&$$$##+@#%$*$&$$$$$****=--***$%$$$$#$##++@OO",
"ooOoOO+%=->2367897763221,,,;;;;=*%$&*-:,22353332,;-&&$&%$$$$@+@@$%$%$$$$$$$%***==**%%%$$$$$$++++#@OO",
"oOooOO$%*::<267666652,,;--==--&&$$$$**--::,11221:;*&$&&&&$$$$$$$%$%$$$$#$$$&**==**%%$$$$$$$$$++@#+OO",
"OoooOO$&=::<33333322,;-***&%%%$@+OO$$****---:::::-*$$$$&&$$$$$$$$%%$$##@##$%*=-=**%$$$$$%$$$+++$#++o",
"OOooOO$*-::2121121,:;**%%$$@+++oOOO@$$$&&&****-:;*&&&$$$&$$$$%$%%$%$$#++OO@%*=-=**%$$$$$$$$$$$++#+++",
"o.XOOO%*;::<::::,;;=*%%$#+OooooXOXOO++$$$$%$&*::-**%$&&&&$%$$%$%&&&$##+OOO@%*==*&%%$$#++$$$$+@$++++o",
"OOXOO$&=::::::-=***%$$@+OooXXXXXXoXOOOO+$@$$&*=--*&&&&*&&&&$%%%$$%%$$OOOOO@$*=**&%$#$+#$#$$$$$++++o+",
"oooO$%=-::::--**%%##OOOOooXXXXXX.XXoXOOO+@@@$*=-=**&&*&*&&&&$%%%&$&$#+OoOO#%***&%%$$+$$+$#&&%$$++#++",
"OOO$&**--;-=***&##+OOoooXoXX XXX    XXOOOO+$&*=-=&&&&****&&$%$$%%**$#@OOOO#%%*&&%$$#$$++$$&&&$$++#+o",
"OO#$**=::-==**$$#OOo    XXoX         oXoOO$$***==&&&=====&&%$%$%&**%#@+OoO#$&&&&%$$$$#@+$$***%$##$++",
"++$%*=;;====**$$OOoo    XX X         XoooO$$*==-&=&===-=*=&&%%&%&**&%#+oOO#$&&*&%%$#$$+$$%*-**$$#$#+",
"$+$*=;;===**&&$#oooX      X          XXoOO$%=-=-==&==:=:-=&&&&&=*==*%#OOO+@$%&&*%$$$####$**--*$$$$$#",
"$$&==;;=**&&$$$#OoXX     X X           oOO$*----===&:=:=====**&==--**$@++O@$$&&&%%%#$$#$$*;;;*%%%$$#",
"$*=;;;=*%&$$$$OOoo           X     X   oo+$=-:;-&===-:=====&**-=;;;-=&#@+O#$%&%&&%$$#$$&*;::;=**&%%$",
"=-;::;=*%$$$++OOoX       .X         XXooO$*-::;-====-::====----:;:;--*$$@+$$%&&&&&%$$$%*-::::-=*****",
"::1,:;=*$$$OOOooX       X .        oXooOO$*:::;--=:::=====-:-::-::;:;*%$###$$$%&&&&%&%&*-;:::;;;--=-",
"1221:;=**$$OOOooX                  X ooO$&-::::---:::::==--:::-:;;::-*%$#$$$%%%*==*&&%%&*=;:::,:::,,",
"65321::*%##OOoo          X           XOO%*:::::-::>>>>::::::::::;;;;-&&%$$&&&&&*=&&&%%%%*--;:1123346",
"87763::=*$#OooXX        X X          XoO%&=:>::-::2222<><<<:::------=&$%$$$$$&====&&%$%%**-;,2577797",
"009762:-*%#OooX         X.           XoO$&=-:::-:>333332332>::*--==*&%$$$$$$&*=-=&&%$$%%**=;,3799qq9",
"wqq0751;*%#OooX        ..X           XoO$%=--:::>3677644443>:---===&%$$@$#@$%***&&&%$$%%&*=:2790qqye",
"ewwq061:=$##o                        X O@%&--::<267666664732:--====&%$$$####$$&&&&&&%$%&**-,270weyee",
"ttew062;*$#Oo          o              oOO$**-:>2667766667743<:==&**&%$$@@#@@$$$$%%$&%%%&*-;159qeeyyr",
"yyrw072:*$#Ooo                       o O+$*=::>3666333667442::-***&=&&$@##+++#@@$$&$$$%*=;2379weryyr",
"ytyw072-*%##Oo      X.              XXOO@$&-:>23643333366642:--****&&%$##@OO+++@@@$$@$$&-,2570weeyyy",
"tyteq71:*&$+OOXXXXX oOXO X         o OOO@%=-::2333223334663>>:***&&*&$$@@+Oo@@++@@+#+#$*-,3699qeyyyy",
"tyyeq72:-*&$OOOXX XOoXO o          OOOOO$**-::3333333333333>:*&&&&&&$$@@+oO+Oo+oO+o+O+$&-:2699qyeyye",
"ttttq861,:*%$OOoXOooOOXOO O       OOOO$$&*=-:>332223333322>::=&%$$$$$+OOO+OooOo++oOoo+#%*;1679qeeyyr",
"etttq073<:-&$@OOOoOoOXOoOOooX   OOOOO$$%==::223333233322<::=*&%$$@+OoooooooO+oOoOoooO+#%*-,369qyyyyq"
};
