/* XPM */
static char *_649345822812[] = {
/* columns rows colors chars-per-pixel */
"100 100 35 1 ",
"  c #3E7AAE",
". c #3F7CB0",
"X c #407BAF",
"o c #417DB1",
"O c #4583B4",
"+ c #4886B7",
"@ c #4988B7",
"# c #4987B8",
"$ c #4C8CBB",
"% c #4F90BE",
"& c #5091BF",
"* c #5395C1",
"= c #5699C5",
"- c #589CC7",
"; c #5A9EC8",
": c #5DA3CC",
"> c #5FA7D0",
", c #60A7CF",
"< c #60A8CF",
"1 c #60A7D0",
"2 c #63ABD3",
"3 c #66B0D7",
"4 c #68B1D7",
"5 c #67B2D8",
"6 c #69B4DA",
"7 c #6DB9DE",
"8 c #6EBCE0",
"9 c #70BEE2",
"0 c #73C2E6",
"q c #75C6E9",
"w c #77C8EA",
"e c #79CCED",
"r c #7CCFF0",
"t c #7ED3F3",
"y c #80D5F6",
/* pixels */
"rytrw0063>-&%$@OOOOOO+OO#O+OOOoOO###$%**-::222242522332<::-*&$$@++ooooooo+++OOOOOOOO+++$&=,2268qeyye",
"yttteq063>:=&@@O+OO++O+O#+##@##$@%%$%%*::,2225552224352:;=*&&$++ooooooooooooOOOOOooOOOO+$*-:2470eyyt",
"ytteq08632:-*$@+#####+OO+##@$$%%*%%%%*=::<224424222552<:-*&$++OooX    .XoooooOOoooooooOO@*=-:250ettt",
"tytrq08762>-*%@@#$$$####+##$$$%%%*%%**=-,2555222222552<-=&&$+OOXo   X  XooooOOoooooooooO@$&*;169wety",
"tyttq09752:=*%$$$$$$+###+@$@$$$%***$**=-:2225522255552::=*$$+Ooo          ooooooooX oooO++$*-,590ett",
"tttew0762>:=*&%%***@@##++####$$%$%%*%**=:<252255254452::=&$@OooX         ooooooXX   XXXO+@$*-248qert",
"tttte0762::**&&&***$$$$+@++O##@$$**$*%*=:<23355265652<::=*$$OOoo          Xoooo      Xoo++$&-,580eet",
"tteeq085<:==**&***$*$$$$#+O+#O#$$$*$%%*=->2355556643<>>:=*&$++oo          Xooo       XXoO$$*-,270qee",
"eeeeq075>:-=&&&&*$****$$$++++O++$*$**$**-:222335552:::::;=*&$OOXo        XXX           oO+$*=:27890q",
"qqq00875>:-&&&%%$$******+++++++$$*****$*->>>>>>2222::::::;=*$OooXX      X.XX          .oO+$*=:227990",
"99987762:::=*&%%***=***$$$$+++$$*******=-;:::::><2::=:::,:-=$+OXXX       o           .ooO#$**;:>2788",
"66555222<::==&&&*******$$$$+++$%*****=------==:::::-=-:22,;*$OOooo X    XX          .oooO++**=;>2256",
"22,,,2222::-==&&*******$$$+OO+$**-====-=-=***==-:-===::22:-&+OooooX  XXXX  X          OO++$***-:1222",
"::;;-:::22::=&&&****$$$$#+OO++%**=---*********=-=====::22:=$+OOoooXX Xo  XX          XOO#+$$**-;:11>",
"==*===::,<<:=*&&*$***$*$$++OO+$*==--=******$*==-=**==::2:;&@OOXoooX Xo oX o X       oOO++$$***;:,:;=",
"*&&&**=::,:-=*&%$*$***$*$+OOO+$***=**********=-==***=::::=$+OooXo ooXoo ooXXX X     O++@$$***-;;:;=*",
"$$*$***;::=**&%%%&&***&%$+O+o+#$&-&&%%%%&*&==-;==***=:::-*$#Ooo.o. Xo.o oooXo   XXoO+@$$$**==-;;;**$",
"@$$$$$*-;;=*%%%%%&*&*&&$$++ooO+#&&&$%%$%&&&*==;-*****:-:=&@+O.oo   .XX.X ooo.o   ooo+#$%***=-;;-=*$$",
"@@$$$$*===**%%&&%&*&*&&%$+OOOo+$$&&%$$$%%&&==-==**%&==;=*%@+OooXXo oXoooooXo  Xoooo++$%**=-;;;-=*$$@",
"++@@@$**==*&%%&&&&&&&*&&$+Ooo+++$%&$$$$$%&&*===**%%&====*$@@+OOooXoX   XoooooooooOO+$$&**=;;;;=*&$+O",
"O#@@$$$****%%&*&*%&&%&**$+OOoO++$$&$$$$%%%&&**=*&&%&--=*%$@@++OOooooXoooooooOooOO++@$%**=;;;-=**$+OO",
"O##++$$*&*&%&*&**%*&**=*$+oOOo++@$$$$$$$$%&&&=*&&$%*--=*$$$$@@+OooooXXoooooOO++++@$$&**=;;;;=**$+OoO",
"O###+$$*%%%%%&*&&*****=&$OOoOOo+$$$$$$$%$%&&&&%%&%&=:-=&%$$%%$#++OooooooOOO++$$$$$***==;;;:;=*$#OooO",
"O##$@+$$%%%%%%******===&$+++o+++@$&&%$$$$%%&&%%$$%&=;:=*&*%**%$$+++OOoOOO+@$$&***=;;;=;;,,:;=%$+OooO",
"O##@$@$$$$*$&&***=*====*%++++++@$$&$&$$$$$$%%$$$$$*=:;-=*=**=***$@+++@+$$%&&***=::::::::,;;;=%#+oo+O",
"##@$$$$$$*$*&&**====;-**%$++@@+$$$$%$$$$$$$$%$$$$%*;,,,:;:;;;===*$$$$*****===--::112:22:,;;=*$#+Ooo+",
"#@$*%$$#%$%****=-==;==**$$$$###$&$&&$$@$$$$$%$$$$&*:1222222,,::;=****-;;-;;::::222222222,:;=*$+ooO++",
"#$$$$$$*$$%$**==--;-;***$$$$$$$%&&%$$@$@+$$%%%$$$*;,2254542221,;==*=;>1:,,,:,,<<255545221:-=%#+o+OOO",
"@$$*$$$$$$*$**=;;:;;==*%$%$$$$%*&*&$$++++$$%%$$%*=:,25677765532,:=;::2322322<222667666522,;=&$@oO+++",
"$$$$$$$$$$$$*==:,,:;;==**%%$$$&**&$$++++$$%%&***=;:2245777776531,:,2244666422255667877551,=**$#++O++",
"@$$$**$$$@&**=::,1,,;;==*%$$%%%***$##+++$$$****==:,2246777777653222226666655535667777752,;;=*$$$++#$",
"$$$$$$*$*&**-;:2231,;;;-**%$%%***&&$$#+$$$&**==;::12333565667533222245556555525667776322,;-=*&$$$$$$",
"%$$$%%***===;;12522,,::;=*&*&*===*&$$$#$$%&=-;;,:,,244444446431222222224254225467666522<,;-=**$$$$$$",
"%$%%%*==;;;;;,1234332221:==*====-*%$$$$$$&*-;:::,,,2222444443111,2<,,<22222222536652>:::,;=*&$$$#$%%",
"%%%**=;:,;;:,123335655421,;-==-=-=&%%$$$%&=-;:,,,12111223222,,,,::::,,,2212::,2253<::----=*&$$$#$$&&",
"&***=;:,11:,11222365575431,::;-==**&%$&&**--;,,,212,,,111111,:,:::::::,::::;:,222>:-==***&%&$#$&$&&&",
"**==-:,222111111235677776311:----*&&&&*===--;:212,,,,;,,;,:,:,:;:;;;::::-;-;::,,::-=*&&%$$##$#$%&*&*",
"==;;,,222221,,,:113677777631,---==*&***=*---:,,22,,,::;;;:;::::====;;;=;===-;::::-==*&%$+++##$$&*&**",
"=;;,123542221:;;;:2467677431,::--&*===-****-;,21,,;-;-;-;;-;;;;============--:::;=*&&%$@@++@##%&**==",
";;,12356532,:;=*==,234554321,,,:;-----==***-;,,,;;--=======;-;=****=***===*=-;:-;==&%$@Ooooo+#$**===",
";,122455552::=****;1122342,,2,,,,;;;--=****-;:::;===****======*&*****$**=*&=--;;-=*&%#+OoooOo$$&===-",
";,222255221:;**%$**-;:,2,,,,,,11,::;;-==*===;;;;-=***%*&*******&&*$*&$&**=====---=&&$#+oooooO$%&==--",
",,112222221:-*$$$*%**;;,:::,,,,,,,;;--==*===----==*%%%%%%*&*%&&%%$$%$%*****=*=====&&$@+ooooOO#%*===-",
",,,,22221::;*$$##$$$**;:,:::::::-;;------===----=&&%$$$$$%%$%%$%$$%$$$$%&&******&*&$#+OoOooo+#%=---:",
"2::222,::;-*$@+++++$%*;;:;::::;-====--=--=*-*--**&&$$$$$$%$$$$##+$$$$$$%&&****&*&&%#@++ooooO+$&=;;:,",
"222221::;=*$@+OO+O+@$*=;::;:;--&&&*&**===***&=-**&%$#@#$$$$$#++++$$$$$$$&&&**&%%&$@++OoOooooO$*;,,,1",
"22522,::=*$++OOOOO++%*=;:;;:--&&$$$$&&*==****-***&$$#$$$%$$++++++@@$$$$$&&*=*%%$$+O+oooooooO+%=;,131",
"2222:::;**@+OooOooO@$*=;:;:;-&$$$$@$$$&**----**-*&&$$$$$%$$++@@++$@$@@$&&**==&$$@++oooooooO+$&=,,213",
"2222::;=*$+OoooOo++$&&=-::--&&$+#+++#$$&&*==*=*=&&$$$$%%$&$#@$#@+#@+++@%*===*%%$+OOooooo.oO@$*=:,232",
"222>::-*%@OOooooooo$$&&=-;--&$+++o+++#$&$%&**&&&&%$%&&&&&$$@$##@++#+++$%==;;=*$$++OoooXooO+$&=;:,122",
"522::;=&@+Ooooooo+o+$&&----*&$+++++++###$$%&&&&$&$%&&&&&&&&$$$#+O#O#++$*=-:-=**$+Oooooooo+@$*-::,132",
"222<:=*$+Oo.oooooo++$$&&--=*$$+++@@@@#@##$$%%$$$$$&&&*=*-==&&$$@##+@+@$*;-:;;**$@+OOooooO+$*=:::2232",
"222,:=&@+Oooooooo+++$$%*=**&&$+##$#@#+@+#$$$&$$$$%&*========**&#@@@@$&*=;:;:;=*$@OoOoooO+@%=-::12222",
"522<:=%+OoooXooO+o+$&%&***&&$$$$$##@#+++$$$%$##$$$&**==***===&&&$$%%%&=-;::;-=*$@+OOOOO++$*=::,22322",
"2>::-*$+ooooooO+++$%%%&***&&$$$$$$##@@@@#$$$$@#$$&&*===**=*====&&**&*=-::;::;=*$@+OOOO+@$*=;::,22212",
":::-=&$+oOooOO+@$%%*&&***&&&$&$$$$#$##@$%%$%$$$#$&&*===***===---=====-:::::;:=*%$+++++@&*-;::,22,,,2",
";---*$++OooXOO+@$&**=******&&$#&$%$$$$&$%%%%$$$$&&&===-=====-----;:::::::::::;=*$$$@$$$*-:,,<222,,,,",
"----**#OooooXO+$&&**===*****&&&$&%&&&&&&**&%%%%%&&==;;--=====-----::<:<:::,,,:=***$$$$*-:,2222221,,,",
"-=-**$++OooooO@$&&=-;====**=*&&&&&&&&*=*****&&&&**=-;;;;-==**=--:::,22,:11212,:;==*$$**;:123542212,;",
"---**$++oOoOO+$$&*=-;---=*=*=*&*&**&&*=====*=**====;;,:;-***==-;-;;,,:,,12222221:;****-;,225654222,;",
"-==**@@OOooOO$$%&*=-;;;;=====***=****=---==-=====;;:,,,;=****=--=-=;::,,223555232:==*-;:,22566221,:-",
"=****$$+OOO++$$**=-::::;====-========;::;=;;;=;=;;;,12,;-==*=====*==;:::,257777662:;-;;>22445222,;-=",
"*****$$@++@@$$***=;;,::;;====---;==--;:::;;;:;;,,,,211,;-=**===***===;;,22577877721:::>1<222221::;=*",
"****$$$@$@$$$$**=;;,,,:;;-;;:::::;;-::,::,::,,::,,2<1,,:;-=***&&&**=-;-:,236777775222121,,2222:-==**",
"*#*$$$#*%%&****=;::222::;:::::::;::;:,,,,1122:>:<22:2<::--*&&&%%%&&----;:12344676433221,::,,,:;*=&&&",
"#*$$$##$&*==--;:,225222::,,22,,,;,,,:,,21222222>2222:::--=*&%$$$%&===---;;:13446443322,:::,::==*&&&&",
"*##+#$*$*=::::,<2466542222222211,21,1,122545522222:<:::==*&$$$$$%&===-==**-;,131233322::;;;;-***%$%$",
"#**#$#**=-::<225666776222555522222222225666645252>::::;;=&&$$$@$$%&===&&&**=;::,12332,:;==***&*$%$$$",
"$$$#$***=-::12567777554544665545322234667767554522::;;==&&$$$++$$%&==*&%&&&*=;;:,1222:;=*&&%**%$$$$$",
"$#++#$$*=-::2578777652524666666221,23667776765522::-=***&%$$+++$$%&**&%$$&&*==;;:121,:=*&%%$$$%$$$$$",
"++++++#*=-:2557777745252246665521,:,134677777652<:;=*&&&%%$++++@@%&=&%$$$$&&*==-;:,:;==*%$$$$$%$$$$#",
"++++++#$*;,22557766522222223222,,;-;,23346777552>:=*$%$&&$$+$++@$%&*&%$$$$#&&*==;:;;;=**&%$$%$%%%%$#",
"O++oo#@**;>12226555221>><:>:::::-===:,1322255522:=*%$$&%%$$@+@$$$%%&&$#$$$$%&*=-;---==**%%$$%$$%&$$@",
"+o+oOO$**;:>222222221>;;::;;;:-**&%=-;;,12222222:=%$@$$&$$$@$$$$%%$$$$#$$$$&&*=--=-==***&%%$$$$$$$#@",
"++ooO#$*-;;:>22:12>::;====*****$$$%&*=;;;::::,,::*%$$$$&$$$$$$$$&$%$##+++@@&&=--=====*&&&%$%$$$$$$#+",
"oo+o+@$*-;:>:::;:,:;=***&&$$@@##+@#$********=-;:=&$$$$&&&$$$$$$%$&$$#+++++@$*=-===****&&&%%$$$$$##++",
"+ooo+$**;::::;=;-==*****$+++#OOOOO+@$%%%*&&&*=::=&%$%%&&&$%$$$$%%%$$@+o+o++$*==*******&%%&&$$$#$##@o",
"ooo+#$**;;:;--=***%%$$#+++Ooo..ooOO++@%%%%%%*=;;=&%%%&&&&&&$%$$$$$$$#o+oo++$**=*****&*%%%$&&%$$##@++",
"+oO+$**=;;;;=***$$$++++Oooooo.oooooOO+@$$$$%*=-;*%%&&&&&&&&$%$$$$$$##+++oo#$****&&&&&&&%%&**&%$@#@@o",
"o++$**--;;;=**%$$+O+OoooOooooo..oooooo+++@$%*===&%%&&==*&&&%$$$$$&$$@oooo+#&&**&*&&**&&%&&***%$@#@++",
"++#**--;;--**%$$+OOoXoXoooooX XXXoXooo+++$$**-==&&&&==-&&&%%$$$$%%$$+++ooo+$%%%*&&&*&&&&%*==*&$#@@@@",
"+$$*-;;;--****$#OoooX XXooooo oX   ooooOO+%*;=;*&&&==--==&%%$$$%%&%$++Ooo+#$%*%%&&*%&&&&&*=-=*%$$@#@",
"$$*=--;--=**$$$+oooo    ooooo.XX X XXooo+$**:;==*&&==---&&&&&&&&%%*$$++o++#$%****&%%%%&%*=-;-*$$$$@$",
"$**-;;-;**$*$###Oo      XXoXX XooXXXoooo+$*;::;=*=&=---&==&&&&&&&***$++ooO+$$%**&&%$%%%%*;::;=&&%%$%",
"*-;:>-=***#$#++ooo      Xo oo oXoXoooooO+$=:,::==&===-==&&=&&&&&===*%#+O+++$**%**&%%$&*=-,,,:=**&&&&",
"-;::;-***$$++++ooX        oX o oXooooooO#*=,,,:-**&=-==&&&&&&=-====**$+++o+$$*$*&*%&&&*=:,21,;-=*===",
":21>;-***$#++ooX         ooXooX oXooo+o@$=;22,;====--=&=&&-==&======*$++OO++$$$%*****&*=;,,1,,:;;:;,",
"222:;-***$+++ooX              X XXooooO@*=,22:;===-:;--&&=-=========*$++++$$$$**=***&**==,,111,,<,<2",
"7322:;=**+oo+oo          Xo       XoooO$*:122::--:,::---=--=-====&=&&$@@+$$$*$******&***=;:,23344466",
"87732:;=*$#+oo           oo       XoooO$*;::<:---,<<,::::::-=*=&=&&%&$@@+$#$$**=**&%%$&*=;,,26778999",
"098522;=*##ooo         Xoo         Xoo+$*-;::::-:22222<<<<:-=&&&&&&%#@+++#+#$**=**%%$$%*=;:,27909qq0",
"w00862:;**#+oo         ooX.       .ooo+#&*=-:::,<244442232:-&&&&&&&%#+o++++$$*****%&%*%**=;,5700qyew",
"eeq0722-*#+o        XXXX          X ooO+$&*--:<22464432552>--&&&%&%$#@++++++$$$%%&*&&*&*=-;2570wwyee",
"tre095,-**++X       ooXoX          ..oO+$$*=:,<25666553553<:-*&&&&%%%#@+++++@@$$$&******=;:2590eyeyy",
"tte0951;*###oo      oooooX       .. ooo+@$*=:,256652252442,:-&&&%&&%%$###+@++++@$%&&%$&*=::2670wyyyy",
"tte0851;**##oo      oooooo         ..oO+$$*=-,256252222522<::=*&&&%&%%%$$$++++++$%&$$$%*=:24780weeyy",
"tttq95<;*&$+OoooooooOOOooooX X  XXoooOO+@$*=;,2522522353242,:=&&&&&&%%$$$@++O+++$$$$#$%*;,23789weyyy",
"ttte062:;*%$OoOoooooOooOOoooXo   XXooO+@$**=:,525222322532<::=*&%&&&%%$$##++++++##++++$&=,13690wyyye",
"ttte0722:-*$+OOooooOOOOoooooooXXoooO++$$**=;:2455252325222,:-=&$%$$$#####@+++o+++oO+++#%=;1479qeeyye",
"rttt09722:=&$@++O+OO+oO+++OOoooooOOO+$$**=;:224222222432<::-=&&$##@++o+++++++++o++ooO+$%*=,3690eeyyw"
};
