/* XPM */
static char *_649345899826[] = {
/* columns rows colors chars-per-pixel */
"100 100 28 1 ",
"  c #3F7BAF",
". c #3F7CB0",
"X c #407BAF",
"o c #417EB1",
"O c #4583B4",
"+ c #4886B7",
"@ c #4988B7",
"# c #4987B8",
"$ c #4C8BBA",
"% c #4F90BE",
"& c #5091BF",
"* c #5395C1",
"= c #569AC5",
"- c #589CC7",
"; c #5A9EC8",
": c #5DA3CC",
"> c #60A7CF",
", c #60A8CF",
"< c #60A7D0",
"1 c #63ABD3",
"2 c #66B0D7",
"3 c #67B2D8",
"4 c #69B5DA",
"5 c #6DB9DE",
"6 c #6FBCE1",
"7 c #70BEE2",
"8 c #73C2E5",
"9 c #75C5E8",
/* pixels */
"------;-=*&%%$&*=-;;---;>:>;;-&$$#$##$#$$&&*-;>:><<<<>:;-*&%$$$$#$#$&*;:::;;==*===**&$$$$&*==--===-;",
";-;-;---=*&****-;;;;;;;;;>>;--*%$$##@O@#$$&*=-;;;><11<>;;*&%%%$$$#$$*=;::;--=**==***$$$$$$&===*====-",
";;;;-;;-==****-::>:;--==;;---**%$$#@OOOO+#&&*=-;;;<<11>:-***%&%$$$$*=;;;--==&*****$$$@+O#$&*******-;",
"::;:::-=****=--:>>;--*&&*=***&$%$#OoooOO++$$**==;-><<<<;-*&&&&&&%**==;;--=*******$$$@OOO#$&*&&***=-;",
"::::::;=****-:::>;--*%$$%%*%$$$##OooooOo+O#$%*==-;;>>>>;-*&*&*=-===-=----=*%*%**$$$#OOOO+#%&%%**==;>",
"11<1::;=-===-:::>;-&$###$%$$#OOOOooXXoooooO$$&*==---;;>;--**--;;:;-=*---=%$%%***%$@OooOo+#$$%%***-;<",
"11221::---::::::;-*$#@@+#$#OoOooooXXXXooooo@%&****--;:;;----;:>>:;---=-**$$%%*&$$$OoooooO#$$%*%*=;><",
"344421::::1112::;*%$OOO@$#@ooooooo  XXXXooo#$&*&***->>>>;-;;>>>>>-==-***%$$$$$$$$OOoo oO+#$$$$%*=:<2",
"55553111224421::=%$#@OO#$#OOooX oo  X  XXoo+$%%%&=&=;:>:;::11111>;--=**%$$###@###Ooo XXo+@$$$%%*-;13",
"55555544455421:-=&%#OO@##OOooXX oo   X  XooO#%%%&&&=;>::;>111131>>---**%$#@#@@##+ooo  XoO@$$%%**->14",
"54555555585522,;*&$###$$@Oooo   Xo X Xooooo#$$$$&&&&=;:::1133331<;;;-**%%$#@O###+OooX ooO@$$$%%*=;<4",
"33344557886542:-*%%$$%$$+oooo       XoXoooo##$$%$$&&&-;:<1433431<:;;;-=*%$##O#@@Ooo.XoXO@$$%%%%%=->2",
"13334457866542::=*%%*$$#OOoo         oooooo+#$#$$$&&*=;>13544431>;;;;-=*&$$#@@O@Ooo  XoOO$$%%%**=;<1",
"13311356555441::-*****%#OooooX    o .ooooOo+##$$$$$$&*:>35555311>;:::;=**$$$$#@OOo   XoO$$%%%***=;>1",
"1111112543443211:-=***%$OOoo.     Xo.oooooO+##$$$$$&&-:1456544211>><:;;=*&$$$$#OOoo  XO@@%%****=;;><",
"111,1:1111123421<:;-*%$$#OOoo    XXXoooooOO+#$$$$&$&&*>1555553211111<:;-***$$$#Oooo Xoo#$$&***=-;><<",
",,>::>>>,12245421,:=&&&$$@OoXX  oooXXOOXooO@#$$$&&$$&=:24455432222211::=***&&$$OOXoXoo+#$%&***=:><<1",
"::;-;::-:114555421:=*&&%$@OOoooXXXXXXXXXOO@@#$$&$$$$$*;1345543222221<:;-===*&%@@OOoooO@#$$&*==-:><>>",
"--*--:;;::2465542,:***&%$@OOOOX.XXXXXOOOO####$$&&$$$$*:1234432222221<::-===&&$$OOoooOO@$$*&***-:>>>;",
"=***-:;-::25885531:=*&&%$OOoooooXXXXXOOO###$$$$&&$$$$*;113443222211,<:::-==*&$#@+OOOO+#$$&&&**=-;;==",
"*&&*=:--::2577853<:=**$$+OOOOo ooXooOOO@$#$$$$&%$$$#$*;,13333343211,:>::--=&&$$$OOOO@O##$%$*&*-=--=*",
"&&&=*--;:,24588551:=*&$$OOoOooooOXoOOOO$$$$$%%%%$$@#$*:>22324444411,1>:::-=**&$@+OOOOO#$$$$&&**=*=&*",
"&&&*-;:;:,2458885<:=*$$@+OOOOoOoXoOOOOO$$$$$%$%$$@@$&=>1122234544211<::::--==&$@+ooOOO@#$$%%&**==*&*",
"***---::::14588851:*&$$@OOOOOOooOOoO++##$$$$$$$@@O@$&-:,1112345544311:::::-=*&$@OOXOOO@@#$$%&***-===",
"=*=;::::>112488851>-*$$$++++OOoOOO++++++@$$$@$$@OO$$&->1,,>2235665511::::;-*&$@OoOOOOO++#$&&&*====--",
";-:::1,1::11468974<-*&$$$+++OOO+OO@@@$@@$O@$$@#OO#$$&-><>1112467786311>::;=*$$+OoOoOoOOO$%&&***==--;",
":1>>11111::14799851:-**$+$++++#$@$$$$$$+$$$#@@O@@@$$=;>>>>11246889651<::;-=*$$+OOOOOOoO@$$%&&**===;:",
"11113331::113889852>;=*$$$@$$#$$$%$%$$$#O$+#@@OOO#$&-;>>>1112578998531::;==$$$+OOOoOOOO@$$$%&&**==;>",
"14335432111358998631:;=%$$$$$$%$$%*$$$$$#@$@++OO#$$&-;>>11<1257999853::;==*$#@OOOOOOOO+@#$$$$%%&&=;>",
"14566544213468998651<;=*&$$$$$$%&%&&%$$$$+O$++++$$&=;;11<<>1358899841<:;=*%$+++OOOOOOO+$$#$$$$$$$&=>",
"135666544445899988651<;=*$$$$$&&$&*%%$$$$$$#++##$$&;;>111>12567898521::-=*$@+OO+++++++++@##@#@#$$&=>",
":155655444568999998652<:;*$$$$$$&$$$$$$$$$O#++#$&&=>>>11>11345788741:;-=&$$@O++O@@$#+O++@O@@O@O@$$&=",
":1356554457899998875431<;=&$$$$%$$$$####$#####$$$=;>>>>>:>134688752>;==&$$#+O#######OOOOOOOO@O#@#$%=",
":13567555578999887544322>-*%$%&&$$#O@@+$######$$&&-;>>>::>13457642>-=$$$$$O+#####$#OOOOXoOOOO@##$%*-",
":135577677889887754322321>=***&$$@@@O++##$##$$#$&&-;;>>>:>>134542>;&$$##$+####@$++OOOXXOoOOOOO##$%=-",
"<133777778887775422112232<>-==*$$@@OOO++#$#$#$$$&=-;->;;:>>,2443,-&OO#++$##+@@@#OOOOXOXXooooOO@#$*-;",
"114577787775443211<1<111211>>;=&$#++OO##$$#$$$$*-==;;;;>:>;>,23,;&$OOOO+#$$+O@$OOOOoXOXXooooOo+$%*;>",
"14478887754221>>;;;>><122111<;=&$$@+#O@#$$$$$%&*=;=;;;;;;;;:>11;&$OOOO+##++@++O+OOooXXXXoooOoO+$%-><",
"357788755321>;-=*==->>12111>>;=&&$$+O+#$$$%$%**;:;;;;;-;-;;>>,>&$OOOOOO#$#+O#OOOOoXoXXXooOoOOO#$&->1",
"45688775311:==&$%&&=;<121>>>;-=**$$$#+$#$$$$**-;>;;;;===-:;:>:=&$+OOOOO$++$+O+OOoOOOoXOXooooo@$$*:13",
"5778975321>-&$$$$$&=->>>>;;--==&%%$$$$#$$$$%%*;;:::;-=-;;::-;-&$OOOO@O+@++$O#O#OOOOooooooooOO#$*;>13",
"557887431>-*$$###$$&=;:>;-===&&&%$$$$###$$$$*=;>:;;;---;;::--*&$$#$$$$++$$$$#++OO@OOOoooooooO$%=:<23",
"57898543>;=$######$&--;-=**&&&&%%%$$$##@##$$*=;;;;;---;;:::-==&%$O$@$$$#$$$O#O+OO@+OOoooXoooO#$->135",
"78885431>-&##OOOO#$&=--==*&&%&%%%$$$##@#@#$$%=--;;;;;;;:>::-=&&%$O+$$$$$$$$$O$+##@@OOoooooXoO#$-<355",
"8887542>-&$@OOOOOO$&*-=*&&&$$%%$%$$$$@O#@@$%**=--;;-;;:>,>:-&&&&++#$$&$$$$$$##$#$$#OOoooXX ooO$-1477",
"888543,;&$#OoooooO#$&**&&%$$$%$%%$$#@OO@##$*=-;--==-;;>>1>-=&&$@+OO$$$$$$$$$#@$$$@#OOooo X XoO$-1478",
"98753,;&$OoooooooO#$%*&$$$$$$%%$%$##OOOO@$*=;;;;--=-;><21>-&$@@@OOO#$$$$$$@$$$$$#$@OOooX    oO$-1478",
"99841>=$#OoXoXooooO#$%$$$$$$$$$$###OOOo@@$*-;>:;-;;;:111>:=$#@OOOOO#$$$$$$$+#$#$##@OOOoX   Xo@%;1589",
"9874>-$#OoXXXXXooO###$$#$$$$$$$$@@OOOOOO$$*;:<<:;;::>1111;*$+O+OOOO@#$$$$$$##$$#+++OOoo   XXo@&;1578",
"8963>*$OoX XXooooO###$$$$$$$$$$$@+OOOOO+#%=:111<:>:>>111:-%$++OOOOO@#$$$$$$$#$#$++OOoooX X oO$&;2789",
"9862;*#OoX  XXoOOO@##$$$$$$$$@#$@OOOOOO#$*;:1111>:>:>111:=%$+OOOOO@##$$$$$$$$$$$@+OoooX   XoO$*>2789",
"9851;%@oXX  oooOOO@##$##$$$$$$$$@OoOOOO@$*-1211<::;::><::*$$OOOOOOO#$$$$$$$##$$$#OOOoo oXXXO@%=>4789",
"8851-%@oo    ooOO##@#$$##$$$$$$$OOOoOOO$$=:<111:;--;;:::-*$+OOOOO@#$$$$%$$$$$$$$$+Ooo o XoO+$*>25799",
"885,-$Ooo   XooOO##$$$$$#$$$%$$$@OOO+$#$*=:111::--=-;:;;=*$++OOOO#$$%%%$$$$$$&&$$OOooo ooo+$*;135788",
"8751-$Oo    XooO@#@$$$$#$$$$$$$$$OO@$$$*=;<11::;--==-;-**$$++OO+@$$%%%$$%$$&&&=&$+Oo.ooOoO$*;<335888",
"664,-$@ooXXXooOOO@#$$###@#$$$%$$##O@$&**=:>1::-;--;-===*%$++O+@@$$%%$%%$$%&&=--=%$OOOOOO+$*=>2357888",
"553<-$@ooooXoooOO##@@@@OO$$$$$$$$$##$&*=-:::::;-;;;;-==%$$@O+@#$$%$%&$&%%&**=-==&$++OO++#&->13467977",
"531>-%#OoXXoXooOOO@@OO#O$#$$$$#$$##$%&*=-::::;---;;;;;=&$$@@#@#$$$$&&*&*&**=-;;=*$+++O++$=;123579775",
"42>;=$#OoooooooOOOOO@O#@O$$$##$$##@#$&==;:::----;;;:::=*$$$$#@#$$$$%%&**===;:::=*$$$+$#$*-<135788755",
"31>-*%$OOoooooooOOOOOO@@O$$#####@OO#$&=;;:;;--=-;::::-**%$$$$#$$$$$%**-=--::11:-*$$$$$$*->1335778775",
"31;=$$@OoOooXooooOOOOOOO$#$+@O@OO@O$&=;>::;;-=-;;::::=*&$$$$#$##+$$%*=;:::1112::=*%%$&*-><1347778774",
"2>;&$@OoOooooX.oOoXOOO$$++++@@OoOO#$=>>>:;-;-----;;--*%%%$$$$@+@+$$%*=;:1111311:-=**==::114577997754",
">>-%@@OoXOOoo  XXOOOO#$O#+$+@OOoo@$&;11>::;::;;--=-==%$%$$$##@OO+$$$&=::11122111::;:::12247777877531",
">;=$@+OOoXooooooXOOOOOO++++$##OOO#&;<22>::::;::;-===*$$$$$$$++OO+$$$&*:::1121111:<112454577777775411",
";-*$#@OooooooooooOOO@##+@@###+O+#&;>2432,,>::::---=*%$$$$#$$O#O++++$$&-=>>>1222,2334577788877775531>",
"-=&$$#OOOoOooOooO++####$@@#$$#$$&=>2554211>::>::;-**$##@#$#OO$OOO++$&&&&&;;222232356888898755775431>",
"=*%###@OOOOoOoOO+@####@#O+#$$$&*=>25665431>::>>::-*%$$$@O$@O$$OO$++$$%&$%&;>22235568899987555555531:",
"=&$##O@OOOOOOOO+@#$##O@###$$**=;>257866431,>><>>:-*%$###@O$$$O$$$$$$$&$%$$=>>2245789999987554577531;",
"-&$###@O+++++OO+@##@@O#O@$$*=-;:,4788755311><1<>;-*$$#@@$@$$$$$$$$$&&$$$$$&;>>246889998875545557541:",
";=&$##@$#+##++++++#O@OOO#$**;::12589875431>1,1>;-*%$###OO$@$$$&$&&&$$&%$$$&&&;>246899998544445577541",
">-*%$$$$$$+$@++OOOOOO++#$$*-;:<1479988541,,,11:;=&$$@OO#$O$#$$$&&&&&$&$$$$$&&->>24689986422244577431",
">;**&%%$$$$$++OOOOOOOO+#$*==::11589997521,11<>:-*$$#OO@##$O$$$$$&&$&&$$$$$$$&=;>,458998521<<23444422",
">;-****&$$$$++OOoOoOO+$$&*=-;:13589986431111>>:=&$@OOO###$##$$$$$&$$$$####$$&&-;>35899741<:>1232121<",
":;--***&*$%$+OO.OOOOO+#%*==-::11488986421,>,>>;=%$@O@O##$#$##+$$$$$$###+#$$$$&&;;14898741>>><22<><>>",
"---=*=**&*%$OOOOOOOOO+$$*=;::>:13688864211,,>>-&%#OOO##$$@+++$$$@++OOOO+O#+#$$&&-13898741<><>>>>:;;-",
"---=-**&$&$#+OOOOooOO+$&*-::::>134566542111,,:;*$#O@#$$$$$@$+$O$+OOOOoOO+#++$$&&-:25887431>>>>>;;-*=",
"=*=-***&&$$$##OOOOoO+$%*=-:::::1233455531111,>-&$#O@#$$$$$$+#+#OOOOoOooOOOO++$%&*;15888541>>;;;;-***",
"**=****&*$$$##OOOoO+$$**=-;::::>,23344532123>;=$$#@$$$%%$$$$$+OOOooOOooOOOO++$&&-:15787741>;;;;-**%%",
"**=*==*&$%$$$++OOOOO#$%**=-;::><>,2344443321>>=%$##$%%%$$$$$#+OOooooXooooOOO#$&&-:14777752>>;;;-*&%%",
"=*---**&*$%$$++OOOOO$$$$*=-;::>>>,2333334331>>&$#$$%&%$$$$$@OOOOoXoXXooOOoO+$$&==;14577751>;-;-=**&*",
"=-;;;***&&&$$##OOOOOO$$&*==-;::11112223344321;&$$$$$&$$#@@@@OOOOooo ooooOO#$%%&*=;13568742>:--;-***=",
":::>:-=**&%%$#OOoOoO+@$%**=-;::<1133123444321;&&$$%&&$$$@++OOO . .  oooooO#$%&***:13455751>;-::-=---",
"><>>:-***&$$#@+ooooO+$$&*===-;:11332333445331:&%$$$&$$$#@+O .OO o  oooXoo@#$%&*&=:,14575411>;::;-;;>",
"1<>:;-***%%$#Ooo ..O+$$&****=:::1222133455441>=&$$%$&$$@++OOOXo XoXXo oXoO@$$%&&-;113444311,>>>:;>><",
"1>::-*=**&$$#oooo oOO#$$&&&==;:>1111124456542>=&&$$$$$@OOO.oooooX .X   XoOO@$$*=--:>1233221211<>>111",
"1::--***&%$$+ooo .ooO@#$$$&*=-::>:>>12355654,;=&&$%$$$$@OOOoOoo o      XooOO#%&==*-:<123334443111121",
"1::=**&%%%%#OoX  ooO@O##$$$**=-::::>11446543,;=&&$$$$$$@OoooOXo XX  XXXXooOO#%*****-:114555574311231",
"1:;=**&%%%$#ooX  ooOO@##@$$**=-;:-;>13444531>;=&&%$$$$$@OOOooo o X  XXXXooOO#%$%$&*=;:24557775533331",
"4,;=*&%%%$$OOoX  ooO@+++@@$&&=--;;:>1333431>:;-*&$$$$$$@OOooXooX      XXooOO@$$$$%&*-:24577775553333",
"21;**&%%$$#@ooX  oO@@@++@@$%&*=--;:>133231,:::;-*&&&&$$$+OooXX    o   XXoOO@$$$#$$%*->23577755555455",
"41>=**$$$$@OooX XoO@##@++O#$%**=--:112122>>:::>-=*&&%%$$OoooX     XX  XoooO$@@O##$%*;>13475434455655",
"31:-*&%%$#@OoooXooO+##$@@@$$&&===-;<1111>>:::>>;=&*&&&$$+OoX     XXXoXooOO@#@OOO#%*-;>11332111235755",
"21;=*%%%$$@OoooooOO$$$$$$$$&**====;:>>>>;;;;>>::==*&*&&$#OoX    ooooooooOO$$#OO@$%*;;>>111>;>><25344",
"1<;**%%$%$#OOoooo@#$&&&&$$%&=====-:::>:;--=;;::;===****$#ooXoo ..ooooo+oO#$$#O@#$*-;>>>:>;---;>12111",
">;-=**&%&$@OOooOO+$$&**&&$&======--;:;;=====;>:;;--==*&%$Ooooooooooo+oo#$$%$$#$$&-;:>;;--===--:><1<>",
":;=****%$$$@OOoO@$$%&=&&&&*----=-=-=-=*&&&&=->>>>;--=**%$#OOOooooo+####*%&&$$$$&--:>>>;==&*==->;>:>:",
";-=*****&%$@OOO##$&***%***=;;;;-***%**%&&&*-;><>>:;---*&$$#@OOooo++#$$***==****=;::>;;-***=*=;;;>;>;",
";-*******&$@OO#$$%*******=-;;;;=*%$$$&%%%**->><1>>:---=**$$+OOOO+#$$$**---;;*=--;:>:;-=****-=;;;;;;;",
"-=-=**=***$$O@$%%&*=***=--;;:;=*%$$#$$$%%**-;><11>>;;;-=**$$#+++###$**-;;;>;;;--;::;-***&&*==;;;----",
"=--==----&%$$$%%*==-=*=-;>;>;;*$$$##$$$$$&*-;:>11<>>>;;-**$$$###$#$$$*-;:<>;;---;;-=*%%%%%*=-;;-----"
};
