/* XPM */
static char *_649345907297[] = {
/* columns rows colors chars-per-pixel */
"100 100 33 1 ",
"  c #3F7AAF",
". c #3F7BB0",
"X c #407BAF",
"o c #417EB1",
"O c #4583B4",
"+ c #4886B7",
"@ c #4988B7",
"# c #4987B8",
"$ c #4C8BBA",
"% c #508FBD",
"& c #4F90BE",
"* c #5091BF",
"= c #5395C1",
"- c #569AC5",
"; c #589CC7",
": c #5A9EC9",
"> c #5DA3CC",
", c #5FA7D0",
"< c #60A7CF",
"1 c #60A8CF",
"2 c #60A7D0",
"3 c #63ABD3",
"4 c #66B0D7",
"5 c #68B2D7",
"6 c #67B2D8",
"7 c #69B5DA",
"8 c #6DB9DE",
"9 c #6FBCE1",
"0 c #70BEE2",
"q c #73C2E5",
"w c #76C6E9",
"e c #77C8EA",
"r c #78C9EB",
/* pixels */
"$$****=*=&&$$**-:>>>>>><<221:;*$$$@+++O+#@===-::>>>,>>:-=&$$@$@@@$@$==>>211>>:::>:;-*%$$$$=====$=*$=",
"&*****=*=$$*==->122,>>>>>2<>;-=$$@+O+OOOO#@$==-;:>>,2>>;-==$$$$$$@$==:122,>>;;;;:--=*%@+@$$==$=$$$$$",
"*&***===***==-;>22<>>;:;:>::-==$@#+OOooOO+@$====;:>>,,>:;-=$$%=%$=*-:2222>>;;--;-;=*$@++@$$==$=$$$*=",
"===**===****-;>222>:;-==---==%$@@#OoXoooOO#@$===-->>>>,>:======-=-;>>2222>:-=----**%$++O@$$$$%=$=$=$",
"=====-==**==->>22>>:===$**=&$$+++OOX XoOOOO#@====--::>>:;-===-:>>>>><122<:-=----=*%$$OOO+#@=&$$=$=&=",
"----;;-===--:>21>:-=$$@@$$$@+OOOoo      ooo#@$$===--;:>:;---:>223322>212>-==*-;-=*$@+OOO+#$$$=$$$*=-",
":>:>>:;---;>,33,>;-$@##+$$$+OOoooX     X.ooO#$$=&===;::::-;:>236332<<22>;=**=---**$OOOo+O#$$$$$====-",
"><12>>:::>13433>:==@#O##$$@+Ooooo       .ooO#$$=$=$=-:>:::><2334632222>:-********$+Ooooo+#@$$$$$==;>",
"234322,22377743>;=$#OOO#@++OooX X        ooO+#$$$&&*->>>>>22337763232,>-===$$$=$*@+oooOoO++@$$$$*->2",
"465633335898763>-=$#OO#@@OOoooX          ooo#@$@$$&=-;>;>>23677774322>:-=$$$$=$=%+OoX..O++@@$$$==->3",
"6466555789q9873>-&@###@@+OOXXX           XoO+@$@$&$*-;>>>236779873332>>-=$$$$==$$+OXXoXO#@$$&$$$=->2",
"333367590qq8872>-=$$@$$@OOoooX          ..oO###$$$$&=-;>>2577787533322>;==$$$==$@+oX  XO+@$&$$&$=->2",
"33436599q009852>;==@$$$$OOoo          o oooO##@$@@$&*-;>13788887643332>:-=$=$$$$@OoXXooO#@$=$====;>2",
"233337700988874>:-==-==@OOooo          X oOO+#@@@@$$*-;,3788998753343,>>;==&===#+oX  XXO@$$$$===-:>2",
"3343555775777742>:--==$@OOOoo          XoooO++#@@$$=*=>34800q8985657622>:===$$=@OoX  oOO@$======;>>2",
"34333334533478863>:;=&$@+OOoo          XooOO++#@$$$$*=;2788000088887532>:-====$@OXo XoO+$$$====-;<23",
"33,223322345898862>;=&&$@#O... .      ooooOO#@@$$$$$==:3779000999997742>::;;==$@OooXooO+$$&===-:><33",
"22>>,21>23489q0873>;=&&&$#OOoO.  X    o.OoO+#@@$$$$$$=:3579009999097743<>:;;-=$@OOoooO+#$$$$*=;>1222",
">>:>>1>>>258qqq873>;==&&$#OOOoo. X  oooOOO++#@@$$$$$$=:36799099999987432<:;;-%$#OOOoOO+#$=*=*=-><<<>",
":-;:>>>>>269qqq983>;=&&$##OOOoooX   OooOO+###@$&$$$$$=:34799097999777542>::;=%$+OOOoOO++@$$$%*=:>:::",
";--;>>>>>369qwqq93>;=&$$#OOOoOO.o o.oOO++#@@@$$$$$@@$=:,67999899877755422>:-*$$+OOoOOO###$$$$=--;:;;",
"-=-;>>>>,379qwwq84>;=&@+OOOOOO.ooooooO+#@@$$$$&$$$##$=>,4778899999877533<>;--$$#OOOXOOO+#@$$%=--;;-;",
"-=-;><<>2379qewq94>-=$@++OOOO.ooooooOO#@#$$$$&$@@++@$=:24675799997876322<>;-=$$OOoXooOOO##$$$==-;;;;",
"-;;><1122379qwww93>-&$@+OO+OO+oOoOoO+O####$$$$@+##+@==>,36367990909763<,>>;=*$#OXooooOOO+#$$$=-;;>:>",
">>>>,23334789wwwq4,-*$@@###++Oo.OOOOO+++#@$$$$#+++@$&->13334478qqq9932>2>:-=$+OOXooOoOOOO+$%*==;>:>>",
">>11344443479qweq82;=$$@##@+OO+OOO+####+#@@@@#+OO+@$*-;>>,23479qwwq742>>:;=&@+OoooXOXoOX+$$$*=-:>>>>",
"3334577743479wwww83>-=&$@@@#++#@+#@$$@@@@@#+##O+++@$*-;>>>,2370qreq842>:;=&$@+OooooX  XO++$%&=-;:>>2",
"4777787743479wwew861>-=*=$@@@#@$@$$$$$$@@#+##O+OO+@**->>>>>2370qeeq93,>-==&@+OooooXo O OO++$$==-:><3",
"78888q875678qwweqq73,>;*$$$$$@$$$$$$$$$@@@#++OOOO@$&-;>>>>>147qqweq72>;==&$#OOoOooo OOXO+++#$$*==;>3",
"789qqq088889qeewqq843>;==$$$$$$$$$*=$=$$@@##O+OO+@$=-;>>>>>1470qww952>;-=$#+OOooOoooO OOOOO+@$$$*=>2",
"380qqq9q90qqwwwweqq873>;-&$$$$$$$=*$$$$$##++O+++$$==-><>>>,3488qww83>:--$@+OOoOooOoOOOOOOO+O++++$=;>",
"179qqqq899qqeeeewqqq831>:=$$$$$$$$$$$$#$#+++OO+@@&=->>>,>>23579qq972>;==$#OOOXOOoOoOOOXOoOOOO+O+@&=:",
",68qqq0000qwwwwwqq087532,==$##$$$@###+####O+OO##$==::>>>>>24789qq73>;=$$@+OoOOOOOOOOooOXoooOOO++@$=;",
"<670qq0090wwwewwq8876453,;==$=$$@#++++###O+OO+#@$==;:>>>:>23580q83>;=$@+++OOOOOooOOOOXoXoooooO+#$&-;",
"2390qq00qqwrwww007743343,:;===$$@##+O+++++++++O@$=-;>>>>>>,367974,;$@+OOOOOOOOOoOOOooooXoooooO##$=->",
"3770qqqqqqqqq008543223233,:;===$@#OOO+O+++##++#@===;:::::,,,37752;$+OOOOOOOOOOOOoo.o X oooooOO+#$=:>",
"3780qqqq0009877421>>><<122,>:;=$$#+OOOO+####$@@$===;:::::>>>3363;$#ooOOO+++OOOoOoOO.o X o.oooO#@$->>",
"789qqwq00876332>>:;;:>>13222,:-=$@++OOO+#@#@$$$$==---:;::>>>232>*+OOooOOO+OOOoOooo  . . ooooOO#@*->3",
"790qwq098533>>:---=-:>2222<>:;==%$++OO++$#$$$$==-;;;;;;:::>><,>-@OOooOOO+OOOOoOOooooO  XooooOO#$=;25",
"90qqq097632>-===***=;>222>>:-===$$#+++++#$#$===-:::::;-:;>>>>>-&+OOoOOOOO+#OOOoooooo   oooOoOO$$=>37",
"00qqq08532>-*$$$$$&=-:>2>::;===$$$$++++##$$$==-:>::>:;;;:>>>:;=$+OOOOOO++++OOOoOoooo  X  oOOO@$=;>37",
"00qwq0752>;=$$@#@$@=-::>;-====$$$$++++OO+#@$$=-::>>:;;>>>>>>;==$++O+++##+++OOOO.OOoOO XOoo O+@==>348",
"0qqw0974,;=$+#++@@$=-;:;=====$$$$@@#+++OO#@$$-:::>>::>>>><>::=$$++##+@@@+#++OOOOOOOOO O oo O+@&;1379",
"qqwq0743>-$#+OOO++$=-;;===$$@$$$$$#++O+OO+$$==-;;::>:>><22<>-==$#+##$@@@@@++O+OOOOOOOoXoXo XO@$;279q",
"wwq09732-*@+OOOOO+$==-====$$$$$@$@$++OOO+O@$=---;>::>>,333>:-=*$#+##$#$$@$@#O##+++OOO Xoo  oO+$:289q",
"wwq9552;*#+OoooooO@$*==$$$##@@$$$$+++OOOO#@%=;:;;::>>22452>;=*$@OO+##$$$$@@#####+++OOoOo   ooO$;27qq",
"wqq952:%@+OooooooO+@&$$$@@#@$#$$$$#OOo+O+$*-::::-::>234542:-$$@#OOO#$$$@@@####@@+++OOO XXo  oO$-280w",
"wwq74:=$+OXoXoooOO+@$$$@#####$$$$+++oOo++@=->>>>::>>23653>;=$#+OOOO##$$$@@####$@+@+OO o    oo+$:38qw",
"ww072-$+ooo ooooOOO+#+#++#+@$@$@##+OOOOO@$*;<22>>>>23444,>-$@++OOOO+@@@$#@##++@@++OOOooXX .oO@&;38qq",
"ww05>=@+oX oooooOOO##++++@@@##@$#+OOOOOO@$=>2332<2323443,;=$@+OOOOO#@@$@########++OOOOooo  oo@*>40qe",
"ww03>*#OoXX oooOOO#+#@#++##@#$@$++OOOOO#$=:>35633222333>>=&@OOOOOO##$#$@#####+##++OOooo. X.oO@=>40ww",
"rq93:$+oo  XoooOO++##@#+###@#$@@+OoOOO+@$->265522<>>>21>;&$+OOOOO+##$@###++##@@#+OOOOooX.o.O#$-27qeq",
"wq93;$#oo   oooOO##+@@++O@#@$@$#+OOO+O+@=;>35532<>>;>>>>-=@OOOoOO+#$$$$$#+##@@##@+OoooooooOO$=>38qqe",
"q072;$+oo. .ooooO+++$@@+@@#$$$$#+OOO#@@=-:235532>;;;;>>;==@+OOOO+#@$$$#@##@$$$=$@+OOoooooO+@&:268qww",
"q092;$+oXX  ooOOO+++@@++@#@$$$$$#OOO$$==:>3633<>>;;;;;;-=@+OOOOO+@$$$$$@@@$$====$@OoooooO+@*;,478qqw",
"qq72;$+ooXooooooO+O###++##@$$$@$@++#$$==>2233>>>;>>;;-=*$@+OOOO+##$$#$$$$$=$=====@+OOOOO+@*;>478qqeq",
"0972:$#Oooo ooooOOOOOOOO+##@@$@@@@++@$--:<222<>>:>::;-==$$OOOO#+@@$@@$$$$$%==;;;=@+++OO+@$->3679qqqq",
"983>-%#OooXo ooOOOXOOOOO++#####@@#+#$==;:<<<>:::::>::;==$@###OO#+#@$$$%$===-;;;==$@@++++$=;2378qeq0q",
"862>-$@#ooooooooOOoOOOOOO+++#+++##O#$$-;>>>>>::::>>::;-$$@##+O+##@$$$$====;;:>:;=$$$@@+$*-13479qwq00",
"732:=$@OOOooXo.oXXOoXOOOO+++OOO+OOO#$=;::>>::;:::>>::-=$$$$@#+#+#@$$$===-::><>:-=$$$$$%*;>2378qqqq08",
"53>-&@#OOooo Xo.ooOOooOOO++OO+OOOOO+=;>>>>>:;;;:::::-==$$$@@##+++#@$$=-;:><>2<>;==***==;>23578qqqq08",
"52;=@+OOoooo.  oXXXXoOoOOOO++ooooOO$->2<>::::;;;;;;-==$$$$$@#OOO+#$&==->>2222<>;;===-:>>33778qqqqq88",
"3>-$@+OooooXX.  XOoOOooOO++OOOOooO#=>232>>:>::;;---==@$$$$#++OOO++$$==:>1<22<>>>;;:>>1234789qqqwq087",
"2>-$@OOOoo.oX  oXooXOOOOOOO+OOooo+*:2532>>>>:::;-===$#######OOOO+#@$$=;>><23<<<>><23378889qqqqqq0873",
">:=$#+Ooo.o.o.ooooOOo+OO+oO+OOo++$-2777321>>;>;;-==*@+++++++OOOOO#+#$&=-:>>23332334589qqqqwqqqqq9863",
">-=$@#OoooooooooooOoOOOOO+OOOO+$&;>5897432>:>>>>;-=&@+++++++++#OO##@$&&&=->243334679qqqwewqq90qq9842",
":==$#+OOooo.ooooOOOoOOOOooO+##$=;>47998642>>>>>>;-*$+++OOO+@+#####+@$$&$$-:>3345789qwweweq9999qq9842",
":=$@+OOOOOooooooOOOOoOoOO++#$$=->37qqq8632>>>>>>;-&$+O+O+++######@@$$$$$$=->246789qwewwwwqq9q9qqq96>",
":=$@+OOOOOoOooOoOOOOOooOOO@$==;:,6qqq97632>>>1>;-==@+O+OO++#$#$$$$$$$$$$$==:>,499qwwwwwwwq9099qwq95,",
">;=$#+##++OOOOOOoooOoOOoO#$$=-:237qwq98631>><>>;-*$@++OO++#@@$$$&&$$$$$$$$==;>,68qqwwwww00090qqqqq83",
",:==$$@@#O#OOOOooooooOOOO#$=-;:26qwwq9841>>>>>>-=$@#+OO++###$$$=&&&&$$$$@$$&=:>2699wewww099899qqq986",
"4>:===$$##+OOoooooooooo+#$%==:>37qeww9831>>>>>;=*$++OOO+##@$$$#=$&$$$$@$$@&&=->>379wwewq975578998887",
"3,>;-=*$$@@+OooooooooOO##$==;>>38qeew9732>>>>:-=$$#+OO#++###@@$$$$$$$$++$@$&&=;>269wweq9644677977556",
"2>>>;-=*$$@+OooooOooooO$$==;;>258qewq9743>>>>>-*$@+OOO#######@@#@$#++++O+$$+$&=->38weeq9743367754433",
">>>:;-=*$$@#oooooooooO@$==-:>2<38qwqq97332>1>>-&$+OO###$$@@##+####OOOOO+O+++@$&=-27qweq07634664322>>",
">>>:;==*%$#OOOoooooooO@$=-:>2>257qqqq9764332>>-*$#O+#@@$$@@@####OoOooOOO++++@@&&;>50www077343332>>:>",
">:>;-=*&$$#+OOoOooooO+$=-->><<258999998743442>-&@####@$$$$@@##OOOoOoOoOOO+OO++$&->69wwwq9733222>>;--",
";;:;-==&$@##+OOOoooO#@$=-:>,22357889q98876742>=$@#@@$$$$$$$##+OOOooooooOOOOO+$&&->30qwwq0732>,<>:---",
"-;:--==&$$$@+OOoOoOO#$$==:>233677789999888742:=$@#@$$$=$$@$@#OOOo.ooooooOOOO+@&=:>39qweq0532>>>>;-=-",
":;;:;-*$$$$@++OOoOOO@@$*-:>233557788898898742:=$$#@$$$@$####+OO..o oooOOOOO++$&=:238qqwq942>>>>>;---",
":>>>:-$=$$$$#+OOOoO+@$==-:>>23777889889999742:=$$$$$$$@#++O+OooooX  oooOOO#$$&==->380qqw852>>><>;;--",
">>>>:-=$==$$#+OOoOOO@$==-:>><3778899999998743:=$@$$$$$@+++OOOooo    oooOOO#$=$&=->388qqq953>>>1>>>>>",
"232<>-===$$$++OooooO@$*-;:>>>33789q99999q8753>=$$$$$$$++OOoOooo.      ooOO@$$===;>2780q07622>12<1>,2",
"322>:-===$$@+Ooo.ooO@$==-;;:>2478988999q99873:=&%$$$$@+++ooooo   .    .ooO@@$$==->267998533223212223",
"32>:-=====$@+oooo oO+$===-;:>24578888q0099862>==$$%$###++oooXo          oo+#@$==;:>35777646353333343",
"2<>;-===%$$$+ooo .oO@$$====;>2335546789qq985>>=*$$$@$@#+oOoooX          oOOO@*==--:>2677577787663333",
"<>:-==*=%%$$Ooo  ooO$$=$=*=;>>24433578898863<:=&$$$@####+ooo X        ooooOO@$*====:,378979907533633",
"2>;=*=$&$$$#Oo  ooO+$$$=*$*-;>13334778888731>:-=$$$@#$##oooo           .ooOO$$$%$*=->359900q98763333",
"3>;*%*%$$$$#O.. oo+$&$&%$**-;:>233467886762>>:-==$$$$@@#OoXo            ooOO#$$#$$*->2789qq997553333",
"3>;*$$%$$@@#oooXoo+$==$$$$&=->1233378874432>>::-=$$$$@@#oooX            ooO+$#++@$*->378900956644665",
"2>;=$%$$$##OOooooO#$$=%$$$*=-:>23237786433>>::>-=&$$$@@#Ooo         XX  oO+@++OO+$=->377997633346554",
"1>-*$$$$@##OoooooO@$=&*$&$&=->11224774433>>>:>>-=$*$$$@+Oo.         XXXoo+@@+OOO@%=:<25775332,,33632",
":;-==$$$$@#OOOooO+$===*****-:>212234443,>>;;:>:;=$%$%$$#Oo        .ooooOO+$$++++@==><23331>:::><22<>",
";-=$$$=$$$#+OoOO+@$==-===*=;>1<<>135431>>;;::::-=====$$@OooX.     oooOOO+$$$++O+%=;><321>;----;>>:::",
"-==$$$$$$$#OOoO+@$%==;-=*=->12<>11,131>;;--;::::--====$$OOooo.   .ooOOO+$%*$$$$**;:>22<:;====-;;;---",
"=*=$==$=$$@++O#@$$*=-;--==:<1222>>>>>>;*===;>>>:---===$$++Oooo.oooOO+@@@****$%*=;>><1<:;==*===-===--",
"&=$$$=$=$$@#OO#$$==------;>2222>>;----====-:>><>>>--==&$@@+OoO.ooO++@$===---==-;:<<3<>;==****===**==",
"$&$$$==$$=$###$$==------;>,2221>==*$$=$%$==;:><2>>:;-==&$@#OOoooO++@$==-;;>:;::>:<22<:;=*****===***&",
"=$&*$====%$$@@$==-;:;;;:>>>222:==$$@$%$$$*=-;>>2<>>;;-=*$@#+OOOO#@@@$=;::22<>>>><<2>:;=**$**===**&&$",
"$$=$$=%==$$$$$%=-;:>:;:>><22>:-%$$@@@@@#$$==-;>><<>>::-==$@+O###@@@$$=;>2222<>:>><>;==%$$%***=**$*$*"
};
