/* XPM */
static char *_649345919290[] = {
/* columns rows colors chars-per-pixel */
"100 100 31 1 ",
"  c #3E7AAE",
". c #3F7BB0",
"X c #407BAF",
"o c #417DB1",
"O c #4583B4",
"+ c #4886B7",
"@ c #4988B7",
"# c #4987B8",
"$ c #4B8BBA",
"% c #4F90BE",
"& c #5091BF",
"* c #5395C1",
"= c #569AC5",
"- c #589CC7",
"; c #5A9EC9",
": c #5DA3CC",
"> c #60A7CF",
", c #60A8CF",
"< c #60A7D0",
"1 c #63ABD2",
"2 c #66B0D7",
"3 c #68B1D7",
"4 c #67B2D8",
"5 c #69B5DA",
"6 c #6DB9DE",
"7 c #6FBCE1",
"8 c #70BEE2",
"9 c #73C2E6",
"0 c #75C6E9",
"q c #77C8EB",
"w c #78C9EB",
/* pixels */
"++++$#$$$$$$$%*-:<11><<1111>;-&%###+O+OOO+$$&&=--:;:--=&&$$@++++@@@$*=:<11111:::1:;-*&$$@$$$$$$####+",
"+++@@$$$$$$$%*->1211<:<<<1>:-=&%##+OOXOXOOO$%&&==;;::;==*&$$@@$@$$%**:11111:::::::-=*%$$##$$$$$####O",
"+#@@#$$$$$$&*=;1111:::;;>:;-=&%$+OOOOXXXOo+#$%&&*-;;>;;;-*&&$%&&%*=-:142111::;:;:;;=&$++##@**$$$#+++",
"@$$@$$$$$%%&*->111:::;;-=--*%%##OOoXXXXXooO+$$%%**-;;;:;--=&**-==;::143431::;;;:;==*&$++#$$$$$$$####",
"$$$#$%%%&$&*=;<11::--=**&*&&$$#OoOX XXXXoOOOO$%%&&*==;;;--===;:1111234542<;;=;;;-=**$$+O++#$$$$@$$#$",
"$%$$%*%%*&*-;>11::;=*$$$%%&$#OOOXX  XXXXooXO+#$%&&&&*=-----=;:13542445531:;==;;;-=*$$++OO#@@$$$$#$$$",
"*&********-:<131:;=*@###$%$##OooOX      XXooO+$$%%$&*==---::,15666553551:;===;;;-*&$+OOOO###$@@$$$%%",
"*===---=-;<1331<;=*@#O+O#$#+OoooXX      XXXXO+$$$$$%*=;-;;::113665555531:-=*==;=-&$+OOOOO##$@@@@$$%%",
"=;::;;;;:1256321;=$@+O++@##Oooo             o###$$$$*==;;:><13576655552>-=*&&=--*&$+OOOOOO++@@@@#%%*",
":::::::<13686621;*$#oO+##OOooo              O+##@@$%*=;;;:1133688656521:-=&*&=--*$+OXO OO+++$@@@$**:",
":<,:::115888762<-*$####@+Ooooo          XX XO++#@@@%*-;;::1235898665521::*&&====&@OOO OX+#@$$@$$%*=:",
">:::11137898862:-*$#@$@@OOoooo           XXXOO+#@@@$*==;::1356788665521:-==&===*%+O XX O+$$$$$$$%*=:",
"::><11567887653<;=*$$*$@OOooX            XoO++++##@$&*;::12567978666641::=====*&$OXX oOO+#$%%$%%**::",
":1>1145777767641;=**=*$$+OOooX           XoOO+++##$$%*-:1136899866666521::-===*%+OO  oXO+$$$%&&**:::",
">111435755556651<;--**$@OOOoo            ooOO+++#$$$**;:1368900997776521::--=**$+oX X OO+$%%&&**=:::",
"11111443142467662<;-*$$@+OOooX          XXOoOOO##$$$$*->4578900090977551,:--==*$OooXXOOO@$%%%**=-:::",
"111114111144797751:=**$$@#Oooo X       .oooOO+O#@$$$&*;>167900w0000986511:::-=&$+XoXXXO+#$$%$**-::11",
"<11<1111,146799762:;**%$@#OOOoX       XoooOOOO+#$@$$$*-135790000000096521::::*%$+OOXOOO+$$%%&*=;:111",
":<:<1111,147000961<;=*%$$#OOOOoo    o .oOoO++O##$$#$$*-136790000000997621:::-*$@OOXOOOO+$$$$$*=;::1:",
":;:><1<<,1470q0962,;**$$#O+#OoooX    OoOOOOO+##$@#$$$*-1258990990099866221::=&$++oOooOO++#$$$%*;::::",
";;::<1<:11590wq973<-*%@@+OOOOOoooXo.oOO+++++##@$$$#@$*;:269999909998875411:-&$++OOoOOOOOO###$**--:::",
":-::11111179qwq094<;*@#+OO+OOOOooooooOOO++#+$@$$@#+#$&=<46778899998876521:-=&$+OooXXooOOO#+$$%*-::::",
";;:111111479qqq073:-*@#+OOOOOooOOooooO##@@#@$$@##++#$*=<2665779999986311,:-*&$+OOX XoOoOOO+#$**=-:::",
":::1122144790qqq95<=*@++OO+O++OooooOOO+#@@@$$$@#+O+#$*-<1243567990076111::=&%@OO XXXoooOoO+$$*==::::",
"1,11254556690wqq95<-*$@++++++OOooOoOOO#++@@$@@#++O+@$&;:,111267900084<>::=*%@OO   XoX XOOO#@%*=;::11",
"1124556555679wqq061-*$@#++@++OOOOOO+++++++@$@##OO++$&*=;:::,15790w062<:;==&$@O O  X  OX o+#@$*=::111",
"3555666665679wqq071:=*$@$$@@++O++++@@@#++##+#OOOOO+$$*=;;:::1479ww0611:=*%$+OOX  XX  X OoO+@$*=::112",
"6667788766679wqw0751:==**$$@####++@@$@@#++++#OOOO++$&=====-:14790w061:=*%$++OXXXX  X   .oO++$**-::,2",
"6788999776990wqq0972<:-*%%$$#@@$$$$$$$$$@#++OOOOO+#$*==-=-;:14690w951;*&$@+OO X      XXOOoO+$$&*-:14",
"689900999999wwww09754:;=*%$$$$$@$$$$$$$$@+OOoOOO++$%*=;-==;:14670071:-*&$+Oo OO X O O oXooOO#@$$%-:2",
"370ww00009wwwqww099751:;=*$$$$#$#$$$$$$$@+OOOOO+@@$**-;--;;>13680951;=&$+OOXO X XX   OOXoOOO+O+#%*::",
"169www0990ww0wqw0097541:-**$$##@##$$$$@@++OOOoOO#$&*=-;:;;:11469972>-*&@+oOo OXO OO.o OooooooOO++%*:",
"169wqw99900qqwww0776521<:=*$$@#$@@##++##+OOOOoOO+&*==-:-:-:11560941:*%$+OOO XO XoO O O   oXooOO+@%*:",
"1579qq0999wwqw009753111<:-**$$@@##O#+++##OOOOOO+@$**--:--::1369962:*%@OOO  OoOO . OXo    oooXO+@$*=:",
"1679999090wwq0997411<11<<;=**$$@#O#O+++++OOOOOO+$&**-:---::,15664:*%+Oo oOO O  Oo  XoX  oXo oOO@$==:",
"26990q999900977621<::<::::-==*%$#OOOOOOOO+OOOOO#$$*=---:-::,1252:=$OOooOO.OOO O XOO  o X X ooO+@$*;1",
"2699009999777551<:;;;;;;:;:;-=%$#++OOOOOOOOO++O#$&*=-----;:11111-%OoooOoOOOo OO X X      o.ooO#@$*;1",
"669900997644111::====--;;:;::=*$$#++OoOO##O#+###&**==---::::1,,:%+oo o.O OOoo oX OX      oooOO#@*=:1",
"699909765411:::;=***=-;:;;:;;=%*$@+OOOO+##@$#@#***=-=--;--::,::=#OO OoooOOOOO  oXO      oo.oOO#$*;15",
"7999996541::==****$*=-;:;;;-=*$$$@#OOOOO#$@$$$**==;;-----::<::-&+OoooOoOOOO  OXX  O    OoooOOO@$*:15",
"899008531::=%$$$$$***-;;:==**%@@@#++OOO+++@@$$*==;:;;;;;:::<:;*$OOOoOOOOOOOoooo. O  .  .oOoO+#$*;:15",
"990w9752,:**$@@#$$$**-;;-=**%$++##OOOOOOOO@@#**-;::;;:::::::;=*@+OOOOOOOOOOOOoO.O O   ooXooO+@%=:147",
"99009651:=%@@#++$@$**--=***%$$#+O++OOOOOO+@@$*=-:::::::<,,,<;*%#OOO++O+OO+OOOoooXo O.OO Xo.O+@&=:469",
"00007521:*$##+O+##$*===**%%$$@+++O+OOOoOO#@$**=-;;::::1111,:=**@+O++#+++#OOOOOOoOOXOoo oo. O+@%-<379",
"wq09651:=%@+OOOOOO@****$%%$##+++++++OOOOOO#$***-;;::<,1241<:=*$@+O++######+OO+OOOOOoo. oXooOO+&-1689",
"009762:;%@+O O.OO+#$***$$$#++++###+OOoooOO#**=-;;;::114421::=*$@+O++#$@#@#++OO+OOOOo.OO X  .O+$=<580",
"w0964<;$@+oOoo.OOO+#$$#@##O++++##@+OOOoOO#$*-;;;;::1145541:-*$$#OOO+#$##++O++#+++OOOOO XoXo  O$=<590",
"w0961:*$+O Oo..OoO+#####O+OO++++##++OoOOO#**;:::;::114551::*$@O#OOO+#$++++OOOO#++++OOXoo X OO+%=1590",
"w0951*$+O XoooOooO+++O+OOOOOO++++++OOoOO+@$=:<<:::1115541:-%#+OOOOO+@@#+OOOOO+#++++OOoOo.  oo#$;1790",
"0094:&$+o.oooooOO+O++OOO+OOO+#+###OOOOOO#$=;<11111111431:-*$#OOOOOO#@@#++O+OO#++++OOOOooooooO#*:4800",
"w072:%+OoooXooOOOO+OO+++OOO+O##$++OOOO+#$*=:11421111<11>;*$##OOOO+++@#+OOOOOOOO++OOOoOooXoooO#*:3800",
"0071;$+oo  oooOoOO++++OO+OO++###+OOOOO#@&=:14532111::>>:=%$OOoOOO+@+##+OOOO++O+++OOoOooooXoO#$=16900",
"0961=$+Oo. ooooOOO++@@+OO+O++#@$+OOOO+#$*;<135311::::::;=$#OooOO+++@+++O+O++O+##++OooOooooO+@*;1780w",
"095<=$+ooXXXXooOOOO+++O++++###@#+OOO#$$*-:1433411:;:;;;-*&#+OOoOO++@#+++O+##@@$@@+OOOooooO+#%;<37900",
"975,;%#Oo XXoXoOOOOO++OOO+++@@$$#OOO$$*=;<13331>::;;;--*&$+ooOOOO+@#++++#@$$$$**$#OOoooOO+#&-:15790w",
"095,=$@Ooo.oXooooOOOOOOOO+++@@@@++++@$*-:11231,>::;;==*&$#+OOoOO++#++++#@$$***=**$OOOoOOO$$-<1579000",
"0841=*#Oooo oooooOXOXOOOOO++++++#+O+#$*;>>,11,>>:;:-==&%$#OOOOOoO+OO+O#$$%&**=-=*$+OOOO+@$*:11580009",
"861:=*@+oooooXooOoXOOXXOOOOOOO+++#+O@%*;>>>,>>>;;>;;;-&$$#OOOOOOOO++++$$%&**-==**$$+#+++@%=:15680009",
"831;*$@+OooooooXXO O  OOOOOOOOO+OOOO@*=:>;;>>;>;::>--&%%##OOOOOOO+++++$%&*=-;-==*%$$$$#$%=:115800099",
"61<;*$#+OOoo   .oX XXO O.OOOOOoOoOo#$*=::>>:;;-;:-;;-&%$$###+O+OO++#+$&*=---:;-*&$%%%$$**::136800997",
"51:*$$#+oooo XX  o. oX OOOOoOoOOooO#*-:<>:;;;;;-->==&%%$$+#+OOOO+++$$%*=-;;-:;-*&%&***=-::1456990997",
"51-&$#Oooooo . XoXXo XoooOOOO..oooO@*:::>:;;;---=&&&%$$#$$###OOOO+$$%**-;:;::;==***=-;::114557909977",
"2:=%@#OOooo   . oXo ooOXoOOooOoooO@*:111:;:;;--===&&$$++++O+OOoOO#$$%*=;>;;:;---==-::111455789000975",
"1:*$#OOooo. X  X oX OX. OOoOOooooO$=111<>>;;;--;&&&&++O+OOOOOOOOO###$%=--:;:;;:;-;:11367779990009773",
"::=$@OOoo   X  oooXooooOOoOoooOo+@=14331<::;-;--=*%$@O+OOOOOOOOOO+++@$*==;;:::::<1126699900900099854",
":-*$$+OoX  . o..XooXooooooooOoO+$=:477521:;;;;;-***$#OOOOOO+O+O+OOO+@$$**=;<<1111136990qqq0099000751",
":-&$+OOooooXo XoooooooooooOOO++$-:1588541:;;;;;==*$$OOOOOOO++#++#+O+@$@$**-:111125790qqqqw0999000851",
":*&@+OOoooooXooooooooOooooOOO@&=:15897511::;;:-=**$@OOOoOOO+##+######@$$$*-:<1156690qqqqqq9900qw0961",
";=*$+OOooooooooooooooooooOO+@&*;<2799741>:;;:;-=**$#OOOoOO++@$$$$@#$@##$$**;:1277990wwqwqw9000qq0961",
"<-*$++O+OoOoooooooooXoooooO#$*=:15997741::;;-;;**$@#OOOOOO++$$$$$$$@$$$$$***-:156900wwqqw00090qq0073",
"2:=*$$@#OOoOoOooX XXooooOo#$%*=:27097741:;==-;=*$$#OOOOOO+@@$$$$$$$#$$#$$$**=;<15790wqqq099999000985",
"3<;==*$@OOOoo.XXX X .oooO+@$&*;<59q0775,:;==--=*$@OOOOOO++#@$$$$$$$$#@###$$**-:12690wqw0977779999876",
"31<:-*%$@OoOX..   XXoooOO#$$*-:150wq0741:;=--=*$$@#OOOOOO++##@@$$$@@##+##$$&**=;<570qq00776677776666",
"21<::**$$#OoooX .XX .ooO@$**-;<150wq9741::;;;-**$@++OO+###++++@#####O+++#@$@@**=;270qqq0765777765553",
"111<:=*%$##oooo.oX oooO#$**-::<270q09752,::;;=*$@+OO#+##$@++++++OOOOOOO+##@@#@@*;179qqq0765565532211",
"<1<:;**$@#OOoo.ooX .oo+@&*-;:<1370009754111<:;*$@++O##@$@@@#++OOOOoooOO++####@$*-<59qqq096555544111>",
":>::;=*$@#OOooooXX ooO+$&=;:1115790997754441,;*$@#O###$$$$@##+OOooOoOOO+#++OO+@*=<49qqq0875521411,::",
":::;=**$##OOOOoooXXoO+@*=-:11156999999776574,=*##+#@@@$$@$##+OOOooooooOO+OOO++@*=<470qqq97411111:::;",
":::;=**$@##OOOOooooo+@$&=-:12567799999977764,;*$##@@$$@@@###+OooooooooOOOOOO++$*;,48000q9521<111::;;",
":;:;-*%$@##+OOoOoooO+@$&=:114569799999999952:=*$##@$$@@###+O+OOo..oooOoOOO+O+@$=;1470qq09511<,1<::;:",
"::::-*&$$@@#+OOoOoO+#$**;>113688990090999762,;*$$$#$$+++#OOOoo  X  XooOOO+++$$**;,4690w0741,<,11::::",
"::1::=&&$$$@+OOOoOo+#$*-;>>13688990090009942<=*$$$@$#+O+OOoooo   X  oooOOO+$%$**;<169900941,<,11::>:",
"111:-=&$*$$#+OOoooOO$*=;:>>125690wq000099762<;*%$##$#+OOOooooo      oXooOO+$$&**-:16990962111111111:",
"11::-**&$$$#+OoooooO#&=;;::<136890000w009762<;*%$$@$+O+OOOoooo       XoooO+$$%&*-:157776411111211111",
"1:::=**&**$@+oooooOO$*==;;:<156779990ww97752:;*$$$##+OOOOooo           XoOO+$$&*-:<25676321244421111",
"::;=***&$$$@OOooXooO$**==;;<1336777990997641:;**%$$++++OOooo           XoOOO$$**=-::1666565565511111",
":;-**&&&%$$#OoX ooo#%*=*--;:123776677996652,:=*$$$++#OO#oooX          XooOOO$$****=:,466677775411<><",
"::**&&$$$$$#ooooooO$%*=====:<1455667797652,::-=*$##++##OOoXX        XXXoooOO$$$%$&*;,457789763111:::",
":-=%$$$$$$@#oooooO+$&=-***=;:1455677886531>:;-=*%$+++++Oooo             oOOO@$@@$$*=:2678986311<<:::",
":-*%$@$$@#@#Ooooo+@*=-=****;:145656797633<::;-=*%#$#+++Ooo              ooOO@##O#@*;,467897511<::><<",
"-=%$@#$@###OOoooO+$==--****-:145566886521<:;;--*$$$#+++Oooo         XX  oO+##OOO#$*;14677731::::::::",
"=%%@##$@#++OoOOO+@%=--*****;:254556765211<:;--=*%$$###OOoo          XXXXOO##+OOO$$=;1255541::;;;:;;=",
"*$$$@#$#@#+OOOO++$*=:-=*=*;:146455666511>:;---=*%$$$$#+Oooo.      ooXooO+@$$+#+#$*=:,1421::====--=**",
"$*$$$@#$$@+OOOO@@**=----==::24544556551::;;=--=*%*$$$$+Ooooo      XoooO#@@*@#@#@*=;:1211:=*********&",
"$$$$$$$$$@++OO@@%&=--:--=-:14544354531::;;=----***$%&$++Oooo o   XoooOO#$*%%$$$*=;;:11<;;**%***&%$&$",
"$$@@$$$$$#+#O+@$&*==-:-=-::2445411111:=====;;;-=****%$@+OoooXX  XooOO#$$%******=;::11::=**%%$&$$@$$@",
"####$$$$%$$+O+$%**;-::;:::144442<:;--=****=;;:;;;=**&$$$#OOooo oooOO#$$**=-----;::111>-*&%$$$$$$$$$@",
"##+##$%$$$$++#%**=:::-:::,12411:-**%***$$**=;;;:;;-=**$$++OooooooOO##%*--;::;::::1111:=*&$$$@$$$@@@#",
"#++#$$$$%$+++$%%=:::::::,,,111:**%$$@@@#$$**=;;::;;=**&$++OOoooOO+##$*=-;<1>>>1><111:-*&$$$$$$$@#+#+",
"OO+#$$$$$$$#$%%*-::::::,1111,:**$@@@#O++##@***;;;::=-**%@++OOOO++##$$*-:<1111<>>11>;-*&$$@$%$$$$#+++"
};
