/* XPM */
static char *_649345946435[] = {
/* columns rows colors chars-per-pixel */
"100 100 30 1 ",
"  c #3E7AAE",
". c #3F7CB0",
"X c #407BAF",
"o c #417DB1",
"O c #4583B4",
"+ c #4886B7",
"@ c #4988B7",
"# c #4987B8",
"$ c #4C8BBA",
"% c #4F90BE",
"& c #5091BF",
"* c #5395C1",
"= c #5699C5",
"- c #589CC7",
"; c #5A9EC9",
": c #5DA3CC",
"> c #60A7CF",
", c #60A8CF",
"< c #60A7D0",
"1 c #63ACD3",
"2 c #66B0D7",
"3 c #67B2D8",
"4 c #69B5DA",
"5 c #6DB9DE",
"6 c #6FBCE1",
"7 c #70BEE2",
"8 c #73C2E5",
"9 c #76C6E9",
"0 c #77C8EB",
"q c #79CBEC",
/* pixels */
"OoOOOOO@##$@$&*;><221112111<:=&%@@OOOOoOOO+@$&&*---=**&%$OOOOOOOO$$$*=:<121211111<::*&$$+++++OO+OOOo",
"oOOOOOOOOOO$%*->1421111<1<<:-*$$@OOOOoX oooO$$%%*----***&%$OOO@$$%&*-:11211111<11:::=%$@++++#+++OOOo",
"oOOOOOOOOO$$&=:141<>>>>::::;=&$@OOOoo  XoooOO$$%*==--====&&%$%&*&*-;>24444411<<:,::-*&$@++#####OOOoO",
"OOOOOOOO$$$&*-,12<>>::;::;=**$OOOOoX   XooO+O$$%$&**=--=--=***-;:::14555541<<::<:::-*&@O++#$$#++OOOO",
"OOOOO#$$$$%&-:<2<<:;;--==**&$@OOoo  o   ooooO#$$$%%&*=---;---:>11444666641<::::::;-=*$@#O++@#++++OOO",
"@OOO#$$$$&&=:>21>::-*&&&&&&%$OOOo.       oooOOO#$$$%&**=---::<24565767654<:::::::;-*&@$OO++##+++++O+",
"@@#@$$&&&*=:<221>;-*$$$$$&$$@OOooX      Xoooo++##$$$%**=--::<157777668752<:;;::::;=&$#OOO+++++#OO+++",
"$$$$$&**=->12421>;*$$@@$$$$@OOooo        ooooOO+O##$%&*=--:<1257887878641>:;;::::-*%$$@OOOO+++O++O#+",
"$&&&&&&=;>145521>-%$O+OO@@#OOoo             o+++O@O$%&**-;><225888888663:::-;:<<:=&$O#OOOO@@+OOOO+$$",
"&**&*==->1457742>*$#OOO@#OOOooX             oOOO@O#$%*==-:,<225899788651,:--::<:-*%OOOOOOO#O#OOO#$$%",
"-====-=>15777751:*$#OO@O#+Oooo              OO++O#$$%*=--:>1247998887641>:--:::;=%#OoOo+O#@@##O+#%%*",
"-==--;>,27787741:*&$$$$$OOoooo              oOOOOOO$&*--;:>1458989987642::-::::-*$+oOooo#@$$$@#$$%*=",
"---->>>24777754<:=*%*$$$#OOooX            ooOO+O@+O$%*-;;><24799998885421:::::;=$#OooooOO@$$$$$$%*=-",
"-:::>,2455555752:;****$@#OOooX            ooOO#O++@$%*=;>,247809999887541<<::;-*$OooXooO#$@$$**$%=--",
"::>><44444455552<:;-*%$$OOOOoXX            oOOOOOO#$%&-;>,458qqq0099875421<::;-&#ooooXoO#@$******=:-",
">>1<2444222458754<:-=$$$@OOooX             .OOOO@@$$%&*:,2479qqqqqq9986421:::;=&#oooooo+#@$$$***=:::",
",<1222411224688842:-=%$$@OOoooXX      ...o.OOOOO#$#$%&=>>4599qqqqqqqqq6531<::;=$O+oooO+o+$$$%&*=::1:",
"<11114211225899852:-=%%$$O+O+oXX      .oooOOoOOO@O#$%*->1459qqqqqqqqqq85411<:-*$#oooooo++##$$%*-:::1",
"<<1112211148900952,:=&$$O$OO+Ooo      o.oooOOOO+O#$$%&=>2579qqqqqqqqq985421::**$@o+oo++++##$$%*-::11",
",,,1141112480q09841:=&$$$O$#+oooX  Xo.oooOOOOO++$@@$%&=;2479qqqqqqq0q075421:=$$@@oooooo+++++#%*-::::",
"::<122111459qqq9851;*$@@OO$O+OOoooooooOOOOOO++++###$$&=>2589q99qq0q0987531:-%$OOooooooooo+o#$%*=::::",
"<:1122222459qqq0841-*@OOOOO$+++ooooooOOO+++++@+#$@@O$%=;458899990q0097541:-*%@OOooooooo+o++@#%*=::1:",
"<,1123434489qq0q85<:*$@OOOO@++OOOooooOO++++$$@#+@+++@%=>25557789900974211:**$@OoXXXXooo+ooo@#&*;:::1",
"111245445580qqqq84<-*$@#OO$OO++oOooooO++++#$$@#++OO+$%=><22447889qq952<>:=*$$OOXXXXXoXoooo+#$&=;:222",
"222455565680qq00951:&&@OOO$$##OOoOoOOOO###@$$@++OOO#$$*;>>><25789q074<>:-**$OOo  X     Xo+O@$&=;:112",
"4445558587890qqq051-&%$@@$$$$@+ooOOOO##O++@@@@O+OO#$$%*---;><4789q964<:-**$@OoX        Xooo@#*-;2222",
"555887888789qqqq062:=&%%$$$$#O#O#OOOO###+#@O#O+OOO@@$&**---:>257qq951:-*&$OOOo         Xooo+#%=>:222",
"558888888899qq0q0841:==&&&%$$#OO####@@##+#+OOOOOO@O$$&&*&**;>1579q84<;*%$OOoo           ooo+#%*;:122",
"88899999899qqqqq08531::&&&%#$O@@##@@$$$@@#OOOooOOO$$&&***&=;>1478082:=&$@OOXo        X XoXo+O$%=::24",
"589qqqqq00qqqqqq09854<:-**%$$$O$O@@$$$$$@OOOOOOOOO@$&*=*&*=;:1458951;*%$OOoooXo     X XXoooo+##%%::2",
"580qqqqqqqqqqqqq088641::-*%%$O@##@$$$$$#OOOOoOOO#@$$&*=**=-:<146874>-&$OOooXo       XXXXoooo+oO$%=:1",
"270qqqqq0qq0qqq0888542<:;=&$$+OO#OO@##$OOOOOoooOO@$&&*====-:>147851:=&$OooXooXXX XooXXXooooooo+#$%::",
"469qqqq00qqqqqq0865441<:;=*%$OO#O#OO#@@O+ooooooo##$&**=;=;;:<37752<;&$OO O  .o       o    ooooo#$&->",
"468qqq0090qqq0087541<<::;-*%$$##OO+$@@@#+++o+oo+$%%**====;;>147741:*$OOOXXo X  o OO     X  Xoo+#$*-,",
"468qq009900qq98651<<:::;;-**&$$OOOOOo+OO+oo+oo#+#$%&=====;;>14552:*@@OXXo.XOO O    Xo  X   XooO#&*;,",
"46800090899996641<:;;:;-=--**&$@$OOO++O+o+oo+oo#$$%*=--=-;;<1332:=$OOXXoooX X      X      Xooo#$$*;,",
"4689909866666431<:=====*====**$$#@o+o+ooo+oo+oo+@$&*=====;;><11<-$OOoXooOo o  XXX .     X  ooo#@&*:<",
"66999966664421<<:-*****=*-=-=*&$$#@++oo++o++++@#$%**====-;>><<;>&@OXXoooooOXO    XXX    XoXoOO#$&=:4",
"68999864431<::;-;*$%&****==*=*%$$@+oOoO++++@++#$%&*===;;;;;>>>;-$OoXXoooOoXX . X o      ooooOO#$*-<4",
"788886642<<;-==***%&**===*==*$$@@++o+OoO+++@#@#%&=--=;;;;:>>>--*OoOooooooOO    X  X     ooooO#@$*:15",
"899997611:-******%%&***==*=*$$@O+#+o+o++++####%**-;;;;;>>:>>>-*%OooooOoooooooXXX   X   .ooOO#@$*->15",
"89007661<;**$+$$$$$**==-=**&$@OOooo+ooooo#+@#%%*-;:;>>>>>><<;-&#+oOOOoOOOOOooooXXXXXo Xo oOO@$*=:<47",
"9009662<;**$++++$$%**===***$$OOoo++o+oooo+++$%*=;:::>><<<<<<;*%#OO+#OOOOOOoOoooooooo ooXXooO@$&->158",
"00q9761:-*#+OO++#@$**=*****$@#OO+o+ooo+ooo+$%**=;;:;>><2111<-*$#OO+OOOOOOOOOooooXooooo XXo OO@&->278",
"0q0864<:*$@+OOOOO+$****%*$$@@@OOo#+oooo+++#$&*==;:::>22222<>-*$#OO#@#O#OOOOOoOoooooo. oooooOO@&=>479",
"q09661:=*$+OOoOoOO+$$$$$$$@#OOOO+++o+oooo+#$*==;:;>>224422<>-*$@@OOO####+OO+OOOOOOOXOooXXXooO@&=>479",
"00864:=*@+OOooOOOO+#$@@@@#OOOO@O+@++oo++o+$*=-;;;>><44442<>;=%$+OOOOO$#OO+OOOO+OOOOOoXooo.ooO#$=>479",
"q0661;*#+OOooOoOoOOO+O++#OOOOOOOo#+o+ooo++$*-;;>>>,224442<;=&#++OOOO$OOOOOoOOO+OOOOoOooo o oO#&-<489",
"0076<=$#OoooooOoOOOOOOOOOOOXoOOOO#OOOOOOO@$*-><,><122442<:-&$@OOOOO+O#+oOOoOOOO+OOOOOXXXXXXOO@&-1580",
"0074;*$OoooooOoOOOOOOOOOOOXOOOOO@#OOOOOO@$*;><1<<121221<:-*$$OOOO+++#OO+oOo+OO+OOOOOOOOOooXoO@&:469q",
"0963;*#OooooooOOOOOOOOOOOOOOOOO###OOOOO@$*-:<121221111<:-&$$+OOOO$$OOOOoOoOOoOOOOOOOOOOXOXooO$*:4800",
"0961-*#OooooooOoOOOOO+OOOXOOO#@@OOOOOO#$&-:<144211<>:::;*$@OoO+OOOO@OO+OooOOOOOOO+OOOoXOooOOO$-<4890",
"076:=*#OooXooooOOOOOOOOOOOOOO@O@OOOOO#$*=:<144441<>:::;-*$O+oOoOOO$OOOOO+O+o++++OOO+OOXXOoOO$&;15890",
"074:=$#oooXXoooo OOOOOOOOOOO@O##OOOO#$$=;>1244411<::;--=*$OOOooOOOO#OOOOO++@#O##$OOOOXoOOOO$&->2580q",
"974<=*OOooXXoooOOOOOOOOOOOOOOO@#@OOO@$*-><144441<>::--=*%@+oOoOOOOO$OOO@+$$$%$%$$@OOXOOOO+$&=:1479q0",
"074<=*OOoooooooo O XOOOOOOOO@@O@#OO@@@*->112441<,:;--**&$#OOoOooOOOOOOOOO$%%%&**&$O+OOOOO$%=:1458000",
"974:=*$Ooooo...oO XO OOOOOOOOOOO#OOO@$*;<<2421>>;>;;-*&%$OOOOoOoOOOOOoO$$%&&**=*&%OO@OO$O$*->1479009",
"871:=*$#Oooo.ooo O X   OXXOOOOOOOOOO#$=;<<<<<<>>>;>;**&$$OOOOooOOOOoOOO$$&=*===*&%$$$O$O$%*:<4580q99",
"74<:*$$#OoooXo o   X O  OOOoOOOOOOOO@*=:<>:>,>::;:;-*&$$$OOOOooOOOOOOO@$&=*====*&&$%$$$$&*;,14580998",
"51<-*$$O#ooo.    o X   O XOOoXoOOooO$*=:<>::::;;;;-*%%$#@O@O+OoOOOOOOO$&&=====**&&&&&&&&*-><25799988",
"51:=*#OOoooo . XX .     OOOXooooooOO*-::<:::;-----**%$@$++++O+oOOO$O@@%&===&*=*&&&&***--::,244798987",
"4<-*$OOOooo           .O XXOOXXXXoO$-;::<:;;;--==*%%$OO#+++++oOoOO@$$%&=======*&&&*-::::112445899977",
"2>=%$#Oooo       o .. XX OO XooXoO@*::<<<:;---==*&%$#+OOOo+O+oo+O@@$%&&=====****&*-:><<2244578909975",
"<;=$##Ooo.     X  o XX XX OXooXXoO$-<11<<;;-==--*&$#+O+o+Oo+oo+oOOO@$%&==========-:>1445578789999974",
"<;*$$+ooo      o XX  oooXooooooOO$=,2421>---====&%$@OOOOOOoOOOOOO++++$***-=----;;;<14688899999000854",
"<;=$@OooX   X  XXX     oooXoXoOO$*:15541>:--=--=&&$$OOOooOOOOO+OOOOO++$$**--;:<<11346890qq099800q954",
"<;*$OOoo.X     XoX o oX  XoooOO$&:,47721::;--==*&&$@OOoOoOOO+++++OOO++#$$*-;:<<1136680qqqq0090qqq854",
"<-*$#OOo.o.  XXX o   XXoo ooOO$&:,25852,:;--===*&$$OoOoooOO+####++++O++$**-;:<1145880qqqqqq0qqqqq962",
">-*$OOOOooooXXXXXo  o.XoXooOO@&=:258851,:--==****$##OooooOOO#@$@##+++O##$**-:114668900q0qqqqqqqqq062",
"1;=%$O+OOoo.oo X     o XoXoOO&&-<488541::===*=*&$@OOOOOoOO++@@$$$#++++O*#**-;<1468890qqqqqqqqqqqqq85",
"4>-&%$O+ooooXoX      XXoooOO$$*:<598541,-=*&*=*&$@#OOoOoOO++$$$$###++###$***-:135690q0qqqqq0qqqq0095",
"5<>-*%$+ooo o         XoooOO$&=:2808642:-=*&**&&$#OOOOOOOOO##$$@$#+++###$$**=;:13680qqqqq99999q98887",
"42<>-*%OOOOXX .      XooOOO$%*;<48q9842:-=&***&$$OOOOOOOO##O@@@#+#+O++#@$*%***-;<489qq0q988889888775",
"422<>*&$OOOXX  X     XooOO$&*-:159q9852,:-===*&$##OOOOO##O@@#@##+O+OOOO@$$$@$**-:379qqqq987887877554",
"222<:=&$OOoo        XooO@$&*-><25qq9854,:::-=*$$@OOOO###$@@+#O+OOOOOOO+$@@@#@@$*;159qqqq987777775544",
"121<:*&$OOOoo        oO#$**;:<<47qq98752<:::;*%$@#O+O##$$@@#O#OOoOoOOO#@$#+++@$*;1590qq0987575544412",
"<2<>;=%@@OoOooXoX   ooO$$*-:,1258qq988744221:=%$@#O++#$$$$###OOOO.oOOO@@@@OOO@@*;158qqqq977544444111",
"<<>>-*%$OOOoooooX  Xo+@$*-;<12589q0998865552:=$$@O##@#@######OOoO.OOOOO+#++OO##*;<480qqq9754344211<<",
">>>;-&&$@O+OOoOoooooOO$$*;><45789qq999888862:=%$@##@@#+++++O+Ooo.ooOOOO@++OOO+$*;1580qqq974222211<>,",
">>:;-&%$O@OOOooooooOOO$&-:<457899qqq0q999952:=*$$#@@@#+OOOOOOoOo..oo.OOO++OO+@$=;1579q009522<141<>>>",
">:>;=*%$@##OOOOoooOOO$%=:<24589qqqqqqqqqq062:-*$$$##$OOOOOoo    o  oooo+@@O@$$&*:1479qq9842<11221<>,",
"<>>:-*%#@@@@OOOOooO#$%*;<<14589qqqqqqqqqq061:-*$$$#OOOOOOooo     X  ooO++O@#$$*=:<4699q9842112211<<<",
"<<<:-*%$$$@OOOOooOo#%*-:<<24579qqqqqqqqq9641:;*%$###OO+ooOoo        XXoOo+@$$%*=;>1589985211122211<<",
"<<>;=*%$$$$OOOooXoOO%*;:><144789qqqqqqqq8641:=*$%####oOoOooXX       XXXoooOO$%&*-:1588874212224222<<",
">>;-**%%$$$@OOXooXOO*=;:>,<4478890qqqq096431:**$$##OOOOoOooo          Xo++++$$%*=:<46775442244421<<>",
";;==***%$$$#OOoXooOO&=;;:,<145789900qq08641::=*$$#$OOO#+oooo          XXoo++#$&*-;:<457544444421<>::",
"-==**%%%$$$#OooXXoO$*-;:>:>145789999qq96411:-=*%#+@+#OOOoooo          ooo+oO$$&**=-:1555555542<,:;;-",
"-=&%%$$$$$$OOoXooOO%*;:>::>124578889997431:--=*%$+++OOOOooX          XXoo+OO@%%%$*=:147778742<>:;;--",
"=*%%###$$$@OOOooOO$&-::::::>1468789998541<:;--*%$@#OOO$+oo              OoOO$$$$$&=-14578772<:-----=",
"*%$#@+O#O$@OOOOOO@&--:::--:>1466888996431>:;-=*%$OO#OOOoo.              oO+O$OO$@$*:24777741>--=====",
"%%#@+@O#@O#OOOOOO%*-:,>:--:>2468888986311<:-=**%$O#OO+Oooo              OOO@O@OO@$=>2477542>-=*&****",
"###++OO#O#OOOOOO$&=:>,:---:,258888887531<<;-=*&%$##O+OOOoX           XX OO$@OOOO$&->125542>-==**&%%%",
"#@+oo+OOO#OOO@@$$*-:>::-;::1468887887531<:;-***%$#$OOO+oooX       ooooOOO$$$@@O$%*;:1242<>-=*&&%$$##",
"++++O#####OOOO$$*=;::::-::,256867778651<:;---**%$$$#O#OOoooX     XXoooO#$%&$$$$$*=:>1211:=&&&%$$@+##",
"++++@O@#@@OOO@$$==::::::;:145865666652<::;--=**%%$$$$OOOooX       oooOO$%&&&&&&=--:>12,:-&&&$$$O++++",
"+o+@O@#$@#@@O$$&=--::::::,24566543411>;-------**%%%%$@OOOooXX   XXooOOO*&**==---::><2<:=&&$$$@O++oo+",
"o+o+o##$#@+++#%*-;>>>;>><22455541>>;;=***==---===*&%$$OOOOooXXXXXoo#O$$***;;;;::>><21>-*%$#@#++o+o++",
"+oo++#$##@+++#%*;;>>>><<2244442>;-=&*%%$%%*==-=--==&&$$#OOoXoXXXooOOO#**;;:<<<<<<1241>=&$$#Oo+o+o++o",
"+oo++++@#+++##*=;>><<<2<21222<>-*&%$@++++#%&**==-===&%$O++OooooooOO$O**-;<<<<<<1<222>-&%#+O@++o+o+oo",
"oo+oo+++@+++#%&=;><11<<2122<>;=&$@@@++ooo++#$&*=--==*&%$OOoOooOO$OO$**-:<13222<222<>-=%$#@@Oo+++++oo"
};
