/* XPM */
static char *_649345970480[] = {
/* columns rows colors chars-per-pixel */
"100 100 32 1 ",
"  c #3E79AE",
". c #3F7BB0",
"X c #407BAF",
"o c #427EB1",
"O c #4582B4",
"+ c #4886B7",
"@ c #4988B7",
"# c #4987B8",
"$ c #4C8BBA",
"% c #4F90BE",
"& c #5091BF",
"* c #5395C1",
"= c #5699C5",
"- c #589CC7",
"; c #5A9EC8",
": c #5DA3CC",
"> c #60A7CF",
", c #60A8CF",
"< c #60A7D0",
"1 c #63ACD3",
"2 c #66B0D7",
"3 c #67B2D8",
"4 c #69B5DA",
"5 c #6DB9DE",
"6 c #6FBCE0",
"7 c #70BEE2",
"8 c #73C2E5",
"9 c #75C6E9",
"0 c #77C8EB",
"q c #7ACCEE",
"w c #7BCFF0",
"e c #7CD0F1",
/* pixels */
"  ooo oXooOO$$-:14444443331,:=&$++OOOoXoooOOOO@$%&%$$$$OOOoOoooo+@@&*;>>13444455432>:*&++ooooooooooX",
" oXooo.X.XoO$*;1444333331,>:=&@+OOOoXX   X oOO+@$%&%$$$$++OOOO++$&*=:,1344445544421>;*%@+oooooooooXX",
"X Xoo ..ooO+$=:342211212,>;=&$+OOOXoX   X oXXOO@$$%$&$$$$$$$$$$*=;>,345555555443221>:*$+oooOOOooooo ",
"oooXX oooO+$*;13321<1<11>:;&&@OOXXoX       oOoOO$$$$$$*&**==**=:,13558888865441322,,;&$++o+oOo+ooooo",
"oo.XXoooO+@%=>133<<>>:>:;==&$$OOoo        oo OoOO++$$$$**-:::,145678000097543112311>;&$++oO+Oooooooo",
"ooo o oO@$&=:1341<::::;==&=&&@+oo       o  oXXoOOO+++$$**=:<<25880000e008753211332<:;&$+oo+oO+o+oooo",
"oX.oooO+$&*:13431>::==**&&&&$+Ooo        .XXXOOOOOOO+#$$*=:<13680qqqqqq08742113332<>;&$Oo+o+oOoooooo",
"XooXooO$&=:>34541>;=*$$$$$&$$+ooX        X  . XooOoOO+$$&-:<1269q0eqqeq98542134441,;=&$+OOOoOooooooo",
"oooooO#$&->247541<;*&#$+##$$+Ooo            .OXOoOOO++$%*=::1259qqqqqqq08543355531>=*&$++o+oOooooooo",
"ooOoO+#$*>1457753:=&$###++++OOo             . O.oooO+@$&*-::1269qqwqqe09754455541>;*&$@++oo+ooooooOo",
"OOOOO+$&=>2477751:*&$$##$+OOOoX             oOXOOoo++$&&==::<389qeqeqq0855445551>;&&@@+++o++oOoooooo",
"O++###$*;13577741:=*$$$$#++OOo              XoOXoOO+@$&**=-:1589qewqeq097545553<;&%@+OOO++++O++O++++",
"$$$$&&*=:24577752>-*&&$$$$+Oooo             oOOOOOO+@&&*==;,259qeeeeee097555531:&%@OOoX+++####$#####",
"$&&&*=-:<34557751<;-*&$$#+OOooX             Oo OoO+#$&&=*=:<480weeeeqq098555531:&@@XooOOo+++$$$$$$$$",
"&**;;><<1235777731:-**$$@++OooX              OXOOO++$&&*=;:159eeeeeeeq09854431:=&+OOXoOXo+++$&$$***&",
"==;:11111234799763<;*&$$$+OOOo X            oOOoOO++$$&*;:<38qeeeeeeeeq9854311:=%+oXooOO++++$$***===",
";:>124323335899974,>=&%@#OOOOoX        .XoXoOoXOOO++$&&=;>379weeeeeeweq075421<;*$+OooooOOO+#$$%*=::;",
"::<24442345790q0741>=&%@O+O++ooX        XooXoooOOO+$&&*=>259qqeeeeeeeeqq95421;=*+OooOoooOOOO+$$*-:::",
"<122344444689qq0753,;&$@OO+++OOooX     .XXXOooooO++$&&==>479qwwweweeeeq97541;=&$+oOXXooOOOOO+$$*->><",
"113444544579qqqq864,=&@@+++#+OOOooX XXoooooooOOO+++$$*==>489weqweeeeeeq9751:*$++OoXoXoooooOO+$*=;::<",
"124445545580eqeq974>=%++O+#$$#++OOoooooooooOOoO+##+$$$*;<799qqqewweewq8741;=$+Ooooo o.ooooOO+$%=;>>1",
"24445555679qqeqq983;*$++O+$$$$$#+OOoOoOOOO+OO+#+#+++$$*;25890q0qwwwww9741;*&+Ooo X   XXoooXO+$&=>113",
"4555558589qweqqqq73>=$+++#$$&$$$#OOoooOO+++#####++OO+$&;>4577999wwww9741>=&#+ooX     o o ooO@$&;<234",
"5585888899qeqeeqq73>=&#+##$$&*$$#+OOOo+O++#$&$#++OO++$&=;122578900w9751;=*$+OooX    X   X.oO@$*:,334",
"5686899000eeeqqe974>=*$$#$$&*&##++OoOO+O@#$&$#+O++OO@#%&=;:>146899q852>=*$$O             XoO+$*:1344",
"58880000qqqewqqqq74>=*$$$&&**&##OOOOO++++@$###++oo+O+##&**=;>25590972>;*$$OX            X XoO$*:1445",
"88990000qqeqewqw0841>***&****$++OO++O+++++@+++O++o+++@$$%%&=;>257985>-*$$O               XXoO$*:1345",
"889qq0qqeeqeqeqwq872<;==*=**$#++OOO++++++++OoOoooOo++@#$$$%*;>237871;=$+Oo                XoO$%;1355",
"8900eeweeqqeqeqqq9752<;;==*&$$+OOOO+++$++OOO+ooooo++@@$@@$%=;>>25751=&#OXo              X  oo+$=:145",
"890weeewqeqeeqqq987541>>==*&$+O+OO+O+#+++Ooooooo+Oo+$$#$@$&=-;>3563>=$+oX  .               Xo+$*=:14",
"89weeewweqeqqwq977542<>;-=*&$+ooOOO++$++OOoooooo+o+@$@$@$&&==-,3531:&$OXo                  ooO#$*;14",
"59wweewwqeqeeqq975421>;==**$$+o+oOO++#+OOoooXXooo+o+@@$$%&&==>2451:;$+Oo   .               ooo+$&;>3",
"79qeewewwwwww008643<::;=***$$+OoOOO++++OOoooo.XOOOO+$$$%***=;,353<;=$Ooo X                  ooO#%-:2",
"69qwewweqwwew086521::;=**$**$+OOoOO++OOOOoooooXoO++$$$&***=-:<342:=&#OoX                     o+#*=:2",
"69qeqqq0000098642,:;-=*%$$$$$OOOOOOOO+OOoooooooOO++$$***===-<143<;*#Ooo.                    Xo+$%=:1",
"59qwq09888898641<:-***%$$$$$$++OO++OOOO.OooooOOOO+$$$*&**==;<11<;*$+oo                    X.oo+$%=:2",
"690099986666641<:=*%%$$$$$$$$+++++OOOOooO.o.OooOO+$%*****=::<<::=$#oXoX oX               . ooO+$%=:2",
"690098854544311<:*%%$$$$$$$$$#++++OOOooO.OOO.oOOO+$%***=*-:,<:;;*#Oo X                     ooO#$*-:2",
"79998664331<<::::*$$###++$$$$++O+OOOXOXOoOOOOOOO+$%*====-:<1:-==$+oo oXXoX              ..ooO##**:14",
"899886541<::;-:;-**$$$$#$$$$#+OOoOoOOoXOOOOOOOO+#$**==:;::<<:=-*#ooXo Xoo .             ooooO##*=:15",
"89097641<;=**=-==*&$$$$$$$%$$+OooOoooooOOOOOOO++$&*==>>>11,<:;=%+ooXoXXXo  o        X   ooo+##$*-:25",
"00007731:=*&%$$****$&$$*%&&$+OOooooo.oOXoOOO+++$&=;;>,,11111:;&@+ooooXXoooo           Xo.oo+##**:148",
"w009753:-*$$$$$$$$******&*&$OooooooXoo OooO+$$$%*;:>>1322111:*$+oooooooo oo oXX     X X ooo#$**=:259",
"0w09751;**$$$+++$$$*$*$***&$+oX..ooo oo OO+@$$$*=;:>1243222,:&@++ooooooooooXoo          ooo+#$*=:159",
"w00772<-=$$#+OO+++#$$$$*&&&@+oooooo.ooXOOO#$%%&-;;:>3554121<-&$Ooo+++oooooOooooX   X XXoooo+#**-:259",
"0w9741;=$$$+O+OOO++#$+$$%$$+OOooooooXoXOoO#$%**=::114543111<-%$O+ooooOOOOoOooooo  XXo  o.oo+#$*=:259",
"00962<-*$$++OO+OOO+++OO#+++OOoooOoOoOoOoOO+$**-:>,14554311<,;&#++o+oOOoooOoooOOo X X o Xooo+#**-:358",
"w0761;=$$++OOOOOOOOOoOO+++OOOooOoOOOoOoOO++$*=-:>,24443111:;*&@O+ooOOOOoooooOoOO  XXooooooo+#$*=<489",
"w9761;&$++OoOOOOOoOooOOOOOoOoooooOOOOooO+@@&=-->>123431,>;=*&$+OOOOOOOoooooOOoOoOOoOOXoXooOO+@&;1589",
"0074>=&+OOOOOoooOooOOoOooooooooO+o+OOO+++#&=-;>>12121<>:;*&%@@+OOOOOOoooXooOoOOOooOooOooOOoO+%=>469q",
"0973>*$+OOoOOoOoOOoOoOoOooooXooOOOOOO++$$*=->>122221<>:;*%$@+OOOOOOOoooXoXoOoOOoOooOOoOOOoO+@%=,489q",
"0761;*$+OOooooooooOoOOOOoooooXOOOOOoO+#&*=;>><333211:;==&$+OOOOOOOOoooooOOoOOOOooOOoOOoOOOO+$&;14890",
"073<-*$#OOooXXoXoooooOOOOooooOOOoo+o++&=;>>12344311>:==&$@OOXOOXOOOOOooXOO++OOOo+Oo+OOOOOO+$&*:1589q",
"972>=*&#+ooXXoXoooooOOooOoOoooOOOOo+O$&=><11345551>::==&$+OOOoXOoooOoXOOO+@$++O++O+O+OOO++$$&=:3599q",
"951<=*$#Oooo oXoo o.oooooOooOoOoOOOO++&=>12134541<>:==&&$@OOOXXOoOXOXOOO+$$$$$@$@+OOOOO++@$&*:1489q0",
"963;-*&#+OooXoXX.   .o.ooooOoOOOooOo+@*;<1124542<:;;=&&&$@OOXOXXooooXXOO$$*&$%$$$$@++OO++@&*;>35890q",
"962:-*$$+oo . .        .ooooooooOoo++$&;,2234421:::=*$$$@+OoooXooooXoXo+$&*&&&&&&$$$#+++$$&*:14890qq",
"961:=*$$+Ooo .o          o..ooooOoooo$*>1111331>>:;*&$#++OOooooXooXoXoOO$&**&&&&&&$&$$$$$&*=>1580000",
"84,-*%$@Ooooo           X XooooooooO$&=>111111>>:;*&$+++OOOooooooooXoXO+$&&&&$&&&&**&&&&&&=;13589000",
"53<-*$#+OOooo            .oXoX oXXo+&==>11<,>>:-=*&$+++OOOOOOoooXoOXOO++$$&$$$$$&&*===***=:>14589099",
"51:=&$@+Oo                o   o Xoo#*==:<<>::;;=*&$$+OOOOOOOoooOXOOOOO+$$$$$$#$$$&*--;--;>,234688998",
"41;=$$+OOo               oo o  XXo+&===><>:;===**&$+OOoOOOoOOoooOOO++++@$$$####$$&*::>><,23345789997",
"3:-*$@OO                     ooooO@*;=;<>:;==****$+OOOOOoOOoOoOoOO++++$+$$$#$$$$$*=;>112445467890096",
"2:=%$+OO.                 o X  oo+%=:><<>;=*****$$+OOoooooooooOOO++++++@$$$$$$$&&*=;>23566568890q095",
"2:=%$+O                         O$*:<11<:=*=&&*&$$+OOOoo..OOXOOOOOOOO+@$$$$$$%%*==::245989899000eq86",
"1:=&$+O X                     XX$*;<331:;==**&&$$#+OooooOO OOO+OO+OOOO+$$%%%&*=;;:<25689000000qeqq95",
"1:-&$Oo                     XXX+&=>1431:==***&$$#++OOoooo.O.OO++OOOOOO+$%&&%*=-::<255890eqqqqeeeeq95",
"3:-&@OO                     XOO@*:<353>;==*&&$$$++OOoooo.O.OOO+++OOOoo+$$&**=:::125589qwqeeeeqeeew96",
"3>;&$+o    X              XXXO+&=>1441:=**&&$$$+#OOOooo.oOoOO+$++OoOOO++%&*=-::135568qwqweeqeeeeew98",
"4<;*$$OoX               X XooO$&:1454<;==&$$$$$@+OOOoooo.oOO+@+++OOOOO+$%*==::1235689qwqqqeeqeeeeq98",
"51:;&$+o                 XXXX+$=<3553<:-=&$+@@$$+OOooOoooOO+++@++OOOOO+$%*=-::145689qwqqqwqeqeqeqq98",
"53<:=$+O                  oXO+%;14762<:;*&$$$$$++OOOoooooOOO+$#+++OOO+@$%*=-;:<25899wwwwwwqeeeeqq087",
"5531;&@OoXXX           XXXoO+$*>169641<;*$$$$##OOOOOoOOOO+O+++++O+OO++$$*=*===::3590eqqqqwwwqqqq0098",
"5431>&$OoXXX           Xoo+@$*;<490853<:=**$$$#+OOOOOOO+O++++++OOOO+++$$***%**=:,580qqeweqeqq0009887",
"5433>&%OoXXX          XoOO$$*=:36008643,-=***#++O+OO+O+$@$@@++OOOOO++#$***$$$$&-,470qeewqwqq09009887",
"4331;=$OoXXX         XooO$$*;>158q098641<;-=*$+++OOO+@$$$$$#++OOoOO++$**%$$$$$%=>38qqqqqewq009987765",
"442>;&$+OoXXXX      Xoo+@$&=:1470ww00774321;=*#+OO+O+$$$$$+++OOOOOO#$$%*$$+++$%=>389qwqeqq0988776654",
"432>:&$+OoooXX      ooo+$&=:<470www009966641-*$++++++@$#+++OOOoOOo+$$$%$$$+++#%=>380qwwwe09877755544",
"22,>=&%@Ooooo.o     oo++$=:1479wwewwq0000851;*$$+++++++OOOOOOOoooOO++$$$$$#O++$*>389qqqeq98555555444",
"1>>:=&$OOooooooXXXXXoo+$=;1479qwwwwwwwww0861-**$@++++OOoOOooooooooOO+++$$$++O@$*>479qqeq085555444331",
">>>;=&#+OoooooooooooO+$*:14790eeeeeeeewq095<-=*$$$##OooOooXX     ooooOO#+++++$%=>468qqqq975444544311",
">>:-*&#+OOOOOOooooo+$&*:13589qeeeeeeewww973>==&$##+OOOoooXX       o oOO+++OO+$&;>3580qq086444433321<",
";<:-*$$#@OOOooooooO#&=;134780qeeeeeweewq852>=**&$+OOoooooo         oooO#OO++$$*;>1380q097443344411>:",
";;:=*&$$+@OOOOoooo+$*;<133580weeeeeeewq972<-=*$$#+OOOoOooo          .ooOOOO$$$*=;,368008543223421:;:",
"-==**&$#+++oOooooo+$*:1234580qwweeeeee0831;-=*$##OOO+oooooXX          ooOO++$$&*;>3688865322,22,:;=*",
"***&&*$$+++++oooo+#&=>1235579qqeeeeeee951:-=***$#++oooooooX           ooO+#@$&&*->1468864321,,>:;*&*",
"$$$$$$$$#++oooooO+$*;133557890ewewweeq73<;-=**$$++OO+ooooXX          .ooO+$+$$&*=:>15866543>>;=&*&&$",
"#@+####@#+++OOooO#$*:155555790wwwwwwq963>;==**$$+OOooooooX           .ooO++$$$$*&;:1566654,>=&%%$$$#",
"+++O++o@++++Ooo@#&&;<355555789qqwwww0841:;=**&$$+OOoooooX.              ++++$#$$&=:14777541;&%@@#+++",
"ooOooo+oO++++@@$&*=>2455444789qwwqw00731::==*$$++ooOoOoo.X            Xoo++++$$$&*:2578753>-&@+@OOOo",
"oooooooo+ooO+#$&*;>14555445790wqqww09631::=*%$++OOooOoooX.          Xooo+++$++$$&*>2577531>&$@+ooOoo",
"oooooooooo+++@&==>12554434570qwqqwwq963<::;*$$++OoOooooXX            o+#+$$++$$$*=>245542>=&$@Ooooo.",
"oooooooO+oOO+$*=;114442223780qqqwqw09641<:=&$$@OOOOoooXXX X        Xoo+#$&$$&$&&=::145421;*&$+oooo o",
"oooo+o+oo+OO+$*=><23221133780qqqqqq08641<:=*&$$+OOOOOoooX XX       Xoo+&&*&&&**=;>>13431;=&$@ooooooo",
"ooooo+o+Ooo+O$*=><22211135780qqq00988531::=*&$$+++OoOoooXX        oooO#$****=;:::>>133<>=&#+OoooXooo",
"ooooooooOOOo+$*=>121212255790009877531::::-=&$$$++++OOoXXX      Xoooo+#&&*;;>>>:><1131>=&$++oXoXXoXo",
"oXooOOOOOoOO@%&;>122224455798977422>;==***&*&&$%$$$@+OooooXX   XXoooOO$$*-:,11<1<1243<;*$+OooXXXoXoX",
"ooXooooOOOoO@$=;>122244555555542,>-=&&$@$$%&%$$%$&&#@OoOoooX X XooooO+$*=::<131113343:=$+Ooo. .oXo o",
"XXXooooooooO@$&;>1244454455421>>=*&$#@+o+O+@#$$$$&&$#+ooooXX XoooOOO+$*=::<1324334431:&$+OoX.oXoooX ",
"XXoXoooXXoOO@%=:>23355444321>:-*&#@+oooXoooO@@$$$&&&$@+oooXXXoooOO+#$*=;:12344444431:=%@Ooo.o oo o X"
};
