/* XPM */
static char *_649345984706[] = {
/* columns rows colors chars-per-pixel */
"100 100 33 1 ",
"  c #3E79AE",
". c #3F7CB0",
"X c #407BAF",
"o c #417DB1",
"O c #4582B4",
"+ c #4886B7",
"@ c #4988B7",
"# c #4987B8",
"$ c #4C8BBA",
"% c #4F90BE",
"& c #5091BF",
"* c #5395C1",
"= c #5699C5",
"- c #589CC7",
"; c #5A9EC8",
": c #5DA3CC",
"> c #60A7CF",
", c #60A8CF",
"< c #60A7D0",
"1 c #63ABD3",
"2 c #66B0D7",
"3 c #68B2D7",
"4 c #67B2D8",
"5 c #69B5DA",
"6 c #6DBADE",
"7 c #6FBCE0",
"8 c #70BEE2",
"9 c #73C2E5",
"0 c #76C6E9",
"q c #77C8EB",
"w c #79CCED",
"e c #7BCFF0",
"r c #7DD1F2",
/* pixels */
"          Xo#%;<55567765511<:=*$@#+OooXX XXoooo+++OOOOoooooooooO+$&&-:,<125667967652,-&+.      o    ",
"           O@*:1155555552<:;*%#+OOoXoX      XXooO+O+oOOO+oOoOO+#&&=:<233666879977652:-$+O    .      ",
"          oO@*:2553555551<:=*$#OooooX     X  oooo+O+OOOO+#$#$$$=-,136667999999966651:=%+o  o.XX.X   ",
"         XO+*:1455122552<<;*%$OOooooX      X XXooo+oOO+##$**=*;:168900qq000009697652:-$OO o  Xo     ",
"        Xo+$=:4553111552<;-=$$Oooo o          Xoooo+O+##$*-:>13670qwwwrrwqq096678651,-$+  OX.XXXX   ",
"        O+$=:155511<111:;-***$+OXo           X  oooooOO#$*;<16680qrrrrrrrwq066668662,=$OOO ooo   X o",
"       .O$==>255531111:-=**=*$+oo            Xo oooooOO#$=;<1580wrrrrrrrreq966667662>=$+o o..X XXX  ",
"        +%=:,566531<,:=**$**$$Ooo           X  .ooooooO#$&;:1580wrrwrrrrewq999999963:-$+OOoo Xo     ",
"       O@&=:<57755<<:-*&$$$*@+Oo             X  o.oooOO#$*=:,570rrrrrrrrrrqq00097652:=&@+ooXo  .    ",
"      .O@&-:268765<:-=&$$$&$@+O              Xo   ooooO@$*=:>170rrrrrrrrrewwwq09632<-=&$+Ooo.oX  X X",
"   ....O$*;:278865<:=&$$$$$$+OoX              XXXooooO#@$&==:180rrrrrrrrewwwqq972<::==%$+OOo..X X   ",
"X . .oO@$*;<567975<;*%$%$%$@+OoX            X XXX.ooOO@@%&*=:38qrrrrrrrrrwwwqq861:==&$@++++OOoo.OXX ",
"o O OO+$%=:1579975<;*%%$*%$@OooX              XooooO+++$$%*=>58wrrrrrrrrreqqq961:=&%@+OOOOO+OOOO.  o",
"OOO++@$$*-:25799851:**%%$$@#+ooo              XXooO++@@$$%*=<60rrrrrrrrrewqq985<-=&$+OOOoOO+++@#OOOo",
"+#@@$%*&=:<46799851:==*$$$$#+OoX               XoOOO++#$%&*:<8wrrrrrrrrreqq9751:=&@+OOoOooOO+@@@@@OO",
"@@%=---=::169000861:=*&%$@#++OoX                ooOO++$$%*=<50rrrrrrrrrreq8665<;=$+OOooooOoOO+$&%%$$",
"**=::,<,13580qqq872<;=$$++O+Ooooo X        oooooOoO+@$$$**:28eerrrrrrrrrr0865<:=$#OooooooooOO+$%*=**",
"==:<122255880qeq8731:=%#+O++++OooX      X ..oooOOOO#@$***;270errrrrrrrrrw085<:=&@OOoooXooooOO+#%*==*",
"::12555688890weq0872:=$#+O##+++oooXX  X  X...ooO+##$$*$*;179errrrrrrrrrr0851;*$@+ooooXoXooooO+$$*=::",
"<2555567889qqereq872;*$#++###+++OooX  Xo. ooooO#+$@@$$**:270errrrrrrrrrw851;=$@OooXXXX XXXooO#$%*::,",
"5666668999qqrrrww881;*$###$$$$$$$#OoooXoooooOO#@#@##$$**:580eeerrrrrrrq85>=*#Oooo  o X  X ooO#%=::11",
"68887890qqeerrreq071;*$$##%*****$@#OOooooo++#@@$@#+##$*=:479qeeerrrrrq85>=&#OooXoo  X o XXooO#%=:145",
"8999990qwerrrrrww072;*%%$****=***$#+OoOoO++#@$%@@#+O+#$*;<57999qwrrww05>=*@OOo X          ooO#*;<456",
"890900qwwrrrrrrrq072<=**$***--=*$$#++o++++$%*&%@#OOOO+@$*:<26899qqqq96<==$+OoXX           ooO#%;1257",
"8000qweerrrrrrrwq073<=*=**=;;;=**$@#+O+#$$%%$$@+OOOOO+#@**=>1567899861;=#                   o#%;<466",
"990qqeerrrrrrrwwq8751;==*=;::;**$$$##+##$$$$$@+OOOoOOOO+$$==><1568861:*%+                   o+*;1566",
"80qweerrrrrrrreww8731>;;==;;;-**$@$$@#@$@@@++OOOOooOoOO+#$$=-:<26661<=%#oo                 Xo+%-<456",
"89qwrrrrrrrrrrewq8851<:;;;;;=*%$###@@###+++OOooooooOoOOO++$*--:<131<;&$Ooo                  o+$=<456",
"89qeerrrrrrrrreqq88521<;:;;-*$##+O#@#++OOOOOoooooOoOoOOO+@$*===:11<:*$Ooo                   oO$*:256",
"80qwrrrrrrrrrrw088521:>;;=***$++OO+#+O+OOO Xo.oooo.OOOoOO@$&&=;><<;;*#oX                    oo#*:115",
"90qerrrrrrrrrwq8731<;;;*****$$OOOOO++OOOOooo oXoOooOOOOO++$&&=;><:-*$+X                     oo@=;,36",
"0qerrrrrrrrrwq8631<;;=**$$$$$#OOOOO+++Oooo.o   X o OoOOO+@$$&=:::-=*$o                     Xoo#*-,26",
"qwrrrrrrrrre08652<<;-**$@@@@++OOoO+o+oooooX XXoooooO+o++$$$&*-;>;-*$+oXX                     X+&=<27",
"0qerrrrreewq0862<<;-**@##+@++OoXOO+Oo+oOooXo ooooOoOo++#%%%&=;>;;=*#OoX                     Xo+%=:<5",
"9wrrrrqq0009955<,;=**$#++OOOOOoOoO+++oOooXoXo.ooOoOO++#$&&&=-;;;;*$+Oo.                    XXo#%=;<5",
"9qrrwq008988851>:-**$#+OOOOOOoXOO++o+OOoooXXoooooOO+#$$%&&==;>;;**@Ooo.                    XoO$&*;<5",
"9qqw0987666552>:-=%$$++OooOOOoooOOO+o+oooXooXOoooO+#$$$&&&=>>;==*@#Oooo                 XX XoO$&=;<5",
"80q09866555551>:;*%$+OOooOooo oOoOOOoooooooXXooXoO#$%&%**=>>>=&&*$#Ooo .                XXXXO#%&=;<5",
"800986655111<<>:;=%@+OOoooOOoOOoOooOoooooooooOoOOO@$&&==->1>-==&$@Oooo                  XXXo+#%&-:<5",
"900976541<::;;>>:**$+OoOOOOoOooooooooXooXOoXOXooO+$&===:>1>>-==&@+Ooo. o                XXoo+#%&=:16",
"90086631<;=*=;:;;=*$@+OOOO+OO.ooooXoXoXoooooooOOO+$==:<11111;-*&@OooX                      X+$%=;<57",
"qq08652<;*=*=*===**$@@+O@$@+Ooo.XXXXXoooooOOOoOO+$==>1113311>-*#+oooX  oX X               OO@$%&;<58",
"qw08651:*=$*%*&****%*$@@$$$@O...XXXXo.oooOOOO++@$*-:<555321>;=$+ooXoXX   XX             oOO+$%&=:169",
"qq0875,-**$$$%$$%%$$@$$$$**$Oo.oXXXXooooooO++##$*=:<15662111;*$oo o o o XoX             oo+@%&&=;<59",
"q09962:=*$$$@###@$++++@$*%$@Ooo XX oooooO+##$$%*==:15661111>;&+ooooo o  oooXoXXX        oO+@%&==:149",
"00985<==$*$$@#++##OOO+$$$*$$OOo oXXXX ooOoO#$%&=;>13675<>>>>-%+oOo ooooo oXoooXX        o++$&&==:<59",
"00963>==$$@@##+++OOOOO++$$@+Oooo o. oooooo+#$%*;:125651<>>>;=*#OOooooooXoXoooooo        OO@$&&=;:159",
"00761:=&*$@##+#+OOOoOOO+@@@OOoXooooooooO+++#$*==>155521::;>;=&@Ooooooooo oXooOoo        O+$%&==:,269",
"09651:-&$$$+++OOOoOOoOOO+O+Ooooo..Oo.OO+@@@$%&=:>13511;;===*&$#OoOXoooX.oooOoOoOoooooooO++$$%&=:1579",
"0965,:=&%$@++OOOoOooO..OOoOoo  XoOooOO+@@$$%*=-:11111;;=*&%%$#+oOoOXo oXoooOOOOoOoooooOO+#@$%=->2680",
"0961,-=$$$+++OooooXOooOOOoo.Xo oooOoOO@$%%&==-:11111>==**%$#++OoOoOo. oooOoOoOoOoOoOOOO++#$$&=:1569q",
"0851:=&%$@+OooooXooOOOOOOO..X.ooooooOO$%*==-;:<15211;=&%$##+OOOo.O o.XooO+OO+OOooooOOO+++#$$&=>15690",
"962::=*&$@#+oooXXXXoXX  . oXo oXooOoO@%=:::::125551>==*$@+OOOOoooXOX o o++$++OOoOOOOO++++$$%&=:16790",
"951:-=*%%#OoooXXXX XX   oo.X.oXoooXOO@*-::::,256521>=*%$+OOOooooXXX o OO#@$$@+OoOOO+++++@$$%=->36990",
"85<:-=&%$#OoooX   XXXX  ooooooooXoooOO$=::,<13662<;;=*%$@+OOoooXXoXX oOO@$&$$#++OO###++##$$*&-<58900",
"951:==&%@#OoXXX      X  o o.o  o.oooO+%:111126651>;=*%$$#+OOooXoo X XooO$%*%$$#+##$@@+@$$$%&=:36990q",
"95<:=**$@#Ooo. .         oXXX XXo.ooO@*:<1125652::-*$@+++OOoooo  X   ooO#***$$$$$$$&$$$$$$&&-,5770qq",
"961;=*%$#Ooo.            X o o X o o+$*:<1455521:-*$@OOOOOOoooo o. o ooo#$@$$@$$%*******&%*=:15680qq",
"95<;**$@OooooXX          XX . XXX.o+@*-:1225221:-*$@OOOOooOooXo   . o.oO+#@##+@@$*=====*&*=:<25680q0",
"65,-*$@+OOoo              .  oX oOO@%=-:<1111::=*$@OOoO.oOooooooo.ooooOO+OOOOOO+$*=;::-===::15669000",
"62:-*$$+oo                   o X.O+$***;:11,:-==%$+OOXXOoXOXooXooooooooOOOOooOOO@%=;::::::,135669009",
"5<:=*$@+o                     XoO+@%**=:<<:;=***%@OOXOO oO ooooooOOoOooooooOoOO+$$=;::<,122256689006",
"5<;=*$+Ooo                  o..oO+$%**=:::=**%%$@@O O XOoooooooO+OOOoooOoooOOO#@$**;::<4353556690008",
"3<-=&@+oo                     ooO+$%==;::==**$$$@OOOoXOXoXXoooOOOOOOOoooOOoOO+#@$%=;:<2666659990ww09",
"5:-=%@+o                        +@$*;::;=**%$$$#+OOoooooXoXooo+OO+OOoOoOoo+o++#%**=;<15788889qqqerq9",
"6<-=$@OX                        +$=;:::-***%$##OOOOOoooooooooooOOOOOooOO++o++#$%*=;<137899qqqeeerre9",
"6<:=$+oX                        @*=;;;;==$$$$#OOOOooooooXXXoooOOOOOoOoO+#+++#$%==;<13589qeeerrrrrre0",
"62::*@O                         $==:::=*$*$$#OOOOoooooX oXoooOO#+OOOoo+@$###$*==;>11588qereerrrrreq0",
"75<;*@oo                        &=;:>:*&&$@+OOOOOooo.  oXooooO++++OoOO#$$$$$%==;><1368qwrrrrrrrrreq9",
"61<;*+oo                      Xo=-::<;**&$#+OOOoOoooo.XXoooOOOOO+++OO+$$%***=;;;>12789werrrrrrrreq09",
"51<:=@Oo                  XXXo+%;;<<:;***$+OOoOOooooooooooooO++++O+OO+$%*==;;>>>1368qqerrrrrrrrreq08",
"551:=@Oo                  XXo+$*:,11:;*=*@#OOOOOoOoooXooooOO++++++O++$$=-;;;;>12688qwerrrrrrrrrreq97",
"662>=$+oX              X  XX+$%-<151<>;=*$#+OOOoOOXoooOoO+++#######+$%*=;;;;;>>2589qwerrrrrrrrrreq97",
"755<-%+oX              XXXoO+%=>15651<:;*$@##OOOOXOOoo+O++#$$####$@$%*=;;;;=--;1589qeerrrrrrrrreq099",
"755<;&+o              XXXo+#%=:16886511>;*$$#OOoOXOO++#$$$$$#+++#$$%*=;:;;====;1378qwrrrrrrrreewq009",
"665<;*@oo             Xooo#%=;1789998651:;**@#OOOOOO+$$$%%$$++++#@$&==;;;=***==>378qwrerrrrreewq0098",
"753<;*#OoX          XXXoo+$*=>69qqq099864<:*$$#OOOO@$%*%%$##+o+++@$***--=*%%%*=>279qeerrrrreeq000097",
"655<;$+OoXX         XXoo+$*->39wrreeq09975<;*$#+OO#@$$$$++++o+o++@$**=*=*%%$%%&>279eerrrreeeq0889998",
"531:=&@OoXX   X     oooO#%->58wrrrrreqqq972:=*$#@@@@$$#+O+ooooooO#@$$***%%$$$$*;179qeerreeqq08889886",
"21>-=$@OooXo X oX   ooO#&->38qrrrrrrrrre095:**$@@@@@@#+ooooooXoooO#@$$$$%$###$*;189eererq00988676655",
"<::**$#OOoo   oXXXooO+$&;<590errrrrrrrrrq92:**$$@@@++OOo        ooO+++@@@#+O+$*;3780eeee998886556511",
";;-*$$+OXXoooXXXoooO@$=;168qerrrrrrrrrrw95<-*$$$$@++Oooo        XXooo+#+++O++$=:2789qee09877652511<:",
"-=*=$@+OOoo o oooo+#%=:<569wrrrrrrrrrrrw62:=**$$@+OOooo         XXXXoOO#++O+$%=:1588qeqq98551511<:-*",
"*=***$#OOoXO Oooo+#$=:<5680wrrrrrrrrrrrw2:-%$$@#+OOoOoo           XXooO+++++$%=;<288qqq98721<<<<;=*%",
"#$$*%$+OOXXOoooO++$*;<1678qrrrrrrrrrrrq4:-*%$@@+OoOooooo            XoOO+++$%%==;268909861>;-===**$$",
"O##@$@@+OOoOOoOO+$*=>1689qqrrrrrrrrrrw72-=%$$@@++OO.Xo              XoO+++$%%%&=;158998751;==**&$##+",
"oooO+++++OOOOo++#%*;<589qqrrrrrrrrrrrq5:-*%$$@@#OOO.X.X             XXOO+$$%%%&=;15799852:=*%$+++Ooo",
" ooooOOOO+OOO++@%*=:1890qqrrrrrrrrrrw06:=*%$$@@+OOo.ooXX            XXOO#$$%$%%*;25799751;=%$+Oooooo",
".  oooooOO++++$%*=;138qwwwerrrrrrrrrw93:=&&&@++OO.oX XXX              oO#$%%$$&=;<2788751;=$+OXX... ",
" .   XooXOO+$$*-;>1379qqwwwerrrrrrrw063:-=*$$OOOooXX XX               O#$$$$$%&=;<578762>=&$OXXX .  ",
"   oo oooOo+$&=:12378qqqwwwrrrrrrrrw062:-=*$@Oooo.oX X              ooO@%%$$$%=-:1477861>=&#OoXX    ",
"      X.XXOO@&=:25799000qwerrrrwrrrrq63<:-&$+Oooo o .  o            oO+$%%$$%&=;<1557761;=&$oXXX    ",
"     o.XoooO+%=>268899789qwrrrrerrrw0931:-*$+OoooXo   X            XoO#%&&%$=-:<<155665<:*&#oX      ",
"  XXX XXXooO+$=<557877779qwrwrwrerww0752,-&$#OoOooooo             XXo+$&*====:111115551<;=$Oo       ",
"X  oX XoooooO$=<357877779qwrrrrrrewq9652::*$#OOOoOoXo            XXoo+$*===;<1111125531:*$Oo        ",
"   X XX Xooo+$=>156675790qwwwrwwwq07522<:-*%++OOOoooo X         ooooo+$%==:<1551111555<=$#oo        ",
"   X ooX oooO$=>16667889qqqqq0999862>;==&&$$+++OOOOoooXX       oXoooo+#%*;:13532124551;*#ooo        ",
"    X  XXXXoO%=:156788999988778552>=&%#@#$+++oOOO+OOOXXXX      ooooo+#%*=;>1555353542>*$Ooo         ",
"     X    .o+$=>1668889888752211>=*$#+OOOoO+OOOOOO+OOoXX      oooooO##**;:<3557555531;*#oX          ",
"    X      o+*=<156688866521>>>=&%$++ooXXXXoXooOO+O+OooooX X ooo+O##$*=;<11556777553>-*Oo      o    "
};
