/* XPM */
static char *_649345991769[] = {
/* columns rows colors chars-per-pixel */
"100 100 33 1 ",
"  c #3E79AE",
". c #3F7BB0",
"X c #407BAF",
"o c #417DB1",
"O c #4582B4",
"+ c #4886B7",
"@ c #4988B7",
"# c #4987B8",
"$ c #4C8BBA",
"% c #4F90BE",
"& c #5091BF",
"* c #5395C1",
"= c #5699C5",
"- c #589CC7",
"; c #5A9EC9",
": c #5DA3CC",
"> c #60A7CF",
", c #60A8CF",
"< c #60A7D0",
"1 c #63ABD3",
"2 c #66B0D7",
"3 c #68B1D7",
"4 c #67B2D8",
"5 c #69B4DA",
"6 c #6DB9DE",
"7 c #6FBCE0",
"8 c #70BEE2",
"9 c #73C2E5",
"0 c #75C6E9",
"q c #77C8EA",
"w c #79CCED",
"e c #7CCFF0",
"r c #7ED2F3",
/* pixels */
"           X+&;145567766521::-*%$@OOOO O     .oOOOOooXX O  O OOO#$&*:,<11356799877651;%+            ",
"           o+&:1345566662,::=%$+OOOO        . ooXoOoOXOXOOOOO++$%-:11355578900999764:;$+o           ",
"           .$*:1345566652::-*%@OOO.Xoo        .oooooOoXOOO+$$%%*;1568888999q00987661,-%+o           ",
"            &:15445455641::=%$+O..Xo         .. oooOXOOO++$**-:,5690000wwwqqw09997631-$Oo X         ",
"         o+$=,35454345641:-=%$+O O Ooo          XOOXOOOO@%=:,15680werrrrrewwq9899764:-$OO  X        ",
"        .O$*;13554315541:-==*%OOOo                 OOXOO@%-:36690wrrrrrrrrew099999751-$+o           ",
"        o$&-:1556533531:-===*$+O                Xooo oOO@*-:1579werrrrrrrrew999999751-$+OXXXX       ",
"        o$*-:166654331:-*****$OO o                XX ooO@%=:1570wrrrrrrrrrrqq00009951;$+OoX  X      ",
"      XoO$*-:17765541<-*%%%*$+Ooo                o X .oO@$*-:570rrrrrrrrrrrrewwq99751-*$Ooo.        ",
"       o+$$-:57776511;**$$**$+Oo                   X.ooO$%*-:460rrrrrrrrrrrrrww996551;*$+Oo.X       ",
"      .o+$&-:5778751:**$&**$$$OX                 oXooOOO@$*=:370rrrrrrrrrrrrrwq95311:-*$+OooX       ",
"     X O+$&;1579872<-*$*%&%$$+OX                   o OO+$$**;17qrrrrrrrrrrrrww9641:;**$##OOOoXX     ",
"   XooO+$$*:1679974<-*%%&%$$++o.                o oOOo++$$$*:37wrrrrrrrrrrrewq751:;**$#+OOOOOooo    ",
" Xoooo+#$$-<5699974:***%&%$$+OO.                oOOOOOO++$%*:39rrrrrrrrrrrew0961:;*%$++OOOOOO++o    ",
"XOO++$$$%*;16790864:--**$$$$++Oo                ooOOO+++@$%-:6qrrrrrrrrrrrw0963:;**$+OOoXoooO+++OOoo",
"++$$&&***:159000964:;-*&$$$$++Ooo               OoOoOO++$$*:39wrrrrrrrrrrw07631:-$$+OOoooooOOO#$$###",
"$$&=--;;:1670qq09651:-&$+++++OOooo.        XX.ooOOOO+++$$*-17qrrrrrrrrrrrq9631:=$$+OooooooooOO#$$&$$",
"*==:,111457090wq9863:-%$+O+$+++ooo       X  X.OOOOO+++$$*-158errrrrrrrrrrq851:*%$OOoooXXXoooo+#$$***",
"-:,1133577900qww0963:-$$++#$++++Oooo       XooOO+++$@$$$*:47qrrrrrrrrrrr085<:*$$OOoooXo XXooO++$**-;",
"113565699900wwewq985:=%$++$$$$+##Ooo.  . XXoOO+$++$$$$**-179errrrrrrrrrw85,;&$+OoooXXX   Xooo+$%*;;:",
"557666990qwwwrrww973:=$$$$$$%$%$$$Oooo ooooOO+$$$$+@@$$*;179qeerrrrrrrq83:;&#OooXXXXo     XoO#$*-:11",
"8999989wwwwwrrewq0851-*&&$*&**=*%$$+OooooOO+$$$$$++++$%*;148qeeerrrrrw95:-$#OooX oo     XX oO+$=:155",
"900090wwwrrrrrrwq095,-**&**-=;-**$$+OOOOO+#$$&*$$++OO+$%*:17800qweeww05:-$$Ooo XX         XoO#%;<157",
"90qqqqwrrrrrrrrwq0951:---*--;:--*%$$+OO+#$$$%*&$@+OOOO+@*-:277889000961*&$Ooo..            oo#%=1457",
"9qqqqwrrrrrrrrrw09863::---:::::-**$$$++$$%&&%&$++OOooO++$*-<1557777761;*O                   XO%-<457",
"990wrwrrrrrrrrww08753,:;::::,<:-*&*$$#$$$$$$$#+OOoOOOoo+#$*-:11156511:*%O                   o+$-<157",
"89qwrwrrrrrrrrw098753:::-;::::;=**$&$$$$$$$+OOOOXoooooOOO#$*=:<<1111:**#oo                  XO$-:257",
"690wrrrrrrrrrrw0998531:::::::;=*$$$$$$#$+++OOoXoooooooo+O#$*-=;:<:;:-&#ooo                  oo$*:255",
"790wwrrrrrrrrrw0996411:::::;=*$$$$$$+++O+OOoooXooXooooooo+$%**=;,;=-*$OoX                   oO$*:155",
"790wwrrrrrrrrw99751,:;-;=****%$$++$+OOOOoooooXoXXoooooooO+#%$*=;;-**$#oX                    Xo+*<144",
"89qwrrrrrrrrr07751:-=*=&$$&%$$$+++$##Ooooooo XXXoXXooooo++$$%*=;=***$O                      Xo$*:146",
"00wrrrrrrrrr09651::-**&$$@@$$$+OO+##+OOoo o X XXXoXoooOoo+#$%**=***$+o                      XO$*:157",
"0wrrrrrrrreq9641::--*&$++O+++OOOO++OOOooO  . OXO  oOOoOO++$%**-***$$Ooo                     .o$*:157",
"0wrrrrrrewq97611:--*&$+OOoOOOO.OoO+OOooo  X   X  OO ooO+$$$$&*****$@OX                      oO#*-:36",
"0wrrrwww0998741::-*&$$OOoOOOooXooOOOOooo OX   O OXO OO+@$$&&*-***$$+oX                      oO$&-:16",
"9wwrqq99887761<:-*&$$+OOO oooXooOOO+OOooX O  O O XOOO++$$**-=*-*%$+OOXo                    Xo+$*-:16",
"9wqq9976556551::-*%$@+OO.O OoXXooOOOOoooo.XX OO.OXO++@$$&*-;;-*$$$+OOooo                   oO+$*-::5",
"70097666555311::-*%$OOOX.   X XoooOOOooooXXX  .o OO+$$%&*-::;-*$$$+OoOo                   XoO$**-:,5",
"79097665311111::;*&$+OOXX O .oXooooOooooXXoXo ooOO+$%&*=-:,:;-*$$@+OOXo                  . O+$**-:15",
"9007655311:::::::-%$OO  OOXOXooooooXo.o oXoo O OoO+$&=-:111:;**%$+OOooXX                 ooo+#$*-:26",
"90975541::=--;::--*$+OooOOXOXXXooXXX ooXO O.ooo O+$%-::1131::-*$$OOOoXX  X                OO+$$*-:56",
"9w965511;-*-*-;:-**$@+OOOO+OOXo o o   Xo OOOo.OOO+%=:1355411:-*$+O.oO o X X           XoOOOO$$**:157",
"0q77541:**********%$$++O@@@+OXXX X   OXXooOoOOOO+%*::455531<:=$+Oooo XX XoXX         OXXoOO+$%**-147",
"007763:-*&$**&&%%*$$@++$$%$@OXoXo ..  OoOO+OO++$%*-:366511,:-*$Oo.o XXoXXoXX        XXXXOO+$$***::27",
"998751:*&$%$$$$$$$+O+++$$%%$O O    oooXOOOO++$$**-:1565311::-%+oo o.oXXXXXoooXXX      XOO+$$&**-:127",
"998751-*%$$$$$+$$+OOOO+$$%$@OO  ooo   oXOoO+@$%*-:15663:::::=$Oooo.oXooooo ooooX      XOO+$%*=--::27",
"98865:;*&$$$$++#$+OOOO+@$%$@OOO  o .oooOOOO++$&-:,25541::::;-%+OoooXooXXoXXoooXo       X+$$&**-;:156",
"98751:;*&$$$$#$+OOoOOOO+@$@OO   o. oooOOOOO+@%&-:14531:-----*%+OOoXoooOooooooOoo        @$%&*=-::157",
"97641:-=&$$$$@#+OOX OOOOOO+OO XO.oooooO+@+$$$%*;:1341:-=****%$+Oooo.ooooooooOoOoOooooOO+$$$***-:1267",
"97611:;=&&$$$$+OOXOOOOOOOOOOO X XooooOO$$$$$%%-:111,:-***$$$$$Oooooo .ooOOoOOOOOOOoooO+$$$$**-:<2569",
"9651<;-*&%$$$+OOOO OOOOOOOOOO XXooooo+$$$%%&*=-:111,:=**$$$$$+Ooooo X .oOOOOOOOOOooOO#+$$$*%*;:12579",
"8641:=**&&$$+OOo. OO OOOOo O OX ooooo+$%&***=-:1341,;*$$$$$+OOoooooXoooo++++OOOoOooO+$#$$$$%-;:12599",
"751<:=-**$$+OOoo  OOXOOX  XO OO .XooO+%*----::13541:-*$$#OOOOOooXXoooooo+#$$+OOOOOO+++$#$$***-<15779",
"851::=**&$$+OooXOX  XX   O OX   .oooO+&-:::;:14652,:=*$++OOOooo . o oooO$$$$$+OOoO++$#+$$$$**-<26979",
"75<:=-**&$++OOoXX  XXX  OO  O OO.ooooO$=:::::45641:-**$++OOOooo  o .oooO#$%$$+OOO++@##$$$$$&*-,46999",
"71<;-**%$$+OooXX X         O X  oXooO+%::::135651:-**$$@+OOoOoooo . oooO+%&$$+OO+@$$$$$%%$$%*:177799",
"73:;==&$$+OooXoo         ooooXooXoooO$*;:1115653:;*%$+OO+OOOXXo  X   ooo$$$$+$##$$*$***$%$**-:456600",
"751:*&%$++OoXoXX        .  X X ooXoo+$-::1335531:*%@OOOOOOOooooXo  oXooO+$$#+++$$$****=*****:1556900",
"75:;*&$@OOooo             o  oooooOO$&-:1235531:=%@OO Oo.oooo X X X o ooOOOOOo++$*---:-***=:,1456909",
"641-*%$+OooX X             . ooooO+$$*--:1331,:*%$OO.OXOoooooo.ooXXooXoooOOoOoo+$*-;::;;==:,14556909",
"61<-*%$+OX   X             . ooooO+$$**;:11,:--*$+Ooo.O..oOXX..oooooXoooooooooO+$%*:::::::1,25569909",
"51:-*&$+o                   oXooO+$$&*=-:1:-=*%%$+Oooo  o  ooo OoOoooo oo.oo.oOO$*=-::,1112255669099",
"5::-*&$OoX                   ooOO+$$$*=-::-=&%$$+OO.o oo Oo  OOOOOOooo  o.oo.OO+$$*-;:,4545566699097",
"51:-*$+OXX                  XooOO+$%&*=--=*&%@@+OOOooooo  .o XXOOOOoo oo oooOO+#$%*-;<1456557799qw09",
"51:-*$Oo                        O+$%*==-*&&&$++OOOOXoooXo ooooOO+OOoXoooooooOO+@$*--:<456777990wwew9",
"71:-%$Oo                        O$%***-=&&%$@OOoOooooXoXo o oooO+OOooooooOoOOO+$**--:1469900wwwerrw9",
"64:-*$Oo                        +$%***=&&$$$+OOoooXo.oX  . ooooOO+OOOXOOOOOOO$$**--:,25790werrrrrre9",
"751:*$O                         $$**=*&&$$$+OOoOoooXoXo X ooooOOO+OOOOO+O+OO#$**=-:,1479qerrrrrrrrwq",
"751:*$oo                        $**--=*%$$+OOXooooo  X oXoooooOO+$++O+@$$+++$***-;<1477wrrrrrrrrrwq9",
"641:*#oo                        %**---%%$$+OooXOoo o o XXoooOOO+##+++$$$$**$**==-:14779errrrrrrrwq98",
"531:*#Oo                     OO%**-;--*%$$OooooooooXXoXoooOoOOO+$+++$$%****=--;:<15789errrrrrrrrw097",
"531:*$oo                     +$&--;:--*%&$+OOXooo.o ooXoooOOO+++$$$$$$*-;:::::<147790werrrrrrrrew096",
"552:*$O                    XO@%-;::1:;-*&$+Ooooooooo.O.OO+++$+$$$$$%**-::::-;:,257990eerrrrrrrrrw096",
"654:-$Oo               X X O@%=:11111::-*$#OOOOooooOoOO++@$$$$#$$%%*=:::::-:::125779qerrrrrrrrerw097",
"762<-%+.                oXO+$*:13555111:;*$$+OOoooOOO+$$$%$%$$+$$&**-:<:::::::<47790werrrrrrrreewq97",
"754:-$+o               oOO+$*:1566776651:-*$+OoOOOOO$$$$%%$$$++#$$**-::::;----:25799werrrrrrrewwqwq9",
"752,-%+oX            Xooo+$&-16909q098854<-%$++OOO++$%*%%$$+OO++$$%*--::--=*=-:158qqeerrrrrrrww00q09",
"654:-%+OO.          . ooO@%-:59wweew009961:=$$+OOO++$%*$$@+OOOOO$$$**---==****:,59qqwerrreeeeq990009",
"541:*$@O         o   oXO+$-:39errrrrweqq851-*%$#++$$$%$++OOOooOO+@$*******$%**=:489qeereeeeww9978997",
"21:-*$$oXXo   X. XooooO$%-:47wrrrrrrrrrw961:*$$+@$$$$$+OOoo    oo+@$$*$%$$$$@*=:579weeewwqqq07777764",
"::-*$$+OOXo X   ooooo+$*;158qerrrrrrrrrw961;**$$$$###+Oo        oOO++@$$#$++$$*<579wwewq000976555411",
"--*%$+OO o    XXoooO#$*;158qerrrrrrrrrrw73:-$$$#$#+++OoX         ooO++++##+#$$-<4790qww0997764421<:;",
"***%$+OOO o X XOoo+#%=;1580errrrrrrrrrr95:-&$$#+++++OoXX         ooOOO+++#O+$*-:1779ww09995411,<:-**",
"$$%%$@OO.Oo.XOXO++#%=:1368qerrrrrrrrrrr91-*$#+++OooOooXX            oOO++$++$*-:14790w00751::;--**$$",
"++$$$++OOXO oOOO#$%=;1369qrrrrrrrrrrrw93:*$$+++OOOoo X             .oO++#$$$$*-:14670q095,:=**$*$$++",
"OoOO$@+OO .OXOO+$%*=<3680errrrrrrrrrrw6:-&$@+O+OOoOo                .O++$$*$***;:27700761:*$$$@+OOOO",
".  .OO+OOOOOOO@$*=;>268qwerrrrrrrrrre95:*%$@+O+OOooo               ..O+#$$$**%**:4799974,-*$$+Oo    ",
"      OXOOOO+@$%*=:128qwerrrrrrrrrrrw94;*%$@+OOoOooX                 OO#$$*$$**-<4799751:*$#OOo.    ",
"     XoOoOO++$%=;,1169qwerrrrrrrrrrrq71:*%%$++oooXXX  X              O++$***$**;<4699751-*$+Oo..    ",
"        .OO$$*-:11369qwrrrrrrrrrrrrw071:**$#OooooX X                 O+$$%$%$%*:1479775,-*$+o.      ",
"        ooO+$*;135699werrrrrrrrrrrre971:;*%#OoooXX                  oO+$***$**;11567765:=$$Oo       ",
"         .o+$*;15899qwwwrrrrrrrrrrreq85,;*%#+oooXXXX                oO$$$**$*-:14457764:-*$O.       ",
"      X  ooO$$-15899009qqrrrrrrrrrrw0751:**+OoooXXX                ooO$&****;:134456761:-*$Oo       ",
"         ooo+$-16899999qqerrrrrrrrew9751,=%#+oooooX            o  ooO+$**=--:1543456551:-*+o        ",
"       X oooO$-,56999899wrrrrrrrrrw09765<-%$+oooooXX          X oXooO+$-=--:15541345541;*$O         ",
"           oO$-13689999qwwwerrrwew08551<:*$#O+oooooX            Xo .O+$&--:15553345444:-$O          ",
"           XO%-,5688990qwqwwqqq009831;-**$@+OoOooOooXX       XXooXXOO+$%-:<15655353441:%+o.         ",
"           X+$-,1668990q00998886651:*&$$$$OOOooOoOoooX        oXOXXO+$$*-::1566545432:*$O.          ",
"            +$-<16789099988655511:*&$+O+OOoO.OooooOOoXX  X X XXo OO+$$&*-:,3667665511:%+o           ",
"            O%;15678999866111<,;*&$$+Ooo .XoooooOoooooXoo X XooOO++$%*-::13567776552,:%@.           "
};
