/* XPM */
static char *result[] = {
/* columns rows colors chars-per-pixel */
"100 100 31 1 ",
"  c #3E7AAE",
". c #3F7CB0",
"X c #407BAF",
"o c #427EB1",
"O c #4582B4",
"+ c #4886B7",
"@ c #4988B7",
"# c #4987B8",
"$ c #4C8BBB",
"% c #508FBE",
"& c #4F90BE",
"* c #5091BF",
"= c #5395C1",
"- c #5699C5",
"; c #589CC7",
": c #5A9EC8",
"> c #5DA3CC",
", c #60A7CF",
"< c #60A8CF",
"1 c #60A7D0",
"2 c #63ABD2",
"3 c #66B0D7",
"4 c #67B2D8",
"5 c #69B5DA",
"6 c #6DB9DE",
"7 c #6FBCE1",
"8 c #70BFE2",
"9 c #73C2E5",
"0 c #76C6E9",
"q c #77C8EB",
"w c #79CBED",
/* pixels */
"           X+=;:>>2557777655554542<>;-=$+OoOooOOOOOOOOoOooO+@*;>,235556666788766522,,;*$Ooo         ",
"            #*-;>><455665552244221:-===$+OoooOOOOOO+OooooOOO@-;:,,356667788097865522,;*@+oXX        ",
"            @%=-;><46655442222221:-=&=&$+OOooOOOOOOOOoooooOO@*-;,,566888800009888653<:-@+oXX        ",
"            +$*-;>25765444222111>-=$$$$#+OooOooooOOOOoOoooOO@@-;,256800800qwwqq086552:-%#oX         ",
"          oo+$*-;<3577542221>>::;=$#####+OooooooOOOOoXooooO#@%-:,3670000qwwwwww098652>-*#Ooo        ",
"          Xo+@%-><47977543<>:---=&$+@++@+OoOOooOoOOoooooOO+@%-;>2570qqwwwwwwwww098752,:*@+oooX      ",
"           oO#@-><579975421;====&&++OO+OOOOoooOoOOOXoooOO++@*;>2368qwwwwwwwwwwwq98652,:;$@OooXX     ",
"          ooO#@=;2579997621:-===&$++OOOOOOOOoOoOXoXOooOOO+@$-:,2560qwwwwwwwwwwww098532>;=@OOoooX    ",
"X   X Xo XXoo+@=><57009974>>--==*&@+OOoOOoOOoOOoOoooooooO+@=->2350qwwwwwwwwwwwq8896652,;=$+OooooXoXX",
"ooooXX   XXoo##=;279009943<>;-===$+OOooO O.OOOoOoOoOooO+O+@%:,358qqwwwwwwwwwwwq0088662>;=$++OoooooXX",
"oooXo  X Xooo+$->479099532>>>--==$+OOooOoOOOOoOoOoooooooO+@-:2278wwwwwwwwwwwww00099853>-=$++OOooooXX",
"ooooo X Xo oO#=:>45797542>>:>;-==#+OoOo.OXOoooOO+ooOoooo++%->1260wwwwwwwwwwwwq009098632;&#+OOOOOOo  ",
"oooo  X oooO#$;>25777742>>>::;;==$#++OOOOOOOoOOOooooooo++@$-:>250qwwwwwwwwwwq000999965<-*#+++OOO+oo+",
"oo..  XXoOO#%-:,24555442>>;>>;--=&$#++++OOOOOOoOoO+ooo+o+@%-:>258wwwwwwwwwww0066668863<;*#+@+O+Oo+oo",
"oo   XXoOO#*->>124444441>::;;-;-=*$@#$#@++++OOOO+ooOo+o++@*-->258wwwwwwwwwww8655355653>;*$@#++OO++oo",
"oXX XXo+#$=;>>>,>234432>>>:---;;-==*&$$$@@@++O++++++o+++++@*-;250wwwwwwwwwqq5321,2222<>-=$$@+++++o+o",
"oooXoo+#*->>>,>>,222322,>>;-------=**$&$$$$$$####@##+O++O+@=->258qwwwwww00652,::>>>>>>;-=&$$@#@#o+Oo",
"OO++O+#=:>222,>:>2222<<211>;------===&$$=*=****$@@#+OOO+OO#*->258qwwwww07532>;;-*->;*-=***$$$$##+OOo",
"#@@@$*;>23432>>:>222222221:;--;----==&&&==---=*$%@#@++++O++*->369qwq000853,>;---*-**&&&&$&%$*$$$####",
"=-;-:,2267532>>>>,,,>22231>;;;;;---===*&*=-;---*%%@#++OOOO#$-227000098653,:;-=***&$#@@##$$$*$$&$$$$=",
">>,1256899652,>>,,<>234542>>:;;;:;;--=====---===*%$@@#+ooO#$->58008876532:-==*%%$@@+OO+O##$$&&$$%%-;",
",2258800096522212,,,2256532>>>;>:;:;---==----===***@++ooO+#&->5666535322,;-=*%%%@@OOOOOO++$$$$&&%=-:",
"25688000q09652<>>,>,2367752<11>>>>>>>:---===*&***%%@+OoOoO#$->25222<1,>>;=%@#@+@OOOoXO OO+#$$$$&*-;,",
"256800qqqw98532,>>>>235675422<<<,>22>>:---=&**$&*%@+OOOOO+#*:>22>:;;:;;;-@@O+OOoXOOXOoXOO+##$$$$%=:2",
"557890qwqw0862<>>>>>22355532222223322>>:;==*&&&&$$OOOOOO++$=;:>;-*&$=--=$@OO.OXOOXooXooOOO++@#$&$-:2",
"255890wwww0862>>:;::>>2222222235555332>>;--**$$$@OOOXXOO+$=-;;-&#+++#$*$#OoOoo XXXoo.o.oOO++##$$*-;,",
"235579qwww0852>;-=-=--;>>>>><24566532>>:;--**$$++OO  OOO@&=-=-&#OOOO+@$++OXX XX Xo .oXOXOOO+@+#$$=;>",
"2255680qw0953>;-==$$&$&**=-:><2566322>>:---=&$@+O X    O@$&==*#+o.ooOO++OoOo     XXo oXOOOO+++#$=-:<",
"2225669009752>-=$$#@@#@##&*=;>256632>>;;;-=&$+OO XX   XO@#$$$#+OoXooooOOOO  X   . o O OXOOOO+@#$=->1",
"122356990852>-=&$#+#++++@#$$=->3662>>-=-==&$@OOO      XOO###$+O    o ooOO.X  . X   o OoOOOO++#&&-:>,",
"12223579852>-=*$###+++OO+O+#$$-<32>;==*&&&&#+OX X      XO++#+O.  o o.ooOO o     o  o OOOOOOO+#&-:>1,",
"12223569632:=&$$###+Oo.oOOOO+#&:2>;-=&&&&&$@OOO         OOO+Oo.   X  oXO OX   X  XXXX OOOO++@&=->22>",
"2212256652>-&&#@OOOOO  O OOOOO#-:;-=*&$$%$$#OooX X    XooO++oXX  X o XXoXXo   o Xo.ooOOOO++#$=->1221",
"2121255532:=$$#@OOOX O  X  XO+#$===*&&$$@@#+OooX      XooO#Ooo X XoXXoOXXooXoX oXoooOOOOO++#*-:>2222",
",,1125542>-=&##@@OOOO O O XOXO++##$&$$$##+OOOooo     oooO##Oo X XX..oooXO XooXooo.OOOOOO+#@*=-:>2222",
">>>,22332>-=$###+OOO O O    OO+++##$$$##+OOOooooX    oOO+@@OooXXX oooOOOooooooOoOOOOOOO+##&$=-;>,211",
">>,,22222>-&$@$#@@++oO  O  OOOOOO+++@+++OOOOOoooo .oooo#$$#Ooooo oooOO+OOoooOoOOOOOOOOO+#$$==-;>,,,,",
">>>><>><2>-*$@$&$@@+OO   O OOOoOOO+++++OOooOoooooooooo#==*#+OoOoooOOO++#OOO.OO+@++++#+++$$$=--::>>>>",
";:::>>>>>>-=***$&$#@OOO  OOOOOOOO+O++OOOOoOooOooooooO$%=-$$##+OOoO++####+O+OO@@#@#@+++O+@$$%=--:;;;-",
"----;;:::;--=-*&&$$#+OXOoXXOOOOOO+++++OOOoooOooOooo+#$==-==*$@#++O+#$=*$#@+++#$$$###++++@$$%-----==-",
"%%=----;:;;;--**$$#@OOXoooOOOO+++@+#@+OOO.OOOoOOoO+#@%=---=$*$$###$$---**$@##@*$&$$#@@$##$*=----%%**",
"$@$=**=--;>>:-=%&$+OOOooooOOO++######+OOOOOOOOOOOO+#===--==&$$#$@@$-;>:-*$$$$*=**&$&$@$=$&*===-*$$$$",
"#$$*&***=->>>:-=&$+OOooooOOO#+##$$$##@++OOOOOO++O+#$==-=-=**$$$$$*=:>1>--$$$===========*====-===%$$#",
"#@$&$$$&-;>>>:;=&@+O .ooOOO++##$$&$$##@@+OOOO+O@@#===-=-=*%$&&$=%=;>222:-**$*=*=----;:;;--====-=%$#@",
"##$$$$$=-;:>>>>-&@OOO OOOO++@@$$&$$$$$$@+++O++@#$==-=======$$$&&*-:,22,>;-%*=&===-;>,,2>::-----*=$@+",
"#$##@$$=-;>>>>>;*$++OOOO+###@@$$$$#$$$$$##@#@##&&=-==*$==%$$$$$&=-:>122,;--**&==-->>2222>>::;-==%%@#",
"#$$$$$==-;>>><<;=$$@++O+#$@@$$$$$$$$$#$$$$$$$$&&==-==$$=$$$$$$#&*-;:,2<>;--*==*=--:2555322>>:--*%@##",
"@@#$$&=-->>>2>>:=&$$##@$$%%%$%%$$##$$$$&$$$$$$&==--==&=&*$$$@@@#@*-;,,>>;--=$===-->25555422>:;=%%@+#",
"@++@$==-:>22<2>>;==$%%$=%%$=%%$@$$$$$$$$$$$$$$==---==*=&$$$$$#@$&*=->>>>=-===&==-->235454322>-**$$#O",
"O+@$$&=-:222222>>:====*====*%=-%*$$$&$$&$=$$=$==--;-=&&$&&&$&$$****=-;;=*======-*-><2333322>--*$@@++",
"O+#$$==;>23343221:--========-;;;==&$$$&&=$$=$===--;-==*&$&**=$$$&$$&&*-*&========-;>>223222:-**$##OO",
"++@$$*-:<23555552:---==*==--;>::-==&$##$$$$$=$===---==&$$$$$$$$$$@$$$$&&&&&&*&&$&&*-><22<2>;--*&$#+#",
"++#$*-->>22555552:;====$=-;;:,,,-=&$####$#$$$====-=-=*&$$$$$$$$$#$#$$$$&$&$&$#@+@$*->>>2<>>;-=&$$@##",
"@#$**=;;>>2234532>--====*-;:>,21>-=*$$$$$$$==$$===;=*$$#@$$%&$$@$@$$$$$$#$##@@O+@#$*:>>>>>;-==$$$$##",
"##$*=---::>>23321:--=$=$=--;>121>:-=&$$$$#=========*&$#@@@@$$$$$$$$$$$##@@@++OOO+@$*;>>>>>;-=$$#$@$#",
"@#$*=-=--;;>><2>::--====*%=->222>:-=$=&$$=$==$==--*$##@++##@@@$$$$$&$$@+@+OOoooOO+$*-;>>>>;==$$$$$##",
"@#$&===-==-=;;;;----*==$&**-:,2<>:-*$*$*&*=-===--=@+O++OOOO##+##$$$$$$@++OOOooooo+$*--:>>>;=$%$$%@@@",
"#$$$*-=======&==*-*=====$$$=;>2>;=*$$$$$$===-=-=$@#OOO+OOOO+++##$#$$##++OOoooXooO+@&*-;>>>--*=%$=%$@",
"$$$&=-===&&$&$$$$*$===*$$$$=-;>;=*@$$@$*$==---=$@+OOOO+OOOOOO+++@##@#++OOOOooooOO#$&&=->>>;--=*==$$@",
"&&**=--==&#$##$#@$$*$$@$@#$$*---&###@$$***==-==#+OoOOOoOoooOOO+#@+@+++OOOOooooOO+#$&**--;:;;----==**",
"-==-;---*&$#######@$$@@+@++#$=*&+++++#$$&*=--=$@+OooOoOOooooOO++O+++OOOOOOoXooO+#$$$$*==-->>:::-----",
":-;;;--=*$$$@+++++#$$@+O+O++####OOOOO++@#$&-=*#OooooooooOOoOOOO+++OOOOOOooOXooOO#$$%**$*=-:>>>>>::::",
">>>>>;;=&&$#++OO++++++OOOOOOO++OOOoooOOO+#*=$#OoooXooooooOoOOO+O+++OOOOOO  ooooO#$@$$$$$*->1>21>>>>>",
">2>>>;-=*$##OO+OOOOOOOoOooooO+OOoooX ooo+#$$#+oXXXXooooOoOOO++##+++OOOOOXOXXXooO+@##$$$$$->222211>>>",
"2222>;===$#++OOOOOooOoooooooOOooo..  o OO+#@OoX    O OXOOOO+++#$@@###+OooXoo oooOO+O+@#$*;>23322,>,,",
"2222>>-=$$#+O+OOOOOooooXoXoooooooo.X X OO+@OOo        XO++++##$$*$@@#+OooXXXo.oooOO++##$&;<2552211,1",
"2222>;=*$##OOOOOOo Xo XoXXXXooooo X.  ooO+Oo. X X   XXOO##@@@$*$=***=@OooooXooXooOO++#$&=;>555522112",
">22>>-=$#+OOOOOooo oXXX XXooooo Xo     OO+OOOo       XoO@$$$%$*=--;:-@+OOooooooooOO+#$$*;>3566532112",
"><<>-=&@OO+OOOooXoo      XXOoooX  .   XO++Oo.       XoOO#$**$&**-:12:$@#+OOOoooO++##$$&=:24696522221",
"2<,;=&$@+OOOOOoX       o XXoooXoX  X  O+#+OOO.      oOO+#***=**-:122>-=$##+OOOO++##$$*=->26997552211",
">>>-*$#+OOOOooooo        ooOOoooo   oO+$##@+.      XXO+@$*==---:>2573>-=$$@#++#++##$*=->257099653321",
"1>-*&#@+OOOOoOoX Xo .    ooOOOOoo O  +$$$$#+O X     O+##$=--;:>>155752:-=*%@#######$=-><469qq9765222",
">:=*$##@+OOOoooooX  .  .oOoO+#+Ooooo+#*==&$@O o X OO++#&=--;:>>22566531::-===%$$$$&==>>369qqqq965322",
"<:-&$$#@++OOOooo oX  X   oo+@#++OoOO#*=-==&@OOO OXOO#$&*==-;:><225655321,,>:::;---=-:>2470qwwq975442",
"<:=&$###++OOooo.oo.ooo ooOO+$&$#+++#*----*$+OOoXOOO@$&&*==-;:>22455553221222221:;:;:>>269qwwwq097553",
"2>=&&$$#++OOoooooooooo.OOO+&-===*$=-:>>;=&@OOOOOO+#$$*$&*=--;>222234222123555522>>>>><3670qwwq098753",
"2:=*$$##++OOOoooo.OOOOOO+#$-;:;>:;:><<>;&#@OOOOO+@&&&&&&*=---:>122,,11,223558531,>>><23579qwqqq98853",
">;-*&$$$@#++OoooOOOO+@@#$$=;>>>><22353<-&@OO.OO+$$&=&&&&=--=--::>>>>>>,,13588531>>>,>22369qqqq098532",
">-=*$$$=$@##OOoOO++@$&&&&==>2255556665>-$+OXoOO+$$&&====-=-===--:;:::::>,1255552>,212>22579909965321",
"--*$=$$$$$@@+++O+##$&&===->23566779994>;$+OOOO++$$&====---=====--;-:;::::,255522,>2,>>>25699765211::",
"&$$$$&&$$$$$$####$$*===-->245789000063>-&@OOO+++@$$$*=-;--==**==----;;;;;:2232<,2,,>>>>2266552>;--==",
"#+@+$$$$&&$&&&&&&=====-;>1458000qw0963>-&@OOOOO+#@$&**=--===&&*==---;;--;>,222<22,2>>>>22532>-=@$$$$",
"O+O+#$#$$&&&==-=--;---;>14580qwwww0953>=*#OOO++++@$$$&**=&=*$*&**-------->,2222222<>>>1222>;=$+Oo++o",
"oOO++@@@#$&*=;;>>>>>>>>2479qwwwwwwq952>-*@+@+OOO++#$#####$$&$$$%*=------;;>>,222322>>>>>>>-=#Ooooooo",
".OO+@+++$#&*;>12322<<2270wwwwwwwwww652>-*$@+++OOO++O+O++###$@$%***------;:>><2333322>,>>;-$#+o.XXXXX",
"oOOO+@+++@$*:>3565534569qwwwwwwwwwq932:-*&@+OOOOOOOOOOOO@++++@@$$$*=-;;;;;:><2355522>,>-%@+Oooo  XXo",
" OOOOO@O++$&;15677767780wwwwwwwwwwq952>:-*@+OOo.oooOOoOOOOO+OO+@#$$==-;;::>>235655522>-$#Ooo o  XXoo",
"OOOOOOOOO+$*-<579999990qwwwwwwwwwww962>:-*@+OooOOOooOoOOOOoOOOOO+#$=-;;>>>>>24666642>-$+Oooo  . oooo",
"OoOoOOOO++#&->5679090qwwwwwwwwwwwww962,>-$@OOoooooOoOOOoOO OoOOoO+$*--;;>>,23669963>;*+OOo.X   oXXoo",
"O.oOoOoOO+$=-24579900qwwwwwwwwwwwwq972>>=$+OOooOoooOoOoOOXOoOXooO+&==-->>><35800963>-$+OooX  o o  oo",
" oooooOOO+$*->35789900wwwwwwwwwwww09521:=#+OOoooooOooOOOoOOOoOooO+$===-;>,268900952>=#OOo.   oo.    ",
" o..oooo+@$=;>2567999qwwwwwwwwwwww9652>-=$+OOooOOooOOoOoOOo.OoOOO@$**=-;><368000952;=#+Oo  X XX     ",
"    .XooOO#=;>2568990qwwwwwqwwwwq0752>>=$#++OOXoooOooOooOoOOOOOO+@&*==--;<358909952;=##Oo   .       ",
"X.  .ooooO@&-:,25780qwwwwwwwwwwwq9622>;=$+OOOooooooOOooOoOO+OOO++@$*==-=;,256689752>-$#Oo           ",
" X   X Xoo+#=;>25679qwwwwwwwwqww9752>:=$@OOOooooOOOoOOooOoO+++@++#&==--;><25567975<:=$#+o           ",
"      X X O#*->25579qwwwwwwqq000954>>=&#+oOooooOoOOooooo OO+#@###&*;;>>>,222356763>:-=$Oo.          ",
"          O+$-><466900qqww000909652>;-@#OOOoooOOOOOOoOooOoO+#$$$&*->><<22223566652>;-*%#oo          ",
"          oO$*><35578990q0998966652,;-=#OOooooOoOOOOOOOooOO+$&**=->>23222235556632>;--=@Oo          ",
"           O#=;>2255678909687666552>>--@OOXoooOOOOO+OO.ooOO+$==-;>>233332555666532,;--*@oX X        ",
"            $*;><225667766666555522>:;=@+ooOoOoOO+OOOoOoooo+$=-;><2353335666766522,>:;=#OX          "
};
