/* XPM */
static char *result[] = {
/* columns rows colors chars-per-pixel */
"100 100 28 1 ",
"  c #3F7AAF",
". c #3F7CB0",
"X c #407BAF",
"o c #417EB1",
"O c #4583B4",
"+ c #4886B7",
"@ c #4988B7",
"# c #4987B8",
"$ c #4C8CBB",
"% c #4F90BE",
"& c #5091BF",
"* c #5395C1",
"= c #5699C5",
"- c #589CC7",
"; c #5A9EC8",
": c #5DA3CC",
"> c #60A7CF",
", c #60A8CF",
"< c #60A7D0",
"1 c #63ABD3",
"2 c #66B0D7",
"3 c #67B2D8",
"4 c #69B5DA",
"5 c #6DB9DE",
"6 c #6FBCE0",
"7 c #70BEE2",
"8 c #73C2E5",
"9 c #75C6E8",
/* pixels */
"  o.oXooOOO@$%&*-:,2244566665421,::::-=%$#+OO#$$$$%$$#++OO+@$&*-;;::1455566655421<;-***%$$@ooOoooXXX",
" XoX ooo oOO@$$*=:,1244455555442211<::-&$#O+@##$$$$$#@OooOO++#%=--;<1245566665421>:--**&&$@+OoooooXX",
"   .  oXoooOOO@$=-:22444445555543221::-=%$@+O###$#$$#+OOoOOOO#$&=-;:14455777775411<:--**&&$+OOoooXXX",
"ooXX      ooOO@$&::1444444544444431<::-&&$+O@O@+@@##@OoooooooO#&=;:<144678987775411>:--==&#+OoooooXX",
"XoX      X.oOOO@&-:254444422123431,:==*&%$#@OO@OO@#@OoooooooO@$*=;<<124689999887421<>;;;=&#@OOoooXoo",
"oXX X   o  ooOO@&=:35554422211111,:-&&&&*%$##OOOO@@OooooXoooO#$*;:112267899999775411>:::-&$#+OOOoooo",
"o .XoXXX    oOO@%=:355544421<::<>:-=*&&&*&%$##++##OOOooooooO+$&-;11123679999999742211>>:-=%$#+OoooOo",
"Ooo  oo. X.ooOO@%=:466555521::::>::=&&&&**%%$$@@@ooooooooO+#$$=;:<12467999999987421111>>-=&&#+OOOOOo",
"oooooXXoX oooOO#$-,476687541::>,:::=*&***=*&%$$@@o+oOooOo++$&*=><224569999999976442221>;;=*%$#@@+OOO",
"oooooXX Xooooo+$&-<45688851<>:::>:;-=**=-==*&%$@@+oooOooo+$&*=:<1455779999999976543221>>-=*%$$##++OO",
"Oooo X X ooooO+$&;:25688741<:>>:>,:;-==-==**&%$+@+oO+ooO++$&=;:>2446799999999776554422<;==*%%$$##+OO",
"OooX    oooo++#%*::25888521<<:::<<::;---****%%$$+O+oooooO@%*=-;>12479999999997767754421>-=&%$$$$$+++",
"Oooo    ooO@+#$&*::146864211<,::<1<,::;--***&%$@+oOoooOO+$&**=-:<1469999999977777775541>-=&%$$$$$#OO",
"oo.   XoO++#+$%*=;:<4555412<1<,<121,:::;-=*&%%$$@+OOOo++$$&&**=-;1279999999975545577541>-*%%%%%$$++O",
"oo  XXoo+#$#$$&*=;:12242221<<<:,<1<:::::;-**&&$$##@Oo++##$$$$%*=;1277999997754444555542>;=&&&$%$$+@o",
"oX  ooo@#%$$%***=;:,,12222111<::<<<>::>>:;-*&*&$$#@+O+O++O++$$%*-<2779777766421122444221;=*&&%$&$+@O",
"oooooo@@*$*******-;;:><4441<1<,>,1,,:,<<::;;=**%$$$#O@+#OOOO+#$&=>15555454332<<<<22121<>:=**&&&%$#+O",
"ooooO+$****-*****==-;>1244211<>,<1::,<<<<::;-**$%$$#@+OoOooOO@$&=>122233211><;;:>>>>>>>:-***&&&$$$+O",
"O+++$$*=-;;:-***&**=;><455411<<<,,:><1<<<::;-=**&$$##@OooooOO#%*->><>,1<>>>;;---:::::::-=****&&%$$++",
"++#$&=;:<<<<;=*$$**=;:<465421<,<,::,1<<<<;:;-=**&$$$#Ooooooo@$%*-:;-;;::::;-=*=-;;;=-==**&***&&%%$++",
"+$$=;<11111<;***&&**-:,45441<::>,<<<<1<<::;;=***%%$$+oooXooo+$&=---===-----****====*****&&&&&&%%$$@+",
"$%*;<222221<-**$&***=;<4442<<<><<111111<;;;-=**%&$$@OOOooooO@$*--==*****-*****===&&$$%%$&&&&&&%$$$$$",
"**-:1444421<;=***&**=;<4441<<><<<21211<<;;;-=*&&&%$@+OoooooO@%*-=**%%%%%***&****&$$#$$$$$&&&&%%%$$$*",
"*=;<2455321:-=***&***:>1421<>><<242221<<;;-==*$&$%$$@O+ooOOO#%**%%%$$#$$%&%%%**%&$##o##$$%*&%%$$%$$&",
"=;:<24552<:;=***%*&**=;<<1<<>>>1244221,:;;-=*&&$%$$##OOOOOO@$%&%$$$##+##$%$$$$$$###O###$$$&%%$%$%$&*",
"-;:>24421:;=***$%$$$%%*;::::>:><255432::;--=*&$$$###OOO@@@@#%%%$#+OOOOO+$$$##@@+++OOOO##$%%%%%&$%%*=",
";::<1332::***$*$$$+@$$%==--;;:>1455441::;;;**&$$#@OOOO#@##$%%%#@#+oooo++##@++O+OO#+O@##$$$$%$$$%$%&-",
"::::<21<:=%**$@$+O@O++$$$%*=-;>1455431>::;;==*$$OOOoOO##$$%$$#@ooooXooo++#++ooOoo#+#@##$%$%%$$$$%&*-",
";;:::<,::=*$$$#+OOOoO@++@$$%*;<4554311<,:;--*&$+OOooo@@##$$%$@ooXXXXoooooo+ooo+oo+@@$$$$$$&$$$$$$&--",
";;-:::::;***$+++OOoOOO@OO@#%&-:2443<1<,,>>;=*%$@OooooOOO#$$#@ooo  XXoooo+++OOoo+@+@$$$$$&$$$$$$$&**-",
"**=-::-;**$@++OOooOooOOOO@#$%*-<11>>>:>:;;=*%@OOOoooooo+O##@OooX  XXXoooOO+o+oo+#$#$$$&&$$%$$$$*&*-=",
"***====**$@@+OOOoooOOOooOO+$$%*:>>:::;:;;-*%$OOOooooooooO@@OoXXX   XXXoo++++o+o@$$&%&&&&**&$*$$$&**&",
"&$&&*==*&%$#+OOOoooOoOooo++@#$*-;:;;-----**%+OOoooooooooO@#OooXX      oO++OOO++#***$****=**%%%******",
"$$$&&**&%$$$OO+OOoOooooOoOo+@$&=*==**=*-**%%#OOOoooooooOoOOoooXX .  oXOO+@+++$$************%&*=--=&%",
"$$$&&*=*&%$##OOO+oOooooooOOoO@%&*&*&&&**%$$#+OOooXoooooOOOooXXXX  .oXoOO+++++$***=*****===**==-;;=*&",
"$$$&&===&&&#OOOO+OOooOOoooooO#$$$$$$%&&&%$##OOoOooooooOo@OOoXXXX XXooOO@++$$$**==******=-====--;;=*&",
"$$$&&=--=&&$@OOO++oo+oooooooO##$@$@$$%%%$$@#+OOoOooooOO++OoooXXXooooO@@@+$$***=-=*****==---=----;-*&",
"$$$$&=-==&%$#+OOOOOOoooo+oooo@##@@@$$$%%$#@@@@@OOoOooO++O++oooooooOOO@$@$$$***-;-*****==;;-------**$",
"+$#$&====&%$#+@@+++oo++oooo+OO@O##$@$$$$$@@####@@OoOO@@++o+oOoooOOO+@$%%*****--;-=*===;;;;--=--=*$$@",
"Oo+@%&&&&&&%$+@@#@@O#o+oooooOO+@@$$$$$$@##O@$###+@OOOOOO++o+++o++++@$***=====-;;;====-;:;>;;--=%$+@O",
"ooO+$%&%&**&%$$@#+OOOOoooXooOO@#$$$$$%$$@O####$@#+@OOO@OOO++++o#@$$$*-:::;--;;:::;---:::::::;-*%@+Oo",
"oXo+@$$$&=-=&%$$#OOoOOOoooooO#$$$&**&*$#O+O+###$$##@#@OOo+o++O+$$&&=-:,<<:;;;:::<:;;::<<::::--*%+@oo",
"XoooO@$$*=;--&%$#+oOOOoooooOO#$$****&$$#+O@O@#@$###OO#+O++++++#$&&=::121<::::<<:<<<<<12<:::;;-*%@Ooo",
"XXXooO+$&-;:-=&%##+OOoooooOO##$&&**&%%$##@##+++##@@@O#@#$#+$$$$*&=:<2342<<<::::<12121221,::--*&$+Oo.",
"XooooO+$&;>>:-=&$@@+Oooooo#O##$%*=**&%$$$##@@++##@@@@##$$$$#$$$**;13443211<<::::14445441<::--*&$OOo ",
"XXoXOO+#&;><>>;=&$#@++O++@###$**==***&&$$$$$$#$$$#@@@#$$$%$%$$$%-:34554311<<:;:<145665441<:;-*%$Oooo",
"oXooooO$&>111<>;=&&$$##$###$$%*=====**&%$$$$$$$$$$###$$%%%$$$$%*-:34543211<>;:;:1456866541<:=&%@OOo.",
"Xooooo@%=><1221>--==&&$%%$%$%*=-=-==*&$%$$&&&$$%$$#$$$$%%%%$$$$%-:,133221<>::;::1146665441<:=&$@Oooo",
"XXXXoO$%=;124211>>>-=*&&=&&&&=--:;-=&&$%%$%&&%%$$$$#$$&&&&$$$$%&=;<1111<:::;;;::<125565522,;=*$Oooo ",
"XXooO+$*-:<4444211>;;---====-->>::-=&$$$$%%&&&&%$%%$$%&&&&%$$%$&=;:<<1::----;;;::<24443441:;*$#Oooo ",
"XoooO+$*->144444321>>;;-----:>>><>;*&$$$$%&*&&&%$%%$&%&&&&&&$$$&=;::::;==**==--;:<11223421:=*@+Ooo. ",
"XXooO#*=;<145555531>:-;:;:;>>112<<;=*$$$$%&&&&$$$$$$$&&&&&$$%%%&=-;;:;=**&****==;::<123421:**@OooX  ",
" Xoo+$**:<144667541<>;:;>><122222<:=&$$$$$&&&%$$@$$$$$&&&%$$$%&&==---=**$$%$*$*$*=-;:1222<:=$+Ooo  o",
"XooO#%*=;<1446777521>:;;>>12234442>=&$%$$%$&%$$#@@$$$$$$$$$%&&&=*===**$$$$@@#+$$%%**;<<111:*$+O.o. o",
"oooO$%*=;:<14466653,>;-:>><1244554>=&$$$$$$%$$##@#@$$$$#$$$$%&&&*=*=**$@@@O+++++@$$%=;:<<<:*$OOoooXX",
"Xoo+$**-;:><14445431>>::>>1124454<-*&&$$$$$$$###++@@##+++@@@$%&&**=**$$+OOOooooO+@@$**-:::-*$+oooXXX",
"ooO+$**-;::<<4222121>>:>>><<2422<:=&&$$$######+++++@#++++@++@$$&$==*$$@+OOoooooOOO+$$**-::=$$++OOoXX",
"ooO@$*=;;:::<1<<>>><>>::;:><221>;=&%$$#++###O@@@+@#$##@@#O++#$&&***$$$+OOOooooOoOO++$**=-;=*$$+OOoX ",
"ooO@$==;::::<<>::;:>>>;>-;:>>>:-*&%$#++++Oo+OO#O++#$$@$++OO+@%$&***$$@+Ooo oooOOOOO@$$$*==**$$$+Oo  ",
"oO+$$*-;;:::<:;----::;-----::--*%$$$++O+O++oO#@Oo+@#####@++#$$$&$$$$$+OOO.o.OOOOOOO@@$$$*****$*+OoOo",
"O++$&=-;-:::::-====-;:-======&&$$#@+O++++o++o++++O+++##@++++$$$$$$+@++OOoo.XOOOOOO+++@$$$******$@@OO",
"@$$*=------;;-=*=*=-;-===&*&&&$@++o+ooooo+++#++oo+o+++@#+++$$$$$$@$+@+OOOoooooOOOO++++++$****=*$$@@+",
"$*==----------**=*=---=*&&$$$$#+ooooooooo+o+#++o+oo+O+++###$$$%$$@@+++OOoooooOOOOO+++O++@$*=-==*&$$$",
"**-;----=----***&**=-=*&%$$###++ooooXXoooo++#ooooooo+oO++$$$&&$$$$$$@+@OOOoooOoooOOOO+O++$*=--=*$$$$",
"**------=====***&*===*&$$$+++#oo     XXXooO+OooooooooOOO@+$$%*%$$$$$$$+OooOooOooOOOOOOOO@%**==**&$$$",
"$*-;;;==***==******=*&$$#@++Oooo     XXoooOOOOoooooooOO+$$$****&&&&&*%#OoOooooOoooOOOOO+$$$*****&$$$",
"**====**************&$$@++O+Oooo      XooOOOoooooooooOO#$%&**==**-=-=%$@OOOOOooooOooOOO+@$$*****$$$$",
"*%***$*$&&*=***&&*&&#++@O+@+Oooo      XoO+OOooooooooOOO$&**-----;;;;-=$#+OOOoOooOooOo+OO$@$******&$&",
"&****$$$&%&&&&&%%%%$+o+oO###oooX    ..oo+++OOooooooOOO+$%*-;;;;;:>:>;=%$@+OOOoOOoooOOOO++$$%=-=-=***",
"****$$$$$$&%%%%$$$$@+ooOOOOOooXo     ooO++++OOooooooO++$*--:>:>><<11<-*%$@+OOOOOoOooOO++$$*=-;;---**",
"-=*$$%$$$&$&$$$$#@++oooOoO+OooXo    ooO+#$+++OOOooOO+$**=-;:>>>1<4441>=*$$@+OOOOoooO@++$$**;::::;;;-",
";=**$$$$$$%$$$$##@+o+oOoO+#OoooXooo ooO+*$$+++OooooO++**--:>><1234554<-**$@@@OOOOOOO@+$$**=:<1<<::;;",
"-*%$%$$$$$%$$#$$@##OoOOoOO@OOoooooooO+@**$$$++OOoOOO@$*==-;:>>1245541<:-**%$$$@O+O@+@$$&$*-:1121>::;",
"=*%%$$%$%%%$$#@OO@OO+OOO@###@OoOoOO++$$*$$#+$+OOO++##%**==-;;>1445541<:;:--==%$$+@@$$$&&**;<1421<::;",
"**%%$%%$%%$$#@@OO+O####@#$$$#OOO++++$$*$++++O+OO@+$$%%&*=--;:>1445531<::::::-*&$$$$%**&*=-:14441<:;=",
"*%%$%$%%%%%$##+O#O##$$$$$$%$$#O#@@$+$**++OOOOOO+@$$$$%&==--:;>223441<<<><<1<::=***&%%**=-:114544<:;=",
"*%%$$%%%%%%$$@@+##$%&%&%$%%%$#$#$$$**=*$+oOoOO++$$$%%%&*=-;;>>2214411>:<<1122:;=***$**=-:1245442<;=*",
"%$$$$%%&%&%%$$@@##%*****%***&%%%**===*$+OoooooO+#$%%%%&=--;;>,1111311>>><2444<:*****&*=:><244441:-**",
"$$$$%%%&&&&&%%%%%%*===***===******---*$+Ooooooo+#$%%&**=-;;;>1<>111<>::>12454,:=***$&*=-:122242<-**$",
"$#$$%%%&&&&&&&&&**==-**=*=---==-=---**$+OooooOOO$%%%&**=-;:>>>111>>>>>><14554,:==***&&*:<111<<<:**+@",
"@@$$%%&&*****=----;;-=*=-;::::;;;;:-*&$Ooooooo++$$$&**--:;;><<<<>:>>>>>124554<>-=*%%**=;:<::::=&$$++",
"O@$$%&*****=-:::>;:>-=-;;>>1<1,>><:-*%$OOooooOO+@$$&&*=-:::><1<>:>:>>>>112554<>-=***$**;:::--*$@++OO",
"O@@%%%&***=-::<<>>>:>;;><<11232112>-%$+OOoooOO++#$$%&*==;:>>1<>>>>1<>><1124441>;==****=-==***$@Ooooo",
"OO@$%%&&&**:,111122<<<<22445555751:-%$#@OOO@O+++##$$%&&=-;;>><>>><<<>>>><24441<;:;-*****&&$%@Ooooooo",
"oO#%%$&&&*=;<244442212245778788872>-*&$#@@+@+++O+@$$$&&**=;>>>;>:><<>>>><12242<<::-=*&*$$$$$@ooo  Xo",
"O@#$%$%%&&=-,245575442457889998854<;-*%$$$$@+OOOo@+@$%&**=--:>>;>><<:>>><22242421:-=*&$@$$$Ooo o  Xo",
"O@#$$%$%$&*-:245775454578899999872,;-=*&&%$@+OOOOO+#$$$&**==->::<111>><<<21255521:-=*&$+++OOo   XXoo",
"OO#$$%$$&&=;:1456777657799999998541>>-==*&$+OOooooO@#$%%&**=-:->>111>><<<22477741>;=&$@@++oo.   XXoo",
"O+##$$$$%&=-:<245558558998999998742<>;-==%$OOoOoo+O@#$$&&*==----::<<::>:<12579751>-*$+++oOo.   ooooO",
"OO##$$$%%&=-:<1244555889999999987442>>-=*$OOOooooOO+$$%&***=--==;:>>:>:,>14788752<-*$++oooo     ooOO",
"OO+###$$&*=-:11223458899999998875442>;=*%#@ooOoOOOO+#$%&**===**=-::::,::<257877641-*$++oooo   o oooO",
"OOOO@##$%&=-:,122334589999999885422<>=*%$#OOooOOoO++$#$%*=***&**=;:>::::<26777774<**$ooooo  oooooooo",
"oOOOOO#$%&=-:111122459999999985422>>-*%##OOooOoooOO@@@#$%****%&&=-::,:::126656664>=$+OoooXXXoo.oXoXo",
"oOoOOOO@$%&:::,112246899999985422<>;-*$@OooooooooOO#O@@#$%&*%%%**::<,::,124445562<=%++OoXX     Xo.oo",
"OooooOO#@$&=:::,,2248899999885221<>;*$@OOooooooOO#+OO@O+@$%&&***=:<111<1222444652;=%$oooo   X    ooo",
"ooooOooO+$&=-:::,124589999885431<>;=*$@OooXooooO###@OOOO+#$&***=:<224222222444452>=*+O+ooXX      .Xo",
"XXooooOO@#%*--;:<114578888885432>>-&&$OXOXXooXO@#$@@++#O##%&*=-:<2245444444444422:-*@@OOooo    . Xo.",
"XXXXoooO@$%***--;>12455787755541>;;=&$+OXOOXOO@@#$$@#@O+O#$%=->>12244455555444421<:*$@++Oooo o oXXXX",
" XXooOooO$%&&**--;>1245567655431>;;==%@O@OOOOO@@$$$$$##OO@#$*-;><1<12445565554421<:=*$$@OOooX.oo oX ",
" XXXooooO++$%%**-->1244557555431>>;;;&%@@OOOOO@$$$%$$##+@O@$&*=:::,<1445557554241::-*&$$@OOooooooX X"
};
