/* XPM */
static char *c2FuZF9jcm9wcGVkX3Jlc2l6ZWQ_[] = {
/* columns rows colors chars-per-pixel */
"100 100 87 1 ",
"  c #BE833A",
". c #BF893C",
"X c #C1863D",
"o c #C3893E",
"O c #C58640",
"+ c #C58C42",
"@ c #C88E45",
"# c #C69145",
"$ c #C99346",
"% c #C69449",
"& c #CA954A",
"* c #CC9A4C",
"= c #D09E4E",
"- c #CE9C52",
"; c #CE9F58",
": c #D09E54",
"> c #D19F58",
", c #CFA14D",
"< c #D1A34E",
"1 c #CFA154",
"2 c #CEA15B",
"3 c #D1A255",
"4 c #D8A757",
"5 c #D4A955",
"6 c #D3A45B",
"7 c #D5AA5C",
"8 c #D8AC5D",
"9 c #CFA560",
"0 c #D4A761",
"q c #D6AB63",
"w c #D9AC64",
"e c #D7AE69",
"r c #D9AE69",
"t c #D7B063",
"y c #D9B164",
"u c #D7B16A",
"i c #DAB26C",
"p c #DCB86E",
"a c #D5B172",
"s c #DCB673",
"d c #DEB976",
"f c #DDB778",
"g c #DEBA7A",
"h c #E0B46A",
"j c #E0B773",
"k c #E1BA76",
"l c #E1BB7C",
"z c #E3C07E",
"x c #DFBE82",
"c c #E1BE81",
"v c #E2BE82",
"b c #E4BF80",
"n c #E1BF85",
"m c #E0BF88",
"M c #DFC086",
"N c #DFC088",
"B c #E1C083",
"V c #E4C083",
"C c #E7C283",
"Z c #E1C185",
"A c #E3C285",
"S c #E4C285",
"D c #E5C385",
"F c #E3C388",
"G c #E3C289",
"H c #E6C389",
"J c #E3C589",
"K c #E3C38D",
"L c #E5C48C",
"P c #E4C58D",
"I c #E4C68F",
"U c #E6C78E",
"Y c #E7C68F",
"T c #E9C38B",
"R c #E8C488",
"E c #E8C58D",
"W c #ECC88D",
"Q c #E5C390",
"! c #E5C392",
"~ c #E4C690",
"^ c #E4C691",
"/ c #E6C790",
"( c #E5C793",
") c #E6C890",
"_ c #E6C894",
"` c #E7C995",
"' c #E8C993",
/* pixels */
"llllllllllfblllbfllclflclllffvllfllllflllllcllljclllflllllllllllllllllllccbncSScBEBGJGJGGPPPPP//_~_/",
"gllflcflcfcfflllllfllllffllbllbfllllllfblfllcjllflflllllllllfllllllllfcllnnnSnnGGGJLG/GKPPPP)_____/L",
"lllllffllllcbfflllllllfcbfflflfllfjlllllfdlflllflfjljlflfljfllfjflfjllllcbbTBHMNJGMJGPKGPPL))/_/PPnx",
"ffllljlfflfffllflfjlflfffflfffllffjlljlfjlddjjfllllflldjllflfjllddldlfcccnCnLGBGLGNLGPPPJ~))///GBVlg",
"flfflffllllffllffllllflffffcvfffllfljllfllflfdldlflfjffllllfllljjgflllgncnBBKMGJGPK!LKK~)/~)'LHlllki",
"flflfjffffflflfllfffflfdfcljffljfflslffflfflllffjffffllfffdffflflflllccBnnxGBBGGPKLKP~~P'_PLSclssiiy",
"flfllfllcfflfffffllfflddfjlffjlljfflffljdslfdfggflfllfklfjlsllfdfffllccBCHHLPHPGJKJJP~~_)LBllshrwuyr",
"lffffflfffjffjfjdsfdfdgsffjfjfajfjljjljlffdddddslfsjjlfddlfjdfjfllllnnnnTHHxPPxQKP/G/PGJBgsiiwwwwwwr",
"gfdfslssfffjflfaddddfdldsdddfskflfffddfdsfflglddffldljfdsfddddgddggxcnGHGGGL!TmTPPQQLWVdiieeww8wwwww",
"ffsffsfdjjjsffdjddddsfddfdsfdssdffjssdsdsfddsdsdsssksssdfdfsdsdsfgcncmGHKLKK/m'mHHLgdiw0ewwwwwwwwwii",
"sdssdfdsfjfssdjddssssssssfsdsdjjsfkfsdddddssdddsssjdsfssssssdsdsllbSmGGPGLEELTbngate0ww88wwwwhwrwrwe",
"ssdsdsdsjassdjdjdjssssssddsdsssfsssfdsdsfddddsssdssjjsssdsssdlgxncHLLHKHSLTnlsrwqw0wwwwwwwwwrrwwryrw",
"sddsdssssdjsssdssdssssdssssissjsjisssssssssdsssssidfdgkdkddgglcnmLGBHmHGlieew0wwwq0w0wwwhwwwwwwrwwis",
"sspssdssssfdsssssfjsddssspsssssijsfsslggddggddggldffggglglccnHPGEmSSllr0r0q0r00wiqwwwwwqw8wrrrrrisis",
"sssssrdisirdssssrdsssrssssssfsddlfcnxnnxnGGJGBGNGxnBBnBxGGBHGGGBljrq0wwwwwww0ww07wwwwwewqwrrirrirsjl",
"pssssssssjssifrssiffdfssssdfffxLnmbnnnHSGHHBBHHGHnHLSBLSSBSScgsrqqqww6888w0w0wwwwwwwqwwwwwrrrrisslll",
"ssssssrsissrsdddsfldfdljllllbmcBmcblfjrhiisririjisfgjlffjrrr0www00ww0rrw0wwwwwrwqwwrqwrqwrwrrissflcn",
"siidairssssdssdfsfdgjlllllcmHTbkjww00w00ww60w8067006000w004004>0w000ww00w0www0rwwqwqwrrsrrrrsrfllclv",
"isiasffjadsdffdffggllcgcTnmbls0e0ww0w00w0ww806w8w0w6ww0qwwww00w0w0qqwwwwwwqwrrrrrrqqrririirsslllccnn",
"ssssssssssggsllllcgccnKxmTbfe06q0ww40040w606ww6w66ww040460w>0wwwwqqrwwrrrqrrrrrrrrwiwrirsissgglcncnn",
"rssfsjfdggggggcglBxnxBBGljw00w>w000w0w4w8ww40w60w60ww0wwrr00ww0rrrrrirrrrrrrrrrrrrrrrirrssjffbncSBnc",
"sfsfffflggxcccgcBBBBSVldww00w0ww04000000w000w0wwwwqq0w0w00rrhwwhrrrhriaraajhjahrjsjjssjfslflclcnVVll",
"sffllgflgzxgccbnBNnBlsie>ww>>ww>40w0ww0ww>0wqw0r0wwww0wrwwrrrrhrhsrrjsrshasaajasssssfffglllccnnmBzds",
"ffclclcgMgVgcnnnzNlgse07w0>804>ww00ww>ww4wwwqrqqwrqqwrrwhrrrjrrjrssjasssajhajajsssfffcgfllgccnccgse0",
"clxcllVzgMMVccbclfiqw>4>4w>w0ww00000ww0ww0qqrqrrqrrrrrrrrrrrarrfsisrssissssssifgsjflffllclcclccje007",
"blcllBMVMgMzlcjjie070>0ww>w>00>ww0www0rwrrwwqrrrrrarsaerrjrjrjrjisasrssssdsdgffgflllsllclcccljw00006",
"lcccSBcSMsddssrq0864>440>>40w00000r0rww0rrrrrsrriirrrrrrrrfaarjaissijsssdssfdgggllffxgccclbfw0000666",
"nccbgllgsiweq000>;668>00ww0r0w0w4hrrwrrhrrrrsrrssrsriassajrjjjajsddsfssdssggdgggfcxccgnlcj00>4>>6660",
"clldiie0768666644>0>0800ww00w0wrrrrrrarrsrrfrssrrssasrsasssrjajsfsfsldgglgllgBgzvvvbblrq0>06>8w>60w0",
"e066666>6666636640000400>wwwwrrrsrrrrsrjrjsrasrsfrjrsrseisssjsafgafgdgggggllggNzxbla0267440>8>>06>00",
"66-66663666666660004000qw0wrrarrhahaarfjsrarrjasissfsssassisffjfgdpgfgggxgxxgzclr0660666>>>w0>00q000",
"36666663666466760>00qwqqrrrrarjrrrrsajjasasssjddjssssdsdssfffjjfzgggggggzxzlll0;;06>0;66040>04>00000",
"0>46>0000666660000w0rqerrriiiipsjjissssippaadpgagdddgagaggdgdgzdggglBgzgzzki6;66:60>04060>04>0000660",
"04060>>00660e00qwwqrqqeearriissssjssssddpgggggpggdagggggggdggggglggBGgglde966;266:6>6>04400>>0400e0e",
"406w00000060e0rrqrqrrreerresssspfsfdddsgddgdddgdgggpgggpzpggggzgllllzki22:26>6>666>6>>>>0>400400000e",
"00w000q00qerqrrrrrrrrreirssrssdsjfddddgfggdggggdgggggggggggggzgglllr626273666>66606640>0>>0>0w00qqwe",
"qqrqqr0ereqqrqrrrawrrirerasjsgdsdggggggdggggggggggzggzgMzgzggzzpr0>6>:>>;:>6>>>6>0600>4000>00wqqqqrr",
"rqqrrrrerrrqewrrrqqrreisddsssdgggdggggdzggggglggzggggdgpgdsda9926>>>>66>6>>66666066>00>000w0w00qrrrq",
"rrrre0qeqe0reer0rwqreipsddjdfgfgpzggggzzdgsssdiruu297222522111,9>>>>>60>6666>>664006660006000wrrer0r",
"qqrqeqeqqe0r00ie0wqripssgddggfglzggdpu92212222;62212122211125121>>>>>6>>6>>06q06060r0q0qwrwrrrrq0r0r",
"qe0rr0e0e0e0eetqqrupkdggdflkllkkp922:--::>>::;3::>:6:>:>2;::>>>6>>66>00060660070qq0qeeerrrrreeqrrrrr",
"r0rr0erreq0e00qqesdskkdkffskjrq;-2;3>:>::::>>>:>>>>>>>:>;3;66>>>>00>000000ew0e0eqqrreieqrrrweurrerrr",
"rww0ee0e0000eqislfdskskpsjj06;;;-:--:->:;-6:>;>>>:>>>>66-;6>>666>000>0qq0ew0eqewwrreeiierieiuiiurrer",
"aajrereeiupsgksgfddssiuirq0>:6--11:1;>>:>>::6:;>>>6>>6>67-6666600qqqrrwrrieeeiruraeeiiuuipisuiiirsrr",
"iisiaajfkddkdjkssiiitew00>--;--;;-1;-:;:;;;;>>;6>>>6>06>666600e0r0e0eeerreeewriiisiipsipiipiippisiii",
"skssjjljddppipiieieeq066:------>-1--;7;6>>6>;6>6>6;6>66660q000qe0ereerwrriieeiiiiiispipssdspgsdsisss",
"gpdsskssissiirwuq006>;-::--:-:--;;-;-;;;->6>>6>;666206600qeq0ewqqrerqree0ietiiiiiisispipsssgsdddssdd",
"sppiiiyiwuewqqw0666>>----::--:;--333:66:66;>6;660600qq0qqww0wwererrrrruesiiiiijpiisssdsdssdpspdpsssj",
"yueq0qrqqqq00066>>>-------:-::;-3:6;362662226667660qe0we0wqequeueeuuiiiiispiipipisajjjjfjjjsjssssskp",
"12;3>>6>>>4>>6>>------&---->>;>>6;>>6262660200070e0e07qqeieeueiuieriiusuiisisisssfjjjr0>->&-->&---:-",
"---*:-:>>::------------:>-::;-->>;66>626277700q0w00wqeqeeteeeewiieiiiiiiiiisspssjpr0>-&>-:&:&----&*-",
"&*-:&--&-:----::--&-&:->>;:>>>6>66626667060q00qq0eweqetqeeieqieiuuiiipsisspisijsq6-&>>&::&-:-&&:--*:",
"--::*----&-------:-----=->6>>66>6666060007000q0qweqtteqeuiuueuuiiuippspspisspp0>-&&:&::>&------&&-&-",
":-*:--&-&--&-&---*-&-::>>;6>>666606027009q0qqeeewiwwetitiuupuuiisiiiiiiipsir0-------::&&-:--:------;",
"::;;-:-:---->&----::::33>6>60666666660eqqqquqqw7quuuiqtiuuuuiiiiipipjpjjpp06-&&&&--&&-----:&-:------",
">::6:::---::&-----;;:>660>0606>006007q0eqttqeitutuuuiiuiuuuipuppipipiprr72;&&-;--&-->&-:&--:-&--:--:",
"666;;633>--::>6-::3666666666667000q0e7e7qttqttuyyuuuuiiiuuuyuipiarjsrw00>-&--&&--&&->-:&*:----:-::>4",
"66666663>>:6-33:366646466806070q0ewqquirhpiiiipupyiipiipipippppujawwq4>-@&-&&--&-->&-&:>:----:-:>>>>",
"66606666>>66666666666666667w7q7eiweeuyuuuuipiuuyippiipisiuppshiir00>>-&--->&-&&---&---:-:-:;-:6:66>>",
"026666660>66366666366:6660000wwutuiiuuypyuyuupppyiuipiiipuuupwu6>>--&&&&&@&-&&--&>---:-:;-33>>66:6>>",
"662666636636>36666636667070w7uyuiiarupyhiiiiiijryypwrqq0q4006:>->--&&&&&>&-----&&:::-->-::6666636663",
"21616:3663366366667667700ewyuyypiiiey763-;&--&---;::;;:---&-=*&&@&@@&-@&@--&*--->-::>->>636:36:6:623",
"363336:663336666677676777yquupuyw:-%&&&&&&&**&&&&&&*&&&&&&&&&&&&&&-@>@@;@-----::::>>>>>636666:63363:",
":6:66>36::56667666777q77yuuyyhu-%&-&&&&&&@&@&&&@&&*&&&&&&&&&&&&&&&@-@---;---:::>>>8>>>>>663::6:;3:66",
"61;:333666117727676wq7ywtuuwh6%&&-&@&&&&&&:@@&&-@-@@-@&@&&*@&-*&&&&*--&--;-3:633:6;:333:;:::::633336",
":6633;6666726777707778tyuypw*&&&@@&&&&@-&@&&&&&&&@-&@:&&&&&&@&&---&**:--::::3:;6363333666363636:3663",
";3;::336176272q678707qwyyy8&&@&@&-&&&&&&&&&@&&@&&&--&@&&&-**&&-&&**-*-;;;:33;;*1;36:6663366661636666",
"-1:6666627q7677607wqqyyiy8&&&&@&@&&&&&&&&&@-&@:&&@@&&&>@&&**---*::::;6-63:;;666136:66362666766666676",
"33136677776777q7qyyyt7tt0%&%%%&&-&@&&&&@@-&&@&&&&&&&:&&>*-**3*:3:3:3:-31-333111361760777770777077607",
"636363767777qq77w7tytyt7&@%%&&@&&&@&&&&&-@-&&:-&&@-&&&&:-*1-11*3:3*-*113133-3176672777qqqq777080777q",
"637377757777t7qtttttyy6%%@@%%&&&&@&&&&&-&&&&@&-&:-&-&--:1-33--:**133:333631666177777q7ttqyty7ywy7yt7",
"33271177777tqtt7tttyt*#+&@@@&@&@&&&&&&&*-@-&&-&-&---:-:---3*1111-33-333;1135377777777t7t8t7tttytttty",
"37575777tt7yyqtyyuw7&%&@@%@@&%@&&&&&&&&&*&**%1-*::::*-1-**-1--3-333-17153767577tt7t777t7ytytytyte7ty",
"77577ttt777tyyyy8y:@+@@@%@%%&&@--&&-*-**-*--1*---:*=3:-333133333133371367647t8778ttyuy72*$%%%#%#%%&%",
"57qqt7778ty8tuu6*%@@+&@@@@%&@&&-&&&*:&-*:**-*1*1*=:*-33*-31:136311362777778777ttty87%#@@#+#@@@o#+@@@",
"7t7t7ttyy8y83%#@&@&@@@@&&%&&-&&&&&-*:&----1*-111-::>-3:33-5-3633717552577777tttyt5&##%@@#%+##@$#@@+@",
"t7y7y88w7,#%+#++@@@@@&&+%%-%%&&&*-*---*1*3*--**-:-11133313115131766777577q7t8yw1%#o+&@@@@++@#+&@@@@@",
"tt8w86%++#@+%+@+@@@&#%&&&&&&&---**-*-*-*-*31--11:313113633133777765775t7ttt885&@o##++@@@@&@@@@@@@@@@",
"77*%##+++@@@+@@&&++&*&&&&&&-&---1-*1*-*-*---33113:3613333177737353775t7t78y7=+++@@#O@+@@@@&&+@@@&@@&",
"#+%++++++@@@%&@&@&&&&&%%---&-&&&*-*-*1111-13-33133333737571117577777q77788<%+@++@+@&@@++&@+%&@@&@@&@",
"+@O@o@@@++#+#&%%&%&*$***=**-**--*1*-11-11536516763756737t55t55888877777y6%%++@@+@++&&@@&+&+&&@%&&&&&",
"@++@@@@@&#&##$*%*-***<<**=-**-**1*1351533353577137574687555558885888857&+++%+++++&+&+@+#+&%%@&&%@&&*",
"@+@@+@#$&#*&&&*********<*=&***113*15136575777558588584555y8t8848t8787*+++++@+@+@@+@&@$##&@&@@&&&*&&*",
"@@$$&#&$&&**-**********<=&**11*1331335656375587578884787t55t5884t55&##+++++++@+@+%#+$&##%*&&&*:&&&==",
"%##&%$***&**$,%$*****$*+*****315555775575588855778887777558544<4**+oX+O+O@o+$o$+&###&$#&&$&*-***$==*",
"&&&&***$******$,*****,<O**3:3,35557788878t88788885857757555<<$oo.oo+++++@@@+$$$$+&$$&%&**&*&*&-***$=",
"*****,*,*$%*$,$********=*,<<533557775t7656<=,*$%$%$#o+++++oooOoo+.+++++++@+#$$o*&%%&&&**&*&*&=&&=***",
"$*&*%**$**,*%,*****$**=**,<6355785755*%+++Xo.ooooo+oX++XX+oo$oooX+o+++&+#@#$o$*,$&***$*&****&&&*=o**",
"$,,%%$$$$**,*$*%*****,*-,155375875*%+.+.O+X.+XXooo+OXO.+ooo$o oo+O@@o+##$$$$*$*o***<,oo**$,**,$*=***",
"#*$$,,$,,$$$,$,$%*****,<15557585*o.++.OO+XXOX+X@+o+++++Xoooooooo+++@@###$$*****$*<oo*,,***o*o,o***o<",
"$**$$$,$****$**$**,,,1,,5,5555<$oXXOO++.++X++Ooo.+oX++O+o$oo$$oo####$$*&**$*$*$,o,,*o,**$$**$*,*o<=<",
"%***,$,$$*$,,$,,***-,<5<<5555$oo ++OXO ++O+oo+oo++o+X+++.$oo$o$$#$&$*$&**$*$$*****,o*****$*$*,,o*<oo",
"o,$*$#$***,$*%,,,,1,<5<555<=#o oXXXXO.O+.oooo@oo+oo#++o#.$$o$.$.$$*$$********,**o,*o****o*$*oo,*o<*=",
",o*,*,,$$**,,,,,1,55555555$XoXXX.+O+X+++XOoooo@o++oo+o$o$o$$$<$$$*$**$$$$$o,oo*o,o*,$$$$,$*$,*,o*=*o",
"***o,$*,*,,,,,1,<5,5555<=oXXXXXXXooXo.X++X+O$@o#$o++$##$$<$$$$$<***$*%$$*$**<***o*o,$$=$*o*$**$*=oo=",
",o$,*,$,,1,,,5<55<5555<$ooXXXXXooXXXoX++++++oo$o@$++$$$&$$$$$<$$$$$$$*$$$*$$*oo*<*o*$*$$$,$$$o**o=<<",
",,o<<<<<<<<5<<5<5<5<<,XXX  XXXXooXoXooo$o$o$oo$o$$$$o$$$$$$$$<o$$$$$,o,oo<o<o,=o,o<oo<=o=<=oo<o<oo<o",
",,,<<<<<<<<55555<<<$XXXXXXXXXXXooooo$ooo$o$$$$$$$$$$$$o<$$$$$$$$$$$$o,o,**<oo<<oo,o,<oo<ooo=o<<oo<o<",
"<<<,<<<5555<<<<<ooooX XXXX XooXXoooo$o$o$$$o$$$$$$$o$$o$<$$$$$$$*$$$ooo,oo,<,oo*ooo<oo<o,oo<<o<oo<=o",
"<<<<55<55<5<ooXXXXooXXX XXXXoooX$ooo$o$$$o$$$$$$$$$$$<$$$o$$$o$$oo$$,,ooo,ooo<oo<o,oo<o<oo<oooo<oo<o"
};
