/* XPM */
static char *cG5nd2luZy5jb20rJTI4MiUyOQ__[] = {
/* columns rows colors chars-per-pixel */
"100 100 63 1 ",
"  c #565042",
". c #5B5546",
"X c #5E5748",
"o c #5F5849",
"O c #645D4D",
"+ c #67604F",
"@ c #676050",
"# c #6C6554",
"$ c #6F6856",
"% c #706957",
"& c #756D5A",
"* c #786F5D",
"= c #7A715E",
"- c #7E7561",
"; c #807763",
": c #827965",
"> c #847B66",
", c #847C67",
"< c #847C68",
"1 c #857C68",
"2 c #877D68",
"3 c #877E69",
"4 c #877F6B",
"5 c #887E69",
"6 c #897F6B",
"7 c #89806A",
"8 c #88806B",
"9 c #8A816B",
"0 c #8B816C",
"q c #8B826C",
"w c #8C826C",
"e c #8C826D",
"r c #8C836E",
"t c #8D846D",
"y c #8E856F",
"u c #8F856F",
"i c #8D8470",
"p c #8D8570",
"a c #8F8670",
"s c #8F8671",
"d c #8F8672",
"f c #908770",
"g c #908772",
"h c #928872",
"j c #938973",
"k c #918874",
"l c #938A74",
"z c #948B75",
"x c #948A76",
"c c #948B77",
"v c #968C77",
"b c #958C79",
"n c #968C78",
"m c #978D78",
"M c #978E7A",
"N c #988E7A",
"B c #988F7C",
"V c #98907B",
"C c #9A917D",
"Z c #9C9380",
"A c #9C9480",
"S c #9D9481",
"D c #A19885",
/* pixels */
"y--3>:=&===Ow9e5*0a4--aa-60-0a3*--3:030-==3=--89j8-93308,8<--Mg,<*3<:00%=y033yg>>=;=;e;*+y:*->95,=>9",
">ge3%%-;====,yy-3aa0aaB633-:--*#-*y03:;a0$==*0--8,9jlaj30**30aajl&=::0309,00C3>e>Cj;**=%=*;;;>,y:,;>",
",955*=:,>99y>e,,aZlB-Bal083-3-<---:<%0;-*:=#&3j-8yr->90=,--30a0lal39300,9yg0,;g955e,-=>;=>=-:>9:5y5;",
"ee;==;,-:93:=g,g4000bBlc03-8%--:90<a39-3C:*=-899o%--0-*;aallaa0l3399=yy:-y9,:j,9e9-y5:99,5>e:9:,9e55",
"=-9::-==;;-*=>,--a8Oj-000-<$*-<-0330;;33080:33a*+@=3;0;y0alBMlMa3a0y000-j:=-;y9=*9;,;,,,w,;,,9,55>,>",
"&%99%=;::=%=*-5*--;-*y-aa830--4a*30-y03y3-0*-;i4#33-;;9;*a5--MC0aa09-0--=,e3e9-3exe--=;;>,=,9e5jy5ye",
"=>,9,*%3=%*:,9O;-a3--&3000aa#-8--:0aljM=**--#-3-$=*3y;;*-l-a-dlM00y3309-3v5>ewe>95y>=>:*-=5yuwe,95ye",
"=9=>>*=:;*=;=*,x-*-:--;-*-03*@-al333a-a-5-----#i=,*-vl-;3-a-4a-0l*v03:03&gygyw>y3g5==,=5;g;yy95wg5=,",
">w;9>=>,;e==-==ye--#-3-=$@->$$--*-#Ma3ia--a4--a*3:-:3---*-->aS0*0a0---3*-330y3a;3jy;>y-ae90yy55>;wg;",
"&:2>;>*==y5,:,yy=;a8;:=;*****=#-**-g008--*$<0*-$*-#%:8---4--0;-i-ja0*$-$--33--9:99g3=e595399=-:9e,y;",
">:59==;=9:9;,39y;i-*;-&%&*---O@--e-030l330a-3*3#**300y--=%*3l$--3=;;-=%$=*--3--3,;9y;;O59,e*=-=:ewy5",
"::>2>>,;9:::;$3=3ae*----=&--33*---%-#8-8laa0---*33-:9-O*$---300a33-=:=$#*$-00-=-=5>>:ygj3,-=#:==>:53",
":>2wwy-:3y9;=;93---&=3033y;3-==&:3:=:0--dl004---6:33-#-#-*:%$$--3y==:-%O%--=*e=*;9-*O=gg999::;:;;9e,",
",5g-,5,>:-3*=%*;00=-==$a9>3933-$3=a.<0aa0aaB$-;4a-*00-*&*---3&-0ya;%=-==*%-O=* 3>>:9&;;,;9-*===::,5=",
":-==-,:%*,=-;-*9-a,V0Ml0:al<0g-&&---8-=a*03-$4l#0-*-%*$34-30--#-ju,--=*-@@$$=:e-e,,,>yN;>5*&=*%3%;>5",
"-#-*,e,yj,#ye;-5ay0ag0a-3--0--=*&---*o0j$3a-;-$$.o-;$-:00:33-:0-x-:*3=%$#*-3*&-;=,-55,559>**:,:=*-y-",
"9:y2g9;;guvyj;y;ga--ey0;ay30=#3-$*3a=-$y-=,==$==oO*-#*=38r:<,-39*5,**:=:%5,w;;;9w,,=w,jw>y=;:9:&#w;y",
",-,-=ujyjj2yy%;3l5-Mj33V99-=0=-*3@Oy=$$3y-,-&o-=;*-%==#*-a:a:-,:;ejww>*9j>>;,&;;=;;=>2y,>=w>=;==5;=*",
"jyy;,>y-;=#=,-;5M;-00a-0jy3y-;0--*0-=y0$*3&g*=O+O###*%-$-&,0=,,,;5,=yyeww=>>=*-5;9*%*22>>>w=,=:&--;e",
"g=#9,gyy*g9=%>;e00a00-9jMa,el;-aaa-a8$-$:y--:*-&*-%-$@#=---=a,y,&>,:,>5,%=#=:>=;5w;==*;>,#,;=9%;;3a9",
"w599wgygwg;=*9g5-$jy,-=jy9l-;9y9-0-<3y,0,9-:3*-*%**3-r-%y=-;y9,:-==#>,>,:=:--,,,9,%&=&2;>>=#;=+9=yyy",
"9--=ye;egg,9j9e>yyj;j8--,V-,=&,y----0---:=3-==*=---0-a-8e:=:y5-y>%-*y>5#;=3-,;=,9-%-=,w,=;;;>=9>y03;",
"&-%->;e5,w>;395j-ay939--=&=$&-=7<--*9-::#*,=*90<-=30-*$8y,=,;:-:=9**e9=#*$9:-;:;,-==;=99,#;=,=:9,3:-",
"y-;5>=e>9gj-:;y9303a-:09&===:-9y-a--==::-:j:--9#309ya-00:==:-:5-e,:=5-:%99;3*;-%-=--;=;>2&=9=>=::-:-",
"w;yu5=yej-,5=yegy0-;9a0,9:*:=&9&$0;=;::=;:x;=90-=:--3;>=e=;=-9,j9>,=>:+;9y;;=,*$%**=%-;2,,9,:,>;5;>-",
";>;;,30g3*;->==,y0;M88a0,*--;-*:-a3=-3-0:-=v0,*=05--3;e3y;--5:,y9yg=>:9;0;;--;=&-*&*=&-;:%5>=9;=35e:",
"->e30=:::3>-;,3,#*j3-8e0::*-,9*=-03-#::=%*MMj-&::a06-;=3%:>=,-;y9jg>y>,:;5*$*-*$&*%&**=-=*===:;>-9e5",
"je3--&&3-e-0,=-3#*-&&00>0-=:=9&-3:-<:5:-5;,;vj03#-;a;-9>;-5;55,9ewe9;59;;3---=%=-=%$#&*&=:=&;:=w=>9*",
";9-->59:j3=-*<=-=&#*-->-:=-0:989:==9=-:*--0303r0*--->O-yg93;yj5:ey555a>--;--9*#O&&*&*o$+#==*>:=5;>ej",
"9y3-9a0<l3:=--,--#&@#-&#-*,===9=e933>>-*:30,,ygl:a9C;;*9y;99gw9-=j*>k;=->>3--9&--;&-$*#+%>=:%;,==%%-",
";y----y03a0aa:0=-*ooo&$*&=***:0=3y53$>-;50llMllj-3-j5g3=#3;g35y9yxx555>l;;;-=----;&-&$$-=:*#O=;*&;>O",
"-9->9yl39-a#e3a*$$OO$&&-,,&*====,y:>:3*:a309y<8:309j9e5*;;=;9359e>g>5<-;----99-yu;;-&%**&=**==>;-=;-",
"*=,,%>=>j9e,9::=*%*%%=,*-;>*;%=y9j959,-9k3a00l:0-000,9:;5;99905;j---9-39--,9g,=5>:-,--*--%*==-;;>:%=",
",;>w*>y>0:;3-$-,==&**=;*y=>;-5eeyagy59yx0ll3a03-:080,>;-;;;y;;9=*=*=:00=:=:,55-e==>:;==-g>===>>>:=&=",
"5w,*=:>,=:0553j-:==;==*===;,-:>5;ux5;;g>-0-333---g-:,:-*;=5=--;3*=*-:<-:,:9=>>=;;;;*;>=5=;>5::=,3,,:",
":;=;::=>-,99yy=$=:w,9==;;:,yx-*-,w9y>%-*--0-*--::Ma-::,9y;>eCC03=o*=-:=-=-:9>-35-=;*=>5,>93=5*,>>9=*",
"%=:-e,w9,9;5,g*=,%,w:>=;;:wj;55*=-a33=C33:3--<-:-:03-0;30a-ell33-*=aa-===,y$*=3>-*$#%y5:3,9>;9:===**",
";==:::,9e39;aa9-=9=:>:-55x,9w>y930=-e,-%3-a-=a330a3y-r*=80;-9lM0y:=0e8--99,-,3;--*%$%>e>,:,eye:=9>%+",
"-:*=93y3,:900-e>*=>y:-,,MjxMx9:93;%93930-*0l30---a&8:-*300--3aC;jy:3y-=-9=*$-=>;*#%=:=e,9=*9e3y9*=%:",
"=,99:=y,3:-99yy>ww>u>j,y9CxNj>,2aa-3;*;a300-0*i3vj-3-:0y03=%-la5-%330:80=**:,,-;a-%;-O55:-===;;==-**",
"==->;;e;-3>599vCy5j9,y=99,yxy3,5lla35e3;553-0a-05y==y3>e3-=<-r:--=;0>0--;==8;9e;----*0<:393*#*==,=%9",
"=u5u>-y;---;;00;=*,,w,,59j;>;;:>a:30-33330-=;-309y9x55;508:<309-y*-;--0-a-3j*S>-$33%:3=3-,-*$*&:=*#:",
"-,w9g;g--;-9-3--%:=,y,5-5,wy95yy0-0Me=e330%3--00y9gyl03-03--=y,---0<0y-3a-l-&9--y;0;*5-<y9--,===:9-;",
"5Nw;;>5&-=w:*$*;=*=:-;5;5g,5g:>e-**3e$;33*$9-l309gxeMg;;0--*;;=j3--$:*:&-08*3-->39;--:059=::=-=;:=yy",
">;9g953;9,>>>=-e====>,wyygMv3;j5a-==-:g00-g30;0lxyxx;yg9j=>e9;5e-*$*8-<-:-030;=30*;*--:e,9->;;*;;==,",
"g39y33-595=;>*;;*,,95,wujjCMal95aa3#:3&,3;:03a0cyeg>;9y,yy,e=->,-3--<--o=3:09ax=3%-%->3a3>=>#%:5,5tj",
"y,;>e>;-;;e,>:%>=>=yueuxjxxl3Me-3;Mj3;0=e-3-a-ll5%>e3;9:55>:>,=>4:0-*$-00al3g9g-0$--;=-a-->=O=*;92yu",
">;-3ey;55;;9;=;y,5ygjx9y9ax$-:053;363-%0j&a$3*00->9,%=;jj=>;==;>-03-8=-a00-0Bj9e--990a3=:;;,==5*2y;9",
";>g=yge9=>y;9>ygj900a<y99;ee5*-;;3g-;0;--#--a0-9ey=*;#03-3#-*-a-3y303-0BiclCjlg*=99->;3-=w:;,=>;w;29",
"99e5>>,>j,,;ye=-:--30<,5;,93=:=,-;-&-;-*3a0a-80=aeM-4;3-3$-&-:3a53-0;a;36a5lx99e9y33;--=,==*w,w;--yy",
">2,,9539,;>vy:>:03-aj&-y99e5>*==**-l3&Oa-=:3a0e:yxx-<3g>-;;--*53e3*3e3--aa-00;0y3*-;3>535:==,===,9j9",
"2uxjg5y-;55yj95>-83a0a0,9yN-#=%---**-%-=-:-33l;a9;9jla=#e;*303g0<5;0a0aeMe-0:;--%#;*e9,;:ww%==*9;;9-",
"w->5w-3-;9w9>e,e03ajl00ay9===#-=;e--,>-;--:<e-aa9-;90y-%>wyyagax33<aaB:lal66;=>->=-;;3%5-=*:=#%5y->5",
";>5>-;eejjey9559a0-Ml-80:-:,:-,;;903995930-a;0eaa3y0-==->9yylaj=alj9a0lalg53;3&*;;>y;e33;,N:===>55O%",
"=2;9;339jjjyjy5yaallj-B:%-,-*;ey,3-039y9-90050e53---a;33>;jyygevld0-0-00330;<#*;>;9559>;,2w2,>:,9*##",
";>;;5--a535jxgju00:8l=0355j:#-55,----333*9ry;gl;jy&%00$-eeyxyjyxlMa00a-0-03550*-,y=,5-99,w::,*;;95$;",
"-30-3--899egayey038ja<-0=305<*-8y:-;;=--9Maaa<33aa-30l0-;Ny;axvjala00aa3yy3900$-5;;;0yagx=*=-:%=-;*%",
":-aa:-0a95;0;jj-l08*=-#0yla,-M0:,==3;0;a3xa00aM3-<-a-00-yyjyyjjyac03la0300--03-#=yj;3,y-y:9===&:%3;-",
":::-----e39a0a3e0-:--#=-3jyag8-z0g;a-jk0llja0a3aa30g-aa0j;jj309e0Maa3-aay9-*;3$$=>*=$ve,yy-;y,::y;55",
"**-<-%*a-&y5a00M03-#-#--333;:-avya=a3000ax-33ac0l-*-i03;=->gla3eMBM3CBB0-:e-3--=$=**-ye53=**#,9:;-;5",
"<9,9-3-*-0y-:00-:34*%#$---:3-33-aj3-O34<j=3:00BlB83-al--0;ll0yalgaia0:i-=-5a55-##--3=9>0y>;,3;,-=-=*",
",0e,-8a=-3-j0-y--=--$@*$-00----804-all30--$e<-a-003:560;g3lax33&a-0lj--;-a:35;03----%;$>--y93;=>;*;>",
",=,-----90--%39a----%O$--=-a**-0-=@-aa90a80e3-3aa3330a0l;agxl3=3e0---#-aa0cx09;=*&;9;*;3=-593;-=;-=-",
"=*9e3a-*=*--*-3y0=--*-*%-O-* 0:3:y*:-:30-*---0003-30l;3ae5-<0&=%*-ia--$=-llj#;;3-$;*aX-;3;39;9=-;=-,",
"=#=*;-;*:-*-*-lM-0-**=#+$$=;y:g5393aC3:0*&-=&0=335;--=;e4%-0--<**0-i<CaBBMy0y,09:=%-:-0:39,=3>#*&&*y",
"*5-$*-;,03-:a-l---:**%+*-9*&-,-9;e030300=*-0,-%-y;-$;=0g0ll3#ka3-<da6aMlCy$-,-3:,-=--:,*,993,%=#*,=,",
"#**$$*3>-0*-:a$0-**-=;%539;-;5990-e3la<0-::0:&#j,e5,a9ja-;llCll303aa;;gCy*93,aa0yj=,=3*===:===;==9*O",
"#O**+%-0-3----=0j0a0=9j5,:9*;;=>--30l33-0:--=-38-=3;<-=alalB0ll#<3k0;Cle&j:000lagy**%3*%*:3==;-*==%=",
"$+=$-%-$0--5--3e8-yyyy9=>>=*;0;e=%=05;>3a=3=-*:->exye>3>i---$-0;-5C3-0Bkyvv*aj-8;93-;==:,92=:,===-*+",
"&-$#@&-;-%<-0:%-8,5-9,%-$=:,--9e;--%3>3$3--0$:-,yex-#e3laa*ly-%;:iaecga<<aaj,8a:y-ja=*--52y:2:=>:,=:",
"*8-a-&g--3l00--$=#-,:3;=;;-,,5y3%*-*3-3>-#-=@9-ayye090egalal3-=al0-#xgkg09:--=0-=53=-=;3>,;&*==,,-*=",
"-y-g;9u--<l:-a-$=*g,9#,=5;3;-,e-%;=;55--:,3-0,005,0---ay:all0aM003yjx;Meal3*y9<0=9=;:*35,:=*&;:93::=",
",0-&$0a5-0-0---3%*99*#%%e;-;>53;==::995$;;3->e>9>-*-%->;ye5u53y06l-ly0al0a-;:0j0uw;,=;2yu;ww===>33,=",
"9ag;ey---:803-a3;-5:-*ee>5*-;%;->;;=;,5%-9->;,>;:;u-;w,-g,evx;::a04a9j::j0-39*0=w>2,,;,w>ww>->9=,#39",
";-,;<=g--*:a0z333=,;#-9e;>-3*%**--*;>>,5e3>5e;5>,;e>yg5=gaj550-a0da0:;0le3039:3;>;=,;>>;w,9>9w9=r<=-",
";;9;a0a-:-000g00g=;-9:9:>-->=&;*=-;=y;>*5>-9>=99g>,,,;39yl5*3->--3da,V00a30--0=3,,2;;==>95j=>:>=--r0",
"e5-;-3*<0-8-8yylj>g;,,-3&&*-=#*==,55;5;>---;>,:yu5-5e39=;3-03;->03$*l3;ee0a-;<-0*:>229>>;u:y=>y530-a",
";a3-e5:-jeje80a0y9;90:,5----&*--,>;>;9;;;=-;:e-5e*vy5--*%9>a;ey;<3-3;*%y33--->=-;:>22::y29>;,:>>0<O-",
"--;O=ay03<al3-aa939y3:-3=-y=#+*=;5>3:;==3-3;=e>>ej;9;-;50;l5--*0<5:333,-::-3*%-;,2;::;>9,,=w2,5900$3",
"0M-;*0a390a00--j*3j-=-::9==9*>=:%-;;,;*-*=&-,==%*=9y,-9g03l3;*-;:30--;-=-*--**-===;,;;;*=>2,,=:ejx:a",
";a3a3=O0;y33a0yMxe99:l-:,-=;;;-3-:;%-,3>;%+*;*&>>O>y-:;;ye>g9yy,9=;,-**,%=*;,:-3**>>>*,2==>=tjvvxj:5",
"0M0a0&30=39309y-y;3:------93-yg>9;,;*;-;;*=-:;=-:=-w;;9yx5e-y#e>y*$*==;;*==>,=902=,>w=9;9,2#:,w>>,0y",
"l030-3a-39y93-j--;9-,0:::9j3-5,>---3%=>-==--;>;:#-==5,%>-3M9e,e::=*%=;=;-:=:5;0,y>2>=>29=>,,jwwg;y:g",
"3a33:----j:-9=*==-;99==*,399-e;=9-;;=;9>-=-;,,>-&=3;>e*,y,w;;5;#->=;=;;:9-*-*95:;*;>>,;uu;=,==;2-;39",
"--6;:%3=9==-<,*=%-;3--,-0-5;=;;3;-;;;3=;;5::=33,,;59,*--:,%3e5,9y:;==::-*====-*-;99>=;=*=;-=;,;;;-*,",
"-%;--aa:;aSC03-X*=;;=:*:;9>-33--3--;35593-3=3;>9==;;=;;:;-=59eye=#*;9,,;=-&=-;-*=*=;=;&==-;;-,===-;,",
"$;ea:<8a-0lM50-*=yy;=**3a$*-5>;-%$%j5;555>;0>---%*%;;-y,e9,9;33g*=>%5-5;-:=$=3y=***:w;===;--%*=*;;*>",
"-a0d**30:-8lM00;*e05-=905-39;--=-%%;y35>3eae;-0,##;==-:;,3l;,;yy5=%,=:>>>9,*>=5e>=,u>#==9=----->e3;>",
"Bd0-@30a--3aS;le-30--;0-*%-*3;*$*=>=y,5**9y599==%,-;*-95g::;0a9;9-#*;j33539e,395*>:,5=:==::,,=>23=e3",
"0aa#-a3-$$;lj0-%930330-**;3>--a>&,;O59,;==*>;;,,===599:*a:3--33y,,ea-v0a;;;y3;-->,w5e;=*=-=::>,,>==:",
"dBg*<a33-3-0--:*-0<3---*=3;90;--:,=e3>5e5*#==,5-*y---;--a--<,99ejDjeM3,j--;-,j93,5jyy>*--=,,>::2:g;:",
"a00--g033-:00-l=-:--33l;0y=S>-$39%;5=5;>:*%*=,-=%,;jyg>-a---=-,39-=%3<aa>-=-;;-:5,w:,,=:-,ye2=*=-0;=",
"90a90ac3&*$a3---030030e;l,*0--a-9;=9->j5,-3--->e>0;0e9g;a---=0*---$-=0M-j*%-:359ug9-2j5*,,:,:=:%0-33",
"y:M>a-<-=$--=j3--$;*;$;e9*,;;3903=-,059-:,;;->>-jgyCy;:>3$-*a-&#$:=%=-3-,==3>>a;;9=*&,9#=w9:&>=93;9y",
"eg:3-=0;-0<-00-=$*0-:--:030;=30*:*;;,e05;e,3->:*-3;>0g953:0----*-0*#$*30=9>9ya;>e,9;**==w>,=2>>=0aj-",
"x9:=-=y9-a=--3-3--:3=O=5-00al=,%-*->3xe5>5O%-339ela3ey39-aa3--3&----*3-*-$5>3j9jw9wu>%,:%;;:-2>50j0e",
"9e:>:,,;=>>,=>e>0-*%-00al3l3g-r$--,=-l;-0=O==:09yja3::a:-=-;a3;-$3%-*a0--3-:av,j0-:3gg>->*>=5:9-aj>=",
",3*:=,=*;===,,=55;3*-a00-8Bl0i--0r9g8-3930=-9=9y,3::-,0y353;-3;=-a<-;50a-3*-0$-:3:,;>3>=#5e%9&5=,,:,",
",-====*:+&*:j;3y903-0MaMlCalj*-00-,-y--08:,-,,0,39::a=aj53*;y;0-0eg---303-<-a90==--3y-;>--=#:-e5-99e",
"y-3>,=-***%=,y53;e;l<30i0lM00000033;--9-==93y:--yy09e5;>;-g33-a0**--<--=33-4a,,9=93:*&*;-*3y9e>>5=9,"
};
