/* XPM */
static char *a2xpcGFydHouY29t[] = {
/* columns rows colors chars-per-pixel */
"92 50 173 2 ",
"   c #050403",
".  c #150F0D",
"X  c #1E1412",
"o  c #2F1A1A",
"O  c #23221F",
"+  c #1F2223",
"@  c #242423",
"#  c #2C2C2B",
"$  c #2A2625",
"%  c #322823",
"&  c #302F2D",
"*  c #3A2321",
"=  c #30302F",
"-  c #2E3334",
";  c #343434",
":  c #3A3634",
">  c #393836",
",  c #3B3B3B",
"<  c #403F3E",
"1  c #673633",
"2  c #41413E",
"3  c #65433D",
"4  c #3E3F43",
"5  c #3F4144",
"6  c #444444",
"7  c #4A4644",
"8  c #494846",
"9  c #454649",
"0  c #47494B",
"q  c #4B4B4B",
"w  c #554D4A",
"e  c #51504E",
"r  c #5A524C",
"t  c #4D4E50",
"y  c #4F5152",
"u  c #535454",
"i  c #585554",
"p  c #5B5956",
"a  c #53565A",
"s  c #57585A",
"d  c #5C5C5C",
"f  c #615E5B",
"g  c #62615E",
"h  c #6B645F",
"j  c #5C5E61",
"k  c #5E6162",
"l  c #636364",
"z  c #6E6766",
"x  c #6E6963",
"c  c #656769",
"v  c #67696A",
"b  c #6A6B6D",
"n  c #736E6C",
"m  c #706C66",
"M  c #75716C",
"N  c #7C776F",
"B  c #6B6E71",
"V  c #706F72",
"C  c #6E7173",
"Z  c #6D737E",
"A  c #727375",
"S  c #797674",
"D  c #7E7973",
"F  c #737679",
"G  c #767A7D",
"H  c #7B7B7D",
"J  c #93635A",
"K  c #817D77",
"L  c #817E7C",
"P  c #887D7D",
"I  c #917E7F",
"U  c #A26F6E",
"Y  c #AC7F77",
"T  c #89857D",
"R  c #83807E",
"E  c #988A7D",
"W  c #757C83",
"Q  c #7B7E82",
"!  c #827F83",
"~  c #7D8186",
"^  c #7D858B",
"/  c #7F8894",
"(  c #838384",
")  c #8B8687",
"_  c #82868A",
"`  c #84888D",
"'  c #8C8B8C",
"]  c #8A8888",
"[  c #9F8787",
"{  c #918D8A",
"}  c #96918C",
"|  c #9D938D",
" . c #848B92",
".. c #898E94",
"X. c #868F98",
"o. c #8C9196",
"O. c #8B939B",
"+. c #87919B",
"@. c #939497",
"#. c #91969C",
"$. c #9B9798",
"%. c #96999D",
"&. c #9C999B",
"*. c #999594",
"=. c #A18585",
"-. c #A39E9B",
";. c #B39F93",
":. c #B6A28E",
">. c #ABA097",
",. c #AEA49C",
"<. c #B0A49B",
"1. c #8C96A2",
"2. c #8F99A5",
"3. c #8E9AAA",
"4. c #959AA1",
"5. c #9A9DA2",
"6. c #969FAA",
"7. c #96A0AD",
"8. c #9AA2AA",
"9. c #9BA3AE",
"0. c #9AA1A7",
"q. c #9AA5B3",
"w. c #9EAABA",
"e. c #9BA8B6",
"r. c #A2A4A7",
"t. c #ACA7A3",
"y. c #A2A5A9",
"u. c #ADACAD",
"i. c #AAA8A9",
"p. c #B9B2AC",
"a. c #B4B1AF",
"s. c #A2AAB2",
"d. c #ABADB2",
"f. c #A5B1BF",
"g. c #ACB2BA",
"h. c #B2B3B5",
"j. c #B3B6BC",
"k. c #B6B9BE",
"l. c #BCBABC",
"z. c #C0ACA9",
"x. c #C3BBB1",
"c. c #C5B8B4",
"v. c #D9CBBE",
"b. c #A9B4C3",
"n. c #AAB7C6",
"m. c #B4BAC2",
"M. c #BABEC4",
"N. c #BEC1C7",
"B. c #B7C0CC",
"V. c #BDC3CB",
"C. c #B6C4D5",
"Z. c #B9C7D6",
"A. c #C6C5C8",
"S. c #D7CDCB",
"D. c #C6CCD4",
"F. c #C9CDD3",
"G. c #C5CED9",
"H. c #D4D6DA",
"J. c #ECDBCC",
"K. c #DEDFE2",
"L. c #D3D9E3",
"P. c #DCE1EA",
"I. c #DFE8F3",
"U. c #E3E2E6",
"Y. c #EDE4E8",
"T. c #E2E7F0",
"R. c #EEEFF2",
"E. c #E6EAF1",
"W. c #F3F5F9",
"Q. c #FDFEFE",
"!. c #F7F9FC",
"~. c None",
"^. c black",
/* pixels */
"~.~.~.~.~.~.~.~.~.~.~.~.~.~.~.~.^.^.^.^.^.^.^.^.^.^.^.^.^.^.^.^.^.^.^.^.^.^.^.^.~.~.~.~.~.~.~.~.~.~.~.~.~.~.~.~.~.~.~.~.~.~.~.~.~.~.~.~.~.~.~.~.~.~.~.~.~.~.~.~.~.~.~.~.~.~.~.~.~.~.~.~.",
"~.~.~.~.~.~.~.~.~.~.~.~.~.~.~.~.^.^.^.^.^.^.^.^.^.^.^.^.^.^.^.^.^.^.^.^.^.^.^.^.~.~.~.~.~.~.~.~.~.~.~.~.~.~.~.~.~.~.~.~.~.~.~.~.~.~.~.~.~.~.~.~.~.~.~.~.~.~.~.~.~.~.~.~.~.~.~.~.~.~.~.~.",
"~.~.~.~.~.~.~.~.~.~.~.~.~.~.~.~.^.^.^.^.^.^.^.^.^.^.^.^.^.^.^.^.^.^.^.^.^.^.^.^.~.~.~.~.~.~.~.~.~.~.~.~.~.~.~.~.~.~.~.~.~.~.~.~.~.~.~.~.~.~.~.~.~.~.~.~.~.~.~.~.~.~.~.~.~.~.~.~.~.~.~.~.",
"~.~.~.~.~.~.~.~.~.~.~.~.~.~.~.~.^.^.^.^.^.^.^.^.^.^.^.^.^.^.^.^.^.^.^.^.^.^.^.^.~.~.~.~.~.~.~.~.~.~.~.~.~.~.~.~.~.~.~.~.~.~.~.~.~.~.~.~.~.~.~.~.~.~.~.~.~.~.~.~.~.~.~.~.~.~.~.~.~.~.~.~.",
"~.~.~.~.~.~.~.~.~.~.~.~.~.~.~.~.^.^.^.^.^.^.^.^.^.^.^.^.^.^.^.^.^.^.^.^.^.^.^.^.~.~.~.~.~.~.~.~.~.~.~.~.~.~.~.~.~.~.~.~.~.~.~.~.~.~.~.~.~.~.~.~.~.~.~.~.~.~.~.~.; ~.~.~.~.~.~.~.~.~.~.~.",
"~.~.~.~.~.~.~.~.~.~.~.~.~.~.~.~.^.^.^.^.^.^.^.^.^.^.^.^.^.^.^.^.^.^.^.^.^.^.^.^.~.~.~.~.~.~.~.~.~.~.~.~.~.~.~.~.~.~.~.~.~.~.~.~.~.~.~.~.~.~.~.~.~.~.~.~.~.~.~.; = ~.~.~.~.~.~.~.~.~.~.~.",
"~.~.~.~.~.~.~.~.~.~.~.~.~.~.~.~.^.^.^.^.^.^.^.^.^.^.^.^.^.^.^.^.^.^.^.^.^.^.^.^.~.~.~.~.~.~.~.~.~.~.~.~.~.~.~.~.~.~.~.~.~.~.~.~.~.~.~.~.~.~.~.~.~.~.~.~.~.~.~.> ; ~.~.~.~.~.~.~.~.~.~.~.",
"~.~.~.~.~.~.~.~.~.~.~.~.~.~.~.~.^.^.^.^.^.^.^.^.^.^.^.^.^.^.^.^.^.^.^.^.^.^.^.^.~.~.~.~.~.~.~.~.~.~.~.~.~.~.~.~.~.~.~.~.~.~.~.~.~.~.~.~.~.~.~.~.~.~.~.~.~.~.8 < # ~.~.~.~.~.~.~.~.~.~.~.",
"~.~.~.~.~.~.~.~.~.~.~.~.~.~.~.~.^.^.^.^.^.^.^.^.^.^.^.^.^.^.^.^.^.^.^.^.^.^.^.^.^.^.^.^.~.~.~.~.~.~.~.~.~.~.~.~.~.~.~.~.~.~.~.~.~.~.~.~.~.~.~.~.~.~.~.~.~.g q > ~.~.~.~.~.~.~.~.~.~.~.~.",
"~.~.~.~.~.~.~.~.~.~.~.~.~.~.~.~.^.^.^.^.^.^.^.^.^.^.^.^.^.^.^.^.^.^.^.^.^.^.^.^.^.^.^.^.~.~.~.~.~.~.~.~.~.~.~.~.~.~.~.~.~.~.~.~.~.~.~.~.~.~.~.~.~.~.~.~.~.p 2 = ~.~.~.~.~.~.~.~.~.~.~.~.",
"~.~.~.~.~.~.~.~.~.~.~.~.~.~.~.~.^.^.^.^.^.^.^.^.^.^.^.^.^.^.^.^.^.^.^.^.^.^.j 5 ^.^.^.^.~.~.~.~.~.~.~.~.~.~.~.~.~.~.~.~.~.~.~.~.~.~.~.~.~.~.~.~.~.~.~.~.8 2 , # ~.~.~.~.~.~.~.~.~.~.~.~.",
"~.~.~.~.~.~.~.~.~.~.~.~.~.~.~.~.^.^.^.^.^.^.^.^.^.^.^.^.^.^.^.^.^.^.^.^.^.a 0 5 ^.^.^.^.~.~.~.~.~.~.~.~.~.~.~.~.~.~.~.~.~.~.~.~.~.~.~.~.~.~.~.~.~.~.~.g 2 2 , ~.~.~.~.~.~.~.~.~.~.~.~.~.",
"~.~.~.~.~.~.~.~.~.~.~.~.~.~.~.~.^.^.^.^.^.^.^.^.^.^.^.^.^.^.^.^.^.^.^.^.^.t t 5 ^.^.~.~.~.~.~.~.~.~.~.~.~.~.~.~.~.~.~.~.~.~.~.~.~.~.~.~.~.~.~.~.~.~.~.p 2 , ; ~.~.~.~.~.~.~.~.~.~.~.~.~.",
"~.~.~.~.~.~.~.~.~.~.~.~.~.~.~.~.^.^.^.^.^.^.^.^.^.^.^.^.^.^.^.^.^.^.^.^.a 0 t 5 ^.^.~.~.~.~.~.~.~.~.~.~.~.~.~.~.~.~.~.~.~.~.~.~.~.~.~.~.~.~.~.~.~.~.M M e < ~.~.~.~.~.~.~.~.~.~.~.~.~.~.",
"~.~.~.~.~.~.~.~.~.~.~.~.~.~.~.~.^.^.^.^.^.^.^.^.^.^.^.^.^.^.^.^.^.^.^.^.a 0 9 5 4 ~.~.~.~.~.~.~.~.~.~.~.~.~.~.~.~.~.~.~.~.~.~.~.~.~.~.~.~.~.~.~.~.~.M M 7 > ~.~.~.~.~.~.~.~.~.~.~.~.~.~.",
"~.~.~.~.~.~.~.~.~.~.~.~.~.~.~.~.^.^.^.^.^.^.^.^.^.^.^.^.^.^.^.^.^.^.^.^.y 9 9 9 4 ~.~.~.~.~.~.~.~.~.~.~.~.~.~.~.~.~.~.~.~.~.~.~.~.~.~.~.~.~.~.~.~.H S M d > ~.~.~.~.~.~.~.~.~.~.~.~.~.~.",
"~.~.~.~.~.~.~.~.~.~.~.~.~.~.~.~.~.~.~.~.~.~.~.~.~.~.~.~.~.~.^.^.^.^.^.k y 6 5 5 5 ~.~.~.~.~.~.~.~.~.~.~.~.~.~.~.~.~.~.~.~.~.~.~.~.~.~.~.~.~.~.~.Q R K M g 2 ~.~.^.^.^.^.^.^.^.^.^.^.^.^.",
"~.~.~.~.~.~.~.~.~.~.~.~.~.~.~.~.~.~.~.~.~.~.~.~.~.~.~.~.~.~.^.^.^.^.^.B k 0 0 5 4 , ~.~.~.~.~.~.~.~.~.~.~.~.~.~.~.~.~.~.~.~.~.s ~.~.~.~.~.~.~.~.` ] T D x i ~.~.^.^.^.^.^.^.^.^.^.^.^.^.",
"~.~.~.~.~.~.~.~.~.~.~.~.~.~.~.~.~.~.~.~.~.~.~.~.~.~.~.~.~.~.~.^.^.^.^.^ ~ ~ k k d a C ~.~.~.~.~.~.~.~.~.~.~.~.~.~.~.~.~.~.~.B d ~.~.~.~.~.~.8.` ( T T D m 7 ~.~.^.^.^.^.^.^.^.^.^.^.^.^.",
"~.~.~.~.~.~.~.~.~.~.~.~.~.~.~.~.~.~.~.~.~.~.~.~.~.~.~.~.~.~.~.s.s.s.9.+./ ^ ~ G ^ ` ` ~ ~ ^ ~ ^ ~ Q ~ W ~ ^ ~ ~ ^ ^ ^ q.e.e.+.X.6.9.7.4.O.O....._ G K g x h ~.~.^.^.^.^.^.^.^.^.^.^.^.^.",
"~.~.~.~.~.~.~.~.~.~.~.~.~.~.~.~.~.~.~.~.~.~.~.~.~.~.~.g.s.5.#.O.#.X. .^  .^ o.H G F F C C C C C C b b b G X.` ^ ^ `  .`  .^  .` ` ` ` ` ( A d 8 q q 8 p N m ~.~.^.^.^.^.^.^.^.^.^.^.^.^.",
"~.~.~.~.~.~.~.~.~.~.~.~.~.~.~.~.~.~.~.~.~.~.~.~.8.O.9.b.f.b.e...^ ^ ` 9.o.~ G Q F C Z C B B B C v v v v c k l c v v c v b c l f p 8 6 6 2 2 , > > 2 e i T R v ~.^.^.^.^.^.^.^.^.^.^.^.^.",
"~.~.~.~.~.~.~.~.~.~.~.~.~.~.~.~.~.~.~.~.~.n.Z.C.n.b.e.e.w.7.2.2.7.~ G ..g.%.~ G ~ Q G C b A b b v v B c c k l l l j l l l d i u q q 6 , : # , l e ; 2 6 e N l ~.^.^.^.^.^.^.^.^.^.^.^.^.",
"~.~.~.~.~.~.~.~.~.~.~.~.~.~.~.~.~.~.~.B.Z.n.f.q.q.1.W +.1.^ W O.#.@.L C k F F A G ~ Q A C b C C C v v c b v b c l l l d d d e 8 7 q q b b ~.~.~.~.f < 7 q e g f ^.^.^.^.^.^.^.^.^.^.^.^.",
"~.~.~.~.~.~.~.~.~.~.~.~.~.~.~.~.~.G.C.3. .W B C a , + t b j A F ( H F C C c C C C C G A A v v b b b b l b l b A C c f s y q 7 ] y.%.y.~.~.~.~.~.~.~.~.] 7 7 2 , ^.^.~.~.~.~.~.~.^.^.^.^.",
"~.~.~.~.~.~.~.~.~.~.~.~.~.~.~.~.I.w. .Z b f j f n l - l S S n L H D c A F v l k v F ~ A B b v A b b b b l l A F A n j y H 0.s.5.~.~.~.~.~.~.~.~.~.~.~.~.> 6 6 > , ^.~.~.~.~.~.~.^.^.^.^.",
"~.~.~.~.~.~.~.~.~.~.~.~.~.~.~.~.b.Z j t f f r r f p l A F B b V Q R A F b b l u v ~ ~ F l c v F c c b c d l A b M.h.k.k.k.0.~.~.~.~.~.~.~.~.~.~.~.~.~.~.~.> > , ; ~.~.~.~.~.~.~.^.^.^.^.",
"~.~.~.~.~.~.~.~.~.~.~.~.~.~.~.~., , i d w E :.E ;.;.S.J.x.l b c b C C C v c s u l A Q F l l l l l c d a p k b v P.E.H.g.~.~.~.~.~.~.~.~.~.~.~.~.~.~.~.~.~.~.# > > ; ~.~.~.~.~.~.^.^.^.^.",
"~.~.~.~.~.~.~.~.~.~.~.~.~.~.~.~.8 p K [ | >.$.p.c.l.S.K.Y.S.p.D j u C v v s 0 u d k A d d d d d p j d a j F H.( !.Q.Q.Q.~.~.~.~.~.~.~.~.~.~.~.~.~.~.~.~.~.~.~.# ; ; ~.~.~.~.~.~.^.^.^.^.",
"~.~.~.~.~.~.~.~.~.~.~.~.~.~.~.~.~.! < w z ( ( @.-.P n z g ) c.c.| K f d y R t 0 u y v k u a d s i y i y k T.P.F.!.Q.Q.Q.~.~.~.~.~.~.~.~.~.~.~.~.~.~.~.~.~.~.~.~.$ # ; ~.~.~.~.~.^.^.^.^.",
"~.~.~.~.~.~.~.~.~.~.~.~.~.~.~.~.~.~.b $ = & % .   % J S.R.A.! { ,.p.>.} <.<.l s 6 6 A _ k t e y u d j 4.P.L.y.G _ o.~.~.~.~.~.~.~.~.~.~.~.~.~.~.~.~.~.~.~.~.~.~.~.~.~.~.~.~.~.~.^.^.^.^.",
"~.~.~.~.~.~.~.~.~.~.~.~.~.~.~.~.~.~.~.h * o o o 1 U Y.W.W.U.H.a.t.u.u.p.k.S ' n 5 6 A _ ..a d { *.N.D.G.L.~.~.~.~.~.~.~.~.~.~.~.~.~.~.~.~.~.~.~.~.~.~.~.~.~.~.~.~.~.~.~.~.~.~.~.^.^.^.^.",
"^.^.^.^.^.^.^.^.^.^.^.^.^.^.^.^.^.^.^.^.=.1 w z.=.! d.i.j.u.i.r.%.r.r.4.~ %.@.5.> 8 y y ..' d.k.N.V.V.D.~.~.~.~.~.~.~.~.~.~.~.~.^.^.^.^.^.^.^.^.^.^.^.^.^.^.^.^.^.^.^.^.^.^.^.^.^.^.^.^.",
"^.^.^.^.^.^.^.^.^.^.^.^.^.^.^.^.^.^.^.^.{ f w 7 i b V ! ! ! ) ..@.' ` ` o.o.o.6 , b v j b r.d.j.M.V.~.~.~.~.~.~.~.~.~.~.~.~.~.~.^.^.^.^.^.^.^.^.^.^.^.^.^.^.^.^.^.^.^.^.^.^.^.^.^.^.^.^.",
"^.^.^.^.^.^.^.^.^.^.^.^.^.^.^.^.^.^.^.^.^.l # & < u c V S ! ! Q H H W W Q B w 6 6 i G W B ( 5.~.~.~.~.~.~.~.~.~.~.~.~.~.~.~.~.~.^.^.^.^.^.^.^.^.^.^.^.^.^.^.^.^.^.^.^.^.^.^.^.^.^.^.^.^.",
"^.^.^.^.^.^.^.^.^.^.^.^.^.^.^.^.^.^.^.^.^.^.^.^.: # , t j c k j b b C k j t a c F _ ..i V _ Q _ ~.~.~.~.~.~.~.~.~.~.~.~.~.~.~.~.^.^.^.^.^.^.^.^.^.^.^.^.^.^.^.^.^.^.^.^.^.^.^.^.^.^.^.^.",
"^.^.^.^.^.^.^.^.^.^.^.^.^.^.^.^.^.^.^.^.^.^.^.^.^.^.^.b , a a c W ^ Q b 0 c Q ^.~.~.~.~.~.~.u ~ _ 4.~.~.~.~.~.~.~.~.~.~.~.~.~.~.^.^.^.^.^.^.^.^.^.^.^.^.^.^.^.^.^.^.^.^.^.^.^.^.^.^.^.^.",
"^.^.^.^.^.^.^.^.^.^.^.^.^.^.^.^.^.^.^.^.^.^.^.^.^.^.^.^.@ ; 9 v , ^.^.^.^.^.^.^.~.~.~.~.~.~.~.~.; v _ #.~.~.~.~.~.~.~.~.~.~.~.~.^.^.^.^.^.^.^.^.^.^.^.^.^.^.^.^.^.^.^.^.^.^.^.^.^.^.^.^.",
"^.^.^.^.^.^.^.^.^.^.^.^.^.^.^.^.^.^.^.^.^.^.^.^.^.^.^.^.@ y ~ _ ~.~.^.^.^.^.^.^.~.~.~.~.~.~.~.~.~.~.~.< b o.~.~.~.~.~.~.~.~.~.~.^.^.^.^.^.^.^.^.^.^.^.^.^.^.^.^.^.^.^.^.^.^.^.^.^.^.^.^.",
"^.^.^.^.^.^.^.^.^.^.^.^.^.^.^.^.^.^.^.^.^.^.^.^.^.^.^.^.$ A  .~ ~.~.^.^.^.^.^.^.~.~.~.~.~.~.~.~.~.~.~.~.~.~.~.A ~.~.~.~.~.~.~.~.^.^.^.^.^.^.^.^.^.^.^.^.^.^.^.^.^.^.^.^.^.^.^.^.^.^.^.^.",
"^.^.^.^.^.^.^.^.^.^.^.^.^.^.^.^.^.^.^.^.^.^.^.^.~.~.~.~.> ~ #.d ~.~.~.~.~.~.~.~.~.~.~.~.~.~.~.~.~.~.~.~.~.~.~.~.~.~.~.~.~.~.~.~.^.^.^.^.^.^.^.^.^.^.^.^.^.^.^.^.^.^.^.^.^.^.^.^.^.^.^.^.",
"^.^.^.^.^.^.^.^.^.^.^.^.^.^.^.^.^.^.^.^.^.^.^.^.~.~.~.~.# ~ #.~.~.~.~.~.~.~.~.~.~.~.~.~.~.~.~.~.~.~.~.~.~.~.~.~.~.~.~.~.~.~.~.~.^.^.^.^.^.^.^.^.^.^.^.^.^.^.^.^.^.^.^.^.^.^.^.^.^.^.^.^.",
"^.^.^.^.^.^.^.^.^.^.^.^.^.^.^.^.^.^.^.^.^.^.^.^.~.~.~.~.@ ` 4.~.~.~.~.~.~.~.~.~.~.~.~.~.~.~.~.~.~.~.~.~.~.~.~.~.~.~.~.~.~.~.~.~.^.^.^.^.^.^.^.^.^.^.^.^.^.^.^.^.^.^.^.^.^.^.^.^.^.^.^.^.",
"^.^.^.^.^.^.^.^.^.^.^.^.^.^.^.^.^.^.^.^.^.^.^.^.~.~.~.~.@ ` #.~.~.~.~.~.~.~.~.~.~.~.~.~.~.~.~.~.~.~.~.~.~.~.~.~.~.~.~.~.~.~.~.~.^.^.^.^.^.^.^.^.^.^.^.^.^.^.^.^.^.^.^.^.^.^.^.^.^.^.^.^.",
"^.^.^.^.^.^.^.^.^.^.^.^.^.^.^.^.^.^.^.^.^.^.^.^.~.~.~.~.~.` ~.~.~.~.~.~.~.~.~.~.~.~.~.~.~.~.~.~.~.~.~.~.~.~.~.~.~.~.~.~.~.~.~.~.^.^.^.^.^.^.^.^.^.^.^.^.^.^.^.^.^.^.^.^.^.^.^.^.^.^.^.^.",
"^.^.^.^.^.^.^.^.^.^.^.^.^.^.^.^.^.^.^.^.^.^.^.^.~.~.~.~.~.~ ~.~.~.~.~.~.~.~.~.~.~.~.~.~.~.~.~.~.~.~.~.~.~.~.~.~.~.~.~.~.~.~.~.~.^.^.^.^.^.^.^.^.^.^.^.^.^.^.^.^.^.^.^.^.^.^.^.^.^.^.^.^.",
"^.^.^.^.^.^.^.^.^.^.^.^.^.^.^.^.^.^.^.^.^.^.^.^.~.~.~.~.~.~.~.~.~.~.~.~.~.~.~.~.~.~.~.~.~.~.~.~.~.~.~.~.~.~.~.~.~.~.~.~.~.~.~.~.^.^.^.^.^.^.^.^.^.^.^.^.^.^.^.^.^.^.^.^.^.^.^.^.^.^.^.^.",
"^.^.^.^.^.^.^.^.^.^.^.^.^.^.^.^.^.^.^.^.^.^.^.^.~.~.~.~.~.~.~.~.~.~.~.~.~.~.~.~.~.~.~.~.~.~.~.~.~.~.~.~.~.~.~.~.~.~.~.~.~.~.~.~.^.^.^.^.^.^.^.^.^.^.^.^.^.^.^.^.^.^.^.^.^.^.^.^.^.^.^.^.",
"^.^.^.^.^.^.^.^.^.^.^.^.^.^.^.^.~.~.~.~.~.~.~.~.~.~.~.~.~.~.~.~.~.~.~.~.~.~.~.~.~.~.~.~.~.~.~.~.~.~.~.~.~.~.~.~.~.~.~.~.~.~.~.~.^.^.^.^.^.^.^.^.^.^.^.^.^.^.^.^.^.^.^.^.^.^.^.^.^.^.^.^.",
"^.^.^.^.^.^.^.^.^.^.^.^.^.^.^.^.~.~.~.~.~.~.~.~.~.~.~.~.~.~.~.~.~.~.~.~.~.~.~.~.~.~.~.~.~.~.~.~.~.~.~.~.~.~.~.~.~.~.~.~.~.~.~.~.^.^.^.^.^.^.^.^.^.^.^.^.^.^.^.^.^.^.^.^.^.^.^.^.^.^.^.^."
};
